<?xml version="1.0" encoding="UTF-8"?><svg xmlns="http://www.w3.org/2000/svg" xmlns:xlink="http://www.w3.org/1999/xlink" viewBox="0 0 246.61 161.57"><defs><style>.cls-1,.cls-2,.cls-3,.cls-4,.cls-5,.cls-6,.cls-7,.cls-8,.cls-9,.cls-10,.cls-11{fill:#fff;}.cls-2{stroke-width:1.55px;}.cls-2,.cls-3,.cls-12,.cls-5,.cls-13,.cls-14,.cls-8,.cls-15,.cls-10,.cls-16,.cls-17,.cls-11,.cls-18{stroke-miterlimit:10;}.cls-2,.cls-11{stroke:#1d1d1b;}.cls-3,.cls-5,.cls-13,.cls-8,.cls-15,.cls-10,.cls-17,.cls-18{stroke:#fff;}.cls-3,.cls-5,.cls-8,.cls-10,.cls-18{stroke-width:5.67px;}.cls-3,.cls-7{opacity:.8;}.cls-19{fill:#898888;}.cls-4,.cls-10{opacity:.9;}.cls-12,.cls-16{stroke:#fdc729;}.cls-12,.cls-20{fill:#fee18b;}.cls-5,.cls-9{opacity:.19;}.cls-21{fill:#dbdcdb;}.cls-22{fill:#9c232e;}.cls-23{clip-path:url(#clippath-2);}.cls-6{font-size:12.88px;}.cls-6,.cls-15,.cls-24,.cls-17,.cls-25{font-family:ARCO-Typography-Regular, 'ARCO Typography';}.cls-26{fill:#f2a84c;}.cls-13{stroke-width:1.58px;}.cls-13,.cls-14,.cls-27,.cls-18{fill:none;}.cls-28{fill:#585657;}.cls-14{stroke:#f2a84c;}.cls-29{clip-path:url(#clippath-1);}.cls-15,.cls-24,.cls-17,.cls-25{font-size:91.93px;}.cls-15,.cls-17{stroke-width:8.5px;}.cls-15,.cls-25,.cls-30{fill:#27a7d9;}.cls-24,.cls-17{fill:#f7d743;}.cls-31{fill:#eaeaea;}.cls-32{fill:#bbbcbb;}.cls-16,.cls-33{fill:#ffd455;}.cls-34{fill:url(#Gradiente_sem_nome_13);}.cls-35{clip-path:url(#clippath);}.cls-36{clip-path:url(#clippath-3);}.cls-37{fill:#9b9b9b;}.cls-38{fill:#cd3234;}.cls-11{stroke-width:1.42px;}</style><clipPath id="clippath"><path class="cls-8" d="M200.61,104l-47.5-1.39c-3.31-.1-5.92-2.96-5.82-6.4h0c.09-3.44,2.85-6.14,6.16-6.05l47.5,1.39c3.31,.1,5.92,2.96,5.82,6.4h0c-.09,3.44-2.85,6.14-6.16,6.05Z"/></clipPath><clipPath id="clippath-1"><path class="cls-8" d="M191.38,113.4c-5.58-.16-9.98-5-9.82-10.8,.16-5.8,4.81-10.37,10.39-10.21s9.98,5,9.82,10.8-4.81,10.37-10.39,10.21"/></clipPath><clipPath id="clippath-2"><path class="cls-27" d="M200.39,103.7l-47.5-1.38c-3.31-.1-5.92-2.95-5.82-6.37h0c.09-3.42,2.85-6.11,6.16-6.02l47.5,1.38c3.31,.1,5.92,2.95,5.82,6.37h0c-.09,3.42-2.85,6.11-6.16,6.02Z"/></clipPath><linearGradient id="Gradiente_sem_nome_13" x1="-327.89" y1="50.37" x2="-327.6" y2="84.26" gradientTransform="translate(523.29 11.68) rotate(1.48) scale(1.09 1) skewX(-.25)" gradientUnits="userSpaceOnUse"><stop offset="0" stop-color="#228dcd"/><stop offset=".06" stop-color="#2e80b1"/><stop offset=".14" stop-color="#3b7395"/><stop offset=".23" stop-color="#45687e"/><stop offset=".33" stop-color="#4e606c"/><stop offset=".45" stop-color="#535a60"/><stop offset=".62" stop-color="#575659"/><stop offset="1" stop-color="#585657"/></linearGradient><clipPath id="clippath-3"><path class="cls-27" d="M191.16,113.06c-5.58-.16-9.98-4.97-9.82-10.74,.16-5.77,4.81-10.32,10.39-10.15s9.98,4.97,9.82,10.74c-.16,5.77-4.81,10.32-10.39,10.15"/></clipPath></defs><g id="Camada_2"><rect class="cls-26" y="0" width="246.61" height="161.57"/><ellipse class="cls-1" cx="125.63" cy="58.06" rx="56.99" ry="55.27"/><rect class="cls-1" x="109.91" y="42.3" width="31.43" height="198.75" rx="11.22" ry="11.22" transform="translate(267.31 16.05) rotate(90)"/><rect class="cls-14" x="31.17" y="129.27" width="188.92" height="24.82" rx="7.77" ry="7.77"/></g><g id="Camada_3"><text class="cls-17" transform="translate(56.75 116.01)"><tspan x="0" y="0">1</tspan></text><text class="cls-15" transform="translate(54.71 115.96)"><tspan x="0" y="0">1</tspan></text><rect class="cls-2" x="98.93" y="90.09" width="19.66" height="5.86" transform="translate(-13.84 19.19) rotate(-9.48)"/><path class="cls-11" d="M129.43,86.33c1.04-1.72-.69-5.22-3.34-6.56-2.99-1.51-7.43-.39-8.66,2.47-.54,1.25-.53,3,.37,4.21,1.45,1.94,4.54,1.58,7.55,1.24,2.24-.26,3.51-.41,4.08-1.36Z"/><path class="cls-11" d="M115.55,86.18c-.57,.38-2.26,1.52-3.06,3.71-.84,2.29-.44,5.04,1.11,6.96,.93,1.15,2.02,1.68,2.78,2.04,.73,.34,3.77,1.77,7.05,.56,4.91-1.82,5.61-7.8,5.66-8.26,.12-1.15,.22-2.11-.28-3.15-1.72-3.62-8.95-4.69-13.27-1.86Z"/><text class="cls-24" transform="translate(57.77 116.01)"><tspan x="0" y="0">1</tspan></text><polygon class="cls-38" points="110 57.09 98.38 29.98 116.05 6.35 145.34 9.84 156.96 36.96 139.29 60.58 110 57.09"/><path class="cls-22" d="M110.31,57.12c2.3-3.05,4.61-6.1,6.91-9.14,.6,.6,7.44,7.15,17.23,5.36,10.04-1.84,13.17-10.77,13.47-11.47,.76-2.58,.96-3.47,1.25-5.37,1.67-11.2-.79-20.76-3.53-26.62,3.87,9.04,7.75,18.07,11.62,27.11l-17.67,23.62-29.29-3.49Z"/><polygon class="cls-13" points="112.42 53.86 102.39 30.45 117.64 10.06 142.92 13.08 152.95 36.48 137.7 56.87 112.42 53.86"/><text class="cls-6" transform="translate(110.5 35.97) rotate(6.79)"><tspan x="0" y="0">pare</tspan></text><rect class="cls-32" x="119.24" y="58.7" width="5.26" height="54.81" transform="translate(11.04 -13.81) rotate(6.79)"/><text class="cls-25" transform="translate(54.71 116.01)"><tspan x="0" y="0">1</tspan></text><path class="cls-11" d="M130.79,91.71c.45-2.24,.98-4.94-.68-6.93-2.02-2.41-6.38-2.73-8.29-.93-.62,.59-.68,1.12-1.24,3.59-1.1,4.91-1.14,12.46-.87,12.74,1.23,1.29,4.54,.41,6.56-.87,3.43-2.17,4.23-6.16,4.52-7.61Z"/><path class="cls-7" d="M80.57,50.95c-3.7,.79-8.28,3.89-17.46,10.09-1.15,.78-3.21,2.21-3.23,4.17,0,.97,.49,2.15,1.39,2.78,3.3,2.32,11.41-3.09,15.68-5.94,4.22-2.82,4.5-3.68,6.59-3.99,4.94-.73,7.74,3.46,10.64,2.04,2.27-1.11,3.47-5.1,2.23-7.42-2.46-4.6-14.18-2.09-15.84-1.73Z"/><g><g><path class="cls-8" d="M165.21,112.26c-6.13-.18-10.97-5.49-10.8-11.86s5.29-11.39,11.42-11.21c6.13,.18,10.97,5.49,10.8,11.86-.17,6.37-5.29,11.39-11.42,11.21"/><path class="cls-8" d="M165.72,112.28c-6.13-.18-10.97-5.49-10.8-11.86,.17-6.37,5.29-11.39,11.42-11.21s10.97,5.49,10.8,11.86c-.17,6.37-5.29,11.39-11.42,11.21"/></g><path class="cls-8" d="M200.62,103.78l-47.5-1.39c-3.31-.1-5.92-2.96-5.82-6.4h0c.09-3.44,2.85-6.14,6.16-6.05l47.5,1.39c3.31,.1,5.92,2.96,5.82,6.4h0c-.09,3.44-2.85,6.14-6.16,6.05Z"/><g><path class="cls-1" d="M200.61,104l-47.5-1.39c-3.31-.1-5.92-2.96-5.82-6.4h0c.09-3.44,2.85-6.14,6.16-6.05l47.5,1.39c3.31,.1,5.92,2.96,5.82,6.4h0c-.09,3.44-2.85,6.14-6.16,6.05Z"/><g class="cls-35"><path class="cls-8" d="M203.8,101.94c2.22,.06,4.11-1.64,4.37-3.93,.27-2.47,.55-5.39,.59-7.19,.16-8.27,.35-17.96-4.14-26.51-6.73-12.85-20.58-16.62-23.23-17.29-1.24-.31-21.43-5.07-30.44,6.53-.82,1.05-3.2,4.38-4.48,17.96-.85,9.05-.68,16.93-.19,23.17,.25,3.2,2.79,5.68,5.88,5.77,8.03,.23,16.06,.47,24.1,.7,9.18,.27,18.37,.54,27.55,.8Z"/></g><path class="cls-18" d="M200.61,104l-47.5-1.39c-3.31-.1-5.92-2.96-5.82-6.4h0c.09-3.44,2.85-6.14,6.16-6.05l47.5,1.39c3.31,.1,5.92,2.96,5.82,6.4h0c-.09,3.44-2.85,6.14-6.16,6.05Z"/></g><path class="cls-8" d="M203.59,100.08c2.22,.06,4.11-1.64,4.37-3.93,.27-2.47,.55-5.39,.59-7.19,.16-8.27,.35-17.96-4.14-26.51-6.73-12.85-20.58-16.62-23.23-17.29-1.24-.31-21.43-5.07-30.44,6.53-.82,1.05-3.2,4.38-4.48,17.96-.85,9.05-.68,16.93-.19,23.17,.25,3.2,2.79,5.68,5.88,5.77,8.03,.23,16.06,.47,24.1,.7,9.18,.27,18.37,.54,27.55,.8Z"/><path class="cls-8" d="M203.63,100.08c2.2,.06,4.07-1.62,4.32-3.88,.27-2.43,.55-5.31,.58-7.09,.16-8.15,.34-17.71-4.1-26.15-6.67-12.67-19.3-16.37-21.93-17.02-1.23-.31,31.76,14.43,11.39,40.44-7.98,10.19-45.06,10.23-47.04-16.32-.68-9.13-1.17,17.15-.5,23.04,.35,3.14,3.08,5.4,6.14,5.49,7.95,.23,15.9,.46,23.86,.7,9.09,.27,18.19,.53,27.28,.8Z"/><path class="cls-5" d="M159.57,78.73c11.69,2.72,27.43-9.88,25.93-19.41-1.21-7.7-13.4-11.58-19.36-12.43-6.02-.85-9.14,.89-9.89,1.34-3.37,2.01-4.82,5.2-5.61,6.95-.57,1.26-4.6,10.48,.24,17.65,3.04,4.5,7.89,5.7,8.69,5.89Z"/><path class="cls-8" d="M148.22,85.23c-.1-9.45-.26-15.15-.32-19.72-.03-2.19,.16-4.38,.95-5.59,4.06-6.23,17.73-9.85,27.62-2.22,3.91,3.02,5.27,8.57,5.32,14.03,.04,4.92-1.5,10.11-4.88,14.55"/><path class="cls-8" d="M190.29,114.71c-6.29-.18-11.25-5.63-11.07-12.17s5.42-11.68,11.71-11.5c6.29,.18,11.25,5.63,11.07,12.17-.18,6.54-5.42,11.68-11.71,11.5"/><path class="cls-8" d="M191.38,113.4c-5.58-.16-9.98-5-9.82-10.8,.16-5.8,4.81-10.37,10.39-10.21s9.98,5,9.82,10.8-4.81,10.37-10.39,10.21"/><path class="cls-10" d="M148.86,84.5c-.1-9.15-.9-14.76-.95-19.19-.03-2.12,.16-4.24,.92-5.41,3.93-6.03,17.17-9.54,26.74-2.15,3.79,2.92,5.1,8.3,5.15,13.58,.04,4.76-1.45,9.79-4.73,14.09"/><path class="cls-8" d="M148.86,84.63c-.1-9.09-.25-14.56-.31-18.96-.03-2.1,.15-4.21,.91-5.37,3.9-5.99,17.05-9.47,26.55-2.13,3.76,2.9,5.06,8.24,5.11,13.49,.04,4.73-1.44,9.72-4.69,13.99"/><path class="cls-10" d="M149.58,73.65c.07-4.65,1.48-8.73,3.36-9.91,2.29-1.44,4.44,1.98,5.03,6.01,.25,1.71,.15,5.75,.07,6.76-.09,.03-.15,.15-.17-.19-.1-2.34-.51-4.4-1.35-6.33-.46-1.06-1.11-2.14-1.93-2.72-1.34-.94-2.33,.02-2.98,.8-.89,1.08-1.21,2.19-1.57,3.32"/><path class="cls-8" d="M149.56,74.3c.07-4.65,1.48-8.73,3.36-9.91,2.29-1.44,4.44,1.98,5.03,6.01,.25,1.71,.15,5.75,.07,6.76-.09,.03-.15,.15-.17-.19-.1-2.34-.51-4.4-1.35-6.33-.46-1.06-1.11-2.14-1.93-2.72-1.34-.94-2.33,.02-2.98,.8-.89,1.08-1.21,2.19-1.57,3.32"/><path class="cls-10" d="M178.42,74.49c.22-4.65-1.97-8.83-5.21-10.16-3.97-1.63-8.04,1.62-9.39,5.59-.57,1.68-.71,5.72-.64,6.74,.16,.04,.26,.16,.31-.17,.36-2.33,1.23-4.34,2.88-6.21,.9-1.02,2.13-2.04,3.64-2.56,2.46-.83,4.14,.21,5.23,1.04,1.5,1.15,1.98,2.28,2.54,3.44"/><path class="cls-8" d="M178.41,75.14c.22-4.65-1.97-8.83-5.21-10.16-3.97-1.63-8.04,1.62-9.39,5.59-.57,1.68-.71,5.72-.64,6.74,.16,.04,.26,.16,.31-.17,.36-2.33,1.23-4.34,2.88-6.21,.9-1.02,2.13-2.04,3.64-2.56,2.46-.83,4.14,.21,5.23,1.04,1.5,1.15,1.98,2.28,2.54,3.44"/><path class="cls-3" d="M168.18,65.52c-.65,.16-1.19,.94-1,1.36,.18,.41,1.09,.53,1.58,.09,.34-.3,.54-.91,.28-1.25-.26-.34-.82-.21-.87-.2Z"/><g><path class="cls-1" d="M191.38,113.4c-5.58-.16-9.98-5-9.82-10.8,.16-5.8,4.81-10.37,10.39-10.21s9.98,5,9.82,10.8-4.81,10.37-10.39,10.21"/><g class="cls-29"><polygon class="cls-8" points="203.76 100.31 179.08 99.58 179.23 93.95 203.91 94.67 203.76 100.31"/></g><path class="cls-18" d="M191.38,113.4c-5.58-.16-9.98-5-9.82-10.8,.16-5.8,4.81-10.37,10.39-10.21s9.98,5,9.82,10.8-4.81,10.37-10.39,10.21"/></g><path class="cls-8" d="M192.25,111.13c-4.34-.13-7.76-3.88-7.64-8.39s3.74-8.06,8.08-7.93c4.34,.13,7.76,3.88,7.64,8.39-.12,4.51-3.74,8.06-8.08,7.93"/><path class="cls-8" d="M192.26,110.55c-4.03-.12-7.2-3.6-7.09-7.79,.11-4.18,3.47-7.48,7.5-7.36,4.03,.12,7.2,3.6,7.09,7.79-.11,4.18-3.47,7.48-7.5,7.36"/><path class="cls-8" d="M186.91,100.01c.37,.89,3.64,3.21,5.64,2.88,.58-2.44-.61-5.51-1.5-6.44-.95-.99-4.76,2.07-4.14,3.55Z"/><path class="cls-8" d="M198.23,105.86c-.37-.89-3.64-3.21-5.64-2.88-.58,2.44,.61,5.51,1.5,6.44,.95,.99,4.76-2.07,4.14-3.56Z"/><path class="cls-8" d="M189.56,108.75c.86-.37,3.16-3.72,2.88-5.81-2.34-.64-5.31,.53-6.22,1.44-.97,.97,1.9,4.98,3.35,4.37Z"/><path class="cls-8" d="M195.39,97.1c-.86,.37-3.16,3.72-2.87,5.81,2.34,.64,5.31-.54,6.22-1.44,.97-.97-1.91-4.98-3.35-4.37Z"/><g><g><path class="cls-8" d="M203.89,98.96c.16-.9,.53-3.58,.41-5.14-.24-3.03-.8-5.22-3.26-8.18-2.07-2.49-4.63-3.31-6-3.73-1.13-.35-4.98-1.46-9.32,.4-.98,.42-5.34,2.42-7.38,7.57-1.47,3.72-.93,7.05-.65,8.32l26.21,.77Z"/><path class="cls-8" d="M202.88,98.38c.12-.65,.39-2.6,.3-3.73-.17-2.2-.58-3.79-2.37-5.94-1.5-1.81-3.36-2.41-4.36-2.71-.82-.25-3.61-1.06-6.77,.29-.71,.3-3.88,1.76-5.36,5.5-1.07,2.7-.67,5.12-.47,6.04l19.03,.56Z"/></g><path class="cls-3" d="M189.64,86.97c-1.38,.33-2.53,2-2.12,2.9,.39,.86,2.32,1.14,3.38,.19,.72-.64,1.15-1.94,.61-2.66-.55-.72-1.76-.45-1.86-.42Z"/></g></g><g><path class="cls-37" d="M164.99,111.92c-6.13-.18-10.97-5.46-10.8-11.8s5.29-11.34,11.42-11.16,10.97,5.46,10.8,11.8-5.29,11.34-11.42,11.16"/><path class="cls-28" d="M165.5,111.94c-6.13-.18-10.97-5.46-10.8-11.8s5.29-11.34,11.42-11.16,10.97,5.46,10.8,11.8c-.17,6.34-5.29,11.34-11.42,11.16"/></g><path class="cls-31" d="M200.4,103.48l-47.5-1.38c-3.31-.1-5.92-2.95-5.82-6.37h0c.09-3.42,2.85-6.11,6.16-6.02l47.5,1.38c3.31,.1,5.92,2.95,5.82,6.37h0c-.09,3.42-2.85,6.11-6.16,6.02Z"/><g class="cls-23"><path class="cls-21" d="M203.58,101.65c2.22,.06,4.11-1.64,4.37-3.91,.27-2.46,.55-5.36,.59-7.16,.16-8.23,.35-17.87-4.14-26.38-6.73-12.78-20.58-16.54-23.23-17.2-1.24-.31-21.43-5.05-30.44,6.49-.82,1.05-3.2,4.35-4.48,17.87-.85,9-.68,16.85-.19,23.05,.25,3.18,2.79,5.65,5.88,5.74,8.03,.23,16.06,.47,24.1,.7,9.18,.27,18.37,.53,27.55,.8Z"/></g><path class="cls-12" d="M203.37,99.8c2.22,.06,4.11-1.64,4.37-3.91,.27-2.46,.55-5.36,.59-7.16,.16-8.23,.35-17.87-4.14-26.38-6.73-12.78-20.58-16.54-23.23-17.2-1.24-.31-21.43-5.05-30.44,6.49-.82,1.05-3.2,4.35-4.48,17.87-.85,9-.68,16.85-.19,23.05,.25,3.18,2.79,5.65,5.88,5.74,8.03,.23,16.06,.47,24.1,.7,9.18,.27,18.37,.53,27.55,.8Z"/><path class="cls-33" d="M203.42,99.8c2.2,.06,4.07-1.61,4.32-3.86,.27-2.42,.55-5.29,.58-7.06,.16-8.11,.34-17.62-4.1-26.02-6.67-12.61-19.3-16.29-21.93-16.94-1.23-.3,31.76,14.36,11.39,40.24-7.98,10.14-45.06,10.18-47.04-16.24-.68-9.09-1.17,17.06-.5,22.93,.35,3.13,3.08,5.38,6.14,5.47,7.95,.23,15.9,.46,23.86,.69,9.09,.26,18.19,.53,27.28,.79Z"/><path class="cls-9" d="M159.35,78.56c11.69,2.7,27.43-9.83,25.93-19.31-1.21-7.66-13.4-11.52-19.36-12.37-6.02-.85-9.14,.89-9.89,1.34-3.37,2-4.82,5.18-5.61,6.92-.57,1.25-4.6,10.43,.24,17.56,3.04,4.47,7.89,5.67,8.69,5.86Z"/><path class="cls-28" d="M148,85.03c-.1-9.41-.26-15.07-.32-19.62-.03-2.17,.16-4.36,.95-5.56,4.06-6.19,17.73-9.8,27.62-2.21,3.91,3.01,5.27,8.53,5.32,13.96,.04,4.9-1.5,10.06-4.88,14.48"/><path class="cls-28" d="M190.08,114.35c-6.29-.18-11.25-5.6-11.07-12.11s5.42-11.63,11.71-11.44c6.29,.18,11.25,5.6,11.07,12.11s-5.42,11.63-11.71,11.44"/><path class="cls-37" d="M191.16,113.06c-5.58-.16-9.98-4.97-9.82-10.74,.16-5.77,4.81-10.32,10.39-10.15s9.98,4.97,9.82,10.74c-.16,5.77-4.81,10.32-10.39,10.15"/><path class="cls-4" d="M148.64,84.29c-.1-9.11-.9-14.69-.95-19.09-.03-2.11,.16-4.22,.92-5.38,3.93-6,17.17-9.49,26.74-2.14,3.79,2.91,5.1,8.26,5.15,13.52,.04,4.74-1.45,9.74-4.73,14.02"/><path class="cls-34" d="M148.64,84.43c-.1-9.04-.25-14.49-.31-18.86-.03-2.09,.15-4.19,.91-5.34,3.9-5.96,17.05-9.42,26.55-2.12,3.76,2.89,5.06,8.2,5.11,13.42,.04,4.71-1.44,9.68-4.69,13.92"/><path class="cls-4" d="M149.36,73.5c.07-4.63,1.48-8.69,3.36-9.86,2.29-1.44,4.44,1.97,5.03,5.98,.25,1.7,.15,5.72,.07,6.73-.09,.03-.15,.15-.17-.19-.1-2.33-.51-4.37-1.35-6.3-.46-1.06-1.11-2.13-1.93-2.7-1.34-.94-2.33,.02-2.98,.8-.89,1.08-1.21,2.18-1.57,3.3"/><path class="cls-30" d="M149.34,74.15c.07-4.63,1.48-8.69,3.36-9.86,2.29-1.44,4.44,1.97,5.03,5.98,.25,1.7,.15,5.72,.07,6.73-.09,.03-.15,.15-.17-.19-.1-2.33-.51-4.37-1.35-6.3-.46-1.06-1.11-2.13-1.93-2.7-1.34-.94-2.33,.02-2.98,.8-.89,1.08-1.21,2.18-1.57,3.3"/><path class="cls-4" d="M178.21,74.34c.22-4.62-1.97-8.79-5.21-10.11-3.97-1.62-8.04,1.61-9.39,5.57-.57,1.67-.71,5.69-.64,6.71,.16,.04,.26,.16,.31-.17,.36-2.31,1.23-4.32,2.88-6.18,.9-1.02,2.13-2.03,3.64-2.54,2.46-.83,4.14,.2,5.23,1.04,1.5,1.15,1.98,2.27,2.54,3.42"/><path class="cls-30" d="M178.19,74.98c.22-4.62-1.97-8.79-5.21-10.11-3.97-1.62-8.04,1.61-9.39,5.57-.57,1.67-.71,5.69-.64,6.71,.16,.04,.26,.16,.31-.17,.36-2.31,1.23-4.32,2.88-6.18,.9-1.02,2.13-2.03,3.64-2.54,2.46-.83,4.14,.2,5.23,1.04,1.5,1.15,1.98,2.27,2.54,3.42"/><g class="cls-36"><polygon class="cls-19" points="203.54 100.02 178.86 99.31 179.02 93.7 203.69 94.42 203.54 100.02"/></g><path class="cls-28" d="M192.03,110.8c-4.34-.13-7.76-3.86-7.64-8.35,.12-4.49,3.74-8.02,8.08-7.89,4.34,.13,7.76,3.86,7.64,8.35-.12,4.49-3.74,8.02-8.08,7.89"/><path class="cls-33" d="M192.05,110.22c-4.03-.12-7.2-3.59-7.09-7.75,.11-4.16,3.47-7.44,7.5-7.33,4.03,.12,7.2,3.59,7.09,7.75-.11,4.16-3.47,7.44-7.5,7.33"/><path class="cls-20" d="M186.7,99.73c.37,.88,3.64,3.2,5.64,2.87,.58-2.43-.61-5.48-1.5-6.4-.95-.99-4.76,2.06-4.14,3.54Z"/><path class="cls-20" d="M198.01,105.55c-.37-.88-3.64-3.2-5.64-2.87-.58,2.43,.61,5.48,1.5,6.4,.95,.99,4.76-2.06,4.14-3.54Z"/><path class="cls-20" d="M189.34,108.43c.86-.36,3.16-3.7,2.88-5.78-2.34-.64-5.31,.53-6.22,1.43-.97,.97,1.9,4.95,3.35,4.35Z"/><path class="cls-20" d="M195.17,96.84c-.86,.36-3.16,3.7-2.87,5.78,2.34,.64,5.31-.53,6.22-1.44,.97-.97-1.91-4.95-3.35-4.34Z"/><g><g><path class="cls-16" d="M203.67,98.69c.16-.9,.53-3.56,.41-5.12-.24-3.01-.8-5.19-3.26-8.14-2.07-2.48-4.63-3.3-6-3.72-1.13-.34-4.98-1.45-9.32,.39-.98,.42-5.34,2.41-7.38,7.53-1.47,3.7-.93,7.02-.65,8.28l26.21,.76Z"/><path class="cls-20" d="M202.66,98.1c.12-.65,.39-2.58,.3-3.71-.17-2.19-.58-3.77-2.37-5.91-1.5-1.8-3.36-2.39-4.36-2.7-.82-.25-3.61-1.05-6.77,.29-.71,.3-3.88,1.75-5.36,5.47-1.07,2.69-.67,5.1-.47,6.01l19.03,.55Z"/></g><path class="cls-7" d="M189.43,86.75c-1.38,.33-2.53,1.99-2.12,2.88,.39,.86,2.32,1.13,3.38,.19,.72-.64,1.15-1.93,.61-2.65-.55-.72-1.76-.45-1.86-.42Z"/></g><path class="cls-30" d="M169.78,67.08c-2.85,.79-4.31,3.05-4.88,3.92-.45,.69-2.78,4.28-1.65,6.42,1.78,3.41,12.37,3.43,14.52-1.67,.99-2.34,.27-5.93-2.01-7.77-2.36-1.9-5.34-1.08-5.98-.9Z"/><path class="cls-30" d="M154.07,66.24c1.59,.79,2.41,3.05,2.73,3.92,.25,.69,1.55,4.28,.92,6.42-1,3.41-6.91,3.43-8.11-1.67-.55-2.34-.15-5.93,1.12-7.77,1.32-1.9,2.98-1.08,3.34-.9Z"/><path class="cls-7" d="M168.34,66.82c-.94,.23-1.73,1.36-1.45,1.97,.27,.59,1.59,.77,2.31,.13,.49-.44,.79-1.32,.41-1.81-.37-.49-1.2-.3-1.27-.29Z"/><path class="cls-7" d="M152.75,66.02c-.94,.23-1.73,1.36-1.45,1.97,.27,.59,1.59,.77,2.31,.13,.49-.44,.79-1.32,.41-1.81-.37-.49-1.2-.3-1.27-.29Z"/><g><path class="cls-33" d="M47.06,145.85c-.08-.09-.13-.2-.13-.33,0-.43,.07-1.07,.23-1.94,.16-.86,.36-1.76,.6-2.69,.24-.93,.49-1.8,.76-2.62,.27-.81,.5-1.39,.7-1.72,.08-.13,.31-.24,.7-.35s.81-.18,1.28-.22c.47-.04,.92-.04,1.35,0,.43,.04,.74,.14,.91,.3,.25,.24,.54,.76,.88,1.57,.34,.81,.67,1.69,.99,2.64,.32,.95,.61,1.87,.87,2.74,.26,.88,.43,1.49,.51,1.86,.06,.27,.04,.45-.05,.55s-.25,.18-.48,.22c-.39,.07-.87,.12-1.45,.15-.58,.03-.94,.04-1.08,.02-.06,0-.11-.03-.16-.06-.16-.1-.31-.38-.46-.84-.15-.46-.29-.78-.43-.95-.08-.1-.2-.16-.33-.18h-1.09c-.34,0-.56,.12-.66,.33-.13,.28-.28,.59-.45,.93s-.29,.55-.37,.63c-.04,.05-.1,.08-.18,.1-.18,.04-.61,.05-1.28,.03-.67-.02-1.06-.09-1.15-.2Zm4.3-5.85c-.15,.15-.29,.41-.43,.78s-.2,.6-.16,.72c.07,.19,.35,.28,.86,.26,.51-.02,.78-.14,.83-.37,.03-.14-.11-.45-.4-.94-.29-.49-.52-.64-.7-.45Z"/><path class="cls-33" d="M62.58,139.24c-.4-.02-.76,.02-1.07,.13-.43,.15-.74,.4-.93,.74s-.27,.69-.23,1.04c.04,.35,.21,.67,.49,.94,.28,.28,.69,.43,1.22,.45,.38,0,.6-.12,.64-.37s.08-.5,.12-.75c-.02-.17,.15-.31,.49-.43,.34-.12,.73-.2,1.16-.24,.43-.04,.82-.03,1.19,.02s.57,.17,.59,.35c.04,.33,.08,.75,.1,1.26,.02,.51,.03,1.01,.03,1.51,0,.49-.03,.93-.06,1.31-.04,.38-.09,.6-.17,.67-.07,.09-.42,.15-1.06,.17s-1.09-.01-1.36-.09c-.04,0-.08-.04-.12-.11-.79,.19-1.58,.26-2.35,.21-1.36-.11-2.5-.64-3.42-1.6-.92-.96-1.3-2.14-1.15-3.55,.17-1.54,.73-2.74,1.68-3.6s2.15-1.33,3.59-1.41c.95-.04,1.82,.15,2.6,.58,.78,.43,1.18,1.22,1.2,2.35,.02,.17-.09,.32-.33,.43-.23,.12-.51,.21-.83,.28-.32,.07-.64,.11-.95,.14-.31,.02-.54,.02-.68,0-.19-.03-.28-.1-.27-.23,0-.12-.04-.19-.13-.21Z"/><path class="cls-33" d="M73.41,136.47c0-.12,.18-.21,.54-.28,.35-.07,.75-.1,1.18-.11,.43,0,.84,.03,1.21,.1s.6,.19,.67,.34c.09,.23,.16,.64,.2,1.22,.04,.58,.04,1.21,.02,1.89-.02,.68-.08,1.35-.18,2s-.23,1.17-.4,1.55c-.37,.81-.91,1.48-1.63,1.99s-1.53,.8-2.45,.88c-1.16,.08-2.24-.2-3.24-.85s-1.69-1.51-2.08-2.58c-.13-.35-.22-.85-.28-1.5-.06-.65-.08-1.32-.08-1.99,0-.67,.04-1.28,.12-1.83s.19-.9,.33-1.04c.12-.12,.38-.2,.78-.24,.39-.04,.8-.05,1.22-.03,.42,.02,.8,.07,1.13,.15s.49,.18,.49,.29c0,.34-.04,.83-.09,1.45-.05,.62-.06,1.24-.04,1.86s.12,1.16,.28,1.63,.45,.73,.87,.77c.45,.05,.77-.15,.97-.62,.2-.47,.32-1.02,.38-1.66,.06-.64,.08-1.29,.06-1.94-.02-.65-.02-1.13,0-1.45Z"/><path class="cls-33" d="M77.9,145.85c-.08-.09-.13-.2-.13-.33,0-.43,.07-1.07,.23-1.94,.16-.86,.36-1.76,.6-2.69,.24-.93,.49-1.8,.76-2.62,.27-.81,.5-1.39,.7-1.72,.08-.13,.31-.24,.7-.35s.81-.18,1.28-.22c.47-.04,.92-.04,1.35,0,.43,.04,.74,.14,.91,.3,.25,.24,.54,.76,.88,1.57,.34,.81,.67,1.69,.99,2.64,.32,.95,.61,1.87,.87,2.74,.26,.88,.43,1.49,.51,1.86,.06,.27,.04,.45-.05,.55s-.25,.18-.48,.22c-.39,.07-.87,.12-1.45,.15-.58,.03-.94,.04-1.08,.02-.06,0-.11-.03-.16-.06-.16-.1-.31-.38-.46-.84-.15-.46-.29-.78-.43-.95-.08-.1-.2-.16-.33-.18h-1.09c-.34,0-.56,.12-.66,.33-.13,.28-.28,.59-.45,.93s-.29,.55-.37,.63c-.04,.05-.1,.08-.18,.1-.18,.04-.61,.05-1.28,.03-.67-.02-1.06-.09-1.15-.2Zm4.3-5.85c-.15,.15-.29,.41-.43,.78s-.2,.6-.16,.72c.07,.19,.35,.28,.86,.26,.51-.02,.78-.14,.83-.37,.03-.14-.11-.45-.4-.94-.29-.49-.52-.64-.7-.45Z"/><path class="cls-33" d="M94.65,141.81c.45,.38,.85,.74,1.19,1.09,.34,.35,.51,.62,.52,.8,0,.13-.07,.32-.22,.57-.15,.25-.31,.5-.5,.76-.19,.25-.37,.47-.55,.66-.18,.19-.3,.29-.37,.29-.29,.06-.71-.09-1.26-.45-.55-.36-.99-.59-1.33-.71-.33-.1-.5-.06-.53,.13,0,.32-.02,.56-.09,.73s-.28,.27-.65,.31c-.42,.04-.91,.07-1.46,.07s-.89,0-1.04-.04c-.1-.02-.18-.08-.25-.17-.09-.12-.18-.67-.29-1.64-.1-.98-.18-2.04-.24-3.18-.06-1.14-.08-2.19-.08-3.14,0-.95,.08-1.47,.21-1.54,.48-.27,1.13-.46,1.94-.58,.81-.12,1.61-.1,2.42,.06,.8,.16,1.52,.49,2.16,.99,.63,.5,1.02,1.24,1.16,2.2,.18,1.29-.07,2.22-.76,2.79Zm-3.33-1.26c.34-.04,.6-.16,.78-.37,.19-.21,.28-.43,.27-.66,0-.23-.11-.43-.32-.6s-.54-.23-.98-.18c-.36,.04-.5,.36-.43,.96,.08,.6,.3,.88,.67,.85Z"/><path class="cls-33" d="M105.31,143.09c-.49,1.15-1.26,1.94-2.32,2.37-1.06,.43-2.17,.63-3.33,.61-.4,0-.78-.04-1.15-.08-.37-.05-.63-.1-.8-.18-.26-.11-.46-.63-.62-1.58-.16-.95-.25-1.99-.28-3.11-.03-1.13,0-2.18,.09-3.15,.09-.97,.26-1.54,.52-1.69,.25-.16,.64-.28,1.15-.35,.83-.11,1.72-.1,2.68,.03,.96,.14,1.78,.47,2.44,1,.88,.71,1.47,1.65,1.79,2.81,.32,1.17,.26,2.27-.18,3.31Zm-5.01-2.97c-.08,.24-.09,.6-.05,1.07s.14,.75,.29,.83c.07,.04,.21,.06,.42,.05,.35,0,.64-.09,.88-.24,.24-.15,.37-.37,.4-.66,.03-.36-.1-.66-.39-.91-.29-.25-.59-.39-.91-.42-.13,0-.26,0-.39,.03-.13,.03-.22,.11-.25,.25Z"/><path class="cls-33" d="M106.56,145.85c-.08-.09-.13-.2-.13-.33,0-.43,.07-1.07,.23-1.94,.16-.86,.36-1.76,.6-2.69,.24-.93,.49-1.8,.76-2.62,.27-.81,.5-1.39,.7-1.72,.08-.13,.31-.24,.7-.35,.39-.1,.81-.18,1.28-.22,.47-.04,.92-.04,1.35,0,.43,.04,.74,.14,.91,.3,.25,.24,.54,.76,.88,1.57,.34,.81,.67,1.69,.99,2.64,.32,.95,.61,1.87,.87,2.74,.26,.88,.43,1.49,.51,1.86,.06,.27,.04,.45-.05,.55s-.25,.18-.48,.22c-.39,.07-.87,.12-1.45,.15-.58,.03-.94,.04-1.08,.02-.06,0-.11-.03-.16-.06-.16-.1-.31-.38-.46-.84-.15-.46-.29-.78-.43-.95-.08-.1-.19-.16-.33-.18h-1.09c-.34,0-.56,.12-.66,.33-.13,.28-.28,.59-.45,.93s-.29,.55-.37,.63c-.04,.05-.1,.08-.18,.1-.18,.04-.61,.05-1.28,.03-.67-.02-1.06-.09-1.15-.2Zm4.3-5.85c-.15,.15-.29,.41-.43,.78s-.2,.6-.16,.72c.07,.19,.35,.28,.86,.26,.51-.02,.78-.14,.83-.37,.03-.14-.11-.45-.4-.94-.29-.49-.52-.64-.7-.45Z"/><path class="cls-33" d="M123.31,141.81c.45,.38,.85,.74,1.19,1.09,.34,.35,.51,.62,.52,.8,0,.13-.07,.32-.22,.57-.15,.25-.31,.5-.5,.76-.19,.25-.37,.47-.55,.66-.18,.19-.3,.29-.36,.29-.29,.06-.71-.09-1.26-.45-.55-.36-.99-.59-1.33-.71-.33-.1-.5-.06-.53,.13,0,.32-.02,.56-.09,.73-.06,.17-.28,.27-.65,.31-.42,.04-.91,.07-1.46,.07s-.89,0-1.04-.04c-.1-.02-.18-.08-.25-.17-.09-.12-.18-.67-.29-1.64-.1-.98-.18-2.04-.24-3.18-.06-1.14-.08-2.19-.08-3.14,0-.95,.08-1.47,.21-1.54,.48-.27,1.13-.46,1.94-.58,.81-.12,1.61-.1,2.42,.06,.8,.16,1.52,.49,2.15,.99,.63,.5,1.02,1.24,1.16,2.2,.18,1.29-.07,2.22-.76,2.79Zm-3.33-1.26c.34-.04,.6-.16,.78-.37,.19-.21,.28-.43,.28-.66s-.11-.43-.32-.6-.54-.23-.98-.18c-.36,.04-.51,.36-.43,.96,.08,.6,.3,.88,.67,.85Z"/><path class="cls-33" d="M136.62,145.74c-.09,.18-.55,.28-1.39,.31s-1.42-.02-1.76-.17c-.17-.07-.27-.66-.3-1.78-.03-1.12-.07-2.26-.11-3.44-.29,.12-.58,.23-.87,.33s-.48,.15-.55,.13c-.2,0-.48-.31-.83-.95-.36-.64-.55-1.14-.58-1.52-.01-.17,.24-.47,.77-.89,.52-.42,1.26-.93,2.22-1.52,.17-.11,.46-.2,.87-.26s.83-.09,1.25-.07c.42,.01,.8,.07,1.14,.18,.33,.11,.51,.27,.54,.5,.07,.64,.1,1.45,.11,2.43s0,1.95-.05,2.9c-.04,.95-.1,1.79-.18,2.53-.08,.73-.17,1.16-.27,1.3Z"/><path class="cls-33" d="M147.05,139.18c-.09,0-.18-.02-.25-.07-.09-.07-.14-.14-.14-.22,0-.08-.05-.15-.14-.23-.22-.17-.5-.14-.84,.09-.34,.23-.2,.42,.42,.54,.07,.01,.14,.03,.22,.04,.08,.02,.16,.03,.25,.04,1.02,.18,1.82,.48,2.41,.91,.72,.53,1.14,1.22,1.25,2.08,.11,.85-.13,1.62-.71,2.3-.69,.8-1.62,1.26-2.8,1.38s-2.2-.13-3.05-.74c-.74-.52-1.2-1.17-1.39-1.96-.08-.37,.11-.66,.56-.86,.2-.09,.42-.16,.66-.2,.24-.04,.47-.06,.69-.07,.36,0,.69,.04,.98,.13,.29,.09,.46,.21,.5,.37,0,.03,.02,.06,.03,.09,.05,.11,.14,.19,.28,.25,.16,.07,.35,.06,.57-.03,.22-.09,.28-.23,.19-.44-.05-.1-.18-.18-.4-.24-.52-.15-1.03-.26-1.54-.34-.51-.08-1-.29-1.46-.63-.33-.24-.59-.57-.78-.98s-.25-.97-.19-1.65c.09-.92,.53-1.68,1.33-2.28,.47-.35,1-.58,1.6-.7,.6-.12,1.18-.12,1.75,0,.57,.12,1.08,.35,1.53,.7,.45,.35,.77,.82,.94,1.4,.07,.23,0,.42-.19,.58-.19,.16-.43,.29-.72,.4-.29,.11-.58,.19-.88,.24s-.53,.08-.68,.09Z"/><path class="cls-33" d="M155.03,142.54c.77,0,1.47-.03,2.09-.07,.62-.04,.99,0,1.1,.13,.12,.1,.21,.52,.26,1.27,.05,.75,.03,1.29-.06,1.62-.04,.14-.39,.26-1.04,.35-.65,.09-1.38,.16-2.19,.19-.81,.03-1.58,.04-2.33,.02-.74-.02-1.23-.08-1.45-.18-.13-.05-.24-.41-.33-1.07s-.15-1.43-.2-2.32-.08-1.79-.09-2.71c0-.92,0-1.67,.03-2.25,0-.32,.03-.61,.08-.87,.05-.26,.13-.43,.25-.49s.5-.12,1.17-.17c.67-.05,1.39-.08,2.16-.09,.77-.01,1.49,0,2.15,.04,.66,.04,1.04,.1,1.13,.2,.12,.1,.19,.48,.2,1.15s-.03,1.17-.12,1.52c-.05,.16-.36,.26-.93,.29s-1.24,.07-2.01,.1c0,.05,0,.11,0,.19,0,.07,0,.13,.01,.19,.5,0,.91,.05,1.22,.11,.08,.02,.15,.15,.22,.39s.12,.5,.15,.79c.03,.29,.03,.55,0,.79-.03,.24-.11,.37-.23,.39-.09,.03-.25,.05-.48,.07s-.49,.03-.77,.04v.39Z"/><path class="cls-33" d="M164.87,139.24c-.4-.02-.76,.02-1.07,.13-.43,.15-.74,.4-.93,.74s-.27,.69-.23,1.04c.04,.35,.21,.67,.49,.94,.28,.28,.69,.43,1.22,.45,.38,0,.6-.12,.64-.37s.08-.5,.12-.75c-.02-.17,.15-.31,.49-.43,.34-.12,.73-.2,1.16-.24,.43-.04,.82-.03,1.19,.02s.57,.17,.59,.35c.04,.33,.08,.75,.1,1.26,.02,.51,.03,1.01,.03,1.51,0,.49-.03,.93-.06,1.31-.04,.38-.09,.6-.17,.67-.07,.09-.42,.15-1.06,.17s-1.09-.01-1.36-.09c-.04,0-.08-.04-.12-.11-.79,.19-1.58,.26-2.35,.21-1.36-.11-2.5-.64-3.42-1.6-.92-.96-1.3-2.14-1.15-3.55,.17-1.54,.73-2.74,1.68-3.6s2.15-1.33,3.59-1.41c.95-.04,1.82,.15,2.6,.58,.78,.43,1.18,1.22,1.2,2.35,.02,.17-.09,.32-.33,.43-.23,.12-.51,.21-.83,.28-.32,.07-.64,.11-.95,.14-.31,.02-.54,.02-.68,0-.19-.03-.28-.1-.27-.23,0-.12-.04-.19-.13-.21Z"/><path class="cls-33" d="M175.69,136.47c0-.12,.18-.21,.54-.28,.35-.07,.75-.1,1.18-.11,.43,0,.84,.03,1.21,.1s.6,.19,.67,.34c.09,.23,.16,.64,.2,1.22,.04,.58,.04,1.21,.02,1.89-.02,.68-.08,1.35-.18,2s-.23,1.17-.4,1.55c-.37,.81-.91,1.48-1.63,1.99s-1.53,.8-2.45,.88c-1.16,.08-2.24-.2-3.24-.85s-1.69-1.51-2.08-2.58c-.13-.35-.22-.85-.28-1.5-.06-.65-.08-1.32-.08-1.99,0-.67,.04-1.28,.12-1.83s.19-.9,.33-1.04c.12-.12,.38-.2,.78-.24,.39-.04,.8-.05,1.22-.03,.42,.02,.8,.07,1.13,.15s.49,.18,.49,.29c0,.34-.04,.83-.09,1.45-.05,.62-.06,1.24-.04,1.86s.12,1.16,.28,1.63,.45,.73,.87,.77c.45,.05,.77-.15,.97-.62,.2-.47,.32-1.02,.38-1.66,.06-.64,.08-1.29,.06-1.94-.02-.65-.02-1.13,0-1.45Z"/><path class="cls-33" d="M189.66,145.74c-.05,.11-.21,.18-.48,.23-.27,.05-.56,.08-.88,.09-.32,0-.63,0-.92-.03-.29-.03-.49-.06-.6-.11-.15-.07-.37-.24-.66-.53-.29-.28-.58-.59-.88-.93-.3-.33-.57-.65-.82-.94-.25-.3-.4-.49-.47-.58-.07,.79-.13,1.46-.21,2.03-.07,.56-.16,.87-.27,.92-.33,.15-.89,.21-1.69,.17s-1.24-.14-1.32-.32c-.1-.13-.18-.58-.25-1.33-.07-.76-.12-1.62-.14-2.61-.02-.98-.02-1.98,0-2.98,.03-1.01,.09-1.83,.19-2.47,.02-.13,.17-.23,.47-.29s.63-.11,1.01-.12c.38-.01,.77,0,1.15,.05,.39,.04,.68,.11,.89,.2,.3,.14,.69,.5,1.14,1.09,.46,.59,.79,1.04,1,1.35-.01-.47-.03-.89-.04-1.26-.02-.36-.01-.63,0-.81,0-.21,.21-.37,.61-.48,.4-.11,.83-.17,1.31-.19,.47-.02,.91,.02,1.31,.1s.61,.2,.63,.36c.07,.65,.11,1.48,.12,2.49s.02,2.01,0,2.99c-.02,.98-.04,1.85-.09,2.6-.04,.75-.09,1.19-.14,1.31Z"/><path class="cls-33" d="M198.92,143.09c-.49,1.15-1.26,1.94-2.32,2.37-1.06,.43-2.17,.63-3.33,.61-.4,0-.78-.04-1.15-.08-.37-.05-.63-.1-.8-.18-.26-.11-.46-.63-.62-1.58-.16-.95-.25-1.99-.28-3.11-.03-1.13,0-2.18,.09-3.15,.09-.97,.26-1.54,.52-1.69,.25-.16,.64-.28,1.15-.35,.83-.11,1.72-.1,2.68,.03,.96,.14,1.78,.47,2.44,1,.88,.71,1.47,1.65,1.79,2.81,.32,1.17,.26,2.27-.18,3.31Zm-5.01-2.97c-.08,.24-.09,.6-.05,1.07s.14,.75,.29,.83c.07,.04,.21,.06,.42,.05,.35,0,.64-.09,.88-.24,.24-.15,.37-.37,.4-.66,.03-.36-.1-.66-.39-.91-.29-.25-.59-.39-.91-.42-.13,0-.26,0-.39,.03-.13,.03-.22,.11-.25,.25Z"/><path class="cls-33" d="M210.18,141.71c-.23,1.39-.9,2.52-2.03,3.37-1.12,.85-2.42,1.16-3.91,.91-1.43-.24-2.56-.92-3.38-2.05-.82-1.13-1.12-2.38-.9-3.75,.21-1.27,.82-2.34,1.85-3.21,1.02-.86,2.21-1.24,3.57-1.12,1.64,.14,2.91,.76,3.82,1.86s1.24,2.43,.98,3.98Zm-3.81-.56c.06-.38,0-.7-.21-.97-.21-.27-.5-.43-.9-.5-.37-.06-.7,.02-.98,.24s-.45,.51-.5,.85c-.07,.41,.04,.77,.34,1.09s.67,.45,1.11,.39c.3-.03,.56-.15,.76-.36,.2-.21,.33-.46,.38-.74Z"/></g><g><path class="cls-30" d="M45.91,145.85c-.08-.09-.13-.2-.13-.32,0-.43,.07-1.07,.23-1.94,.16-.86,.36-1.76,.6-2.69,.24-.93,.49-1.8,.76-2.62s.5-1.39,.7-1.72c.08-.13,.31-.24,.7-.35,.39-.1,.81-.18,1.28-.22s.92-.04,1.35,0c.43,.04,.74,.14,.91,.3,.25,.24,.54,.76,.88,1.57s.67,1.69,.99,2.64c.32,.95,.61,1.87,.87,2.74,.26,.88,.43,1.49,.51,1.86,.06,.27,.04,.45-.05,.55-.09,.1-.25,.18-.48,.22-.39,.07-.87,.12-1.45,.15-.58,.03-.94,.04-1.08,.02-.06,0-.11-.03-.16-.06-.16-.1-.31-.38-.46-.84-.15-.46-.29-.78-.43-.95-.08-.1-.19-.16-.33-.18h-1.09c-.34,0-.56,.11-.66,.33-.13,.28-.28,.59-.45,.93-.17,.34-.29,.55-.37,.63-.04,.05-.1,.08-.18,.1-.18,.04-.61,.05-1.28,.03-.67-.02-1.06-.09-1.15-.2Zm4.3-5.85c-.15,.15-.29,.41-.43,.78-.14,.36-.2,.6-.16,.72,.07,.19,.35,.28,.86,.26,.51-.02,.78-.14,.83-.37,.03-.14-.11-.45-.4-.94-.29-.49-.52-.64-.7-.45Z"/><path class="cls-30" d="M61.44,139.24c-.4-.02-.76,.02-1.07,.13-.43,.15-.74,.4-.94,.74-.19,.34-.27,.69-.22,1.04,.04,.35,.21,.67,.49,.94,.28,.28,.69,.43,1.22,.45,.38,0,.6-.12,.64-.37,.04-.25,.08-.5,.12-.75-.02-.17,.15-.31,.49-.43s.73-.2,1.16-.24,.82-.03,1.19,.02c.37,.06,.57,.17,.59,.35,.04,.33,.08,.75,.1,1.26s.03,1.01,.03,1.51c0,.49-.03,.93-.06,1.31s-.09,.6-.17,.67c-.07,.09-.43,.15-1.06,.17-.64,.02-1.09-.01-1.36-.09-.04,0-.08-.04-.12-.11-.8,.19-1.58,.26-2.35,.21-1.36-.11-2.5-.64-3.42-1.6-.92-.96-1.3-2.14-1.15-3.55,.17-1.54,.73-2.74,1.68-3.6,.95-.86,2.14-1.33,3.59-1.41,.96-.04,1.82,.15,2.6,.58s1.18,1.22,1.2,2.35c.02,.17-.09,.32-.32,.43-.23,.12-.51,.21-.83,.28-.32,.07-.64,.11-.95,.14-.31,.02-.54,.02-.68,0-.19-.03-.28-.1-.28-.23,0-.12-.04-.19-.13-.21Z"/><path class="cls-30" d="M72.26,136.47c0-.12,.18-.21,.54-.28,.35-.07,.75-.1,1.18-.11,.43,0,.83,.03,1.21,.1,.38,.07,.6,.19,.67,.34,.09,.23,.16,.64,.2,1.22,.04,.58,.04,1.21,.02,1.89s-.08,1.35-.18,2c-.1,.65-.23,1.17-.4,1.55-.37,.81-.91,1.48-1.63,1.99s-1.53,.8-2.45,.88c-1.16,.08-2.24-.2-3.24-.85s-1.69-1.51-2.08-2.58c-.13-.35-.22-.85-.27-1.5-.06-.65-.08-1.32-.08-1.99,0-.67,.04-1.28,.12-1.83s.19-.9,.33-1.04c.12-.12,.38-.2,.78-.24,.39-.04,.8-.05,1.22-.03,.42,.02,.8,.07,1.13,.15,.33,.08,.49,.18,.49,.3,0,.34-.04,.83-.09,1.45-.05,.62-.06,1.24-.04,1.86,.02,.62,.12,1.16,.28,1.63,.16,.47,.45,.73,.87,.77,.45,.05,.77-.15,.97-.62,.2-.47,.33-1.02,.38-1.66,.06-.64,.08-1.29,.06-1.94-.02-.65-.02-1.13,0-1.45Z"/><path class="cls-30" d="M76.75,145.85c-.08-.09-.13-.2-.13-.32,0-.43,.07-1.07,.23-1.94,.16-.86,.36-1.76,.6-2.69,.24-.93,.49-1.8,.76-2.62s.5-1.39,.7-1.72c.08-.13,.31-.24,.7-.35,.39-.1,.81-.18,1.28-.22s.92-.04,1.35,0c.43,.04,.74,.14,.91,.3,.25,.24,.54,.76,.88,1.57s.67,1.69,.99,2.64c.32,.95,.61,1.87,.87,2.74,.26,.88,.43,1.49,.51,1.86,.06,.27,.04,.45-.05,.55-.09,.1-.25,.18-.48,.22-.39,.07-.87,.12-1.45,.15-.58,.03-.94,.04-1.08,.02-.06,0-.11-.03-.16-.06-.16-.1-.31-.38-.46-.84-.15-.46-.29-.78-.43-.95-.08-.1-.19-.16-.33-.18h-1.09c-.34,0-.56,.11-.66,.33-.13,.28-.28,.59-.45,.93-.17,.34-.29,.55-.37,.63-.04,.05-.1,.08-.18,.1-.18,.04-.61,.05-1.28,.03-.67-.02-1.06-.09-1.15-.2Zm4.3-5.85c-.15,.15-.29,.41-.43,.78-.14,.36-.2,.6-.16,.72,.07,.19,.35,.28,.86,.26,.51-.02,.78-.14,.83-.37,.03-.14-.11-.45-.4-.94-.29-.49-.52-.64-.7-.45Z"/><path class="cls-30" d="M93.5,141.81c.45,.38,.85,.74,1.19,1.09,.34,.35,.51,.62,.52,.8,0,.13-.07,.32-.22,.57-.15,.25-.31,.5-.5,.76-.19,.25-.37,.47-.55,.66-.18,.19-.3,.29-.36,.29-.29,.06-.71-.09-1.26-.45-.55-.36-.99-.59-1.33-.71-.33-.1-.5-.06-.53,.13,0,.32-.02,.56-.09,.73-.06,.17-.28,.27-.65,.31-.42,.04-.91,.07-1.46,.07s-.89,0-1.04-.04c-.1-.02-.18-.08-.25-.17-.09-.12-.18-.67-.29-1.64s-.18-2.04-.24-3.18-.08-2.19-.08-3.14c0-.95,.08-1.47,.21-1.54,.48-.27,1.13-.46,1.94-.58,.81-.12,1.61-.1,2.42,.06,.8,.16,1.52,.49,2.15,.99,.63,.5,1.02,1.24,1.16,2.2,.18,1.29-.07,2.22-.76,2.79Zm-3.33-1.26c.34-.04,.6-.16,.78-.37s.28-.43,.28-.66c0-.23-.11-.43-.32-.6s-.54-.23-.98-.18c-.36,.04-.51,.36-.43,.96,.08,.6,.3,.89,.67,.85Z"/><path class="cls-30" d="M104.16,143.09c-.49,1.15-1.26,1.94-2.32,2.37-1.06,.43-2.17,.63-3.33,.61-.4,0-.78-.04-1.15-.08-.37-.05-.64-.1-.8-.18-.26-.11-.46-.63-.62-1.58-.15-.95-.25-1.99-.28-3.11-.03-1.13,0-2.18,.09-3.15s.27-1.54,.52-1.69c.25-.16,.64-.28,1.15-.35,.83-.11,1.72-.1,2.68,.03,.96,.14,1.78,.47,2.44,1,.88,.71,1.47,1.65,1.79,2.81,.32,1.17,.26,2.27-.18,3.31Zm-5.01-2.97c-.08,.24-.09,.6-.05,1.07s.14,.75,.29,.83c.07,.04,.21,.06,.42,.05,.34,0,.64-.09,.88-.24,.24-.15,.37-.37,.4-.66,.03-.36-.1-.66-.39-.91-.29-.25-.59-.39-.91-.42-.13,0-.26,0-.39,.03-.13,.03-.22,.11-.26,.25Z"/><path class="cls-30" d="M105.41,145.85c-.08-.09-.13-.2-.13-.32,0-.43,.07-1.07,.23-1.94,.16-.86,.36-1.76,.6-2.69,.24-.93,.49-1.8,.76-2.62,.27-.81,.5-1.39,.7-1.72,.08-.13,.31-.24,.7-.35,.39-.1,.81-.18,1.28-.22,.47-.04,.92-.04,1.35,0,.43,.04,.74,.14,.91,.3,.25,.24,.54,.76,.88,1.57,.34,.81,.67,1.69,.99,2.64,.32,.95,.61,1.87,.87,2.74,.26,.88,.43,1.49,.51,1.86,.06,.27,.04,.45-.05,.55-.09,.1-.25,.18-.48,.22-.39,.07-.87,.12-1.45,.15-.58,.03-.94,.04-1.08,.02-.06,0-.11-.03-.16-.06-.16-.1-.31-.38-.46-.84-.15-.46-.29-.78-.43-.95-.08-.1-.2-.16-.33-.18h-1.09c-.34,0-.56,.11-.66,.33-.13,.28-.28,.59-.45,.93-.17,.34-.29,.55-.37,.63-.04,.05-.1,.08-.18,.1-.18,.04-.61,.05-1.28,.03-.67-.02-1.06-.09-1.15-.2Zm4.3-5.85c-.15,.15-.29,.41-.43,.78-.14,.36-.2,.6-.16,.72,.07,.19,.35,.28,.86,.26,.51-.02,.78-.14,.83-.37,.03-.14-.11-.45-.4-.94-.29-.49-.52-.64-.7-.45Z"/><path class="cls-30" d="M122.16,141.81c.45,.38,.85,.74,1.19,1.09,.34,.35,.51,.62,.52,.8,0,.13-.07,.32-.22,.57-.15,.25-.31,.5-.5,.76-.19,.25-.37,.47-.55,.66-.18,.19-.3,.29-.37,.29-.29,.06-.71-.09-1.26-.45-.55-.36-.99-.59-1.33-.71-.33-.1-.5-.06-.53,.13,0,.32-.02,.56-.09,.73s-.28,.27-.65,.31c-.42,.04-.91,.07-1.46,.07s-.89,0-1.04-.04c-.1-.02-.18-.08-.25-.17-.09-.12-.18-.67-.29-1.64s-.18-2.04-.24-3.18c-.06-1.14-.08-2.19-.08-3.14,0-.95,.08-1.47,.21-1.54,.48-.27,1.13-.46,1.94-.58,.81-.12,1.61-.1,2.42,.06,.8,.16,1.52,.49,2.16,.99,.63,.5,1.02,1.24,1.16,2.2,.18,1.29-.07,2.22-.76,2.79Zm-3.33-1.26c.34-.04,.6-.16,.78-.37s.28-.43,.27-.66c0-.23-.11-.43-.32-.6s-.54-.23-.98-.18c-.36,.04-.5,.36-.43,.96s.3,.89,.67,.85Z"/><path class="cls-30" d="M135.47,145.74c-.09,.18-.55,.28-1.39,.31s-1.42-.02-1.76-.17c-.17-.07-.27-.66-.3-1.78-.03-1.12-.07-2.26-.11-3.44-.29,.12-.58,.23-.87,.33s-.48,.15-.55,.13c-.2,0-.48-.31-.83-.95-.36-.64-.55-1.14-.58-1.52-.01-.17,.24-.47,.77-.89s1.26-.93,2.22-1.52c.17-.11,.46-.2,.87-.26,.41-.06,.83-.09,1.25-.07,.42,.01,.8,.07,1.14,.18,.33,.11,.51,.27,.54,.5,.07,.64,.1,1.45,.11,2.43,0,.98,0,1.95-.05,2.9-.04,.95-.1,1.79-.18,2.53-.08,.73-.17,1.16-.27,1.3Z"/><path class="cls-30" d="M145.9,139.18c-.09,0-.18-.02-.25-.07-.09-.07-.14-.14-.14-.22s-.05-.15-.14-.23c-.22-.17-.5-.14-.84,.09-.34,.23-.2,.42,.42,.54,.07,.01,.14,.03,.22,.04,.08,.02,.16,.03,.25,.04,1.02,.18,1.82,.48,2.41,.91,.72,.53,1.14,1.22,1.25,2.08s-.13,1.62-.71,2.3c-.69,.8-1.62,1.26-2.8,1.38-1.18,.12-2.2-.13-3.05-.74-.74-.52-1.2-1.17-1.39-1.96-.08-.37,.11-.66,.56-.86,.2-.09,.42-.16,.66-.2s.47-.06,.69-.07c.36,0,.69,.04,.98,.13s.46,.21,.5,.37c0,.03,.02,.06,.03,.09,.05,.11,.14,.19,.28,.25,.16,.07,.35,.06,.57-.03s.28-.23,.19-.44c-.05-.1-.18-.18-.4-.24-.52-.15-1.03-.26-1.54-.34-.51-.08-1-.29-1.46-.63-.33-.24-.59-.57-.78-.98-.19-.42-.25-.97-.19-1.65,.09-.92,.53-1.68,1.33-2.28,.47-.35,1-.58,1.6-.7,.6-.12,1.18-.12,1.75,0,.57,.12,1.08,.35,1.53,.7s.77,.82,.94,1.4c.07,.23,0,.42-.19,.58s-.43,.3-.72,.4c-.29,.11-.58,.19-.88,.24-.3,.05-.53,.08-.68,.09Z"/><path class="cls-30" d="M153.88,142.54c.77,0,1.47-.03,2.09-.07s.99,0,1.1,.13c.12,.1,.21,.52,.26,1.27,.06,.75,.03,1.29-.06,1.62-.04,.14-.39,.26-1.04,.35-.65,.09-1.38,.16-2.19,.19-.81,.03-1.58,.04-2.33,.02-.74-.02-1.23-.08-1.45-.18-.13-.05-.24-.41-.33-1.07-.09-.66-.15-1.43-.2-2.32s-.08-1.79-.09-2.71,0-1.67,.03-2.25c0-.32,.03-.61,.08-.87,.05-.26,.13-.43,.25-.49,.11-.07,.5-.12,1.17-.17,.67-.05,1.39-.08,2.16-.09,.77-.01,1.49,0,2.15,.04,.66,.04,1.04,.11,1.13,.2,.12,.1,.19,.48,.2,1.15,.02,.67-.03,1.17-.12,1.52-.05,.16-.36,.26-.93,.29-.57,.04-1.24,.07-2,.1,0,.05,0,.11,0,.19,0,.07,0,.13,.01,.19,.5,0,.91,.05,1.22,.11,.08,.02,.15,.15,.22,.39,.07,.24,.12,.5,.15,.79,.03,.29,.03,.55,0,.79-.03,.24-.11,.37-.23,.39-.09,.03-.25,.05-.48,.07-.23,.02-.49,.03-.77,.04v.39Z"/><path class="cls-30" d="M163.72,139.24c-.4-.02-.76,.02-1.07,.13-.43,.15-.74,.4-.94,.74-.19,.34-.27,.69-.22,1.04,.04,.35,.21,.67,.49,.94,.28,.28,.69,.43,1.22,.45,.38,0,.6-.12,.64-.37,.04-.25,.08-.5,.12-.75-.02-.17,.15-.31,.49-.43s.73-.2,1.16-.24,.82-.03,1.19,.02c.37,.06,.57,.17,.59,.35,.04,.33,.08,.75,.1,1.26s.03,1.01,.03,1.51c0,.49-.03,.93-.06,1.31s-.09,.6-.17,.67c-.07,.09-.43,.15-1.06,.17-.64,.02-1.09-.01-1.36-.09-.04,0-.08-.04-.12-.11-.8,.19-1.58,.26-2.35,.21-1.36-.11-2.5-.64-3.42-1.6-.92-.96-1.3-2.14-1.15-3.55,.17-1.54,.73-2.74,1.68-3.6,.95-.86,2.14-1.33,3.59-1.41,.96-.04,1.82,.15,2.6,.58s1.18,1.22,1.2,2.35c.02,.17-.09,.32-.32,.43-.23,.12-.51,.21-.83,.28-.32,.07-.64,.11-.95,.14-.31,.02-.54,.02-.68,0-.19-.03-.28-.1-.28-.23,0-.12-.04-.19-.13-.21Z"/><path class="cls-30" d="M174.54,136.47c0-.12,.18-.21,.54-.28,.35-.07,.75-.1,1.18-.11,.43,0,.83,.03,1.21,.1,.38,.07,.6,.19,.67,.34,.09,.23,.16,.64,.2,1.22,.04,.58,.04,1.21,.02,1.89s-.08,1.35-.18,2c-.1,.65-.23,1.17-.4,1.55-.37,.81-.91,1.48-1.63,1.99s-1.53,.8-2.45,.88c-1.16,.08-2.24-.2-3.24-.85s-1.69-1.51-2.08-2.58c-.13-.35-.22-.85-.27-1.5-.06-.65-.08-1.32-.08-1.99,0-.67,.04-1.28,.12-1.83s.19-.9,.33-1.04c.12-.12,.38-.2,.78-.24,.39-.04,.8-.05,1.22-.03,.42,.02,.8,.07,1.13,.15,.33,.08,.49,.18,.49,.3,0,.34-.04,.83-.09,1.45-.05,.62-.06,1.24-.04,1.86,.02,.62,.12,1.16,.28,1.63,.16,.47,.45,.73,.87,.77,.45,.05,.77-.15,.97-.62,.2-.47,.33-1.02,.38-1.66,.06-.64,.08-1.29,.06-1.94-.02-.65-.02-1.13,0-1.45Z"/><path class="cls-30" d="M188.51,145.74c-.05,.11-.21,.18-.48,.23-.27,.05-.56,.08-.88,.09s-.63,0-.92-.03-.49-.06-.6-.11c-.15-.07-.37-.24-.66-.53-.29-.28-.58-.59-.88-.93-.3-.33-.58-.65-.82-.94-.25-.3-.4-.49-.47-.58-.07,.79-.13,1.46-.21,2.03-.07,.56-.16,.87-.27,.93-.33,.15-.89,.21-1.69,.17-.8-.04-1.24-.14-1.32-.32-.1-.13-.18-.58-.25-1.33-.07-.76-.12-1.62-.14-2.61-.02-.98-.02-1.98,0-2.98s.09-1.83,.19-2.47c.02-.13,.17-.23,.47-.3,.29-.07,.63-.11,1.01-.12,.38-.01,.77,0,1.15,.05,.39,.04,.68,.11,.89,.2,.3,.14,.69,.5,1.14,1.09,.46,.59,.79,1.04,1,1.35-.01-.47-.03-.89-.04-1.26-.01-.36-.01-.63,0-.81,0-.21,.21-.37,.61-.48,.4-.11,.83-.17,1.31-.19,.48-.02,.91,.02,1.31,.1,.4,.08,.61,.2,.63,.36,.07,.65,.11,1.48,.12,2.49,.01,1.01,.01,2.01,0,2.99-.02,.98-.05,1.85-.09,2.6-.04,.75-.09,1.19-.14,1.31Z"/><path class="cls-30" d="M197.77,143.09c-.49,1.15-1.26,1.94-2.32,2.37-1.06,.43-2.17,.63-3.33,.61-.4,0-.78-.04-1.15-.08-.37-.05-.64-.1-.8-.18-.26-.11-.46-.63-.62-1.58-.15-.95-.25-1.99-.28-3.11-.03-1.13,0-2.18,.09-3.15s.27-1.54,.52-1.69c.25-.16,.64-.28,1.15-.35,.83-.11,1.72-.1,2.68,.03,.96,.14,1.78,.47,2.44,1,.88,.71,1.47,1.65,1.79,2.81,.32,1.17,.26,2.27-.18,3.31Zm-5.01-2.97c-.08,.24-.09,.6-.05,1.07s.14,.75,.29,.83c.07,.04,.21,.06,.42,.05,.34,0,.64-.09,.88-.24,.24-.15,.37-.37,.4-.66,.03-.36-.1-.66-.39-.91-.29-.25-.59-.39-.91-.42-.13,0-.26,0-.39,.03-.13,.03-.22,.11-.26,.25Z"/><path class="cls-30" d="M209.03,141.71c-.23,1.39-.91,2.52-2.03,3.37s-2.42,1.16-3.91,.91c-1.43-.24-2.56-.92-3.38-2.05-.82-1.13-1.12-2.38-.9-3.75,.21-1.27,.82-2.34,1.85-3.21,1.02-.86,2.21-1.24,3.57-1.12,1.63,.14,2.91,.76,3.82,1.86s1.24,2.43,.98,3.98Zm-3.81-.56c.06-.38,0-.7-.22-.97-.21-.27-.5-.43-.9-.5-.37-.06-.7,.02-.98,.24-.28,.22-.45,.51-.5,.85-.07,.41,.04,.77,.34,1.09,.3,.32,.67,.45,1.11,.39,.31-.03,.56-.15,.76-.36s.33-.46,.38-.74Z"/></g></g></svg>