<?xml version="1.0" encoding="UTF-8"?><svg xmlns="http://www.w3.org/2000/svg" xmlns:xlink="http://www.w3.org/1999/xlink" viewBox="0 0 246.61 161.57"><defs><style>.cls-1,.cls-2,.cls-3{fill:#fff;}.cls-4,.cls-5{fill:#f7d743;}.cls-2{stroke:#1d1d1b;stroke-width:2.13px;}.cls-2,.cls-3,.cls-5,.cls-6,.cls-7{stroke-miterlimit:10;}.cls-3{stroke-width:5.67px;}.cls-3,.cls-5,.cls-7{stroke:#fff;}.cls-5,.cls-7{stroke-width:8.5px;}.cls-8{clip-path:url(#clippath);}.cls-9,.cls-6{fill:none;}.cls-10{fill:#c8805e;}.cls-6{stroke:#c8805e;}.cls-11,.cls-7{fill:#27a7d9;}</style><clipPath id="clippath"><rect class="cls-9" x="105.01" y="24.61" width="58.38" height="109.96"/></clipPath></defs><g id="Camada_2"><rect class="cls-10" x="0" y=".05" width="246.61" height="161.57"/><ellipse class="cls-1" cx="125.63" cy="58.11" rx="56.99" ry="55.27"/><rect class="cls-1" x="109.91" y="42.35" width="31.43" height="198.75" rx="11.22" ry="11.22" transform="translate(267.35 16.1) rotate(90)"/><rect class="cls-6" x="31.16" y="129.31" width="188.92" height="24.82" rx="7.77" ry="7.77"/></g><g id="Camada_3"><path class="cls-3" d="M170.78,33.94c2.25-.55,9.48-2.01,15.25,1.99,9.25,6.41,10.34,23.79,1,31.92-5.24,4.56-13.95,6.38-21.37,2.42-6.32-3.37-10.24-10.15-10.12-17.53"/><path class="cls-3" d="M190.02,57.19c3.25,3.18,3.57,8.87,2.11,12.94-2.52,7.03-10.74,10.34-17.55,9.56-8.11-.93-15.54-7.83-14.92-13.27,.99-8.66,22.76-16.68,30.36-9.23Z"/><path class="cls-3" d="M175.46,35.62c.21-1.77-2.75-2.36-5.41-5.41-4.47-5.13-4.3-12.83-4.27-14.25,.1-4.51,1.47-6.52,0-8.55-1.32-1.81-3.94-2.54-5.98-2.28-5.07,.63-8.78,7.49-9.12,13.25-.46,7.77,5.24,13.07,7.27,14.96,1.44,1.34,7.08,6.58,13.11,5.27,1.64-.36,4.23-1.4,4.42-2.99Z"/><path class="cls-3" d="M137.89,37.8c1.41-4.94,9.75-5.87,14.47-6.4,2.44-.27,17.01-1.91,20.95,5.6,.29,.55,1.62,3.09,.66,5.41-.95,2.29-3.6,3.06-18.74,4.9-8.73,1.06-10.78,1.15-13.02-.34-2.91-1.93-5.24-5.93-4.32-9.17Z"/><path class="cls-3" d="M138.86,50.84c1.41-4.94,9.75-5.87,14.47-6.4,2.44-.27,17.01-1.91,20.95,5.6,.29,.55,1.62,3.09,.66,5.41-.95,2.29-3.6,3.06-18.74,4.9-8.73,1.06-10.78,1.15-13.02-.34-2.91-1.93-5.24-5.93-4.32-9.17Z"/><path class="cls-3" d="M141.58,63.63c1.41-4.94,9.75-5.87,14.47-6.4,2.44-.27,17.01-1.91,20.95,5.6,.29,.55,1.62,3.09,.66,5.41-.95,2.29-3.6,3.06-18.74,4.9-8.73,1.06-10.78,1.15-13.02-.34-2.91-1.93-5.24-5.93-4.32-9.17Z"/><path class="cls-3" d="M149.18,73.89c1.21-4.25,8.4-5.06,12.47-5.51,2.1-.24,14.65-1.64,18.05,4.82,.25,.47,1.4,2.66,.57,4.66-.82,1.97-3.1,2.64-16.15,4.22-7.52,.91-9.29,.99-11.22-.29-2.51-1.66-4.52-5.11-3.72-7.9Z"/><path class="cls-2" d="M169.53,33.58c2.25-.55,9.48-2.01,15.25,1.99,9.25,6.41,10.34,23.79,1,31.92-5.24,4.56-13.95,6.38-21.37,2.42-6.32-3.37-10.24-10.15-10.12-17.53"/><path class="cls-2" d="M188.77,56.83c3.25,3.18,3.57,8.87,2.11,12.94-2.52,7.03-10.74,10.34-17.55,9.56-8.11-.93-15.54-7.83-14.92-13.27,.99-8.66,22.76-16.68,30.36-9.23Z"/><path class="cls-5" d="M92.77,104.7l-24.26-14.18c-2.08-1.33-3.44-4.48-3.44-7.98v-9.15c0-3.57,1.41-6.76,3.55-8.04l23.41-14.71c3.63-2.17,10.4,.96,10.4,7.01v41.67c0,6.13-6.01,7.71-9.65,5.39Z"/><rect class="cls-5" x="55.5" y="64.59" width="22.37" height="27.02" rx="6.87" ry="6.87"/><path class="cls-7" d="M90.77,103.33l-24.26-14.18c-2.08-1.33-3.44-4.48-3.44-7.98v-9.15c0-3.57,1.41-6.76,3.55-8.04l23.41-14.71c3.63-2.17,10.4,.96,10.4,7.01v41.67c0,6.13-6.01,7.71-9.65,5.39Z"/><rect class="cls-7" x="53.49" y="63.22" width="22.37" height="27.02" rx="6.87" ry="6.87"/><path class="cls-4" d="M91.79,104.65l-24.26-14.18c-2.08-1.33-3.44-4.48-3.44-7.98v-9.15c0-3.57,1.41-6.76,3.55-8.04l23.41-14.71c3.63-2.17,10.4,.96,10.4,7.01v41.67c0,6.13-6.01,7.71-9.65,5.39Z"/><rect class="cls-4" x="54.51" y="64.55" width="22.37" height="27.02" rx="6.87" ry="6.87"/><path class="cls-11" d="M89.78,103.28l-24.26-14.18c-2.08-1.33-3.44-4.48-3.44-7.98v-9.15c0-3.57,1.41-6.76,3.55-8.04l23.41-14.71c3.63-2.17,10.4,.96,10.4,7.01v41.67c0,6.13-6.01,7.71-9.65,5.39Z"/><rect class="cls-11" x="52.5" y="63.17" width="22.37" height="27.02" rx="6.87" ry="6.87"/><g class="cls-8"><ellipse class="cls-4" cx="108.02" cy="77.28" rx="26.17" ry="29.44"/><ellipse class="cls-11" cx="106.44" cy="77.28" rx="26.17" ry="29.44"/><ellipse class="cls-1" cx="102.43" cy="77.06" rx="23.25" ry="26.15"/><ellipse class="cls-4" cx="98.28" cy="77.28" rx="21.27" ry="23.92"/><ellipse class="cls-11" cx="96.65" cy="77.28" rx="21.57" ry="24.26"/><ellipse class="cls-1" cx="92.69" cy="77.28" rx="19.16" ry="21.55"/></g><path class="cls-2" d="M174.21,35.26c.21-1.77-2.75-2.36-5.41-5.41-4.47-5.13-4.3-12.83-4.27-14.25,.1-4.51,1.47-6.52,0-8.55-1.32-1.81-3.94-2.54-5.98-2.28-5.07,.63-8.78,7.49-9.12,13.25-.46,7.77,5.24,13.07,7.27,14.96,1.44,1.34,7.08,6.58,13.11,5.27,1.64-.36,4.23-1.4,4.42-2.99Z"/><path class="cls-2" d="M136.64,37.44c1.41-4.94,9.75-5.87,14.47-6.4,2.44-.27,17.01-1.91,20.95,5.6,.29,.55,1.62,3.09,.66,5.41-.95,2.29-3.6,3.06-18.74,4.9-8.73,1.06-10.78,1.15-13.02-.34-2.91-1.93-5.24-5.93-4.32-9.17Z"/><path class="cls-2" d="M137.61,50.48c1.41-4.94,9.75-5.87,14.47-6.4,2.44-.27,17.01-1.91,20.95,5.6,.29,.55,1.62,3.09,.66,5.41-.95,2.29-3.6,3.06-18.74,4.9-8.73,1.06-10.78,1.15-13.02-.34-2.91-1.93-5.24-5.93-4.32-9.17Z"/><path class="cls-2" d="M140.32,63.27c1.41-4.94,9.75-5.87,14.47-6.4,2.44-.27,17.01-1.91,20.95,5.6,.29,.55,1.62,3.09,.66,5.41-.95,2.29-3.6,3.06-18.74,4.9-8.73,1.06-10.78,1.15-13.02-.34-2.91-1.93-5.24-5.93-4.32-9.17Z"/><path class="cls-2" d="M147.93,73.53c1.21-4.25,8.4-5.06,12.47-5.51,2.1-.24,14.65-1.64,18.05,4.82,.25,.47,1.4,2.66,.57,4.66-.82,1.97-3.1,2.64-16.15,4.22-7.52,.91-9.29,.99-11.22-.29-2.51-1.66-4.52-5.11-3.72-7.9Z"/><path class="cls-1" d="M173.86,38.33c-.13-.51-.33-1.13-.65-1.79-.27-.57-.57-1.05-.85-1.44-.14-.39-.29-.77-.43-1.16h4.37l-2.44,4.39Z"/><g><path class="cls-4" d="M79.13,138.8c-.09,0-.18-.02-.25-.07-.09-.07-.14-.14-.14-.22,0-.08-.05-.15-.14-.23-.22-.17-.5-.14-.84,.09s-.2,.42,.42,.54c.07,.01,.14,.03,.22,.04,.08,.02,.16,.03,.25,.04,1.02,.18,1.82,.48,2.41,.91,.72,.53,1.14,1.22,1.25,2.08,.11,.86-.13,1.62-.71,2.3-.69,.8-1.62,1.26-2.8,1.38-1.18,.12-2.2-.13-3.05-.74-.74-.52-1.2-1.17-1.39-1.96-.08-.37,.11-.66,.56-.86,.2-.09,.42-.16,.66-.2,.24-.04,.47-.06,.69-.07,.36,0,.69,.04,.98,.13,.29,.09,.46,.21,.5,.37,0,.03,.02,.06,.03,.09,.05,.11,.14,.19,.28,.25,.16,.07,.35,.06,.57-.03,.22-.09,.28-.23,.19-.44-.05-.1-.18-.18-.4-.24-.52-.15-1.03-.26-1.54-.34-.51-.08-1-.29-1.46-.63-.33-.24-.59-.57-.78-.98-.19-.42-.25-.97-.19-1.65,.09-.92,.53-1.68,1.33-2.28,.47-.35,1-.58,1.6-.7s1.18-.12,1.75,0c.57,.12,1.08,.35,1.53,.7,.45,.35,.77,.82,.94,1.4,.07,.23,0,.42-.19,.58-.19,.16-.43,.29-.72,.4-.29,.11-.58,.19-.88,.24-.3,.05-.53,.08-.68,.09Z"/><path class="cls-4" d="M93.01,141.34c-.23,1.39-.9,2.52-2.03,3.37-1.12,.85-2.42,1.16-3.91,.91-1.43-.24-2.56-.92-3.38-2.05-.82-1.13-1.12-2.38-.9-3.75,.21-1.27,.82-2.34,1.85-3.21,1.02-.86,2.21-1.24,3.57-1.12,1.64,.14,2.91,.76,3.82,1.86s1.24,2.43,.98,3.98Zm-3.81-.56c.06-.38,0-.7-.22-.97s-.5-.43-.9-.5c-.37-.06-.7,.02-.98,.24-.28,.22-.45,.5-.5,.85-.07,.41,.04,.77,.34,1.09,.3,.32,.67,.45,1.11,.39,.31-.03,.56-.15,.76-.36,.2-.21,.33-.46,.38-.74Z"/><path class="cls-4" d="M100.19,139.12c.44-.65,.86-1.27,1.27-1.86,.41-.59,.77-1.04,1.08-1.34,.14-.13,.4-.23,.8-.29,.4-.06,.81-.09,1.24-.09s.82,.04,1.17,.1c.35,.06,.55,.15,.61,.26,.08,.19,.15,.77,.2,1.72,.05,.95,.07,1.98,.07,3.09s-.03,2.13-.08,3.07c-.05,.94-.14,1.5-.26,1.67-.09,.11-.54,.17-1.35,.2-.81,.03-1.38,0-1.7-.06-.13-.03-.25-.41-.36-1.15-.11-.74-.19-1.48-.23-2.24-.09,.09-.25,.26-.47,.5-.23,.24-.47,.48-.73,.74-.26,.25-.51,.47-.75,.67-.24,.19-.42,.29-.53,.29s-.29-.09-.52-.28c-.23-.19-.47-.4-.72-.64-.25-.24-.48-.48-.7-.71-.22-.23-.37-.39-.45-.48-.05,.71-.13,1.42-.24,2.15s-.22,1.11-.34,1.15c-.16,.05-.41,.08-.73,.09-.32,0-.65,0-.98,0-.33-.01-.63-.04-.89-.08-.26-.04-.41-.09-.45-.14-.12-.17-.21-.73-.27-1.7-.06-.96-.1-2-.1-3.12,0-1.12,.01-2.15,.05-3.1,.04-.95,.11-1.5,.2-1.65,.07-.11,.28-.19,.63-.25,.35-.06,.74-.09,1.17-.1s.83,.03,1.22,.09c.39,.06,.66,.16,.8,.29,.31,.3,.67,.75,1.09,1.34,.42,.59,.84,1.21,1.27,1.86Z"/><path class="cls-4" d="M120.57,142.71c-.49,1.15-1.26,1.94-2.32,2.37-1.06,.43-2.17,.63-3.33,.61-.4,0-.78-.04-1.15-.08-.37-.05-.64-.1-.8-.18-.26-.11-.46-.63-.62-1.58s-.25-1.99-.28-3.11c-.03-1.13,0-2.18,.09-3.15s.27-1.54,.52-1.69c.25-.16,.64-.28,1.15-.35,.83-.11,1.72-.1,2.68,.03s1.78,.47,2.44,1c.88,.71,1.47,1.65,1.79,2.81,.32,1.17,.26,2.27-.18,3.31Zm-5.01-2.97c-.08,.24-.09,.6-.05,1.07s.14,.75,.29,.83c.07,.04,.21,.06,.42,.05,.35,0,.64-.09,.88-.24,.24-.15,.37-.37,.4-.66,.03-.36-.1-.66-.39-.91-.29-.25-.59-.39-.91-.42-.13,0-.26,0-.39,.03-.13,.03-.22,.11-.26,.25Z"/><path class="cls-4" d="M125.93,142.17c.77,0,1.47-.03,2.09-.07,.62-.04,.99,0,1.1,.13,.12,.1,.21,.52,.26,1.27s.03,1.29-.06,1.62c-.04,.14-.39,.26-1.04,.35s-1.38,.16-2.19,.19c-.81,.03-1.58,.04-2.33,.02-.74-.02-1.23-.08-1.45-.18-.13-.05-.24-.41-.33-1.07-.09-.66-.15-1.43-.2-2.32-.05-.89-.08-1.79-.09-2.71,0-.92,0-1.67,.03-2.25,0-.32,.03-.61,.08-.87,.05-.26,.13-.43,.25-.49,.11-.07,.5-.12,1.17-.17s1.39-.08,2.16-.09c.77-.01,1.49,0,2.15,.04,.66,.04,1.04,.1,1.13,.2,.12,.1,.19,.48,.2,1.15,.02,.67-.03,1.17-.12,1.51-.05,.16-.36,.26-.93,.29-.57,.04-1.24,.07-2.01,.1,0,.05,0,.11,0,.19,0,.07,0,.13,.01,.19,.5,0,.91,.05,1.22,.11,.08,.02,.15,.15,.22,.39,.07,.24,.12,.5,.15,.79s.03,.55,0,.79c-.03,.24-.11,.37-.23,.39-.09,.03-.25,.05-.48,.07-.23,.02-.49,.03-.77,.04v.39Z"/><path class="cls-4" d="M134.76,145.47c-.08-.09-.13-.2-.13-.32,0-.43,.07-1.07,.23-1.94,.16-.86,.36-1.76,.6-2.69s.49-1.8,.76-2.62c.27-.81,.5-1.39,.7-1.72,.08-.13,.31-.24,.7-.35,.39-.1,.81-.18,1.28-.22,.47-.04,.92-.04,1.35,0s.74,.14,.91,.3c.25,.24,.54,.76,.88,1.57,.34,.81,.67,1.69,.99,2.64,.32,.95,.61,1.87,.87,2.74,.26,.88,.43,1.49,.51,1.86,.06,.27,.04,.45-.05,.55-.09,.1-.25,.18-.48,.22-.39,.07-.87,.12-1.45,.15-.58,.03-.94,.04-1.08,.02-.06,0-.11-.03-.16-.06-.16-.1-.31-.38-.46-.84s-.29-.78-.43-.95c-.08-.1-.19-.16-.33-.18h-1.09c-.34,0-.56,.12-.66,.33-.13,.28-.28,.59-.45,.93s-.29,.55-.37,.63c-.04,.05-.1,.08-.18,.1-.18,.04-.61,.05-1.28,.03-.67-.02-1.06-.09-1.15-.2Zm4.3-5.85c-.15,.15-.29,.41-.43,.78-.14,.36-.2,.6-.16,.72,.07,.19,.35,.28,.86,.26,.51-.02,.78-.14,.83-.37,.03-.14-.11-.45-.4-.94-.29-.49-.52-.64-.7-.45Z"/><path class="cls-4" d="M151.26,139c-.19,0-.39,.02-.58,.03-.19,.01-.38,.04-.56,.07-.46,.09-.89,.31-1.26,.66-.38,.35-.52,.78-.41,1.29,.05,.23,.16,.42,.33,.55,.27,.22,.64,.32,1.09,.31s.85-.05,1.18-.13c.19-.06,.37-.05,.54,.03,.16,.08,.31,.22,.44,.41,.21,.32,.35,.74,.43,1.27,.08,.53,.05,.97-.09,1.31-.11,.28-.28,.45-.5,.5-.73,.27-1.52,.39-2.39,.39-.87,0-1.65-.17-2.34-.48-.93-.42-1.65-1.04-2.14-1.86s-.69-1.75-.59-2.8c.17-1.66,.83-2.95,1.97-3.88,1.14-.93,2.56-1.31,4.26-1.13,.28,.03,.53,.18,.75,.44,.21,.27,.39,.73,.53,1.39,.14,.66,.06,1.14-.25,1.45-.11,.11-.25,.17-.4,.18Z"/><path class="cls-4" d="M157.22,142.17c.77,0,1.47-.03,2.09-.07,.62-.04,.99,0,1.1,.13,.12,.1,.21,.52,.26,1.27s.03,1.29-.06,1.62c-.04,.14-.39,.26-1.04,.35s-1.38,.16-2.19,.19c-.81,.03-1.58,.04-2.33,.02-.74-.02-1.23-.08-1.45-.18-.13-.05-.24-.41-.33-1.07-.09-.66-.15-1.43-.2-2.32-.05-.89-.08-1.79-.09-2.71,0-.92,0-1.67,.03-2.25,0-.32,.03-.61,.08-.87,.05-.26,.13-.43,.25-.49,.11-.07,.5-.12,1.17-.17s1.39-.08,2.16-.09c.77-.01,1.49,0,2.15,.04,.66,.04,1.04,.1,1.13,.2,.12,.1,.19,.48,.2,1.15,.02,.67-.03,1.17-.12,1.51-.05,.16-.36,.26-.93,.29-.57,.04-1.24,.07-2.01,.1,0,.05,0,.11,0,.19,0,.07,0,.13,.01,.19,.5,0,.91,.05,1.22,.11,.08,.02,.15,.15,.22,.39,.07,.24,.12,.5,.15,.79s.03,.55,0,.79c-.03,.24-.11,.37-.23,.39-.09,.03-.25,.05-.48,.07-.23,.02-.49,.03-.77,.04v.39Z"/><path class="cls-4" d="M168.28,141.44c.45,.38,.85,.74,1.19,1.09,.34,.35,.51,.62,.52,.8,0,.13-.07,.32-.22,.57s-.31,.5-.5,.76-.37,.47-.55,.66c-.18,.19-.3,.29-.36,.29-.29,.06-.71-.09-1.26-.45-.55-.36-.99-.59-1.33-.71-.33-.1-.5-.06-.53,.13,0,.32-.02,.56-.09,.73-.06,.17-.28,.27-.65,.31-.42,.04-.91,.07-1.46,.07-.55,0-.89,0-1.04-.04-.1-.02-.18-.08-.25-.17-.09-.12-.18-.67-.29-1.64-.1-.98-.18-2.04-.24-3.18-.06-1.14-.08-2.19-.08-3.14,0-.95,.08-1.47,.21-1.54,.48-.27,1.13-.46,1.94-.58,.81-.12,1.61-.1,2.42,.06,.8,.16,1.52,.49,2.15,.99s1.02,1.24,1.16,2.2c.18,1.29-.07,2.22-.76,2.79Zm-3.33-1.26c.34-.04,.6-.16,.78-.37,.19-.21,.28-.43,.27-.66,0-.23-.11-.43-.32-.6s-.54-.23-.98-.18c-.36,.04-.51,.36-.43,.96,.08,.6,.3,.88,.67,.84Z"/><path class="cls-4" d="M177.23,145.37c-.05,.09-.21,.16-.48,.21-.27,.05-.58,.09-.92,.1-.34,.01-.68,0-1.02-.02s-.59-.08-.76-.15c-.18-.08-.34-.73-.49-1.95s-.25-2.46-.33-3.71c-.65-.01-1.22-.05-1.69-.1-.47-.06-.73-.14-.78-.24-.08-.17-.15-.44-.21-.81-.06-.37-.1-.76-.11-1.15-.02-.39-.01-.75,.01-1.06,.02-.32,.08-.5,.17-.55,.13-.1,.56-.18,1.3-.25,.74-.06,1.59-.1,2.55-.13,.96-.02,1.93-.03,2.92-.02,.99,.01,1.8,.04,2.44,.08,.25,.02,.42,.23,.52,.65,.09,.42,.13,.87,.1,1.37-.03,.5-.1,.95-.23,1.37-.13,.42-.28,.63-.46,.64-.17,.03-.44,.05-.81,.08-.37,.02-.79,.05-1.25,.06-.01,1.25-.06,2.45-.14,3.6s-.18,1.82-.31,1.99Z"/><path class="cls-4" d="M191.11,141.34c-.23,1.39-.9,2.52-2.03,3.37-1.12,.85-2.42,1.16-3.91,.91-1.43-.24-2.56-.92-3.38-2.05-.82-1.13-1.12-2.38-.9-3.75,.21-1.27,.82-2.34,1.85-3.21,1.02-.86,2.21-1.24,3.57-1.12,1.64,.14,2.91,.76,3.82,1.86s1.24,2.43,.98,3.98Zm-3.81-.56c.06-.38,0-.7-.22-.97s-.5-.43-.9-.5c-.37-.06-.7,.02-.98,.24-.28,.22-.45,.5-.5,.85-.07,.41,.04,.77,.34,1.09,.3,.32,.67,.45,1.11,.39,.31-.03,.56-.15,.76-.36,.2-.21,.33-.46,.38-.74Z"/></g><g><path class="cls-11" d="M78.58,138.8c-.09,0-.18-.02-.25-.07-.09-.07-.14-.14-.14-.22,0-.08-.05-.15-.14-.23-.22-.17-.5-.14-.84,.09s-.2,.42,.42,.54c.07,.01,.14,.03,.22,.04,.08,.02,.16,.03,.25,.04,1.02,.18,1.82,.48,2.41,.91,.72,.53,1.14,1.22,1.25,2.08,.11,.86-.13,1.62-.71,2.3-.69,.8-1.62,1.26-2.8,1.38-1.18,.12-2.2-.13-3.05-.74-.74-.52-1.2-1.17-1.39-1.96-.08-.37,.11-.66,.56-.86,.2-.09,.42-.16,.66-.2,.24-.04,.47-.06,.69-.07,.36,0,.69,.04,.98,.13,.29,.09,.46,.21,.5,.37,0,.03,.02,.06,.03,.09,.05,.11,.14,.19,.28,.25,.16,.07,.35,.06,.57-.03,.22-.09,.28-.23,.19-.44-.05-.1-.18-.18-.4-.24-.52-.15-1.03-.26-1.54-.34-.51-.08-1-.29-1.46-.63-.33-.24-.59-.57-.78-.98-.19-.42-.25-.97-.19-1.65,.09-.92,.53-1.68,1.33-2.28,.47-.35,1-.58,1.6-.7s1.18-.12,1.75,0c.57,.12,1.08,.35,1.53,.7,.45,.35,.77,.82,.94,1.4,.07,.23,0,.42-.19,.58-.19,.16-.43,.29-.72,.4-.29,.11-.58,.19-.88,.24-.3,.05-.53,.08-.68,.09Z"/><path class="cls-11" d="M92.45,141.34c-.23,1.39-.9,2.52-2.03,3.37-1.12,.85-2.42,1.16-3.91,.91-1.43-.24-2.56-.92-3.38-2.05-.82-1.13-1.12-2.38-.9-3.75,.21-1.27,.82-2.34,1.85-3.21,1.02-.86,2.21-1.24,3.57-1.12,1.64,.14,2.91,.76,3.82,1.86s1.24,2.43,.98,3.98Zm-3.81-.56c.06-.38,0-.7-.22-.97s-.5-.43-.9-.5c-.37-.06-.7,.02-.98,.24-.28,.22-.45,.5-.5,.85-.07,.41,.04,.77,.34,1.09,.3,.32,.67,.45,1.11,.39,.31-.03,.56-.15,.76-.36,.2-.21,.33-.46,.38-.74Z"/><path class="cls-11" d="M99.63,139.12c.44-.65,.86-1.27,1.27-1.86,.41-.59,.77-1.04,1.08-1.34,.14-.13,.4-.23,.8-.29,.4-.06,.81-.09,1.24-.09s.82,.04,1.17,.1c.35,.06,.55,.15,.61,.26,.08,.19,.15,.77,.2,1.72,.05,.95,.07,1.98,.07,3.09s-.03,2.13-.08,3.07c-.05,.94-.14,1.5-.26,1.67-.09,.11-.54,.17-1.35,.2-.81,.03-1.38,0-1.7-.06-.13-.03-.25-.41-.36-1.15-.11-.74-.19-1.48-.23-2.24-.09,.09-.25,.26-.47,.5-.23,.24-.47,.48-.73,.74-.26,.25-.51,.47-.75,.67-.24,.19-.42,.29-.53,.29s-.29-.09-.52-.28c-.23-.19-.47-.4-.72-.64-.25-.24-.48-.48-.7-.71-.22-.23-.37-.39-.45-.48-.05,.71-.13,1.42-.24,2.15s-.22,1.11-.34,1.15c-.16,.05-.41,.08-.73,.09-.32,0-.65,0-.98,0-.33-.01-.63-.04-.89-.08-.26-.04-.41-.09-.45-.14-.12-.17-.21-.73-.27-1.7-.06-.96-.1-2-.1-3.12,0-1.12,.01-2.15,.05-3.1,.04-.95,.11-1.5,.2-1.65,.07-.11,.28-.19,.63-.25,.35-.06,.74-.09,1.17-.1s.83,.03,1.22,.09c.39,.06,.66,.16,.8,.29,.31,.3,.67,.75,1.09,1.34,.42,.59,.84,1.21,1.27,1.86Z"/><path class="cls-11" d="M120.02,142.71c-.49,1.15-1.26,1.94-2.32,2.37-1.06,.43-2.17,.63-3.33,.61-.4,0-.78-.04-1.15-.08-.37-.05-.64-.1-.8-.18-.26-.11-.46-.63-.62-1.58s-.25-1.99-.28-3.11c-.03-1.13,0-2.18,.09-3.15s.27-1.54,.52-1.69c.25-.16,.64-.28,1.15-.35,.83-.11,1.72-.1,2.68,.03s1.78,.47,2.44,1c.88,.71,1.47,1.65,1.79,2.81,.32,1.17,.26,2.27-.18,3.31Zm-5.01-2.97c-.08,.24-.09,.6-.05,1.07s.14,.75,.29,.83c.07,.04,.21,.06,.42,.05,.35,0,.64-.09,.88-.24,.24-.15,.37-.37,.4-.66,.03-.36-.1-.66-.39-.91-.29-.25-.59-.39-.91-.42-.13,0-.26,0-.39,.03-.13,.03-.22,.11-.26,.25Z"/><path class="cls-11" d="M125.37,142.17c.77,0,1.47-.03,2.09-.07,.62-.04,.99,0,1.1,.13,.12,.1,.21,.52,.26,1.27s.03,1.29-.06,1.62c-.04,.14-.39,.26-1.04,.35s-1.38,.16-2.19,.19c-.81,.03-1.58,.04-2.33,.02-.74-.02-1.23-.08-1.45-.18-.13-.05-.24-.41-.33-1.07-.09-.66-.15-1.43-.2-2.32-.05-.89-.08-1.79-.09-2.71,0-.92,0-1.67,.03-2.25,0-.32,.03-.61,.08-.87,.05-.26,.13-.43,.25-.49,.11-.07,.5-.12,1.17-.17s1.39-.08,2.16-.09c.77-.01,1.49,0,2.15,.04,.66,.04,1.04,.1,1.13,.2,.12,.1,.19,.48,.2,1.15,.02,.67-.03,1.17-.12,1.51-.05,.16-.36,.26-.93,.29-.57,.04-1.24,.07-2.01,.1,0,.05,0,.11,0,.19,0,.07,0,.13,.01,.19,.5,0,.91,.05,1.22,.11,.08,.02,.15,.15,.22,.39,.07,.24,.12,.5,.15,.79s.03,.55,0,.79c-.03,.24-.11,.37-.23,.39-.09,.03-.25,.05-.48,.07-.23,.02-.49,.03-.77,.04v.39Z"/><path class="cls-11" d="M134.21,145.47c-.08-.09-.13-.2-.13-.32,0-.43,.07-1.07,.23-1.94,.16-.86,.36-1.76,.6-2.69s.49-1.8,.76-2.62c.27-.81,.5-1.39,.7-1.72,.08-.13,.31-.24,.7-.35,.39-.1,.81-.18,1.28-.22,.47-.04,.92-.04,1.35,0s.74,.14,.91,.3c.25,.24,.54,.76,.88,1.57,.34,.81,.67,1.69,.99,2.64,.32,.95,.61,1.87,.87,2.74,.26,.88,.43,1.49,.51,1.86,.06,.27,.04,.45-.05,.55-.09,.1-.25,.18-.48,.22-.39,.07-.87,.12-1.45,.15-.58,.03-.94,.04-1.08,.02-.06,0-.11-.03-.16-.06-.16-.1-.31-.38-.46-.84s-.29-.78-.43-.95c-.08-.1-.19-.16-.33-.18h-1.09c-.34,0-.56,.12-.66,.33-.13,.28-.28,.59-.45,.93s-.29,.55-.37,.63c-.04,.05-.1,.08-.18,.1-.18,.04-.61,.05-1.28,.03-.67-.02-1.06-.09-1.15-.2Zm4.3-5.85c-.15,.15-.29,.41-.43,.78-.14,.36-.2,.6-.16,.72,.07,.19,.35,.28,.86,.26,.51-.02,.78-.14,.83-.37,.03-.14-.11-.45-.4-.94-.29-.49-.52-.64-.7-.45Z"/><path class="cls-11" d="M150.7,139c-.19,0-.39,.02-.58,.03-.19,.01-.38,.04-.56,.07-.46,.09-.89,.31-1.26,.66-.38,.35-.52,.78-.41,1.29,.05,.23,.16,.42,.33,.55,.27,.22,.64,.32,1.09,.31s.85-.05,1.18-.13c.19-.06,.37-.05,.54,.03,.16,.08,.31,.22,.44,.41,.21,.32,.35,.74,.43,1.27,.08,.53,.05,.97-.09,1.31-.11,.28-.28,.45-.5,.5-.73,.27-1.52,.39-2.39,.39-.87,0-1.65-.17-2.34-.48-.93-.42-1.65-1.04-2.14-1.86s-.69-1.75-.59-2.8c.17-1.66,.83-2.95,1.97-3.88,1.14-.93,2.56-1.31,4.26-1.13,.28,.03,.53,.18,.75,.44,.21,.27,.39,.73,.53,1.39,.14,.66,.06,1.14-.25,1.45-.11,.11-.25,.17-.4,.18Z"/><path class="cls-11" d="M156.66,142.17c.77,0,1.47-.03,2.09-.07,.62-.04,.99,0,1.1,.13,.12,.1,.21,.52,.26,1.27s.03,1.29-.06,1.62c-.04,.14-.39,.26-1.04,.35s-1.38,.16-2.19,.19c-.81,.03-1.58,.04-2.33,.02-.74-.02-1.23-.08-1.45-.18-.13-.05-.24-.41-.33-1.07-.09-.66-.15-1.43-.2-2.32-.05-.89-.08-1.79-.09-2.71,0-.92,0-1.67,.03-2.25,0-.32,.03-.61,.08-.87,.05-.26,.13-.43,.25-.49,.11-.07,.5-.12,1.17-.17s1.39-.08,2.16-.09c.77-.01,1.49,0,2.15,.04,.66,.04,1.04,.1,1.13,.2,.12,.1,.19,.48,.2,1.15,.02,.67-.03,1.17-.12,1.51-.05,.16-.36,.26-.93,.29-.57,.04-1.24,.07-2.01,.1,0,.05,0,.11,0,.19,0,.07,0,.13,.01,.19,.5,0,.91,.05,1.22,.11,.08,.02,.15,.15,.22,.39,.07,.24,.12,.5,.15,.79s.03,.55,0,.79c-.03,.24-.11,.37-.23,.39-.09,.03-.25,.05-.48,.07-.23,.02-.49,.03-.77,.04v.39Z"/><path class="cls-11" d="M167.72,141.44c.45,.38,.85,.74,1.19,1.09,.34,.35,.51,.62,.52,.8,0,.13-.07,.32-.22,.57s-.31,.5-.5,.76-.37,.47-.55,.66c-.18,.19-.3,.29-.36,.29-.29,.06-.71-.09-1.26-.45-.55-.36-.99-.59-1.33-.71-.33-.1-.5-.06-.53,.13,0,.32-.02,.56-.09,.73-.06,.17-.28,.27-.65,.31-.42,.04-.91,.07-1.46,.07-.55,0-.89,0-1.04-.04-.1-.02-.18-.08-.25-.17-.09-.12-.18-.67-.29-1.64-.1-.98-.18-2.04-.24-3.18-.06-1.14-.08-2.19-.08-3.14,0-.95,.08-1.47,.21-1.54,.48-.27,1.13-.46,1.94-.58,.81-.12,1.61-.1,2.42,.06,.8,.16,1.52,.49,2.15,.99s1.02,1.24,1.16,2.2c.18,1.29-.07,2.22-.76,2.79Zm-3.33-1.26c.34-.04,.6-.16,.78-.37,.19-.21,.28-.43,.27-.66,0-.23-.11-.43-.32-.6s-.54-.23-.98-.18c-.36,.04-.51,.36-.43,.96,.08,.6,.3,.88,.67,.84Z"/><path class="cls-11" d="M176.68,145.37c-.05,.09-.21,.16-.48,.21-.27,.05-.58,.09-.92,.1-.34,.01-.68,0-1.02-.02s-.59-.08-.76-.15c-.18-.08-.34-.73-.49-1.95s-.25-2.46-.33-3.71c-.65-.01-1.22-.05-1.69-.1-.47-.06-.73-.14-.78-.24-.08-.17-.15-.44-.21-.81-.06-.37-.1-.76-.11-1.15-.02-.39-.01-.75,.01-1.06,.02-.32,.08-.5,.17-.55,.13-.1,.56-.18,1.3-.25,.74-.06,1.59-.1,2.55-.13,.96-.02,1.93-.03,2.92-.02,.99,.01,1.8,.04,2.44,.08,.25,.02,.42,.23,.52,.65,.09,.42,.13,.87,.1,1.37-.03,.5-.1,.95-.23,1.37-.13,.42-.28,.63-.46,.64-.17,.03-.44,.05-.81,.08-.37,.02-.79,.05-1.25,.06-.01,1.25-.06,2.45-.14,3.6s-.18,1.82-.31,1.99Z"/><path class="cls-11" d="M190.55,141.34c-.23,1.39-.9,2.52-2.03,3.37-1.12,.85-2.42,1.16-3.91,.91-1.43-.24-2.56-.92-3.38-2.05-.82-1.13-1.12-2.38-.9-3.75,.21-1.27,.82-2.34,1.85-3.21,1.02-.86,2.21-1.24,3.57-1.12,1.64,.14,2.91,.76,3.82,1.86s1.24,2.43,.98,3.98Zm-3.81-.56c.06-.38,0-.7-.22-.97s-.5-.43-.9-.5c-.37-.06-.7,.02-.98,.24-.28,.22-.45,.5-.5,.85-.07,.41,.04,.77,.34,1.09,.3,.32,.67,.45,1.11,.39,.31-.03,.56-.15,.76-.36,.2-.21,.33-.46,.38-.74Z"/></g></g></svg>