<?xml version="1.0" encoding="UTF-8"?><svg xmlns="http://www.w3.org/2000/svg" viewBox="0 0 246.61 161.57"><defs><style>.cls-1,.cls-2{fill:#fff;}.cls-2{opacity:.8;}.cls-3,.cls-4,.cls-5,.cls-6{font-family:ARCO-Typography-Regular, 'ARCO Typography';font-size:91.93px;}.cls-3,.cls-7,.cls-5{stroke-miterlimit:10;}.cls-3,.cls-5{stroke:#fff;stroke-width:8.5px;}.cls-3,.cls-6,.cls-8{fill:#27a7d9;}.cls-4,.cls-5{fill:#f7d743;}.cls-7{fill:none;stroke:#017336;}.cls-9{fill:#ffd455;}.cls-10{fill:#017336;}</style></defs><g id="Camada_2"><rect class="cls-10" x="0" y="0" width="246.61" height="161.57"/><ellipse class="cls-1" cx="125.63" cy="58.06" rx="56.99" ry="55.27"/><rect class="cls-1" x="109.91" y="42.3" width="31.43" height="198.75" rx="11.22" ry="11.22" transform="translate(267.31 16.05) rotate(90)"/><rect class="cls-7" x="31.17" y="129.27" width="188.92" height="24.82" rx="7.77" ry="7.77"/></g><g id="Camada_3"><text class="cls-5" transform="translate(65.19 87.92)"><tspan x="0" y="0">5x</tspan></text><text class="cls-3" transform="translate(62.75 87.95)"><tspan x="0" y="0">5x</tspan></text><path class="cls-9" d="M192.98,143.94c-.7-.28-1.5,.16-1.8,.72-.34,.63-.02,1.37,.05,1.52,.38,.88,1.19,1.12,1.11,1.74,0,.07-.04,.26-.19,.41-.25,.26-.66,.21-.76,.2-.54-.06-.65-.42-.97-.39-.38,.04-.76,.6-.7,1.06,.08,.67,1.06,1,1.59,1.08,.96,.14,2.12-.3,2.62-1.28,.07-.14,.41-.81,.19-1.52-.25-.8-1.07-1.18-.93-1.49,.08-.19,.4-.08,.57-.3,.28-.37,0-1.44-.79-1.75Z"/><g><path class="cls-9" d="M40.73,139.31c.43-.64,.85-1.26,1.25-1.85,.4-.59,.76-1.03,1.07-1.33,.13-.13,.4-.23,.79-.29,.39-.06,.8-.09,1.22-.09,.42,0,.81,.04,1.15,.1,.35,.06,.54,.15,.6,.26,.08,.19,.15,.76,.2,1.71,.05,.94,.07,1.96,.07,3.06s-.03,2.11-.08,3.05c-.05,.94-.14,1.49-.25,1.66-.09,.11-.54,.17-1.33,.2-.8,.03-1.35,0-1.68-.06-.13-.03-.25-.41-.36-1.14-.11-.73-.18-1.47-.22-2.22-.09,.09-.24,.26-.47,.49-.22,.24-.46,.48-.72,.73-.26,.25-.5,.47-.74,.66-.24,.19-.41,.29-.52,.29s-.28-.09-.51-.28c-.23-.18-.46-.4-.71-.63s-.48-.47-.69-.7-.36-.39-.45-.47c-.05,.7-.13,1.41-.23,2.13-.1,.72-.22,1.1-.34,1.14-.16,.05-.4,.08-.72,.09s-.64,0-.97,0-.62-.04-.88-.08-.41-.09-.44-.14c-.12-.17-.21-.73-.27-1.68-.06-.96-.09-1.99-.1-3.09,0-1.11,.01-2.13,.05-3.08,.04-.94,.1-1.49,.2-1.63,.07-.11,.27-.19,.62-.25,.35-.06,.73-.09,1.15-.1,.42,0,.82,.03,1.2,.09,.38,.06,.65,.16,.79,.29,.3,.3,.66,.74,1.07,1.33,.41,.59,.83,1.2,1.25,1.85Z"/><path class="cls-9" d="M54.12,136.31c0-.12,.18-.21,.53-.28,.35-.07,.73-.1,1.16-.1s.82,.03,1.19,.1c.37,.07,.59,.18,.66,.34,.09,.23,.16,.64,.19,1.21s.04,1.2,.02,1.87c-.02,.67-.08,1.34-.18,1.98-.09,.65-.23,1.16-.4,1.54-.37,.81-.9,1.46-1.6,1.97-.7,.51-1.51,.8-2.41,.87-1.14,.08-2.2-.2-3.18-.84-.98-.64-1.66-1.5-2.04-2.56-.13-.35-.22-.84-.27-1.49-.05-.65-.08-1.31-.08-1.97,0-.67,.04-1.27,.12-1.82s.18-.89,.33-1.04c.12-.12,.38-.2,.76-.24,.39-.04,.79-.05,1.2-.03,.42,.02,.79,.07,1.11,.15s.49,.17,.49,.29c0,.34-.04,.82-.08,1.44s-.06,1.23-.04,1.84c.02,.61,.12,1.15,.27,1.62,.16,.47,.44,.72,.85,.77,.44,.05,.76-.15,.96-.61s.32-1.01,.38-1.65,.08-1.28,.06-1.92-.02-1.12,0-1.43Z"/><path class="cls-9" d="M62.39,136.13c.02,.21,.04,.59,.05,1.15,.01,.56,.02,1.14,.03,1.75,0,.6,.02,1.15,.03,1.64s.03,.76,.05,.82c.03,.1,.17,.16,.43,.17,.26,.01,.55,0,.87,0s.63-.04,.92-.06,.5-.01,.61,.02c.16,.05,.28,.28,.38,.69,.1,.41,.16,.84,.19,1.31s.02,.9-.04,1.3c-.05,.4-.15,.61-.3,.65-.22,.06-.66,.11-1.33,.16-.66,.05-1.36,.08-2.1,.09s-1.42-.01-2.05-.07c-.63-.05-1.02-.16-1.17-.32-.15-.16-.26-.67-.34-1.53-.08-.86-.13-1.81-.16-2.85-.03-1.03-.04-2.02-.03-2.95,0-.93,.03-1.55,.06-1.85,.02-.18,.23-.31,.63-.39s.85-.13,1.32-.13,.92,.03,1.32,.1c.4,.07,.61,.17,.63,.3Z"/><path class="cls-9" d="M73.08,145.51c-.05,.09-.21,.16-.48,.21-.27,.05-.57,.09-.91,.1-.34,.01-.67,0-1-.02-.33-.03-.58-.08-.75-.15-.18-.08-.34-.72-.48-1.94s-.25-2.44-.32-3.68c-.64-.01-1.2-.05-1.66-.1-.47-.05-.72-.13-.77-.24-.08-.17-.15-.43-.21-.8-.06-.37-.09-.75-.11-1.14s-.01-.74,0-1.05c.02-.31,.08-.49,.17-.54,.13-.1,.55-.18,1.28-.24,.73-.06,1.56-.1,2.5-.13,.94-.02,1.9-.03,2.88-.02,.97,.01,1.77,.04,2.4,.08,.25,.02,.42,.23,.51,.64,.09,.41,.12,.86,.1,1.35-.03,.49-.1,.94-.23,1.35s-.27,.62-.45,.64c-.17,.03-.43,.05-.8,.08-.37,.02-.78,.04-1.23,.06-.01,1.24-.06,2.43-.14,3.57s-.18,1.8-.31,1.97Z"/><path class="cls-9" d="M81.06,145.5c-.09,.18-.55,.28-1.36,.31-.82,.03-1.4-.02-1.74-.17-.15-.07-.3-.52-.43-1.35-.13-.84-.25-1.78-.35-2.82-.1-1.04-.17-2.05-.21-3.01-.04-.97-.05-1.61,0-1.94,.03-.27,.27-.47,.73-.61s.96-.21,1.51-.23,1.05,.03,1.5,.13c.45,.1,.69,.27,.72,.49,.07,.63,.11,1.44,.11,2.43,0,.99,0,1.96-.05,2.92s-.1,1.81-.18,2.54c-.08,.74-.17,1.17-.26,1.3Z"/><path class="cls-9" d="M90.28,140.31c-.15,.97-.59,1.79-1.32,2.44-.73,.65-1.59,.93-2.6,.84-.04,.5-.09,.93-.14,1.27-.05,.35-.11,.56-.18,.64-.09,.17-.54,.27-1.34,.31-.8,.04-1.37-.02-1.7-.16-.15-.07-.28-.5-.39-1.32-.12-.81-.21-1.73-.28-2.74-.07-1.02-.12-1.99-.14-2.93-.02-.94-.02-1.57,.01-1.89,.03-.3,.28-.53,.75-.68s1.02-.26,1.64-.3c.62-.04,1.25-.03,1.88,.04,.63,.07,1.12,.18,1.47,.33,1.86,.79,2.63,2.18,2.33,4.16Zm-2.81-.79c-.1-.47-.42-.74-.95-.8-.1,0-.18,0-.24,0-.42,.07-.61,.37-.57,.9,.04,.53,.18,.87,.42,1.03,.1,.07,.26,.09,.48,.05,.32-.05,.56-.19,.71-.41,.16-.23,.21-.49,.15-.78Z"/><path class="cls-9" d="M95.14,136.13c.02,.21,.04,.59,.05,1.15,.01,.56,.02,1.14,.03,1.75,0,.6,.02,1.15,.03,1.64s.03,.76,.05,.82c.03,.1,.17,.16,.43,.17,.26,.01,.55,0,.87,0s.63-.04,.92-.06,.5-.01,.61,.02c.16,.05,.28,.28,.38,.69,.1,.41,.16,.84,.19,1.31s.02,.9-.04,1.3c-.05,.4-.15,.61-.3,.65-.22,.06-.66,.11-1.33,.16-.66,.05-1.36,.08-2.1,.09s-1.42-.01-2.05-.07c-.63-.05-1.02-.16-1.17-.32-.15-.16-.26-.67-.34-1.53-.08-.86-.13-1.81-.16-2.85-.03-1.03-.04-2.02-.03-2.95,0-.93,.03-1.55,.06-1.85,.02-.18,.23-.31,.63-.39s.85-.13,1.32-.13,.92,.03,1.32,.1c.4,.07,.61,.17,.63,.3Z"/><path class="cls-9" d="M103.42,145.5c-.09,.18-.55,.28-1.36,.31-.82,.03-1.4-.02-1.74-.17-.15-.07-.3-.52-.43-1.35-.13-.84-.25-1.78-.35-2.82-.1-1.04-.17-2.05-.21-3.01-.04-.97-.05-1.61,0-1.94,.03-.27,.27-.47,.73-.61s.96-.21,1.51-.23,1.05,.03,1.5,.13c.45,.1,.69,.27,.72,.49,.07,.63,.11,1.44,.11,2.43,0,.99,0,1.96-.05,2.92s-.1,1.81-.18,2.54c-.08,.74-.17,1.17-.26,1.3Z"/><path class="cls-9" d="M111.31,139.19c-.19,0-.38,.02-.57,.03s-.37,.04-.55,.07c-.46,.09-.87,.31-1.24,.65s-.51,.77-.41,1.28c.05,.23,.16,.41,.33,.55,.27,.21,.63,.32,1.08,.31,.45-.01,.83-.05,1.16-.13,.18-.06,.36-.05,.54,.03,.16,.08,.31,.21,.44,.41,.2,.32,.34,.74,.42,1.26,.08,.53,.05,.96-.09,1.3-.11,.28-.27,.45-.5,.5-.71,.26-1.5,.39-2.36,.38-.86,0-1.62-.17-2.3-.48-.92-.42-1.62-1.03-2.11-1.84-.49-.81-.68-1.74-.58-2.77,.17-1.64,.82-2.93,1.94-3.85,1.12-.92,2.52-1.3,4.19-1.12,.28,.03,.52,.18,.74,.44,.21,.26,.38,.72,.52,1.37s.06,1.13-.25,1.43c-.11,.11-.24,.17-.39,.18Z"/><path class="cls-9" d="M113.14,145.6c-.08-.09-.13-.2-.13-.32,0-.43,.07-1.06,.22-1.92,.16-.85,.35-1.74,.59-2.67,.23-.92,.48-1.79,.75-2.59,.26-.81,.49-1.37,.69-1.7,.08-.13,.31-.24,.69-.34,.38-.1,.8-.17,1.26-.21,.46-.04,.9-.04,1.33,0,.43,.04,.72,.14,.89,.3,.24,.24,.53,.76,.86,1.56s.66,1.67,.98,2.62,.6,1.85,.85,2.72c.25,.87,.42,1.48,.5,1.84,.06,.26,.04,.45-.05,.55-.09,.1-.25,.17-.48,.21-.38,.07-.86,.11-1.43,.15-.57,.03-.92,.04-1.07,.02-.06,0-.11-.03-.16-.06-.16-.1-.31-.37-.45-.83-.15-.46-.29-.77-.43-.94-.08-.1-.19-.16-.33-.18h-1.07c-.33,0-.55,.11-.65,.33-.13,.28-.28,.58-.44,.92s-.29,.55-.37,.62c-.04,.05-.1,.08-.18,.1-.18,.04-.6,.05-1.26,.03s-1.04-.09-1.13-.2Zm4.23-5.8c-.14,.15-.29,.41-.43,.77-.14,.36-.19,.6-.15,.71,.07,.19,.35,.28,.84,.26,.5-.02,.77-.14,.81-.36,.03-.14-.1-.45-.39-.93s-.52-.63-.68-.45Z"/><path class="cls-9" d="M130.98,142.87c-.48,1.14-1.24,1.93-2.28,2.35-1.04,.42-2.13,.63-3.28,.61-.39,0-.77-.04-1.13-.08-.36-.05-.62-.1-.79-.17-.25-.1-.45-.63-.61-1.57-.15-.94-.24-1.97-.27-3.09s0-2.16,.09-3.12c.09-.96,.26-1.52,.51-1.68,.25-.16,.63-.27,1.13-.35,.81-.11,1.69-.1,2.64,.03,.95,.14,1.75,.47,2.4,.99,.86,.7,1.45,1.63,1.76,2.79,.32,1.16,.26,2.25-.18,3.28Zm-4.93-2.94c-.07,.24-.09,.59-.05,1.06s.14,.74,.29,.82c.07,.04,.21,.06,.42,.05,.34,0,.63-.09,.86-.23,.23-.15,.37-.36,.39-.65,.03-.35-.1-.66-.38-.91-.29-.25-.58-.39-.9-.42-.13,0-.25,0-.38,.03-.13,.03-.21,.11-.25,.25Z"/><path class="cls-9" d="M142.06,141.51c-.23,1.38-.89,2.49-1.99,3.34-1.1,.85-2.38,1.15-3.85,.9-1.41-.24-2.52-.91-3.33-2.03s-1.1-2.35-.89-3.71c.2-1.26,.81-2.32,1.82-3.18,1.01-.86,2.18-1.23,3.51-1.11,1.61,.14,2.86,.76,3.75,1.85,.89,1.09,1.22,2.41,.97,3.94Zm-3.74-.56c.06-.38,0-.7-.21-.96-.2-.26-.5-.43-.88-.5-.37-.06-.69,.02-.96,.24-.28,.22-.44,.5-.5,.84-.07,.41,.04,.77,.34,1.08,.3,.31,.66,.44,1.1,.39,.3-.03,.55-.15,.75-.35,.2-.21,.32-.45,.37-.74Z"/><path class="cls-9" d="M149.8,141.61c.44,.37,.83,.73,1.17,1.08,.33,.35,.5,.61,.51,.79,0,.13-.07,.32-.22,.57s-.31,.5-.5,.75c-.19,.25-.37,.47-.54,.66-.17,.19-.29,.28-.36,.28-.28,.06-.7-.09-1.24-.44-.54-.35-.98-.59-1.31-.7-.32-.1-.5-.06-.52,.12,0,.32-.02,.56-.08,.72s-.27,.27-.64,.31c-.42,.04-.89,.07-1.43,.07s-.88,0-1.02-.04c-.1-.02-.18-.07-.24-.17-.09-.12-.18-.66-.28-1.63s-.18-2.02-.23-3.15c-.06-1.13-.08-2.17-.08-3.11,0-.95,.08-1.46,.21-1.53,.47-.27,1.11-.46,1.91-.58,.8-.12,1.59-.1,2.38,.06s1.5,.49,2.12,.99,1.01,1.23,1.14,2.19c.18,1.28-.07,2.2-.74,2.77Zm-3.28-1.25c.33-.03,.59-.16,.77-.37,.18-.21,.27-.43,.27-.66s-.11-.43-.31-.59c-.21-.17-.53-.23-.96-.18-.36,.04-.5,.36-.42,.96s.29,.88,.66,.84Z"/><path class="cls-9" d="M164.99,142.87c-.48,1.14-1.24,1.93-2.28,2.35-1.04,.42-2.13,.63-3.28,.61-.39,0-.77-.04-1.13-.08-.36-.05-.63-.1-.79-.17-.25-.1-.46-.63-.61-1.57-.15-.94-.24-1.97-.27-3.09s0-2.16,.09-3.12c.09-.96,.26-1.52,.51-1.68,.25-.16,.63-.27,1.14-.35,.81-.11,1.69-.1,2.64,.03s1.75,.47,2.4,.99c.86,.7,1.45,1.63,1.76,2.79,.32,1.16,.25,2.25-.18,3.28Zm-4.93-2.94c-.07,.24-.09,.59-.05,1.06,.04,.47,.14,.74,.29,.82,.07,.04,.21,.06,.42,.05,.34,0,.63-.09,.86-.23,.24-.15,.37-.36,.39-.65,.03-.35-.1-.66-.38-.91-.28-.25-.58-.39-.9-.42-.13,0-.25,0-.38,.03-.13,.03-.21,.11-.25,.25Z"/><path class="cls-9" d="M170.26,142.33c.76,0,1.45-.03,2.06-.07,.61-.03,.97,0,1.08,.12,.12,.1,.2,.51,.26,1.26,.05,.74,.03,1.28-.06,1.61-.04,.14-.38,.26-1.02,.35-.64,.09-1.36,.15-2.15,.19s-1.56,.04-2.29,.02c-.73-.02-1.21-.08-1.43-.18-.13-.05-.24-.41-.32-1.06-.08-.65-.15-1.42-.2-2.3s-.08-1.77-.08-2.69c0-.91,0-1.66,.03-2.23,0-.32,.03-.6,.08-.86,.05-.26,.13-.42,.24-.49,.11-.07,.49-.12,1.15-.17,.66-.05,1.37-.08,2.13-.09,.76-.01,1.46,0,2.11,.04,.65,.04,1.02,.1,1.12,.2,.12,.1,.18,.48,.2,1.14s-.03,1.16-.12,1.5c-.05,.16-.35,.26-.92,.29-.56,.04-1.22,.07-1.97,.1,0,.05,0,.11,0,.18,0,.07,0,.13,.01,.18,.49,0,.89,.05,1.2,.11,.07,.02,.15,.15,.22,.39,.07,.24,.12,.5,.15,.78,.03,.28,.03,.54,0,.79-.03,.24-.11,.37-.23,.39-.09,.03-.25,.05-.47,.07-.23,.02-.48,.03-.76,.04v.39Z"/><path class="cls-9" d="M178.95,145.6c-.08-.09-.13-.2-.13-.32,0-.43,.07-1.06,.22-1.92,.16-.85,.35-1.74,.59-2.67,.24-.92,.48-1.79,.75-2.59s.49-1.37,.69-1.7c.08-.13,.31-.24,.69-.34,.38-.1,.8-.17,1.26-.21,.46-.04,.91-.04,1.33,0s.72,.14,.89,.3c.24,.24,.53,.76,.86,1.56,.33,.8,.66,1.67,.98,2.62s.6,1.85,.85,2.72c.25,.87,.42,1.48,.5,1.84,.06,.26,.04,.45-.05,.55-.09,.1-.25,.17-.48,.21-.38,.07-.86,.11-1.43,.15s-.92,.04-1.07,.02c-.06,0-.11-.03-.16-.06-.16-.1-.31-.37-.45-.83s-.29-.77-.43-.94c-.08-.1-.19-.16-.33-.18h-1.07c-.33,0-.55,.11-.65,.33-.13,.28-.28,.58-.44,.92-.17,.34-.29,.55-.37,.62-.04,.05-.1,.08-.18,.1-.18,.04-.6,.05-1.26,.03-.66-.02-1.04-.09-1.13-.2Zm4.23-5.8c-.14,.15-.29,.41-.43,.77-.14,.36-.19,.6-.15,.71,.07,.19,.35,.28,.84,.26,.5-.02,.77-.14,.81-.36,.03-.14-.1-.45-.39-.93s-.52-.63-.69-.45Z"/><path class="cls-9" d="M195.18,139.19c-.19,0-.38,.02-.57,.03-.19,.01-.37,.04-.55,.07-.46,.09-.87,.31-1.24,.65-.37,.34-.51,.77-.41,1.28,.05,.23,.16,.41,.33,.55,.27,.21,.63,.32,1.08,.31,.45-.01,.83-.05,1.16-.13,.18-.06,.36-.05,.54,.03,.16,.08,.31,.21,.44,.41,.2,.32,.34,.74,.42,1.26,.08,.53,.05,.96-.09,1.3-.11,.28-.27,.45-.5,.5-.71,.26-1.5,.39-2.36,.38-.86,0-1.62-.17-2.3-.48-.92-.42-1.62-1.03-2.11-1.84s-.68-1.74-.58-2.77c.17-1.64,.82-2.93,1.94-3.85,1.12-.92,2.52-1.3,4.19-1.12,.28,.03,.52,.18,.74,.44,.21,.26,.38,.72,.52,1.37,.14,.65,.06,1.13-.24,1.43-.11,.11-.24,.17-.39,.18Z"/><path class="cls-9" d="M197.01,145.6c-.08-.09-.13-.2-.13-.32,0-.43,.07-1.06,.22-1.92,.16-.85,.35-1.74,.59-2.67,.24-.92,.48-1.79,.75-2.59s.49-1.37,.69-1.7c.08-.13,.31-.24,.69-.34,.38-.1,.8-.17,1.26-.21,.46-.04,.91-.04,1.33,0s.72,.14,.89,.3c.24,.24,.53,.76,.86,1.56,.33,.8,.66,1.67,.98,2.62s.6,1.85,.85,2.72c.25,.87,.42,1.48,.5,1.84,.06,.26,.04,.45-.05,.55-.09,.1-.25,.17-.48,.21-.38,.07-.86,.11-1.43,.15s-.92,.04-1.07,.02c-.06,0-.11-.03-.16-.06-.16-.1-.31-.37-.45-.83s-.29-.77-.43-.94c-.08-.1-.19-.16-.33-.18h-1.07c-.33,0-.55,.11-.65,.33-.13,.28-.28,.58-.44,.92-.17,.34-.29,.55-.37,.62-.04,.05-.1,.08-.18,.1-.18,.04-.6,.05-1.26,.03-.66-.02-1.04-.09-1.13-.2Zm4.23-5.8c-.14,.15-.29,.41-.43,.77-.14,.36-.19,.6-.15,.71,.07,.19,.35,.28,.84,.26,.5-.02,.77-.14,.81-.36,.03-.14-.1-.45-.39-.93s-.52-.63-.69-.45Z"/><path class="cls-9" d="M216.44,141.51c-.23,1.38-.89,2.49-1.99,3.34-1.1,.85-2.38,1.15-3.85,.9-1.41-.24-2.52-.91-3.33-2.03s-1.1-2.35-.89-3.71c.2-1.26,.81-2.32,1.82-3.18,1.01-.86,2.18-1.23,3.51-1.11,1.61,.14,2.86,.76,3.75,1.85,.89,1.09,1.22,2.41,.97,3.94Zm-3.74-.56c.06-.38,0-.7-.21-.96-.2-.26-.5-.43-.88-.5-.37-.06-.69,.02-.96,.24-.28,.22-.44,.5-.5,.84-.07,.41,.04,.77,.34,1.08,.3,.31,.66,.44,1.1,.39,.3-.03,.55-.15,.75-.35,.2-.21,.32-.45,.37-.74Z"/></g><g><path class="cls-8" d="M40.03,139.27c.43-.64,.84-1.25,1.25-1.83,.4-.58,.76-1.02,1.06-1.31,.13-.13,.4-.23,.79-.29,.39-.06,.8-.09,1.22-.08s.81,.04,1.15,.1,.54,.15,.6,.25c.08,.19,.15,.75,.2,1.69s.07,1.94,.07,3.03-.03,2.09-.08,3.02c-.05,.93-.14,1.47-.25,1.64-.09,.1-.53,.17-1.33,.2-.79,.03-1.35,0-1.67-.06-.13-.03-.25-.4-.36-1.13-.11-.72-.18-1.46-.22-2.2-.09,.09-.24,.25-.47,.49s-.46,.47-.72,.72c-.26,.25-.5,.47-.74,.66s-.41,.29-.52,.29-.28-.09-.51-.27-.46-.39-.71-.63-.47-.47-.69-.69-.36-.38-.45-.47c-.05,.69-.13,1.4-.23,2.11-.1,.71-.22,1.09-.34,1.13-.16,.05-.4,.08-.72,.08-.32,0-.64,0-.96,0-.33-.01-.62-.04-.88-.08-.26-.04-.41-.09-.44-.14-.12-.16-.21-.72-.27-1.67s-.09-1.97-.1-3.06c0-1.09,.01-2.11,.05-3.04s.1-1.47,.2-1.62c.07-.1,.27-.19,.62-.25s.73-.09,1.14-.09c.42,0,.82,.03,1.2,.09,.38,.06,.65,.16,.78,.29,.3,.29,.66,.73,1.07,1.31,.41,.58,.83,1.19,1.25,1.83Z"/><path class="cls-8" d="M53.39,136.31c0-.12,.18-.21,.53-.28,.35-.07,.73-.1,1.15-.1,.42,0,.82,.03,1.19,.1,.37,.07,.59,.18,.65,.34,.09,.23,.16,.63,.19,1.2,.04,.57,.04,1.19,.02,1.85-.02,.67-.08,1.32-.17,1.96-.09,.64-.22,1.15-.39,1.52-.37,.8-.9,1.45-1.6,1.95-.7,.5-1.5,.79-2.4,.86-1.14,.08-2.19-.2-3.17-.84s-1.66-1.48-2.04-2.53c-.13-.34-.22-.83-.27-1.48-.05-.64-.08-1.29-.08-1.95,0-.66,.04-1.26,.12-1.8,.07-.54,.18-.88,.33-1.02,.12-.12,.38-.2,.76-.23,.39-.04,.79-.05,1.2-.03s.78,.07,1.11,.15c.32,.08,.48,.17,.48,.29,0,.34-.04,.81-.08,1.42-.05,.61-.06,1.22-.04,1.82,.02,.6,.11,1.14,.27,1.6,.16,.46,.44,.71,.85,.76,.44,.05,.76-.15,.95-.61,.19-.46,.32-1,.38-1.63,.06-.63,.08-1.27,.06-1.9s-.02-1.11,0-1.42Z"/><path class="cls-8" d="M61.64,136.13c.02,.2,.04,.58,.05,1.14s.02,1.13,.03,1.73c0,.6,.02,1.14,.03,1.62,.01,.48,.03,.76,.05,.82,.03,.1,.17,.16,.43,.17,.26,.01,.55,0,.87,0s.63-.04,.92-.06c.29-.02,.5-.01,.6,.02,.16,.05,.28,.28,.38,.68,.1,.4,.16,.83,.19,1.3,.03,.47,.02,.9-.04,1.29-.05,.39-.15,.61-.3,.64-.22,.06-.66,.11-1.32,.16-.66,.05-1.36,.08-2.1,.09-.74,0-1.42-.01-2.05-.06s-1.02-.16-1.17-.31c-.15-.16-.26-.66-.34-1.52-.08-.85-.13-1.79-.16-2.82s-.04-2-.03-2.92c0-.92,.03-1.54,.06-1.83,.02-.18,.23-.31,.63-.39,.4-.08,.84-.12,1.32-.13,.48,0,.92,.03,1.32,.1,.4,.07,.61,.17,.63,.29Z"/><path class="cls-8" d="M72.3,145.41c-.05,.09-.21,.16-.48,.21-.27,.05-.57,.08-.91,.1-.34,.01-.67,0-1-.02-.33-.03-.58-.08-.75-.15-.18-.08-.34-.72-.48-1.92s-.25-2.41-.32-3.64c-.64-.01-1.19-.05-1.66-.1-.46-.05-.72-.13-.77-.24-.08-.16-.15-.43-.21-.8-.06-.37-.09-.74-.11-1.13s-.01-.73,0-1.04,.08-.49,.17-.54c.13-.1,.55-.18,1.28-.24,.72-.06,1.56-.1,2.5-.13,.94-.02,1.9-.03,2.87-.02,.97,.01,1.77,.04,2.39,.07,.25,.02,.42,.23,.51,.64s.12,.85,.1,1.34c-.03,.49-.1,.93-.22,1.34-.12,.41-.27,.62-.45,.63-.16,.03-.43,.05-.79,.07-.36,.02-.77,.04-1.23,.06-.01,1.22-.06,2.4-.14,3.54s-.18,1.78-.31,1.95Z"/><path class="cls-8" d="M80.25,145.4c-.09,.17-.54,.28-1.36,.31-.82,.03-1.39-.02-1.73-.17-.15-.07-.29-.51-.43-1.34-.13-.83-.25-1.76-.34-2.79-.1-1.03-.17-2.03-.21-2.98-.04-.96-.05-1.59,0-1.92,.03-.26,.27-.47,.73-.6,.46-.14,.96-.21,1.5-.23,.54-.02,1.04,.03,1.5,.13,.45,.1,.69,.27,.72,.49,.07,.62,.11,1.42,.11,2.4s0,1.94-.05,2.89-.1,1.79-.18,2.52-.17,1.16-.26,1.29Z"/><path class="cls-8" d="M89.45,140.27c-.15,.96-.59,1.77-1.31,2.41-.72,.65-1.59,.92-2.6,.83-.04,.5-.08,.92-.14,1.26-.05,.34-.11,.55-.18,.63-.09,.17-.54,.27-1.33,.31s-1.36-.02-1.69-.16c-.15-.07-.28-.5-.39-1.3-.11-.8-.21-1.71-.28-2.72s-.12-1.97-.14-2.9c-.02-.93-.02-1.55,.01-1.87,.03-.29,.28-.52,.75-.68,.47-.16,1.02-.25,1.64-.29,.62-.04,1.24-.02,1.87,.04,.63,.07,1.12,.17,1.47,.32,1.85,.78,2.63,2.15,2.32,4.12Zm-2.8-.78c-.1-.47-.42-.73-.95-.79-.1,0-.18,0-.24,0-.42,.07-.6,.37-.57,.89,.04,.52,.18,.86,.42,1.01,.1,.07,.26,.09,.48,.05,.32-.05,.55-.18,.71-.41,.16-.22,.21-.48,.15-.77Z"/><path class="cls-8" d="M94.3,136.13c.02,.2,.04,.58,.05,1.14s.02,1.13,.03,1.73c0,.6,.02,1.14,.03,1.62,.01,.48,.03,.76,.05,.82,.03,.1,.17,.16,.43,.17,.26,.01,.55,0,.87,0,.32-.02,.62-.04,.92-.06,.29-.02,.5-.01,.61,.02,.16,.05,.28,.28,.38,.68,.1,.4,.16,.83,.19,1.3,.03,.47,.02,.9-.04,1.29-.05,.39-.15,.61-.3,.64-.22,.06-.66,.11-1.32,.16s-1.36,.08-2.1,.09c-.74,0-1.42-.01-2.05-.06s-1.02-.16-1.16-.31c-.15-.16-.26-.66-.34-1.52-.08-.85-.13-1.79-.16-2.82-.03-1.02-.04-2-.03-2.92,0-.92,.03-1.54,.06-1.83,.02-.18,.23-.31,.63-.39,.4-.08,.84-.12,1.32-.13,.48,0,.92,.03,1.32,.1s.61,.17,.63,.29Z"/><path class="cls-8" d="M102.55,145.4c-.09,.17-.54,.28-1.36,.31-.82,.03-1.39-.02-1.73-.17-.15-.07-.29-.51-.43-1.34-.13-.83-.25-1.76-.34-2.79-.09-1.03-.17-2.03-.21-2.98s-.05-1.59,0-1.92c.03-.26,.27-.47,.73-.6,.46-.14,.96-.21,1.5-.23,.54-.02,1.04,.03,1.5,.13,.45,.1,.69,.27,.72,.49,.07,.62,.11,1.42,.11,2.4,0,.98,0,1.94-.05,2.89s-.1,1.79-.17,2.52-.17,1.16-.26,1.29Z"/><path class="cls-8" d="M110.42,139.15c-.19,0-.38,.02-.57,.03s-.37,.03-.55,.07c-.46,.09-.87,.31-1.24,.65s-.51,.76-.41,1.27c.05,.23,.16,.41,.33,.54,.27,.21,.63,.31,1.07,.3,.45-.01,.83-.05,1.16-.13,.18-.06,.36-.05,.53,.03,.16,.08,.31,.21,.44,.4,.2,.31,.34,.73,.42,1.25,.08,.52,.05,.95-.09,1.29-.11,.28-.27,.44-.49,.49-.71,.26-1.49,.39-2.35,.38-.85,0-1.62-.16-2.3-.47-.92-.41-1.62-1.02-2.1-1.82-.49-.8-.68-1.72-.58-2.75,.17-1.63,.81-2.9,1.93-3.81,1.12-.92,2.51-1.28,4.18-1.11,.28,.03,.52,.18,.74,.44,.21,.26,.38,.71,.52,1.36s.06,1.12-.24,1.42c-.11,.11-.24,.17-.39,.18Z"/><path class="cls-8" d="M112.24,145.5c-.08-.09-.13-.19-.13-.32,0-.42,.06-1.05,.22-1.9s.35-1.72,.59-2.64c.23-.91,.48-1.77,.74-2.57,.26-.8,.49-1.36,.69-1.68,.08-.13,.31-.24,.69-.34,.38-.1,.8-.17,1.26-.21s.9-.04,1.33,0,.72,.14,.89,.3c.24,.23,.53,.75,.86,1.54s.66,1.66,.97,2.59,.6,1.83,.85,2.69c.25,.86,.42,1.47,.5,1.82,.06,.26,.04,.44-.05,.54-.09,.1-.25,.17-.47,.21-.38,.06-.86,.11-1.42,.15-.57,.03-.92,.04-1.06,.02-.06,0-.11-.03-.16-.06-.16-.1-.31-.37-.45-.82-.15-.45-.29-.76-.43-.93-.08-.1-.19-.16-.33-.18h-1.07c-.33,0-.55,.11-.65,.33-.13,.27-.28,.58-.44,.91-.17,.33-.29,.54-.36,.62-.04,.05-.1,.08-.18,.1-.18,.04-.6,.05-1.26,.03-.66-.02-1.04-.09-1.13-.2Zm4.22-5.74c-.14,.15-.29,.41-.43,.76-.14,.36-.19,.59-.15,.71,.06,.19,.35,.28,.84,.26,.5-.02,.77-.14,.81-.36,.03-.13-.1-.44-.39-.92s-.51-.63-.68-.45Z"/><path class="cls-8" d="M130.03,142.8c-.48,1.13-1.24,1.91-2.28,2.33-1.04,.42-2.13,.62-3.27,.6-.39,0-.77-.04-1.13-.08-.36-.05-.62-.1-.78-.17-.25-.1-.45-.62-.61-1.55s-.24-1.95-.27-3.05c-.03-1.11,0-2.14,.09-3.09,.09-.95,.26-1.51,.51-1.66,.25-.16,.62-.27,1.13-.34,.81-.11,1.69-.1,2.63,.03,.94,.13,1.74,.46,2.4,.98,.86,.69,1.45,1.61,1.76,2.76,.31,1.15,.25,2.23-.18,3.25Zm-4.92-2.91c-.07,.24-.09,.59-.05,1.05,.04,.46,.14,.73,.29,.82,.07,.04,.21,.06,.42,.05,.34,0,.62-.09,.86-.23s.36-.36,.39-.65c.03-.35-.1-.65-.38-.9-.28-.25-.58-.39-.89-.42-.13,0-.25,0-.38,.03-.13,.03-.21,.11-.25,.24Z"/><path class="cls-8" d="M141.08,141.45c-.23,1.37-.89,2.47-1.99,3.3s-2.38,1.13-3.83,.89c-1.41-.23-2.51-.9-3.32-2.01s-1.1-2.33-.88-3.68c.2-1.25,.81-2.3,1.81-3.15s2.17-1.21,3.5-1.1c1.6,.14,2.85,.75,3.74,1.83,.89,1.08,1.21,2.38,.97,3.9Zm-3.73-.55c.06-.37,0-.69-.21-.95-.2-.26-.5-.43-.88-.49-.36-.06-.68,.02-.96,.24-.28,.22-.44,.5-.49,.83-.07,.4,.04,.76,.34,1.07,.29,.31,.66,.44,1.09,.39,.3-.03,.55-.15,.75-.35,.2-.2,.32-.45,.37-.73Z"/><path class="cls-8" d="M148.8,141.55c.44,.37,.83,.73,1.16,1.07s.5,.61,.51,.78c0,.13-.07,.31-.21,.56-.14,.25-.31,.49-.49,.74-.19,.25-.37,.46-.54,.65-.17,.19-.29,.28-.36,.28-.28,.06-.69-.09-1.23-.44-.54-.35-.97-.58-1.3-.69-.32-.1-.5-.06-.52,.12,0,.31-.02,.55-.08,.72s-.27,.27-.64,.31c-.42,.04-.89,.07-1.43,.07-.54,0-.88,0-1.02-.04-.1-.02-.18-.07-.24-.17-.09-.12-.18-.65-.28-1.61-.1-.96-.18-2-.23-3.12s-.08-2.15-.08-3.08c0-.94,.08-1.44,.21-1.52,.47-.26,1.11-.46,1.9-.57,.79-.12,1.58-.1,2.37,.06,.79,.16,1.49,.48,2.11,.98s1,1.21,1.14,2.16c.18,1.27-.07,2.18-.74,2.74Zm-3.27-1.24c.33-.03,.59-.16,.77-.36,.18-.21,.27-.43,.27-.65,0-.23-.11-.42-.31-.59s-.53-.22-.96-.18c-.36,.04-.5,.35-.42,.95,.08,.59,.29,.87,.65,.83Z"/><path class="cls-8" d="M163.94,142.8c-.48,1.13-1.24,1.91-2.28,2.33-1.04,.42-2.13,.62-3.27,.6-.39,0-.77-.04-1.13-.08-.36-.05-.62-.1-.78-.17-.25-.1-.45-.62-.6-1.55-.15-.93-.24-1.95-.27-3.05-.03-1.11,0-2.14,.09-3.09s.26-1.51,.51-1.66c.25-.16,.62-.27,1.13-.34,.81-.11,1.69-.1,2.63,.03,.94,.13,1.74,.46,2.4,.98,.86,.69,1.45,1.61,1.76,2.76,.31,1.15,.25,2.23-.18,3.25Zm-4.92-2.91c-.07,.24-.09,.59-.05,1.05,.04,.46,.14,.73,.29,.82,.07,.04,.21,.06,.42,.05,.34,0,.62-.09,.86-.23s.36-.36,.39-.65c.03-.35-.1-.65-.38-.9-.28-.25-.58-.39-.89-.42-.13,0-.25,0-.38,.03-.13,.03-.21,.11-.25,.24Z"/><path class="cls-8" d="M169.2,142.26c.76,0,1.44-.03,2.06-.07s.97,0,1.08,.12c.12,.1,.2,.51,.26,1.24,.05,.73,.03,1.26-.06,1.59-.04,.14-.38,.25-1.02,.34s-1.35,.15-2.15,.19c-.79,.03-1.55,.04-2.28,.02s-1.2-.08-1.42-.18c-.13-.05-.24-.4-.32-1.05-.08-.65-.15-1.41-.2-2.28-.05-.87-.08-1.76-.08-2.66,0-.9,0-1.64,.03-2.21,0-.31,.03-.6,.08-.86,.05-.26,.13-.42,.24-.48,.11-.06,.49-.12,1.14-.17,.66-.05,1.36-.08,2.12-.09,.76-.01,1.46,0,2.11,.04,.65,.04,1.02,.1,1.11,.2,.12,.1,.18,.47,.2,1.13,.01,.66-.03,1.15-.12,1.49-.05,.16-.35,.25-.91,.29-.56,.04-1.22,.07-1.97,.09,0,.05,0,.11,0,.18s0,.13,.01,.18c.49,0,.89,.05,1.2,.11,.07,.02,.15,.15,.22,.39,.07,.24,.12,.49,.15,.77s.03,.54,0,.78c-.03,.24-.11,.37-.23,.38-.09,.03-.24,.05-.47,.07s-.48,.03-.76,.04v.38Z"/><path class="cls-8" d="M177.86,145.5c-.08-.09-.12-.19-.13-.32,0-.42,.07-1.05,.22-1.9s.35-1.72,.58-2.64c.23-.91,.48-1.77,.75-2.57,.26-.8,.49-1.36,.69-1.68,.08-.13,.31-.24,.69-.34,.38-.1,.8-.17,1.26-.21,.46-.04,.9-.04,1.33,0,.43,.04,.72,.14,.89,.3,.24,.23,.53,.75,.86,1.54,.33,.79,.66,1.66,.97,2.59,.32,.93,.6,1.83,.85,2.69,.25,.86,.42,1.47,.5,1.82,.06,.26,.04,.44-.05,.54-.09,.1-.25,.17-.47,.21-.38,.06-.86,.11-1.42,.15-.57,.03-.92,.04-1.06,.02-.06,0-.11-.03-.16-.06-.16-.1-.31-.37-.45-.82-.15-.45-.29-.76-.43-.93-.08-.1-.19-.16-.33-.18h-1.07c-.33,0-.55,.11-.65,.33-.13,.27-.28,.58-.44,.91s-.29,.54-.36,.62c-.04,.05-.1,.08-.18,.1-.18,.04-.6,.05-1.26,.03s-1.04-.09-1.13-.2Zm4.22-5.74c-.14,.15-.29,.41-.43,.76-.14,.36-.19,.59-.15,.71,.07,.19,.35,.28,.84,.26,.5-.02,.77-.14,.81-.36,.03-.13-.1-.44-.39-.92-.29-.48-.51-.63-.68-.45Z"/><path class="cls-8" d="M194.05,139.15c-.19,0-.38,.02-.57,.03-.19,.01-.37,.03-.55,.07-.46,.09-.87,.31-1.24,.65-.37,.34-.51,.76-.41,1.27,.05,.23,.16,.41,.33,.54,.27,.21,.63,.31,1.07,.3,.45-.01,.83-.05,1.16-.13,.18-.06,.36-.05,.53,.03,.16,.08,.31,.21,.44,.4,.2,.31,.34,.73,.42,1.25,.08,.52,.05,.95-.09,1.29-.11,.28-.27,.44-.49,.49-.71,.26-1.49,.39-2.35,.38-.85,0-1.62-.16-2.3-.47-.92-.41-1.62-1.02-2.1-1.82-.49-.8-.68-1.72-.58-2.75,.17-1.63,.81-2.9,1.93-3.81,1.12-.92,2.51-1.28,4.18-1.11,.28,.03,.52,.18,.74,.44,.21,.26,.38,.71,.52,1.36s.05,1.12-.24,1.42c-.11,.11-.24,.17-.39,.18Z"/><path class="cls-8" d="M195.87,145.5c-.08-.09-.12-.19-.13-.32,0-.42,.07-1.05,.22-1.9s.35-1.72,.58-2.64c.23-.91,.48-1.77,.75-2.57,.26-.8,.49-1.36,.69-1.68,.08-.13,.31-.24,.69-.34,.38-.1,.8-.17,1.26-.21,.46-.04,.9-.04,1.33,0,.43,.04,.72,.14,.89,.3,.24,.23,.53,.75,.86,1.54,.33,.79,.66,1.66,.97,2.59,.32,.93,.6,1.83,.85,2.69,.25,.86,.42,1.47,.5,1.82,.06,.26,.04,.44-.05,.54-.09,.1-.25,.17-.47,.21-.38,.06-.86,.11-1.42,.15-.57,.03-.92,.04-1.06,.02-.06,0-.11-.03-.16-.06-.16-.1-.31-.37-.45-.82-.15-.45-.29-.76-.43-.93-.08-.1-.19-.16-.33-.18h-1.07c-.33,0-.55,.11-.65,.33-.13,.27-.28,.58-.44,.91s-.29,.54-.36,.62c-.04,.05-.1,.08-.18,.1-.18,.04-.6,.05-1.26,.03s-1.04-.09-1.13-.2Zm4.22-5.74c-.14,.15-.29,.41-.43,.76-.14,.36-.19,.59-.15,.71,.07,.19,.35,.28,.84,.26,.5-.02,.77-.14,.81-.36,.03-.13-.1-.44-.39-.92-.29-.48-.51-.63-.68-.45Z"/><path class="cls-8" d="M215.25,141.45c-.23,1.37-.89,2.47-1.99,3.3s-2.38,1.13-3.83,.89c-1.41-.23-2.51-.9-3.32-2.01s-1.1-2.33-.88-3.68c.2-1.25,.81-2.3,1.81-3.15s2.17-1.21,3.5-1.1c1.6,.14,2.85,.75,3.74,1.83,.89,1.08,1.21,2.38,.97,3.9Zm-3.73-.55c.06-.37,0-.69-.21-.95-.2-.26-.5-.43-.88-.49-.36-.06-.68,.02-.96,.24-.28,.22-.44,.5-.49,.83-.07,.4,.04,.76,.34,1.07,.29,.31,.66,.44,1.09,.39,.3-.03,.55-.15,.75-.35,.2-.2,.32-.45,.37-.73Z"/></g><path class="cls-9" d="M197.87,132.04c.62-.4,1.14,.38,2.6,.37,1.25,0,1.62-.58,2.65-.29,.24,.07,.79,.23,1.15,.75,.43,.6,.53,1.58,.12,1.92-.53,.43-1.36-.65-3.03-.53-.92,.07-1.04,.42-1.96,.37-.44-.02-1.61-.09-1.96-.89-.25-.56-.06-1.38,.43-1.7Z"/><path class="cls-8" d="M197.4,132.04c.62-.4,1.14,.38,2.6,.37,1.25,0,1.62-.58,2.65-.29,.24,.07,.79,.23,1.15,.75,.43,.6,.53,1.58,.12,1.92-.53,.43-1.36-.65-3.03-.53-.92,.07-1.04,.42-1.96,.37-.44-.02-1.61-.09-1.96-.89-.25-.56-.06-1.38,.43-1.7Z"/><path class="cls-8" d="M192.39,143.82c-.7-.28-1.5,.16-1.8,.72-.34,.63-.02,1.37,.05,1.52,.38,.88,1.19,1.12,1.11,1.74,0,.07-.04,.26-.19,.41-.25,.26-.66,.21-.76,.2-.54-.06-.65-.42-.97-.39-.38,.04-.76,.6-.7,1.06,.08,.67,1.06,1,1.59,1.08,.96,.14,2.12-.3,2.62-1.28,.07-.14,.41-.81,.19-1.52-.25-.8-1.07-1.18-.93-1.49,.08-.19,.4-.08,.57-.3,.28-.37,0-1.44-.79-1.75Z"/><text class="cls-4" transform="translate(65.18 87.35)"><tspan x="0" y="0">5x</tspan></text><text class="cls-6" transform="translate(62.73 87.38)"><tspan x="0" y="0">5x</tspan></text><path class="cls-2" d="M148.44,32.31c.12-.19,.24-.76-2.32-3.42-4.72-4.88-7.09-7.33-10.45-7.19-4,.16-7.98,3.92-7.43,5.84,.51,1.79,4.11,.96,14.11,3.52,3.17,.81,5.67,1.95,6.1,1.25Z"/><path class="cls-2" d="M174.46,24.36c-2.94-1.42-6.8-1.54-7.34-.3-.46,1.07,1.79,3.12,6.33,7.18,5.16,4.62,7.75,6.93,8.44,6.42,1.36-1.02-1.11-10.25-7.43-13.3Z"/><path class="cls-2" d="M104.61,23.92c1.8,2.43,1.62,6.62-.42,8.72-1.6,1.65-3.88,1.54-7.42,1.48-15.94-.25-18.11,1.19-20.97-1.48-2.34-2.19-4.05-6.12-2.78-8.54,.83-1.58,2.75-2.19,16.28-2.32,11.83-.11,13.97,.32,15.31,2.13Z"/></g></svg>