<?xml version="1.0" encoding="UTF-8"?><svg xmlns="http://www.w3.org/2000/svg" xmlns:xlink="http://www.w3.org/1999/xlink" viewBox="0 0 246.61 161.57"><defs><style>.cls-1,.cls-2,.cls-3,.cls-4,.cls-5,.cls-6,.cls-7,.cls-8,.cls-9,.cls-10{fill:#fff;}.cls-2,.cls-11,.cls-4,.cls-6,.cls-8,.cls-12,.cls-9,.cls-10,.cls-13,.cls-14{stroke-miterlimit:10;}.cls-2,.cls-4,.cls-6,.cls-8,.cls-9,.cls-10,.cls-14{stroke:#fff;}.cls-2,.cls-4,.cls-6,.cls-8,.cls-14{stroke-width:5.67px;}.cls-2,.cls-5,.cls-10{opacity:.8;}.cls-15{fill:#898888;}.cls-3,.cls-8{opacity:.9;}.cls-16{fill:url(#Gradiente_sem_nome_6);}.cls-11,.cls-12{stroke:#fdc729;}.cls-11,.cls-17{fill:#fee18b;}.cls-4,.cls-7{opacity:.19;}.cls-18{fill:#dbdcdb;}.cls-19{clip-path:url(#clippath-2);}.cls-20{fill:#585657;}.cls-21{clip-path:url(#clippath-1);}.cls-22{clip-path:url(#clippath-4);}.cls-23{fill:url(#Gradiente_sem_nome_17-2);}.cls-24{fill:#eaeaea;}.cls-12,.cls-25{fill:#ffd455;}.cls-26{fill:url(#Gradiente_sem_nome_13);}.cls-27{fill:url(#Gradiente_sem_nome_17);}.cls-28{clip-path:url(#clippath);}.cls-9,.cls-10{stroke-width:2.83px;}.cls-29,.cls-13,.cls-14{fill:none;}.cls-30{fill:#fcc11e;}.cls-31{clip-path:url(#clippath-3);}.cls-32{fill:#9b9b9b;}.cls-33{clip-path:url(#clippath-5);}.cls-34{fill:#84c179;}.cls-35{fill:#27a7d9;}.cls-13{stroke:#84c179;}</style><linearGradient id="Gradiente_sem_nome_6" x1="4468.38" y1="5151.6" x2="4463.79" y2="5151.57" gradientTransform="translate(5303.64 -4419.15) rotate(90)" gradientUnits="userSpaceOnUse"><stop offset="0" stop-color="#ffd455"/><stop offset="1" stop-color="#fdc425"/></linearGradient><linearGradient id="Gradiente_sem_nome_17" x1="4482.11" y1="5119.34" x2="4481.71" y2="5152.65" gradientTransform="translate(-4314.37 -5073.26)" gradientUnits="userSpaceOnUse"><stop offset="0" stop-color="#2490cd"/><stop offset=".42" stop-color="#2493cf"/><stop offset=".83" stop-color="#269fd5"/><stop offset="1" stop-color="#27a7d9"/></linearGradient><linearGradient id="Gradiente_sem_nome_17-2" x1="4446.36" y1="5107.88" x2="4445.69" y2="5163.98" gradientTransform="translate(5303.64 -4419.15) rotate(90)" xlink:href="#Gradiente_sem_nome_17"/><clipPath id="clippath"><path class="cls-6" d="M105.39,86.78l-47.5-1.39c-3.31-.1-5.92-2.96-5.82-6.4h0c.09-3.44,2.85-6.14,6.16-6.05l47.5,1.39c3.31,.1,5.92,2.96,5.82,6.4h0c-.09,3.44-2.85,6.14-6.16,6.05Z"/></clipPath><clipPath id="clippath-1"><path class="cls-6" d="M96.15,96.19c-5.58-.16-9.98-5-9.82-10.8,.16-5.8,4.81-10.37,10.39-10.21s9.98,5,9.82,10.8-4.81,10.37-10.39,10.21"/></clipPath><clipPath id="clippath-2"><path class="cls-6" d="M105.9,87.93l-47.5-1.39c-3.31-.1-5.92-2.96-5.82-6.4h0c.09-3.44,2.85-6.14,6.16-6.05l47.5,1.39c3.31,.1,5.92,2.96,5.82,6.4h0c-.09,3.44-2.85,6.14-6.16,6.05Z"/></clipPath><clipPath id="clippath-3"><path class="cls-6" d="M96.67,97.34c-5.58-.16-9.98-5-9.82-10.8,.16-5.8,4.81-10.37,10.39-10.21s9.98,5,9.82,10.8-4.81,10.37-10.39,10.21"/></clipPath><clipPath id="clippath-4"><path class="cls-29" d="M105.89,87.4l-47.5-1.38c-3.31-.1-5.92-2.95-5.82-6.37h0c.09-3.42,2.85-6.11,6.16-6.02l47.5,1.38c3.31,.1,5.92,2.95,5.82,6.37h0c-.09,3.42-2.85,6.11-6.16,6.02Z"/></clipPath><linearGradient id="Gradiente_sem_nome_13" x1="-398.14" y1="43.62" x2="-397.84" y2="77.51" gradientTransform="translate(505.01 4.11) rotate(1.48) scale(1.09 1) skewX(-.25)" gradientUnits="userSpaceOnUse"><stop offset="0" stop-color="#228dcd"/><stop offset=".06" stop-color="#2e80b1"/><stop offset=".14" stop-color="#3b7395"/><stop offset=".23" stop-color="#45687e"/><stop offset=".33" stop-color="#4e606c"/><stop offset=".45" stop-color="#535a60"/><stop offset=".62" stop-color="#575659"/><stop offset="1" stop-color="#585657"/></linearGradient><clipPath id="clippath-5"><path class="cls-29" d="M96.65,96.75c-5.58-.16-9.98-4.97-9.82-10.74,.16-5.77,4.81-10.32,10.39-10.15s9.98,4.97,9.82,10.74c-.16,5.77-4.81,10.32-10.39,10.15"/></clipPath></defs><g id="Camada_1"><rect class="cls-34" x="0" width="246.61" height="161.57"/></g><g id="Camada_2"><ellipse class="cls-1" cx="122.17" cy="59.55" rx="56.99" ry="55.27"/><g><polygon class="cls-9" points="174.9 91.85 179.33 91.23 177.05 87.91 174.9 91.85"/><polygon class="cls-9" points="185.58 51.63 193.95 47.12 184.92 44.04 185.58 51.63"/><path class="cls-9" d="M133.48,47.23h45.8c4.18,0,7.57,3.39,7.57,7.57v21.85c0,4.18-3.39,7.57-7.57,7.57h-45.8V47.23h0Z" transform="translate(225.89 -94.43) rotate(90)"/><path class="cls-9" d="M137.29,50.96c-6.49,0-9.83-7.44-5.37-11.95l26.68-27.02c.84-.85,2.26-.85,3.1,0l26.68,27.02c4.46,4.52,1.12,11.95-5.37,11.95h-45.73Z"/><polygon class="cls-9" points="149.33 45.91 156.24 40.45 156.07 57.57 149.33 57.57 149.33 45.91"/><path class="cls-9" d="M139.74,42.99h49.5c4.18,0,7.57,3.39,7.57,7.57v23.94c0,4.18-3.39,7.57-7.57,7.57h-49.5V42.99h0Z" transform="translate(230.81 -105.75) rotate(90)"/><path class="cls-9" d="M144.11,46.92c-6.86,0-10.39-7.95-5.67-12.78l28.2-28.89c.89-.91,2.39-.91,3.28,0l28.2,28.89c4.71,4.83,1.18,12.78-5.67,12.78h-48.33Z"/><g><path class="cls-9" d="M141.99,44.55h45.01c4.18,0,7.57,3.39,7.57,7.57v20.87c0,4.18-3.39,7.57-7.57,7.57h-45.01V44.55h0Z" transform="translate(230.83 -105.73) rotate(90)"/><path class="cls-9" d="M146.02,45.63c-6.32,0-9.57-7.33-5.23-11.78l25.98-26.62c.82-.84,2.2-.84,3.02,0l25.98,26.62c4.34,4.45,1.09,11.78-5.23,11.78h-44.52Z"/></g><path class="cls-9" d="M147.08,44.79c-6.01,0-9.11-6.87-4.98-11.04l24.73-24.95c.78-.79,2.1-.79,2.88,0l24.73,24.95c4.13,4.17,1.04,11.04-4.98,11.04h-42.38Z"/><path class="cls-10" d="M184.23,43.44c-1.01,.29,4.2,.87,7.16,.73,2.09-.1,3.74-.53,4.34-1.02,1.21-.98,2.44-3.15-1.28-6.65-3.46-3.26-4.23-3.86-6.45-5.83-.42-.37,1.97,3.96,2.05,6.3,.04,1.16-.24,2.55-1.08,3.7-1.46,1.98-2.62,2.16-4.74,2.77Z"/><path class="cls-9" d="M167.5,82.98c-.43-.37-1.32-.4-1.74,0-.49,.47-.35,1.52,.33,1.88,.36,.19,1.03,.27,1.44-.08,.49-.43,.47-1.38-.03-1.8Z"/></g><g><g><polygon class="cls-30" points="173.77 92.48 181.13 90.93 175.44 88.71 173.77 92.48"/><polygon class="cls-30" points="187.88 50.35 196.25 45.84 187.22 42.76 187.88 50.35"/><path class="cls-30" d="M134.98,47.41h45.8c4.18,0,7.57,3.39,7.57,7.57v21.85c0,4.18-3.39,7.57-7.57,7.57h-45.8V47.41h0Z" transform="translate(227.57 -95.76) rotate(90)"/><path class="cls-30" d="M138.8,51.14c-6.49,0-9.83-7.44-5.37-11.95l26.68-27.02c.84-.85,2.26-.85,3.1,0l26.68,27.02c4.46,4.52,1.12,11.95-5.37,11.95h-45.73Z"/></g><g><polygon class="cls-25" points="174.11 92.61 181.48 91.04 175.79 88.8 174.11 92.61"/><polygon class="cls-25" points="188.22 49.97 196.59 45.4 187.56 42.28 188.22 49.97"/><path class="cls-25" d="M135,47.22h46.44c4.18,0,7.57,3.39,7.57,7.57v21.85c0,4.18-3.39,7.57-7.57,7.57h-46.44V47.22h0Z" transform="translate(227.72 -96.3) rotate(90)"/><path class="cls-25" d="M139.14,50.76c-6.49,0-9.83-7.53-5.37-12.1l26.68-27.35c.84-.86,2.26-.86,3.1,0l26.68,27.35c4.46,4.57,1.12,12.1-5.37,12.1h-45.73Z"/></g><polygon class="cls-16" points="148.62 46.15 155.53 40.69 155.37 57.81 148.62 57.81 148.62 46.15"/><path class="cls-17" d="M139.04,43.23h49.5c4.18,0,7.57,3.39,7.57,7.57v23.94c0,4.18-3.39,7.57-7.57,7.57h-49.5V43.23h0Z" transform="translate(230.35 -104.8) rotate(90)"/><path class="cls-17" d="M143.4,47.16c-6.86,0-10.39-7.95-5.67-12.78l28.2-28.89c.89-.91,2.39-.91,3.28,0l28.2,28.89c4.71,4.83,1.18,12.78-5.67,12.78h-48.33Z"/><g><path class="cls-35" d="M141.28,44.79h45.01c4.18,0,7.57,3.39,7.57,7.57v20.87c0,4.18-3.39,7.57-7.57,7.57h-45.01V44.79h0Z" transform="translate(230.37 -104.78) rotate(90)"/><path class="cls-35" d="M145.31,45.88c-6.32,0-9.57-7.33-5.23-11.78l25.98-26.62c.82-.84,2.2-.84,3.02,0l25.98,26.62c4.34,4.45,1.09,11.78-5.23,11.78h-44.52Z"/></g><path class="cls-27" d="M142.36,45.53h43.31c3.93,0,7.12,3.19,7.12,7.12v20.29c0,3.93-3.19,7.12-7.12,7.12h-43.31V45.53h0Z" transform="translate(230.37 -104.78) rotate(90)"/><path class="cls-23" d="M146.37,45.03c-6.01,0-9.11-6.87-4.98-11.04l24.73-24.95c.78-.79,2.1-.79,2.88,0l24.73,24.95c4.13,4.17,1.04,11.04-4.98,11.04h-42.38Z"/><path class="cls-5" d="M182.94,44.46c.13,1.08-1.19,6.15-1.05,18.22,.07,6.2,.32,12.01,.74,16.13,.45,4.48-.67,6.85-3.69,7.07-6.29,.46-9.2-.53-9.97-2.11-.38-.77,1.64-1.27,3.23-2.3,5.21-3.4,4.69-9.27,6.57-19.76,1.28-7.15,4.11-17.8,4.17-17.25Z"/><path class="cls-5" d="M183.53,43.69c-1.01,.29,4.2,.87,7.16,.73,2.09-.1,3.74-.53,4.34-1.02,1.21-.98,2.44-3.15-1.28-6.65-3.46-3.26-4.23-3.86-6.45-5.83-.42-.37,1.97,3.96,2.05,6.3,.04,1.16-.24,2.55-1.08,3.7-1.46,1.98-2.62,2.16-4.74,2.77Z"/><path class="cls-1" d="M166.8,83.22c-.43-.37-1.32-.4-1.74,0-.49,.47-.35,1.52,.33,1.88,.36,.19,1.03,.27,1.44-.08,.49-.43,.47-1.38-.03-1.8Z"/></g><g><g><path class="cls-6" d="M69.99,95.05c-6.13-.18-10.97-5.49-10.8-11.86s5.29-11.39,11.42-11.21c6.13,.18,10.97,5.49,10.8,11.86-.17,6.37-5.29,11.39-11.42,11.21"/><path class="cls-6" d="M70.5,95.06c-6.13-.18-10.97-5.49-10.8-11.86,.17-6.37,5.29-11.39,11.42-11.21s10.97,5.49,10.8,11.86c-.17,6.37-5.29,11.39-11.42,11.21"/></g><path class="cls-6" d="M105.4,86.56l-47.5-1.39c-3.31-.1-5.92-2.96-5.82-6.4h0c.09-3.44,2.85-6.14,6.16-6.05l47.5,1.39c3.31,.1,5.92,2.96,5.82,6.4h0c-.09,3.44-2.85,6.14-6.16,6.05Z"/><g><path class="cls-1" d="M105.39,86.78l-47.5-1.39c-3.31-.1-5.92-2.96-5.82-6.4h0c.09-3.44,2.85-6.14,6.16-6.05l47.5,1.39c3.31,.1,5.92,2.96,5.82,6.4h0c-.09,3.44-2.85,6.14-6.16,6.05Z"/><g class="cls-28"><path class="cls-6" d="M108.58,84.72c2.22,.06,4.11-1.64,4.37-3.93,.27-2.47,.55-5.39,.59-7.19,.16-8.27,.35-17.96-4.14-26.51-6.73-12.85-20.58-16.62-23.23-17.29-1.24-.31-21.43-5.07-30.44,6.53-.82,1.05-3.2,4.38-4.48,17.96-.85,9.05-.68,16.93-.19,23.17,.25,3.2,2.79,5.68,5.88,5.77,8.03,.23,16.06,.47,24.1,.7,9.18,.27,18.37,.54,27.55,.8Z"/></g><path class="cls-14" d="M105.39,86.78l-47.5-1.39c-3.31-.1-5.92-2.96-5.82-6.4h0c.09-3.44,2.85-6.14,6.16-6.05l47.5,1.39c3.31,.1,5.92,2.96,5.82,6.4h0c-.09,3.44-2.85,6.14-6.16,6.05Z"/></g><path class="cls-6" d="M108.37,82.86c2.22,.06,4.11-1.64,4.37-3.93,.27-2.47,.55-5.39,.59-7.19,.16-8.27,.35-17.96-4.14-26.51-6.73-12.85-20.58-16.62-23.23-17.29-1.24-.31-21.43-5.07-30.44,6.53-.82,1.05-3.2,4.38-4.48,17.96-.85,9.05-.68,16.93-.19,23.17,.25,3.2,2.79,5.68,5.88,5.77,8.03,.23,16.06,.47,24.1,.7,9.18,.27,18.37,.54,27.55,.8Z"/><path class="cls-6" d="M108.41,82.86c2.2,.06,4.07-1.62,4.32-3.88,.27-2.43,.55-5.31,.58-7.09,.16-8.15,.34-17.71-4.1-26.15-6.67-12.67-19.3-16.37-21.93-17.02-1.23-.31,31.76,14.43,11.39,40.44-7.98,10.19-45.06,10.23-47.04-16.32-.68-9.13-1.17,17.15-.5,23.04,.35,3.14,3.08,5.4,6.14,5.49,7.95,.23,15.9,.46,23.86,.7,9.09,.27,18.19,.53,27.28,.8Z"/><path class="cls-4" d="M64.35,61.51c11.69,2.72,27.43-9.88,25.93-19.41-1.21-7.7-13.4-11.58-19.36-12.43-6.02-.85-9.14,.89-9.89,1.34-3.37,2.01-4.82,5.2-5.61,6.95-.57,1.26-4.6,10.48,.24,17.65,3.04,4.5,7.89,5.7,8.69,5.89Z"/><path class="cls-6" d="M53,68.02c-.1-9.45-.26-15.15-.32-19.72-.03-2.19,.16-4.38,.95-5.59,4.06-6.23,17.73-9.85,27.62-2.22,3.91,3.02,5.27,8.57,5.32,14.03,.04,4.92-1.5,10.11-4.88,14.55"/><path class="cls-6" d="M95.07,97.49c-6.29-.18-11.25-5.63-11.07-12.17s5.42-11.68,11.71-11.5c6.29,.18,11.25,5.63,11.07,12.17-.18,6.54-5.42,11.68-11.71,11.5"/><path class="cls-6" d="M96.15,96.19c-5.58-.16-9.98-5-9.82-10.8,.16-5.8,4.81-10.37,10.39-10.21s9.98,5,9.82,10.8-4.81,10.37-10.39,10.21"/><path class="cls-8" d="M53.64,67.28c-.1-9.15-.9-14.76-.95-19.19-.03-2.12,.16-4.24,.92-5.41,3.93-6.03,17.17-9.54,26.74-2.15,3.79,2.92,5.1,8.3,5.15,13.58,.04,4.76-1.45,9.79-4.73,14.09"/><path class="cls-6" d="M53.64,67.42c-.1-9.09-.25-14.56-.31-18.96-.03-2.1,.15-4.21,.91-5.37,3.9-5.99,17.05-9.47,26.55-2.13,3.76,2.9,5.06,8.24,5.11,13.49,.04,4.73-1.44,9.72-4.69,13.99"/><path class="cls-8" d="M54.35,56.43c.07-4.65,1.48-8.73,3.36-9.91,2.29-1.44,4.44,1.98,5.03,6.01,.25,1.71,.15,5.75,.07,6.76-.09,.03-.15,.15-.17-.19-.1-2.34-.51-4.4-1.35-6.33-.46-1.06-1.11-2.14-1.93-2.72-1.34-.94-2.33,.02-2.98,.8-.89,1.08-1.21,2.19-1.57,3.32"/><path class="cls-6" d="M54.34,57.08c.07-4.65,1.48-8.73,3.36-9.91,2.29-1.44,4.44,1.98,5.03,6.01,.25,1.71,.15,5.75,.07,6.76-.09,.03-.15,.15-.17-.19-.1-2.34-.51-4.4-1.35-6.33-.46-1.06-1.11-2.14-1.93-2.72-1.34-.94-2.33,.02-2.98,.8-.89,1.08-1.21,2.19-1.57,3.32"/><path class="cls-8" d="M83.2,57.27c.22-4.65-1.97-8.83-5.21-10.16-3.97-1.63-8.04,1.62-9.39,5.59-.57,1.68-.71,5.72-.64,6.74,.16,.04,.26,.16,.31-.17,.36-2.33,1.23-4.34,2.88-6.21,.9-1.02,2.13-2.04,3.64-2.56,2.46-.83,4.14,.21,5.23,1.04,1.5,1.15,1.98,2.28,2.54,3.44"/><path class="cls-6" d="M83.18,57.92c.22-4.65-1.97-8.83-5.21-10.16-3.97-1.63-8.04,1.62-9.39,5.59-.57,1.68-.71,5.72-.64,6.74,.16,.04,.26,.16,.31-.17,.36-2.33,1.23-4.34,2.88-6.21,.9-1.02,2.13-2.04,3.64-2.56,2.46-.83,4.14,.21,5.23,1.04,1.5,1.15,1.98,2.28,2.54,3.44"/><path class="cls-2" d="M72.96,48.3c-.65,.16-1.19,.94-1,1.36,.18,.41,1.09,.53,1.58,.09,.34-.3,.54-.91,.28-1.25-.26-.34-.82-.21-.87-.2Z"/><g><path class="cls-1" d="M96.15,96.19c-5.58-.16-9.98-5-9.82-10.8,.16-5.8,4.81-10.37,10.39-10.21s9.98,5,9.82,10.8-4.81,10.37-10.39,10.21"/><g class="cls-21"><polygon class="cls-6" points="108.54 83.09 83.86 82.37 84.01 76.73 108.69 77.45 108.54 83.09"/></g><path class="cls-14" d="M96.15,96.19c-5.58-.16-9.98-5-9.82-10.8,.16-5.8,4.81-10.37,10.39-10.21s9.98,5,9.82,10.8-4.81,10.37-10.39,10.21"/></g><path class="cls-6" d="M97.03,93.92c-4.34-.13-7.76-3.88-7.64-8.39s3.74-8.06,8.08-7.93c4.34,.13,7.76,3.88,7.64,8.39-.12,4.51-3.74,8.06-8.08,7.93"/><path class="cls-6" d="M97.04,93.33c-4.03-.12-7.2-3.6-7.09-7.79,.11-4.18,3.47-7.48,7.5-7.36,4.03,.12,7.2,3.6,7.09,7.79-.11,4.18-3.47,7.48-7.5,7.36"/><path class="cls-6" d="M91.69,82.8c.37,.89,3.64,3.21,5.64,2.88,.58-2.44-.61-5.51-1.5-6.44-.95-.99-4.76,2.07-4.14,3.55Z"/><path class="cls-6" d="M103.01,88.64c-.37-.89-3.64-3.21-5.64-2.88-.58,2.44,.61,5.51,1.5,6.44,.95,.99,4.76-2.07,4.14-3.56Z"/><path class="cls-6" d="M94.33,91.53c.86-.37,3.16-3.72,2.88-5.81-2.34-.64-5.31,.53-6.22,1.44-.97,.97,1.9,4.98,3.35,4.37Z"/><path class="cls-6" d="M100.16,79.89c-.86,.37-3.16,3.72-2.87,5.81,2.34,.64,5.31-.54,6.22-1.44,.97-.97-1.91-4.98-3.35-4.37Z"/><g><g><path class="cls-6" d="M108.66,81.74c.16-.9,.53-3.58,.41-5.14-.24-3.03-.8-5.22-3.26-8.18-2.07-2.49-4.63-3.31-6-3.73-1.13-.35-4.98-1.46-9.32,.4-.98,.42-5.34,2.42-7.38,7.57-1.47,3.72-.93,7.05-.65,8.32l26.21,.77Z"/><path class="cls-6" d="M107.66,81.16c.12-.65,.39-2.6,.3-3.73-.17-2.2-.58-3.79-2.37-5.94-1.5-1.81-3.36-2.41-4.36-2.71-.82-.25-3.61-1.06-6.77,.29-.71,.3-3.88,1.76-5.36,5.5-1.07,2.7-.67,5.12-.47,6.04l19.03,.56Z"/></g><path class="cls-2" d="M94.42,69.75c-1.38,.33-2.53,2-2.12,2.9,.39,.86,2.32,1.14,3.38,.19,.72-.64,1.15-1.94,.61-2.66-.55-.72-1.76-.45-1.86-.42Z"/></g></g><g><g><path class="cls-6" d="M70.5,96.2c-6.13-.18-10.97-5.49-10.8-11.86s5.29-11.39,11.42-11.21c6.13,.18,10.97,5.49,10.8,11.86-.17,6.37-5.29,11.39-11.42,11.21"/><path class="cls-6" d="M71.01,96.21c-6.13-.18-10.97-5.49-10.8-11.86,.17-6.37,5.29-11.39,11.42-11.21s10.97,5.49,10.8,11.86c-.17,6.37-5.29,11.39-11.42,11.21"/></g><path class="cls-6" d="M105.91,87.71l-47.5-1.39c-3.31-.1-5.92-2.96-5.82-6.4h0c.09-3.44,2.85-6.14,6.16-6.05l47.5,1.39c3.31,.1,5.92,2.96,5.82,6.4h0c-.09,3.44-2.85,6.14-6.16,6.05Z"/><g><path class="cls-1" d="M105.9,87.93l-47.5-1.39c-3.31-.1-5.92-2.96-5.82-6.4h0c.09-3.44,2.85-6.14,6.16-6.05l47.5,1.39c3.31,.1,5.92,2.96,5.82,6.4h0c-.09,3.44-2.85,6.14-6.16,6.05Z"/><g class="cls-19"><path class="cls-6" d="M109.09,85.87c2.22,.06,4.11-1.64,4.37-3.93,.27-2.47,.55-5.39,.59-7.19,.16-8.27,.35-17.96-4.14-26.51-6.73-12.85-20.58-16.62-23.23-17.29-1.24-.31-21.43-5.07-30.44,6.53-.82,1.05-3.2,4.38-4.48,17.96-.85,9.05-.68,16.93-.19,23.17,.25,3.2,2.79,5.68,5.88,5.77,8.03,.23,16.06,.47,24.1,.7,9.18,.27,18.37,.54,27.55,.8Z"/></g><path class="cls-14" d="M105.9,87.93l-47.5-1.39c-3.31-.1-5.92-2.96-5.82-6.4h0c.09-3.44,2.85-6.14,6.16-6.05l47.5,1.39c3.31,.1,5.92,2.96,5.82,6.4h0c-.09,3.44-2.85,6.14-6.16,6.05Z"/></g><path class="cls-6" d="M108.88,84.01c2.22,.06,4.11-1.64,4.37-3.93,.27-2.47,.55-5.39,.59-7.19,.16-8.27,.35-17.96-4.14-26.51-6.73-12.85-20.58-16.62-23.23-17.29-1.24-.31-21.43-5.07-30.44,6.53-.82,1.05-3.2,4.38-4.48,17.96-.85,9.05-.68,16.93-.19,23.17,.25,3.2,2.79,5.68,5.88,5.77,8.03,.23,16.06,.47,24.1,.7,9.18,.27,18.37,.54,27.55,.8Z"/><path class="cls-6" d="M108.92,84.01c2.2,.06,4.07-1.62,4.32-3.88,.27-2.43,.55-5.31,.58-7.09,.16-8.15,.34-17.71-4.1-26.15-6.67-12.67-19.3-16.37-21.93-17.02-1.23-.31,31.76,14.43,11.39,40.44-7.98,10.19-45.06,10.23-47.04-16.32-.68-9.13-1.17,17.15-.5,23.04,.35,3.14,3.08,5.4,6.14,5.49,7.95,.23,15.9,.46,23.86,.7,9.09,.27,18.19,.53,27.28,.8Z"/><path class="cls-4" d="M64.86,62.67c11.69,2.72,27.43-9.88,25.93-19.41-1.21-7.7-13.4-11.58-19.36-12.43-6.02-.85-9.14,.89-9.89,1.34-3.37,2.01-4.82,5.2-5.61,6.95-.57,1.26-4.6,10.48,.24,17.65,3.04,4.5,7.89,5.7,8.69,5.89Z"/><path class="cls-6" d="M53.51,69.17c-.1-9.45-.26-15.15-.32-19.72-.03-2.19,.16-4.38,.95-5.59,4.06-6.23,17.73-9.85,27.62-2.22,3.91,3.02,5.27,8.57,5.32,14.03,.04,4.92-1.5,10.11-4.88,14.55"/><path class="cls-6" d="M95.58,98.64c-6.29-.18-11.25-5.63-11.07-12.17s5.42-11.68,11.71-11.5c6.29,.18,11.25,5.63,11.07,12.17-.18,6.54-5.42,11.68-11.71,11.5"/><path class="cls-6" d="M96.67,97.34c-5.58-.16-9.98-5-9.82-10.8,.16-5.8,4.81-10.37,10.39-10.21s9.98,5,9.82,10.8-4.81,10.37-10.39,10.21"/><path class="cls-8" d="M54.15,68.43c-.1-9.15-.9-14.76-.95-19.19-.03-2.12,.16-4.24,.92-5.41,3.93-6.03,17.17-9.54,26.74-2.15,3.79,2.92,5.1,8.3,5.15,13.58,.04,4.76-1.45,9.79-4.73,14.09"/><path class="cls-6" d="M54.15,68.57c-.1-9.09-.25-14.56-.31-18.96-.03-2.1,.15-4.21,.91-5.37,3.9-5.99,17.05-9.47,26.55-2.13,3.76,2.9,5.06,8.24,5.11,13.49,.04,4.73-1.44,9.72-4.69,13.99"/><path class="cls-8" d="M54.87,57.58c.07-4.65,1.48-8.73,3.36-9.91,2.29-1.44,4.44,1.98,5.03,6.01,.25,1.71,.15,5.75,.07,6.76-.09,.03-.15,.15-.17-.19-.1-2.34-.51-4.4-1.35-6.33-.46-1.06-1.11-2.14-1.93-2.72-1.34-.94-2.33,.02-2.98,.8-.89,1.08-1.21,2.19-1.57,3.32"/><path class="cls-6" d="M54.85,58.23c.07-4.65,1.48-8.73,3.36-9.91,2.29-1.44,4.44,1.98,5.03,6.01,.25,1.71,.15,5.75,.07,6.76-.09,.03-.15,.15-.17-.19-.1-2.34-.51-4.4-1.35-6.33-.46-1.06-1.11-2.14-1.93-2.72-1.34-.94-2.33,.02-2.98,.8-.89,1.08-1.21,2.19-1.57,3.32"/><path class="cls-8" d="M83.71,58.43c.22-4.65-1.97-8.83-5.21-10.16-3.97-1.63-8.04,1.62-9.39,5.59-.57,1.68-.71,5.72-.64,6.74,.16,.04,.26,.16,.31-.17,.36-2.33,1.23-4.34,2.88-6.21,.9-1.02,2.13-2.04,3.64-2.56,2.46-.83,4.14,.21,5.23,1.04,1.5,1.15,1.98,2.28,2.54,3.44"/><path class="cls-6" d="M83.7,59.07c.22-4.65-1.97-8.83-5.21-10.16-3.97-1.63-8.04,1.62-9.39,5.59-.57,1.68-.71,5.72-.64,6.74,.16,.04,.26,.16,.31-.17,.36-2.33,1.23-4.34,2.88-6.21,.9-1.02,2.13-2.04,3.64-2.56,2.46-.83,4.14,.21,5.23,1.04,1.5,1.15,1.98,2.28,2.54,3.44"/><path class="cls-2" d="M73.47,49.46c-.65,.16-1.19,.94-1,1.36,.18,.41,1.09,.53,1.58,.09,.34-.3,.54-.91,.28-1.25-.26-.34-.82-.21-.87-.2Z"/><g><path class="cls-1" d="M96.67,97.34c-5.58-.16-9.98-5-9.82-10.8,.16-5.8,4.81-10.37,10.39-10.21s9.98,5,9.82,10.8-4.81,10.37-10.39,10.21"/><g class="cls-31"><polygon class="cls-6" points="109.05 84.24 84.37 83.52 84.52 77.89 109.2 78.61 109.05 84.24"/></g><path class="cls-14" d="M96.67,97.34c-5.58-.16-9.98-5-9.82-10.8,.16-5.8,4.81-10.37,10.39-10.21s9.98,5,9.82,10.8-4.81,10.37-10.39,10.21"/></g><path class="cls-6" d="M97.54,95.07c-4.34-.13-7.76-3.88-7.64-8.39s3.74-8.06,8.08-7.93c4.34,.13,7.76,3.88,7.64,8.39-.12,4.51-3.74,8.06-8.08,7.93"/><path class="cls-6" d="M97.56,94.48c-4.03-.12-7.2-3.6-7.09-7.79,.11-4.18,3.47-7.48,7.5-7.36,4.03,.12,7.2,3.6,7.09,7.79-.11,4.18-3.47,7.48-7.5,7.36"/><path class="cls-6" d="M92.2,83.95c.37,.89,3.64,3.21,5.64,2.88,.58-2.44-.61-5.51-1.5-6.44-.95-.99-4.76,2.07-4.14,3.55Z"/><path class="cls-6" d="M103.52,89.79c-.37-.89-3.64-3.21-5.64-2.88-.58,2.44,.61,5.51,1.5,6.44,.95,.99,4.76-2.07,4.14-3.56Z"/><path class="cls-6" d="M94.85,92.69c.86-.37,3.16-3.72,2.88-5.81-2.34-.64-5.31,.53-6.22,1.44-.97,.97,1.9,4.98,3.35,4.37Z"/><path class="cls-6" d="M100.68,81.04c-.86,.37-3.16,3.72-2.87,5.81,2.34,.64,5.31-.54,6.22-1.44,.97-.97-1.91-4.98-3.35-4.37Z"/><g><g><path class="cls-6" d="M109.18,82.9c.16-.9,.53-3.58,.41-5.14-.24-3.03-.8-5.22-3.26-8.18-2.07-2.49-4.63-3.31-6-3.73-1.13-.35-4.98-1.46-9.32,.4-.98,.42-5.34,2.42-7.38,7.57-1.47,3.72-.93,7.05-.65,8.32l26.21,.77Z"/><path class="cls-6" d="M108.17,82.31c.12-.65,.39-2.6,.3-3.73-.17-2.2-.58-3.79-2.37-5.94-1.5-1.81-3.36-2.41-4.36-2.71-.82-.25-3.61-1.06-6.77,.29-.71,.3-3.88,1.76-5.36,5.5-1.07,2.7-.67,5.12-.47,6.04l19.03,.56Z"/></g><path class="cls-2" d="M94.93,70.9c-1.38,.33-2.53,2-2.12,2.9,.39,.86,2.32,1.14,3.38,.19,.72-.64,1.15-1.94,.61-2.66-.55-.72-1.76-.45-1.86-.42Z"/></g></g><g><g><path class="cls-32" d="M70.49,95.62c-6.13-.18-10.97-5.46-10.8-11.8s5.29-11.34,11.42-11.16,10.97,5.46,10.8,11.8-5.29,11.34-11.42,11.16"/><path class="cls-20" d="M71,95.64c-6.13-.18-10.97-5.46-10.8-11.8s5.29-11.34,11.42-11.16,10.97,5.46,10.8,11.8c-.17,6.34-5.29,11.34-11.42,11.16"/></g><path class="cls-24" d="M105.9,87.18l-47.5-1.38c-3.31-.1-5.92-2.95-5.82-6.37h0c.09-3.42,2.85-6.11,6.16-6.02l47.5,1.38c3.31,.1,5.92,2.95,5.82,6.37h0c-.09,3.42-2.85,6.11-6.16,6.02Z"/><g class="cls-22"><path class="cls-18" d="M109.08,85.35c2.22,.06,4.11-1.64,4.37-3.91,.27-2.46,.55-5.36,.59-7.16,.16-8.23,.35-17.87-4.14-26.38-6.73-12.78-20.58-16.54-23.23-17.2-1.24-.31-21.43-5.05-30.44,6.49-.82,1.05-3.2,4.35-4.48,17.87-.85,9-.68,16.85-.19,23.05,.25,3.18,2.79,5.65,5.88,5.74,8.03,.23,16.06,.47,24.1,.7,9.18,.27,18.37,.53,27.55,.8Z"/></g><path class="cls-11" d="M108.86,83.49c2.22,.06,4.11-1.64,4.37-3.91,.27-2.46,.55-5.36,.59-7.16,.16-8.23,.35-17.87-4.14-26.38-6.73-12.78-20.58-16.54-23.23-17.2-1.24-.31-21.43-5.05-30.44,6.49-.82,1.05-3.2,4.35-4.48,17.87-.85,9-.68,16.85-.19,23.05,.25,3.18,2.79,5.65,5.88,5.74,8.03,.23,16.06,.47,24.1,.7,9.18,.27,18.37,.53,27.55,.8Z"/><path class="cls-25" d="M108.91,83.49c2.2,.06,4.07-1.61,4.32-3.86,.27-2.42,.55-5.29,.58-7.06,.16-8.11,.34-17.62-4.1-26.02-6.67-12.61-19.3-16.29-21.93-16.94-1.23-.3,31.76,14.36,11.39,40.24-7.98,10.14-45.06,10.18-47.04-16.24-.68-9.09-1.17,17.06-.5,22.93,.35,3.13,3.08,5.38,6.14,5.47,7.95,.23,15.9,.46,23.86,.69,9.09,.26,18.19,.53,27.28,.79Z"/><path class="cls-7" d="M64.85,62.25c11.69,2.7,27.43-9.83,25.93-19.31-1.21-7.66-13.4-11.52-19.36-12.37-6.02-.85-9.14,.89-9.89,1.34-3.37,2-4.82,5.18-5.61,6.92-.57,1.25-4.6,10.43,.24,17.56,3.04,4.47,7.89,5.67,8.69,5.86Z"/><path class="cls-20" d="M53.5,68.72c-.1-9.41-.26-15.07-.32-19.62-.03-2.17,.16-4.36,.95-5.56,4.06-6.19,17.73-9.8,27.62-2.21,3.91,3.01,5.27,8.53,5.32,13.96,.04,4.9-1.5,10.06-4.88,14.48"/><path class="cls-20" d="M95.57,98.05c-6.29-.18-11.25-5.6-11.07-12.11s5.42-11.63,11.71-11.44c6.29,.18,11.25,5.6,11.07,12.11s-5.42,11.63-11.71,11.44"/><path class="cls-32" d="M96.65,96.75c-5.58-.16-9.98-4.97-9.82-10.74,.16-5.77,4.81-10.32,10.39-10.15s9.98,4.97,9.82,10.74c-.16,5.77-4.81,10.32-10.39,10.15"/><path class="cls-3" d="M54.14,67.99c-.1-9.11-.9-14.69-.95-19.09-.03-2.11,.16-4.22,.92-5.38,3.93-6,17.17-9.49,26.74-2.14,3.79,2.91,5.1,8.26,5.15,13.52,.04,4.74-1.45,9.74-4.73,14.02"/><path class="cls-26" d="M54.14,68.13c-.1-9.04-.25-14.49-.31-18.86-.03-2.09,.15-4.19,.91-5.34,3.9-5.96,17.05-9.42,26.55-2.12,3.76,2.89,5.06,8.2,5.11,13.42,.04,4.71-1.44,9.68-4.69,13.92"/><path class="cls-3" d="M54.85,57.2c.07-4.63,1.48-8.69,3.36-9.86,2.29-1.44,4.44,1.97,5.03,5.98,.25,1.7,.15,5.72,.07,6.73-.09,.03-.15,.15-.17-.19-.1-2.33-.51-4.37-1.35-6.3-.46-1.06-1.11-2.13-1.93-2.7-1.34-.94-2.33,.02-2.98,.8-.89,1.08-1.21,2.18-1.57,3.3"/><path class="cls-35" d="M54.84,57.84c.07-4.63,1.48-8.69,3.36-9.86,2.29-1.44,4.44,1.97,5.03,5.98,.25,1.7,.15,5.72,.07,6.73-.09,.03-.15,.15-.17-.19-.1-2.33-.51-4.37-1.35-6.3-.46-1.06-1.11-2.13-1.93-2.7-1.34-.94-2.33,.02-2.98,.8-.89,1.08-1.21,2.18-1.57,3.3"/><path class="cls-3" d="M83.7,58.04c.22-4.62-1.97-8.79-5.21-10.11-3.97-1.62-8.04,1.61-9.39,5.57-.57,1.67-.71,5.69-.64,6.71,.16,.04,.26,.16,.31-.17,.36-2.31,1.23-4.32,2.88-6.18,.9-1.02,2.13-2.03,3.64-2.54,2.46-.83,4.14,.2,5.23,1.04,1.5,1.15,1.98,2.27,2.54,3.42"/><path class="cls-35" d="M83.68,58.68c.22-4.62-1.97-8.79-5.21-10.11-3.97-1.62-8.04,1.61-9.39,5.57-.57,1.67-.71,5.69-.64,6.71,.16,.04,.26,.16,.31-.17,.36-2.31,1.23-4.32,2.88-6.18,.9-1.02,2.13-2.03,3.64-2.54,2.46-.83,4.14,.2,5.23,1.04,1.5,1.15,1.98,2.27,2.54,3.42"/><path class="cls-5" d="M73.46,49.11c-.65,.16-1.19,.93-1,1.35,.18,.4,1.09,.53,1.58,.09,.34-.3,.54-.91,.28-1.24-.26-.34-.82-.21-.87-.2Z"/><g class="cls-33"><polygon class="cls-15" points="109.03 83.72 84.36 83 84.51 77.4 109.19 78.12 109.03 83.72"/></g><path class="cls-20" d="M97.53,94.5c-4.34-.13-7.76-3.86-7.64-8.35,.12-4.49,3.74-8.02,8.08-7.89,4.34,.13,7.76,3.86,7.64,8.35-.12,4.49-3.74,8.02-8.08,7.89"/><path class="cls-25" d="M97.54,93.91c-4.03-.12-7.2-3.59-7.09-7.75,.11-4.16,3.47-7.44,7.5-7.33,4.03,.12,7.2,3.59,7.09,7.75-.11,4.16-3.47,7.44-7.5,7.33"/><path class="cls-17" d="M92.19,83.43c.37,.88,3.64,3.2,5.64,2.87,.58-2.43-.61-5.48-1.5-6.4-.95-.99-4.76,2.06-4.14,3.54Z"/><path class="cls-17" d="M103.51,89.24c-.37-.88-3.64-3.2-5.64-2.87-.58,2.43,.61,5.48,1.5,6.4,.95,.99,4.76-2.06,4.14-3.54Z"/><path class="cls-17" d="M94.83,92.12c.86-.36,3.16-3.7,2.88-5.78-2.34-.64-5.31,.53-6.22,1.43-.97,.97,1.9,4.95,3.35,4.35Z"/><path class="cls-17" d="M100.66,80.54c-.86,.36-3.16,3.7-2.87,5.78,2.34,.64,5.31-.53,6.22-1.44,.97-.97-1.91-4.95-3.35-4.34Z"/><g><g><path class="cls-12" d="M109.16,82.38c.16-.9,.53-3.56,.41-5.12-.24-3.01-.8-5.19-3.26-8.14-2.07-2.48-4.63-3.3-6-3.72-1.13-.34-4.98-1.45-9.32,.39-.98,.42-5.34,2.41-7.38,7.53-1.47,3.7-.93,7.02-.65,8.28l26.21,.76Z"/><path class="cls-17" d="M108.16,81.8c.12-.65,.39-2.58,.3-3.71-.17-2.19-.58-3.77-2.37-5.91-1.5-1.8-3.36-2.39-4.36-2.7-.82-.25-3.61-1.05-6.77,.29-.71,.3-3.88,1.75-5.36,5.47-1.07,2.69-.67,5.1-.47,6.01l19.03,.55Z"/></g><path class="cls-5" d="M94.92,70.45c-1.38,.33-2.53,1.99-2.12,2.88,.39,.86,2.32,1.13,3.38,.19,.72-.64,1.15-1.93,.61-2.65-.55-.72-1.76-.45-1.86-.42Z"/></g></g></g><g id="Camada_3"><rect class="cls-1" x="109.14" y="41.23" width="31.43" height="198.75" rx="11.22" ry="11.22" transform="translate(265.46 15.75) rotate(90)"/><rect class="cls-13" x="29.99" y="128.19" width="188.92" height="24.82" rx="7.77" ry="7.77"/><g><path class="cls-25" d="M57.84,138.37c.42-.65,.83-1.27,1.23-1.86s.75-1.04,1.05-1.34c.13-.13,.39-.23,.78-.29,.38-.06,.79-.09,1.2-.09,.42,0,.79,.04,1.13,.1,.34,.06,.54,.15,.59,.26,.08,.19,.15,.77,.19,1.72,.05,.95,.07,1.98,.07,3.09s-.03,2.13-.08,3.07c-.05,.94-.13,1.5-.25,1.67-.09,.11-.53,.17-1.31,.2-.78,.03-1.33,.01-1.65-.06-.13-.03-.25-.41-.35-1.15-.11-.74-.18-1.49-.22-2.24-.09,.09-.24,.26-.46,.5-.22,.24-.46,.48-.71,.74-.25,.25-.49,.48-.73,.67-.23,.19-.41,.29-.52,.29s-.28-.09-.5-.28c-.22-.19-.46-.4-.7-.64-.24-.24-.47-.48-.68-.71s-.36-.39-.44-.48c-.05,.71-.13,1.42-.23,2.15-.1,.73-.21,1.11-.33,1.15-.16,.05-.39,.08-.71,.09-.31,0-.63,0-.95,0-.32-.01-.61-.04-.86-.08s-.4-.09-.43-.14c-.12-.17-.2-.73-.26-1.7-.06-.96-.09-2-.1-3.12,0-1.12,.01-2.15,.05-3.1,.04-.95,.1-1.5,.19-1.65,.06-.11,.27-.19,.61-.25,.34-.06,.72-.09,1.13-.1,.41,0,.8,.03,1.18,.09,.38,.06,.64,.16,.77,.29,.3,.3,.65,.75,1.05,1.34,.4,.59,.81,1.21,1.23,1.86Z"/><path class="cls-25" d="M74.51,140.59c-.22,1.39-.88,2.52-1.96,3.37-1.08,.85-2.34,1.16-3.78,.91-1.39-.24-2.48-.92-3.27-2.05-.79-1.13-1.09-2.38-.87-3.75,.2-1.27,.8-2.34,1.79-3.21,.99-.86,2.14-1.24,3.45-1.12,1.58,.14,2.81,.76,3.69,1.86,.88,1.1,1.2,2.43,.95,3.98Zm-3.68-.56c.06-.38,0-.7-.21-.97-.2-.27-.49-.43-.87-.5-.36-.06-.68,.02-.95,.24s-.44,.5-.49,.85c-.07,.41,.04,.77,.33,1.09,.29,.32,.65,.45,1.08,.39,.29-.03,.54-.15,.74-.36,.2-.21,.32-.46,.37-.74Z"/><path class="cls-25" d="M80.46,139.09c.32-.75,.64-1.5,.97-2.25,.33-.75,.63-1.36,.89-1.82,.11-.19,.37-.25,.78-.18,.41,.07,.84,.21,1.28,.41s.82,.46,1.14,.75c.32,.29,.45,.56,.38,.82-.09,.3-.31,.87-.67,1.71s-.75,1.72-1.18,2.62c-.43,.91-.84,1.73-1.24,2.46-.4,.73-.69,1.14-.87,1.23-.08,.04-.25,.07-.53,.09-.27,.02-.57,.03-.88,.03s-.61-.01-.88-.03c-.28-.02-.45-.05-.53-.08-.18-.08-.47-.47-.87-1.17s-.83-1.49-1.28-2.37c-.45-.88-.86-1.75-1.24-2.61s-.64-1.48-.77-1.87c-.08-.25,.04-.52,.35-.82s.69-.54,1.12-.75,.85-.35,1.27-.41c.41-.07,.67,0,.79,.18,.36,.62,.7,1.29,1.02,2,.32,.71,.65,1.4,.96,2.07Z"/><path class="cls-25" d="M89.97,141.42c.75,0,1.42-.03,2.03-.07,.6-.04,.96,0,1.07,.13,.12,.1,.2,.52,.25,1.27s.03,1.29-.06,1.62c-.04,.14-.38,.26-1.01,.35-.63,.09-1.33,.16-2.12,.19-.78,.03-1.53,.04-2.25,.02-.72-.02-1.19-.08-1.4-.18-.13-.05-.23-.41-.32-1.07-.08-.66-.15-1.43-.2-2.32-.05-.89-.07-1.79-.08-2.71s0-1.67,.03-2.25c0-.32,.03-.61,.08-.87,.05-.26,.13-.43,.24-.49,.11-.07,.48-.12,1.13-.17s1.34-.08,2.09-.09c.75-.01,1.44,0,2.08,.04,.64,.04,1,.1,1.1,.2,.12,.1,.18,.48,.2,1.15,.02,.67-.02,1.17-.12,1.52-.05,.16-.35,.26-.9,.29-.55,.04-1.2,.07-1.94,.1,0,.05,0,.11,0,.19,0,.07,0,.13,.01,.19,.48,0,.88,.05,1.18,.11,.07,.02,.14,.15,.21,.39,.07,.24,.12,.5,.15,.79,.03,.29,.03,.55,0,.79-.03,.24-.1,.37-.22,.39-.09,.03-.24,.05-.46,.07-.22,.02-.47,.03-.75,.04v.39Z"/><path class="cls-25" d="M100.67,140.69c.44,.38,.82,.74,1.15,1.09,.33,.35,.5,.62,.5,.8,0,.13-.07,.32-.21,.57-.14,.25-.3,.5-.49,.76s-.36,.47-.53,.66c-.17,.19-.29,.29-.35,.29-.28,.06-.68-.09-1.22-.45s-.96-.59-1.29-.71c-.32-.1-.49-.06-.51,.13,0,.32-.02,.56-.08,.73s-.27,.27-.63,.31c-.41,.04-.88,.07-1.41,.07-.53,0-.86,0-1-.04-.1-.02-.18-.08-.24-.17-.09-.12-.18-.67-.28-1.64s-.17-2.04-.23-3.18-.08-2.19-.07-3.14c0-.95,.07-1.47,.2-1.54,.47-.27,1.09-.46,1.87-.58s1.56-.1,2.34,.06c.78,.16,1.47,.49,2.08,.99,.61,.5,.99,1.24,1.13,2.2,.17,1.29-.07,2.22-.73,2.79Zm-3.23-1.26c.33-.04,.58-.16,.76-.37,.18-.21,.27-.43,.27-.66s-.11-.43-.31-.6-.52-.23-.95-.18c-.35,.04-.49,.36-.41,.96,.07,.6,.29,.89,.64,.85Z"/><path class="cls-25" d="M115.33,139.38c-.15,.98-.58,1.8-1.3,2.46-.71,.66-1.57,.94-2.56,.85-.04,.51-.08,.94-.14,1.29s-.11,.56-.18,.64c-.09,.17-.53,.28-1.31,.31-.79,.04-1.34-.02-1.67-.17-.15-.07-.27-.51-.39-1.33s-.21-1.74-.28-2.77-.12-2.01-.14-2.96-.02-1.58,.01-1.91c.03-.3,.28-.53,.74-.69s1-.26,1.61-.3,1.23-.03,1.85,.04c.62,.07,1.1,.18,1.45,.33,1.83,.8,2.59,2.19,2.29,4.2Zm-2.76-.8c-.1-.48-.41-.74-.94-.8-.1,0-.18,0-.24,0-.41,.08-.6,.38-.56,.91s.18,.88,.41,1.03c.1,.08,.26,.09,.47,.05,.31-.05,.55-.19,.7-.41,.16-.23,.21-.49,.15-.79Z"/><path class="cls-25" d="M116.33,144.72c-.08-.09-.12-.2-.13-.32,0-.43,.06-1.07,.22-1.94,.15-.86,.35-1.76,.58-2.69,.23-.93,.48-1.8,.73-2.62,.26-.81,.48-1.39,.68-1.72,.08-.13,.3-.24,.68-.35,.37-.1,.79-.18,1.24-.22s.89-.04,1.31,0,.71,.14,.88,.3c.24,.24,.52,.76,.85,1.57s.65,1.69,.96,2.64c.31,.95,.59,1.87,.84,2.74,.25,.88,.41,1.49,.49,1.86,.06,.27,.04,.45-.05,.55-.09,.1-.25,.18-.47,.22-.38,.07-.84,.12-1.4,.15-.56,.03-.91,.04-1.05,.02-.06,0-.11-.03-.15-.06-.15-.1-.3-.38-.45-.84-.14-.46-.28-.78-.42-.95-.08-.1-.19-.16-.32-.18h-1.05c-.33,0-.54,.11-.64,.33-.13,.28-.27,.59-.44,.93-.16,.34-.28,.55-.36,.63-.04,.05-.1,.08-.17,.1-.18,.04-.59,.05-1.24,.03-.65-.02-1.02-.09-1.11-.2Zm4.16-5.85c-.14,.15-.28,.41-.42,.78-.14,.36-.19,.6-.15,.72,.06,.19,.34,.28,.83,.26,.49-.02,.76-.14,.8-.37,.03-.14-.1-.45-.38-.94-.28-.49-.51-.64-.67-.45Z"/><path class="cls-25" d="M132.53,140.69c.44,.38,.82,.74,1.15,1.09,.33,.35,.5,.62,.5,.8,0,.13-.07,.32-.21,.57s-.3,.5-.49,.76-.36,.47-.53,.66c-.17,.19-.29,.29-.35,.29-.28,.06-.68-.09-1.21-.45-.53-.36-.96-.59-1.29-.71-.32-.1-.49-.06-.51,.13,0,.32-.02,.56-.08,.73-.06,.17-.27,.27-.63,.31-.41,.04-.88,.07-1.41,.07s-.86,0-1-.04c-.1-.02-.18-.08-.24-.17-.09-.12-.18-.67-.28-1.64-.1-.98-.18-2.04-.23-3.18s-.08-2.19-.07-3.14c0-.95,.07-1.47,.2-1.54,.47-.27,1.09-.46,1.87-.58,.78-.12,1.56-.1,2.34,.06,.78,.16,1.47,.49,2.08,.99,.61,.5,.99,1.24,1.13,2.2,.17,1.29-.07,2.22-.73,2.79Zm-3.23-1.26c.33-.04,.58-.16,.76-.37,.18-.21,.27-.43,.27-.66s-.11-.43-.31-.6-.52-.23-.95-.18c-.35,.04-.49,.36-.41,.96,.07,.6,.29,.89,.64,.85Z"/><path class="cls-25" d="M134.73,144.72c-.08-.09-.12-.2-.13-.32,0-.43,.06-1.07,.22-1.94,.15-.86,.35-1.76,.58-2.69,.23-.93,.48-1.8,.73-2.62,.26-.81,.48-1.39,.68-1.72,.08-.13,.3-.24,.68-.35,.37-.1,.79-.18,1.24-.22,.45-.04,.89-.04,1.31,0,.42,.04,.71,.14,.88,.3,.24,.24,.52,.76,.85,1.57s.65,1.69,.96,2.64c.31,.95,.59,1.87,.84,2.74,.25,.88,.41,1.49,.49,1.86,.06,.27,.04,.45-.05,.55-.09,.1-.25,.18-.47,.22-.38,.07-.84,.12-1.4,.15-.56,.03-.91,.04-1.05,.02-.06,0-.11-.03-.15-.06-.15-.1-.3-.38-.45-.84-.14-.46-.28-.78-.42-.95-.08-.1-.19-.16-.32-.18h-1.05c-.33,0-.54,.11-.64,.33-.13,.28-.27,.59-.44,.93-.16,.34-.28,.55-.36,.63-.04,.05-.1,.08-.17,.1-.18,.04-.59,.05-1.24,.03-.65-.02-1.02-.09-1.11-.2Zm4.16-5.85c-.14,.15-.28,.41-.42,.78-.14,.36-.19,.6-.15,.72,.06,.19,.34,.28,.83,.26,.49-.02,.76-.14,.8-.37,.03-.14-.1-.45-.38-.94-.28-.49-.51-.64-.67-.45Z"/><path class="cls-25" d="M152.94,138.7v.65c.49,0,.94,.03,1.35,.06,.41,.03,.69,.07,.85,.11,.15,.04,.24,.22,.28,.53,.04,.31,.04,.65,.01,1.01-.03,.36-.09,.7-.18,1.01-.09,.31-.19,.47-.3,.5-.26,.07-.57,.11-.94,.14-.37,.03-.75,.04-1.15,.03-.07,1.09-.17,1.72-.3,1.9-.09,.17-.52,.27-1.28,.29-.76,.02-1.3-.05-1.63-.2-.11-.05-.23-.47-.36-1.26-.13-.79-.26-1.7-.37-2.73-.11-1.02-.19-2.04-.24-3.04s-.05-1.73,0-2.2c.03-.26,.39-.44,1.07-.55,.68-.11,1.43-.17,2.26-.19,.83-.02,1.61,0,2.35,.04s1.18,.08,1.33,.12c.19,.05,.32,.28,.37,.67s.06,.81,.02,1.26c-.04,.45-.12,.86-.23,1.23-.11,.37-.24,.56-.38,.57-.32,.04-.71,.05-1.15,.05s-.91,0-1.39-.03Z"/><path class="cls-25" d="M163.43,140.69c.44,.38,.82,.74,1.15,1.09,.33,.35,.5,.62,.5,.8,0,.13-.07,.32-.21,.57-.14,.25-.3,.5-.49,.76s-.36,.47-.53,.66c-.17,.19-.29,.29-.35,.29-.28,.06-.68-.09-1.22-.45s-.96-.59-1.29-.71c-.32-.1-.49-.06-.51,.13,0,.32-.02,.56-.08,.73s-.27,.27-.63,.31c-.41,.04-.88,.07-1.41,.07s-.86,0-1-.04c-.1-.02-.18-.08-.24-.17-.08-.12-.18-.67-.28-1.64s-.18-2.04-.23-3.18-.08-2.19-.07-3.14c0-.95,.07-1.47,.2-1.54,.47-.27,1.09-.46,1.87-.58,.78-.12,1.56-.1,2.34,.06s1.47,.49,2.08,.99c.61,.5,.99,1.24,1.13,2.2,.17,1.29-.07,2.22-.73,2.79Zm-3.23-1.26c.33-.04,.58-.16,.76-.37,.18-.21,.27-.43,.27-.66,0-.23-.11-.43-.31-.6s-.52-.23-.95-.18c-.35,.04-.49,.36-.41,.96,.07,.6,.29,.89,.64,.85Z"/><path class="cls-25" d="M169.6,141.42c.75,0,1.42-.03,2.03-.07s.96,0,1.06,.13c.12,.1,.2,.52,.25,1.27s.03,1.29-.06,1.62c-.04,.14-.38,.26-1.01,.35-.63,.09-1.33,.16-2.12,.19-.78,.03-1.53,.04-2.25,.02-.72-.02-1.19-.08-1.41-.18-.13-.05-.23-.41-.32-1.07-.08-.66-.15-1.43-.2-2.32-.05-.89-.08-1.79-.08-2.71,0-.92,0-1.67,.03-2.25,0-.32,.03-.61,.08-.87,.05-.26,.13-.43,.24-.49,.11-.07,.48-.12,1.13-.17s1.34-.08,2.09-.09c.75-.01,1.44,0,2.08,.04,.64,.04,1,.1,1.1,.2,.12,.1,.18,.48,.2,1.15s-.02,1.17-.12,1.52c-.05,.16-.35,.26-.9,.29-.55,.04-1.2,.07-1.94,.1,0,.05,0,.11,0,.19,0,.07,0,.13,.01,.19,.48,0,.88,.05,1.18,.11,.07,.02,.14,.15,.21,.39,.07,.24,.12,.5,.15,.79,.03,.29,.03,.55,0,.79-.03,.24-.11,.37-.22,.39-.09,.03-.24,.05-.46,.07-.22,.02-.47,.03-.75,.04v.39Z"/><path class="cls-25" d="M182.69,144.62c-.05,.11-.21,.18-.46,.23s-.54,.08-.85,.09c-.31,0-.61,0-.89-.03-.29-.03-.48-.06-.58-.11-.15-.07-.36-.24-.63-.53-.28-.28-.56-.59-.85-.93-.29-.33-.56-.65-.79-.94-.24-.3-.39-.49-.46-.58-.06,.79-.13,1.46-.2,2.03-.07,.56-.16,.87-.26,.93-.32,.15-.86,.21-1.63,.17-.77-.04-1.2-.14-1.28-.32-.09-.13-.17-.58-.24-1.33-.07-.76-.11-1.62-.13-2.61s-.02-1.98,0-2.98c.03-1.01,.09-1.83,.19-2.47,.02-.13,.17-.23,.45-.3,.28-.07,.61-.11,.98-.12,.37-.01,.74,0,1.12,.05s.66,.11,.86,.2c.29,.14,.66,.5,1.11,1.09,.44,.59,.76,1.04,.97,1.35-.01-.47-.03-.89-.04-1.26-.01-.36-.01-.63,0-.81,0-.21,.21-.37,.59-.48,.38-.11,.81-.17,1.27-.19,.46-.02,.88,.02,1.27,.1,.39,.08,.59,.2,.61,.36,.06,.65,.1,1.48,.12,2.49,.01,1.01,.01,2.01,0,2.99-.02,.98-.04,1.85-.09,2.6-.04,.75-.09,1.19-.13,1.31Z"/><path class="cls-25" d="M190.01,144.62c-.05,.09-.2,.16-.47,.21-.27,.05-.56,.09-.89,.1-.33,.01-.66,0-.99-.02-.32-.03-.57-.08-.74-.15-.18-.08-.33-.73-.47-1.95s-.24-2.46-.32-3.71c-.63-.01-1.18-.05-1.64-.1-.46-.06-.71-.14-.76-.24-.08-.17-.15-.44-.21-.81s-.09-.76-.11-1.15c-.02-.39-.01-.74,0-1.06,.02-.32,.08-.5,.16-.55,.12-.1,.54-.18,1.26-.25,.71-.06,1.54-.1,2.46-.13,.93-.02,1.87-.03,2.83-.02s1.75,.04,2.36,.08c.24,.02,.41,.23,.5,.65s.12,.87,.1,1.37c-.03,.5-.1,.95-.22,1.37-.12,.42-.27,.63-.45,.64-.16,.03-.42,.05-.78,.08-.36,.02-.76,.05-1.21,.06-.01,1.25-.06,2.45-.13,3.6s-.18,1.82-.3,1.99Z"/><path class="cls-25" d="M197.72,141.42c.75,0,1.42-.03,2.03-.07s.96,0,1.06,.13c.12,.1,.2,.52,.25,1.27s.03,1.29-.06,1.62c-.04,.14-.38,.26-1.01,.35-.63,.09-1.33,.16-2.12,.19-.78,.03-1.53,.04-2.25,.02-.72-.02-1.19-.08-1.41-.18-.13-.05-.23-.41-.32-1.07-.08-.66-.15-1.43-.2-2.32-.05-.89-.08-1.79-.08-2.71,0-.92,0-1.67,.03-2.25,0-.32,.03-.61,.08-.87,.05-.26,.13-.43,.24-.49,.11-.07,.48-.12,1.13-.17s1.34-.08,2.09-.09c.75-.01,1.44,0,2.08,.04,.64,.04,1,.1,1.1,.2,.12,.1,.18,.48,.2,1.15s-.02,1.17-.12,1.52c-.05,.16-.35,.26-.9,.29-.55,.04-1.2,.07-1.94,.1,0,.05,0,.11,0,.19,0,.07,0,.13,.01,.19,.48,0,.88,.05,1.18,.11,.07,.02,.14,.15,.21,.39,.07,.24,.12,.5,.15,.79,.03,.29,.03,.55,0,.79-.03,.24-.11,.37-.22,.39-.09,.03-.24,.05-.46,.07-.22,.02-.47,.03-.75,.04v.39Z"/></g><g><path class="cls-35" d="M56.66,138.56c.42-.65,.83-1.27,1.23-1.86s.75-1.04,1.05-1.34c.13-.13,.39-.23,.78-.29,.38-.06,.79-.09,1.2-.09,.42,0,.8,.04,1.14,.1,.34,.06,.54,.15,.59,.26,.08,.19,.15,.77,.19,1.72,.05,.95,.07,1.98,.07,3.09s-.03,2.13-.08,3.07c-.05,.94-.13,1.5-.25,1.67-.09,.11-.53,.17-1.31,.2-.78,.03-1.33,.01-1.65-.06-.13-.03-.25-.41-.35-1.15-.11-.74-.18-1.49-.22-2.24-.08,.09-.24,.26-.46,.5-.22,.24-.46,.48-.71,.74-.25,.25-.5,.48-.73,.67-.23,.19-.41,.29-.52,.29s-.28-.09-.5-.28c-.22-.19-.46-.4-.7-.64-.24-.24-.47-.48-.68-.71-.21-.23-.36-.39-.44-.48-.05,.71-.13,1.42-.23,2.15-.1,.73-.21,1.11-.33,1.15-.16,.05-.39,.08-.71,.09s-.63,0-.95,0c-.32-.01-.61-.04-.86-.08-.25-.04-.4-.09-.43-.14-.12-.17-.2-.73-.26-1.7-.06-.96-.09-2-.1-3.12,0-1.12,.01-2.15,.05-3.1,.04-.95,.1-1.5,.19-1.65,.06-.11,.27-.19,.61-.25,.34-.06,.72-.09,1.13-.1s.8,.03,1.18,.09c.38,.06,.64,.16,.77,.29,.3,.3,.65,.75,1.06,1.34s.81,1.21,1.23,1.86Z"/><path class="cls-35" d="M73.34,140.78c-.22,1.39-.88,2.52-1.96,3.37s-2.34,1.16-3.78,.91c-1.39-.24-2.48-.92-3.27-2.05-.8-1.13-1.09-2.38-.87-3.75,.2-1.27,.8-2.34,1.79-3.21,.99-.86,2.14-1.24,3.45-1.12,1.58,.14,2.81,.76,3.69,1.86,.88,1.1,1.2,2.43,.95,3.98Zm-3.68-.56c.06-.38,0-.7-.21-.97-.2-.27-.49-.43-.87-.5-.36-.06-.68,.02-.95,.24-.27,.22-.44,.5-.49,.85-.07,.41,.04,.77,.33,1.09,.29,.32,.65,.45,1.08,.39,.3-.03,.54-.15,.74-.36,.2-.21,.32-.46,.37-.74Z"/><path class="cls-35" d="M79.29,139.28c.32-.75,.64-1.5,.98-2.25,.33-.75,.63-1.36,.89-1.82,.11-.19,.37-.25,.78-.18s.84,.21,1.28,.41c.44,.21,.82,.46,1.14,.75,.32,.29,.45,.56,.38,.82-.09,.3-.31,.87-.67,1.71-.36,.84-.75,1.72-1.18,2.62-.43,.91-.84,1.73-1.25,2.46-.4,.73-.69,1.14-.87,1.23-.08,.04-.25,.07-.53,.09-.27,.02-.57,.03-.88,.03s-.61-.01-.89-.03c-.28-.02-.45-.05-.53-.08-.17-.08-.47-.47-.87-1.17s-.83-1.49-1.28-2.37c-.45-.88-.86-1.75-1.25-2.61s-.64-1.48-.77-1.87c-.08-.25,.04-.52,.35-.82,.31-.29,.69-.54,1.12-.75,.43-.21,.85-.35,1.27-.41s.67,0,.79,.18c.35,.62,.69,1.29,1.02,2,.33,.71,.65,1.4,.96,2.07Z"/><path class="cls-35" d="M88.8,141.61c.75,0,1.42-.03,2.03-.07,.6-.04,.96,0,1.06,.13,.12,.1,.2,.52,.25,1.27,.05,.75,.03,1.29-.06,1.62-.04,.14-.38,.26-1.01,.35-.63,.09-1.33,.16-2.12,.19-.78,.03-1.53,.04-2.25,.02-.72-.02-1.19-.08-1.41-.18-.13-.05-.23-.41-.32-1.07-.08-.66-.15-1.43-.2-2.32-.05-.89-.08-1.79-.08-2.71,0-.92,0-1.67,.03-2.25,0-.32,.03-.61,.08-.87,.05-.26,.13-.43,.24-.49,.11-.07,.48-.12,1.13-.17,.65-.05,1.34-.08,2.09-.09,.75-.01,1.44,0,2.08,.04,.64,.04,1,.1,1.1,.2,.12,.1,.18,.48,.2,1.15,.01,.67-.03,1.17-.12,1.52-.05,.16-.35,.26-.9,.29-.55,.04-1.2,.07-1.94,.1,0,.05,0,.11,0,.19,0,.07,0,.13,.01,.19,.48,0,.88,.05,1.18,.11,.07,.02,.14,.15,.21,.39,.07,.24,.12,.5,.15,.79,.03,.29,.03,.55,0,.79-.03,.24-.1,.37-.22,.39-.09,.03-.24,.05-.47,.07-.22,.02-.47,.03-.75,.04v.39Z"/><path class="cls-35" d="M99.5,140.88c.44,.38,.82,.74,1.15,1.09,.33,.35,.5,.62,.5,.8,0,.13-.07,.32-.21,.57-.14,.25-.3,.5-.49,.76-.18,.25-.36,.47-.53,.66-.17,.19-.29,.29-.35,.29-.28,.06-.68-.09-1.21-.45-.53-.36-.96-.59-1.29-.71-.32-.1-.49-.06-.51,.13,0,.32-.02,.56-.08,.73-.06,.17-.27,.27-.63,.31-.41,.04-.88,.07-1.41,.07s-.86,0-1-.04c-.1-.02-.18-.08-.24-.17-.09-.12-.18-.67-.28-1.64-.1-.98-.18-2.04-.23-3.18s-.08-2.19-.07-3.14c0-.95,.07-1.47,.2-1.54,.47-.27,1.09-.46,1.87-.58,.78-.12,1.56-.1,2.34,.06s1.47,.49,2.08,.99c.61,.5,.99,1.24,1.12,2.2,.18,1.29-.07,2.22-.73,2.79Zm-3.23-1.26c.32-.04,.58-.16,.76-.37,.18-.21,.27-.43,.27-.66s-.1-.43-.31-.6-.52-.23-.95-.18c-.35,.04-.49,.36-.41,.96,.08,.6,.29,.89,.65,.85Z"/><path class="cls-35" d="M114.16,139.58c-.15,.98-.58,1.8-1.3,2.46-.71,.66-1.57,.94-2.56,.85-.04,.51-.08,.94-.14,1.29-.05,.35-.11,.56-.18,.64-.09,.17-.53,.28-1.32,.31-.79,.04-1.34-.02-1.67-.17-.15-.07-.28-.51-.39-1.33s-.21-1.74-.28-2.77c-.07-1.03-.12-2.01-.14-2.96-.02-.95-.02-1.58,.01-1.91,.03-.3,.28-.53,.74-.69s1-.26,1.61-.3,1.23-.03,1.85,.04c.62,.07,1.1,.18,1.45,.33,1.83,.8,2.59,2.19,2.29,4.2Zm-2.76-.8c-.1-.48-.41-.74-.94-.8-.1,0-.18,0-.24,0-.41,.08-.6,.38-.56,.91,.04,.53,.17,.88,.41,1.03,.1,.08,.26,.09,.47,.05,.31-.05,.55-.19,.7-.41,.16-.23,.21-.49,.15-.79Z"/><path class="cls-35" d="M115.15,144.91c-.08-.09-.12-.2-.13-.32,0-.43,.06-1.07,.22-1.94,.15-.86,.35-1.76,.58-2.69,.23-.93,.48-1.8,.73-2.62,.26-.81,.48-1.39,.68-1.72,.08-.13,.3-.24,.68-.35,.37-.1,.79-.18,1.24-.22s.89-.04,1.31,0,.71,.14,.88,.3c.24,.24,.52,.76,.85,1.57s.65,1.69,.96,2.64c.31,.95,.59,1.87,.84,2.74,.25,.88,.41,1.49,.49,1.86,.06,.27,.04,.45-.05,.55-.09,.1-.25,.18-.47,.22-.38,.07-.84,.12-1.4,.15-.56,.03-.91,.04-1.05,.02-.06,0-.11-.03-.15-.06-.15-.1-.3-.38-.45-.84s-.28-.78-.42-.95c-.08-.1-.19-.16-.32-.18h-1.05c-.33,0-.54,.11-.64,.33-.13,.28-.27,.59-.44,.93-.16,.34-.28,.55-.36,.63-.04,.05-.1,.08-.17,.1-.17,.04-.59,.05-1.24,.03-.65-.02-1.02-.09-1.11-.2Zm4.16-5.85c-.14,.15-.28,.41-.42,.78-.14,.36-.19,.6-.15,.72,.06,.19,.34,.28,.83,.26,.49-.02,.76-.14,.8-.37,.03-.14-.1-.45-.38-.94-.28-.49-.51-.64-.67-.45Z"/><path class="cls-35" d="M131.36,140.88c.44,.38,.82,.74,1.15,1.09,.33,.35,.5,.62,.5,.8,0,.13-.07,.32-.21,.57-.14,.25-.3,.5-.49,.76s-.36,.47-.53,.66c-.17,.19-.29,.29-.35,.29-.28,.06-.68-.09-1.22-.45-.53-.36-.96-.59-1.29-.71-.32-.1-.49-.06-.51,.13,0,.32-.02,.56-.08,.73-.06,.17-.27,.27-.63,.31-.41,.04-.88,.07-1.41,.07-.53,0-.86,0-1-.04-.1-.02-.18-.08-.24-.17-.09-.12-.18-.67-.28-1.64s-.17-2.04-.23-3.18-.08-2.19-.07-3.14c0-.95,.07-1.47,.2-1.54,.47-.27,1.09-.46,1.87-.58s1.56-.1,2.34,.06c.78,.16,1.47,.49,2.09,.99,.61,.5,.99,1.24,1.12,2.2,.18,1.29-.07,2.22-.73,2.79Zm-3.23-1.26c.32-.04,.58-.16,.76-.37,.18-.21,.27-.43,.27-.66,0-.23-.11-.43-.31-.6s-.52-.23-.95-.18c-.35,.04-.49,.36-.41,.96,.07,.6,.29,.89,.65,.85Z"/><path class="cls-35" d="M133.56,144.91c-.08-.09-.12-.2-.13-.32,0-.43,.06-1.07,.22-1.94,.15-.86,.35-1.76,.58-2.69,.23-.93,.48-1.8,.73-2.62,.26-.81,.48-1.39,.68-1.72,.08-.13,.3-.24,.68-.35,.37-.1,.79-.18,1.24-.22,.45-.04,.89-.04,1.31,0,.42,.04,.71,.14,.88,.3,.24,.24,.52,.76,.85,1.57s.65,1.69,.96,2.64c.31,.95,.59,1.87,.84,2.74,.25,.88,.41,1.49,.49,1.86,.06,.27,.04,.45-.05,.55-.09,.1-.25,.18-.47,.22-.38,.07-.84,.12-1.4,.15-.56,.03-.91,.04-1.05,.02-.06,0-.11-.03-.15-.06-.15-.1-.3-.38-.45-.84-.14-.46-.28-.78-.42-.95-.08-.1-.19-.16-.32-.18h-1.05c-.33,0-.54,.11-.64,.33-.13,.28-.27,.59-.44,.93-.16,.34-.28,.55-.36,.63-.04,.05-.1,.08-.17,.1-.18,.04-.59,.05-1.24,.03-.65-.02-1.02-.09-1.11-.2Zm4.16-5.85c-.14,.15-.28,.41-.42,.78-.14,.36-.19,.6-.15,.72,.06,.19,.34,.28,.83,.26,.49-.02,.76-.14,.8-.37,.03-.14-.1-.45-.38-.94-.28-.49-.51-.64-.67-.45Z"/><path class="cls-35" d="M151.77,138.89v.65c.49,0,.94,.03,1.35,.06,.41,.03,.69,.07,.85,.11,.15,.04,.24,.22,.28,.53,.04,.31,.04,.65,.01,1.01-.03,.36-.09,.7-.18,1.01-.09,.31-.19,.47-.3,.5-.26,.07-.57,.11-.94,.14-.37,.03-.75,.04-1.15,.03-.07,1.09-.17,1.72-.3,1.9-.09,.17-.52,.27-1.28,.29-.76,.02-1.3-.05-1.63-.2-.11-.05-.23-.47-.36-1.26-.13-.79-.26-1.7-.37-2.73-.11-1.02-.19-2.04-.24-3.04s-.05-1.73,0-2.2c.03-.26,.39-.44,1.07-.55,.68-.11,1.43-.17,2.26-.19,.83-.02,1.61,0,2.35,.04s1.18,.08,1.33,.12c.19,.05,.32,.28,.37,.67s.06,.81,.02,1.26c-.04,.45-.12,.86-.23,1.23-.11,.37-.24,.56-.38,.57-.32,.04-.71,.05-1.15,.05s-.91,0-1.39-.03Z"/><path class="cls-35" d="M162.26,140.88c.44,.38,.82,.74,1.15,1.09,.33,.35,.5,.62,.5,.8,0,.13-.07,.32-.21,.57-.14,.25-.3,.5-.49,.76s-.36,.47-.53,.66c-.17,.19-.29,.29-.35,.29-.28,.06-.68-.09-1.22-.45s-.96-.59-1.29-.71c-.32-.1-.49-.06-.51,.13,0,.32-.02,.56-.08,.73s-.27,.27-.63,.31c-.41,.04-.88,.07-1.41,.07s-.86,0-1-.04c-.1-.02-.18-.08-.24-.17-.08-.12-.18-.67-.28-1.64s-.18-2.04-.23-3.18-.08-2.19-.07-3.14c0-.95,.07-1.47,.2-1.54,.47-.27,1.09-.46,1.87-.58,.78-.12,1.56-.1,2.34,.06s1.47,.49,2.08,.99c.61,.5,.99,1.24,1.13,2.2,.17,1.29-.07,2.22-.73,2.79Zm-3.23-1.26c.33-.04,.58-.16,.76-.37,.18-.21,.27-.43,.27-.66,0-.23-.11-.43-.31-.6s-.52-.23-.95-.18c-.35,.04-.49,.36-.41,.96,.07,.6,.29,.89,.64,.85Z"/><path class="cls-35" d="M168.43,141.61c.75,0,1.42-.03,2.03-.07s.96,0,1.06,.13c.12,.1,.2,.52,.25,1.27s.03,1.29-.06,1.62c-.04,.14-.38,.26-1.01,.35-.63,.09-1.33,.16-2.12,.19-.78,.03-1.53,.04-2.25,.02-.72-.02-1.19-.08-1.41-.18-.13-.05-.23-.41-.32-1.07-.08-.66-.15-1.43-.2-2.32-.05-.89-.08-1.79-.08-2.71,0-.92,0-1.67,.03-2.25,0-.32,.03-.61,.08-.87,.05-.26,.13-.43,.24-.49,.11-.07,.48-.12,1.13-.17s1.34-.08,2.09-.09c.75-.01,1.44,0,2.08,.04,.64,.04,1,.1,1.1,.2,.12,.1,.18,.48,.2,1.15s-.02,1.17-.12,1.52c-.05,.16-.35,.26-.9,.29-.55,.04-1.2,.07-1.94,.1,0,.05,0,.11,0,.19,0,.07,0,.13,.01,.19,.48,0,.88,.05,1.18,.11,.07,.02,.14,.15,.21,.39,.07,.24,.12,.5,.15,.79,.03,.29,.03,.55,0,.79-.03,.24-.11,.37-.22,.39-.09,.03-.24,.05-.46,.07-.22,.02-.47,.03-.75,.04v.39Z"/><path class="cls-35" d="M181.52,144.81c-.05,.11-.21,.18-.46,.23s-.54,.08-.85,.09c-.31,0-.61,0-.89-.03-.29-.03-.48-.06-.58-.11-.15-.07-.36-.24-.63-.53-.28-.28-.56-.59-.85-.93-.29-.33-.56-.65-.79-.94-.24-.3-.39-.49-.46-.58-.06,.79-.13,1.46-.2,2.03-.07,.56-.16,.87-.26,.93-.32,.15-.86,.21-1.63,.17-.77-.04-1.2-.14-1.28-.32-.09-.13-.17-.58-.24-1.33-.07-.76-.11-1.62-.13-2.61s-.02-1.98,0-2.98c.03-1.01,.09-1.83,.19-2.47,.02-.13,.17-.23,.45-.3,.28-.07,.61-.11,.98-.12,.37-.01,.74,0,1.12,.05s.66,.11,.86,.2c.29,.14,.66,.5,1.11,1.09,.44,.59,.76,1.04,.97,1.35-.01-.47-.03-.89-.04-1.26-.01-.36-.01-.63,0-.81,0-.21,.21-.37,.59-.48,.38-.11,.81-.17,1.27-.19,.46-.02,.88,.02,1.27,.1,.39,.08,.59,.2,.61,.36,.06,.65,.1,1.48,.12,2.49,.01,1.01,.01,2.01,0,2.99-.02,.98-.04,1.85-.09,2.6-.04,.75-.09,1.19-.13,1.31Z"/><path class="cls-35" d="M188.83,144.81c-.05,.09-.2,.16-.47,.21-.27,.05-.56,.09-.89,.1-.33,.01-.66,0-.99-.02-.32-.03-.57-.08-.74-.15-.18-.08-.33-.73-.47-1.95s-.24-2.46-.32-3.71c-.63-.01-1.18-.05-1.64-.1-.46-.06-.71-.14-.76-.24-.08-.17-.15-.44-.21-.81s-.09-.76-.11-1.15c-.02-.39-.01-.74,0-1.06,.02-.32,.08-.5,.16-.55,.12-.1,.54-.18,1.26-.25,.71-.06,1.54-.1,2.46-.13,.93-.02,1.87-.03,2.83-.02s1.75,.04,2.36,.08c.24,.02,.41,.23,.5,.65s.12,.87,.1,1.37c-.03,.5-.1,.95-.22,1.37-.12,.42-.27,.63-.45,.64-.16,.03-.42,.05-.78,.08-.36,.02-.76,.05-1.21,.06-.01,1.25-.06,2.45-.13,3.6s-.18,1.82-.3,1.99Z"/><path class="cls-35" d="M196.55,141.61c.75,0,1.42-.03,2.03-.07s.96,0,1.06,.13c.12,.1,.2,.52,.25,1.27s.03,1.29-.06,1.62c-.04,.14-.38,.26-1.01,.35-.63,.09-1.33,.16-2.12,.19-.78,.03-1.53,.04-2.25,.02-.72-.02-1.19-.08-1.41-.18-.13-.05-.23-.41-.32-1.07-.08-.66-.15-1.43-.2-2.32-.05-.89-.08-1.79-.08-2.71,0-.92,0-1.67,.03-2.25,0-.32,.03-.61,.08-.87,.05-.26,.13-.43,.24-.49,.11-.07,.48-.12,1.13-.17s1.34-.08,2.09-.09c.75-.01,1.44,0,2.08,.04,.64,.04,1,.1,1.1,.2,.12,.1,.18,.48,.2,1.15s-.02,1.17-.12,1.52c-.05,.16-.35,.26-.9,.29-.55,.04-1.2,.07-1.94,.1,0,.05,0,.11,0,.19,0,.07,0,.13,.01,.19,.48,0,.88,.05,1.18,.11,.07,.02,.14,.15,.21,.39,.07,.24,.12,.5,.15,.79,.03,.29,.03,.55,0,.79-.03,.24-.11,.37-.22,.39-.09,.03-.24,.05-.46,.07-.22,.02-.47,.03-.75,.04v.39Z"/></g></g></svg>