<?xml version="1.0" encoding="UTF-8"?><svg xmlns="http://www.w3.org/2000/svg" xmlns:xlink="http://www.w3.org/1999/xlink" viewBox="0 0 246.61 161.57"><defs><style>.cls-1{stroke:#8a65a5;}.cls-1,.cls-2,.cls-3,.cls-4,.cls-5,.cls-6,.cls-7,.cls-8,.cls-9,.cls-10,.cls-11{stroke-miterlimit:10;}.cls-1,.cls-8,.cls-12{fill:none;}.cls-13,.cls-14,.cls-15,.cls-4,.cls-5,.cls-16,.cls-9,.cls-10{fill:#fff;}.cls-17{fill:#898888;}.cls-14,.cls-9{opacity:.9;}.cls-18{fill:#dbdcdb;}.cls-2,.cls-7{stroke:#fdc729;stroke-width:1px;}.cls-2,.cls-19,.cls-11{fill:#ffd455;}.cls-20{clip-path:url(#clippath-2);}.cls-21{fill:url(#Gradiente_sem_nome_3);}.cls-3,.cls-4,.cls-5,.cls-6,.cls-8,.cls-9,.cls-10,.cls-11{stroke:#fff;}.cls-3,.cls-6,.cls-11{stroke-width:5.4px;}.cls-3,.cls-22{fill:#fcc11e;}.cls-23{fill:#585657;}.cls-15,.cls-5{opacity:.8;}.cls-4,.cls-5,.cls-8,.cls-9,.cls-10{stroke-width:5.67px;}.cls-4,.cls-16{opacity:.19;}.cls-24{clip-path:url(#clippath-1);}.cls-25{fill:#8a65a5;}.cls-26{fill:#eaeaea;}.cls-6,.cls-7,.cls-27{fill:#fee18b;}.cls-28{fill:url(#Gradiente_sem_nome_13);}.cls-29{fill:url(#Gradiente_sem_nome_17);}.cls-30{clip-path:url(#clippath);}.cls-31{clip-path:url(#clippath-3);}.cls-32{fill:#9b9b9b;}.cls-33{fill:#27a7d9;}</style><clipPath id="clippath"><path class="cls-10" d="M144.89,85.69l47.5-1.39c3.31-.1,5.92-2.96,5.82-6.4h0c-.09-3.44-2.85-6.14-6.16-6.05l-47.5,1.39c-3.31,.1-5.92,2.96-5.82,6.4h0c.09,3.44,2.85,6.14,6.16,6.05Z"/></clipPath><clipPath id="clippath-1"><path class="cls-10" d="M154.12,95.09c5.58-.16,9.98-5,9.82-10.8-.16-5.8-4.81-10.37-10.39-10.21s-9.98,5-9.82,10.8,4.81,10.37,10.39,10.21"/></clipPath><clipPath id="clippath-2"><path class="cls-12" d="M145.11,85.39l47.5-1.38c3.31-.1,5.92-2.95,5.82-6.37h0c-.09-3.42-2.85-6.11-6.16-6.02l-47.5,1.38c-3.31,.1-5.92,2.95-5.82,6.37h0c.09,3.42,2.85,6.11,6.16,6.02Z"/></clipPath><linearGradient id="Gradiente_sem_nome_13" x1="673.71" y1="34.44" x2="674.01" y2="68.35" gradientTransform="translate(992.13 -18.84) rotate(178.67) scale(1.21 -1) skewX(-.5)" gradientUnits="userSpaceOnUse"><stop offset="0" stop-color="#228dcd"/><stop offset=".06" stop-color="#2e80b1"/><stop offset=".14" stop-color="#3b7395"/><stop offset=".23" stop-color="#45687e"/><stop offset=".33" stop-color="#4e606c"/><stop offset=".45" stop-color="#535a60"/><stop offset=".62" stop-color="#575659"/><stop offset="1" stop-color="#585657"/></linearGradient><clipPath id="clippath-3"><path class="cls-12" d="M154.34,94.74c5.58-.16,9.98-4.97,9.82-10.74-.16-5.77-4.81-10.32-10.39-10.15s-9.98,4.97-9.82,10.74c.16,5.77,4.81,10.32,10.39,10.15"/></clipPath><linearGradient id="Gradiente_sem_nome_3" x1="540.76" y1="-313.93" x2="540.45" y2="-277.82" gradientTransform="translate(274.03 -459.18) rotate(79.99) scale(.87 -1) skewX(-.03)" gradientUnits="userSpaceOnUse"><stop offset=".06" stop-color="#2490cd"/><stop offset=".45" stop-color="#2493cf"/><stop offset=".84" stop-color="#269fd5"/><stop offset="1" stop-color="#27a7d9"/></linearGradient><linearGradient id="Gradiente_sem_nome_17" x1="5444.25" y1="5048.31" x2="5443.6" y2="5102.35" gradientTransform="translate(-2120.05 6657.31) rotate(-117.9) scale(.94 .99) skewX(-4.38)" gradientUnits="userSpaceOnUse"><stop offset="0" stop-color="#2490cd"/><stop offset=".42" stop-color="#2493cf"/><stop offset=".83" stop-color="#269fd5"/><stop offset="1" stop-color="#27a7d9"/></linearGradient></defs><g id="Camada_2"><rect class="cls-25" width="246.61" height="161.57"/></g><g id="Camada_3"><ellipse class="cls-13" cx="125.63" cy="58.06" rx="56.99" ry="55.27"/><rect class="cls-13" x="109.91" y="42.3" width="31.43" height="198.75" rx="11.22" ry="11.22" transform="translate(267.31 16.05) rotate(90)"/><rect class="cls-1" x="31.17" y="129.27" width="188.92" height="24.82" rx="7.77" ry="7.77"/><g><path class="cls-19" d="M68.99,140.7c-.4-.02-.76,.02-1.07,.13-.43,.15-.74,.4-.94,.74-.19,.34-.27,.69-.23,1.04,.04,.35,.21,.67,.49,.94,.28,.28,.69,.43,1.22,.45,.38,0,.6-.12,.64-.37,.04-.25,.08-.5,.12-.75-.02-.17,.15-.31,.49-.43s.73-.2,1.16-.24c.43-.04,.82-.03,1.19,.02,.37,.06,.57,.17,.59,.35,.04,.33,.08,.75,.1,1.26,.02,.51,.03,1.01,.03,1.51,0,.49-.03,.93-.06,1.31-.04,.38-.09,.6-.17,.67-.07,.09-.43,.15-1.06,.17-.64,.02-1.09-.01-1.36-.09-.04,0-.08-.04-.12-.11-.8,.19-1.58,.26-2.35,.21-1.36-.11-2.5-.64-3.42-1.6s-1.3-2.14-1.15-3.55c.17-1.54,.73-2.74,1.68-3.6,.95-.86,2.15-1.33,3.59-1.41,.95-.04,1.82,.15,2.6,.58,.78,.43,1.18,1.22,1.2,2.35,.02,.17-.09,.32-.32,.43-.23,.12-.51,.21-.83,.28-.32,.07-.64,.11-.95,.14-.31,.02-.54,.02-.68,0-.19-.03-.28-.1-.27-.23,0-.12-.04-.19-.13-.21Z"/><path class="cls-19" d="M77.66,147.19c-.09,.18-.55,.28-1.39,.31s-1.42-.02-1.76-.17c-.15-.07-.3-.52-.44-1.37-.14-.84-.25-1.79-.35-2.84-.1-1.05-.17-2.07-.21-3.04-.04-.97-.05-1.63,0-1.95,.03-.27,.28-.47,.75-.61,.47-.14,.98-.22,1.53-.23,.55-.02,1.06,.03,1.52,.14,.46,.11,.71,.27,.73,.5,.07,.64,.11,1.45,.12,2.45,0,.99-.01,1.98-.05,2.94s-.1,1.82-.18,2.57-.17,1.18-.27,1.31Z"/><path class="cls-19" d="M85.93,143.27c.45,.38,.85,.74,1.19,1.09,.34,.35,.51,.62,.52,.8,0,.13-.07,.32-.22,.57s-.31,.5-.5,.76-.37,.47-.55,.66c-.18,.19-.3,.29-.36,.29-.29,.06-.71-.09-1.26-.45s-.99-.59-1.33-.71c-.33-.1-.5-.06-.53,.13,0,.32-.02,.56-.09,.73-.06,.17-.28,.27-.65,.31-.42,.04-.91,.07-1.46,.07s-.89,0-1.04-.04c-.1-.02-.18-.08-.25-.17-.09-.12-.18-.67-.29-1.64s-.18-2.04-.24-3.18c-.06-1.14-.08-2.19-.08-3.14,0-.95,.08-1.47,.21-1.54,.48-.27,1.13-.46,1.94-.58s1.61-.1,2.42,.06,1.52,.49,2.15,.99c.63,.5,1.02,1.24,1.16,2.2,.18,1.29-.07,2.22-.76,2.79Zm-3.33-1.26c.34-.04,.6-.16,.78-.37s.28-.43,.27-.66c0-.23-.11-.43-.32-.6s-.54-.23-.98-.18c-.36,.04-.51,.36-.43,.96,.08,.6,.3,.89,.67,.85Z"/><path class="cls-19" d="M88.2,147.3c-.08-.09-.13-.2-.13-.32,0-.43,.07-1.07,.23-1.94,.16-.86,.36-1.76,.6-2.69s.49-1.8,.76-2.62c.27-.81,.5-1.39,.7-1.72,.08-.13,.31-.24,.7-.35,.39-.1,.81-.18,1.28-.22,.47-.04,.92-.04,1.35,0s.74,.14,.91,.3c.25,.24,.54,.76,.88,1.57,.34,.81,.67,1.69,.99,2.64,.32,.95,.61,1.87,.87,2.74,.26,.88,.43,1.49,.51,1.86,.06,.27,.04,.45-.05,.55-.09,.1-.25,.18-.48,.22-.39,.07-.87,.12-1.45,.15-.58,.03-.94,.04-1.08,.02-.06,0-.11-.03-.16-.06-.16-.1-.31-.38-.46-.84s-.29-.78-.43-.95c-.08-.1-.19-.16-.33-.18h-1.09c-.34,0-.56,.11-.66,.33-.13,.28-.28,.59-.45,.93-.17,.34-.29,.55-.37,.63-.04,.05-.1,.08-.18,.1-.18,.04-.61,.05-1.28,.03-.67-.02-1.06-.09-1.15-.2Zm4.3-5.85c-.15,.15-.29,.41-.43,.78-.14,.36-.2,.6-.16,.72,.07,.19,.35,.28,.86,.26,.51-.02,.78-.14,.83-.37,.03-.14-.11-.45-.4-.94-.29-.49-.52-.64-.7-.45Z"/><path class="cls-19" d="M104.95,143.27c.45,.38,.85,.74,1.19,1.09,.34,.35,.51,.62,.52,.8,0,.13-.07,.32-.22,.57s-.31,.5-.5,.76-.37,.47-.55,.66c-.18,.19-.3,.29-.36,.29-.29,.06-.71-.09-1.26-.45s-.99-.59-1.33-.71c-.33-.1-.5-.06-.53,.13,0,.32-.02,.56-.09,.73-.06,.17-.28,.27-.65,.31-.42,.04-.91,.07-1.46,.07s-.89,0-1.04-.04c-.1-.02-.18-.08-.25-.17-.09-.12-.18-.67-.29-1.64s-.18-2.04-.24-3.18c-.06-1.14-.08-2.19-.08-3.14,0-.95,.08-1.47,.21-1.54,.48-.27,1.13-.46,1.94-.58s1.61-.1,2.42,.06,1.52,.49,2.15,.99c.63,.5,1.02,1.24,1.16,2.2,.18,1.29-.07,2.22-.76,2.79Zm-3.33-1.26c.34-.04,.6-.16,.78-.37s.28-.43,.27-.66c0-.23-.11-.43-.32-.6s-.54-.23-.98-.18c-.36,.04-.51,.36-.43,.96,.08,.6,.3,.89,.67,.85Z"/><path class="cls-19" d="M120.1,141.96c-.15,.98-.6,1.8-1.34,2.46-.74,.66-1.62,.94-2.65,.85-.04,.51-.09,.94-.14,1.29-.06,.35-.12,.56-.18,.64-.09,.17-.55,.28-1.36,.31-.81,.04-1.39-.02-1.72-.17-.15-.07-.28-.51-.4-1.33-.12-.82-.21-1.74-.29-2.77-.07-1.03-.12-2.01-.14-2.96-.02-.95-.02-1.58,.01-1.91,.03-.3,.29-.53,.77-.69s1.04-.26,1.67-.3c.63-.04,1.27-.03,1.91,.04,.64,.07,1.14,.18,1.5,.33,1.89,.8,2.68,2.19,2.37,4.2Zm-2.85-.8c-.1-.48-.42-.74-.97-.8-.1,0-.18,0-.25,0-.42,.08-.62,.38-.58,.91,.04,.53,.18,.88,.42,1.03,.11,.08,.27,.09,.48,.05,.32-.05,.56-.19,.73-.41,.16-.23,.21-.49,.16-.79Z"/><path class="cls-19" d="M121.13,147.3c-.08-.09-.13-.2-.13-.32,0-.43,.07-1.07,.23-1.94,.16-.86,.36-1.76,.6-2.69s.49-1.8,.76-2.62c.27-.81,.5-1.39,.7-1.72,.08-.13,.31-.24,.7-.35,.39-.1,.81-.18,1.28-.22,.47-.04,.92-.04,1.35,0s.74,.14,.91,.3c.25,.24,.54,.76,.88,1.57,.34,.81,.67,1.69,.99,2.64,.32,.95,.61,1.87,.87,2.74,.26,.88,.43,1.49,.51,1.86,.06,.27,.04,.45-.05,.55-.09,.1-.25,.18-.48,.22-.39,.07-.87,.12-1.45,.15-.58,.03-.94,.04-1.08,.02-.06,0-.11-.03-.16-.06-.16-.1-.31-.38-.46-.84s-.29-.78-.43-.95c-.08-.1-.19-.16-.33-.18h-1.09c-.34,0-.56,.11-.66,.33-.13,.28-.28,.59-.45,.93-.17,.34-.29,.55-.37,.63-.04,.05-.1,.08-.18,.1-.18,.04-.61,.05-1.28,.03-.67-.02-1.06-.09-1.15-.2Zm4.3-5.85c-.15,.15-.29,.41-.43,.78-.14,.36-.2,.6-.16,.72,.07,.19,.35,.28,.86,.26,.51-.02,.78-.14,.83-.37,.03-.14-.11-.45-.4-.94-.29-.49-.52-.64-.7-.45Z"/><path class="cls-19" d="M137.88,143.27c.45,.38,.85,.74,1.19,1.09,.34,.35,.51,.62,.52,.8,0,.13-.07,.32-.22,.57s-.31,.5-.5,.76-.37,.47-.55,.66c-.18,.19-.3,.29-.36,.29-.29,.06-.71-.09-1.26-.45s-.99-.59-1.33-.71c-.33-.1-.5-.06-.53,.13,0,.32-.02,.56-.09,.73-.06,.17-.28,.27-.65,.31-.42,.04-.91,.07-1.46,.07s-.89,0-1.04-.04c-.1-.02-.18-.08-.25-.17-.09-.12-.18-.67-.29-1.64s-.18-2.04-.24-3.18c-.06-1.14-.08-2.19-.08-3.14,0-.95,.08-1.47,.21-1.54,.48-.27,1.13-.46,1.94-.58s1.61-.1,2.42,.06,1.52,.49,2.15,.99c.63,.5,1.02,1.24,1.16,2.2,.18,1.29-.07,2.22-.76,2.79Zm-3.33-1.26c.34-.04,.6-.16,.78-.37s.28-.43,.27-.66c0-.23-.11-.43-.32-.6s-.54-.23-.98-.18c-.36,.04-.51,.36-.43,.96,.08,.6,.3,.89,.67,.85Z"/><path class="cls-19" d="M140.15,147.3c-.08-.09-.13-.2-.13-.32,0-.43,.07-1.07,.23-1.94,.16-.86,.36-1.76,.6-2.69s.49-1.8,.76-2.62c.27-.81,.5-1.39,.7-1.72,.08-.13,.31-.24,.7-.35,.39-.1,.81-.18,1.28-.22,.47-.04,.92-.04,1.35,0s.74,.14,.91,.3c.25,.24,.54,.76,.88,1.57,.34,.81,.67,1.69,.99,2.64,.32,.95,.61,1.87,.87,2.74,.26,.88,.43,1.49,.51,1.86,.06,.27,.04,.45-.05,.55-.09,.1-.25,.18-.48,.22-.39,.07-.87,.12-1.45,.15-.58,.03-.94,.04-1.08,.02-.06,0-.11-.03-.16-.06-.16-.1-.31-.38-.46-.84s-.29-.78-.43-.95c-.08-.1-.19-.16-.33-.18h-1.09c-.34,0-.56,.11-.66,.33-.13,.28-.28,.59-.45,.93-.17,.34-.29,.55-.37,.63-.04,.05-.1,.08-.18,.1-.18,.04-.61,.05-1.28,.03-.67-.02-1.06-.09-1.15-.2Zm4.3-5.85c-.15,.15-.29,.41-.43,.78-.14,.36-.2,.6-.16,.72,.07,.19,.35,.28,.86,.26,.51-.02,.78-.14,.83-.37,.03-.14-.11-.45-.4-.94-.29-.49-.52-.64-.7-.45Z"/><path class="cls-19" d="M161.36,147.2c-.05,.09-.21,.16-.48,.21-.27,.05-.58,.09-.92,.1-.34,.01-.68,0-1.02-.02-.34-.03-.59-.08-.76-.15-.18-.08-.34-.73-.49-1.95s-.25-2.46-.33-3.71c-.65-.01-1.22-.05-1.69-.1-.47-.06-.73-.14-.78-.24-.08-.17-.15-.44-.21-.81s-.1-.76-.11-1.15c-.02-.39-.01-.74,.01-1.06,.02-.32,.08-.5,.17-.55,.13-.1,.56-.18,1.3-.25,.74-.06,1.59-.1,2.55-.13,.96-.02,1.93-.03,2.92-.02,.99,.01,1.8,.04,2.44,.08,.25,.02,.42,.23,.52,.65,.09,.42,.13,.87,.1,1.37-.03,.5-.1,.95-.23,1.37-.13,.42-.28,.63-.46,.64-.17,.03-.44,.05-.81,.08-.37,.02-.79,.05-1.25,.06-.01,1.25-.06,2.45-.14,3.6s-.18,1.82-.31,1.99Z"/><path class="cls-19" d="M172.23,143.27c.45,.38,.85,.74,1.19,1.09,.34,.35,.51,.62,.52,.8,0,.13-.07,.32-.22,.57s-.31,.5-.5,.76-.37,.47-.55,.66c-.18,.19-.3,.29-.36,.29-.29,.06-.71-.09-1.26-.45s-.99-.59-1.33-.71c-.33-.1-.5-.06-.53,.13,0,.32-.02,.56-.09,.73-.06,.17-.28,.27-.65,.31-.42,.04-.91,.07-1.46,.07s-.89,0-1.04-.04c-.1-.02-.18-.08-.25-.17-.09-.12-.18-.67-.29-1.64s-.18-2.04-.24-3.18c-.06-1.14-.08-2.19-.08-3.14,0-.95,.08-1.47,.21-1.54,.48-.27,1.13-.46,1.94-.58s1.61-.1,2.42,.06,1.52,.49,2.15,.99c.63,.5,1.02,1.24,1.16,2.2,.18,1.29-.07,2.22-.76,2.79Zm-3.33-1.26c.34-.04,.6-.16,.78-.37s.28-.43,.27-.66c0-.23-.11-.43-.32-.6s-.54-.23-.98-.18c-.36,.04-.51,.36-.43,.96,.08,.6,.3,.89,.67,.85Z"/><path class="cls-19" d="M174.5,147.3c-.08-.09-.13-.2-.13-.32,0-.43,.07-1.07,.23-1.94,.16-.86,.36-1.76,.6-2.69s.49-1.8,.76-2.62c.27-.81,.5-1.39,.7-1.72,.15-.25,.65-.42,1.5-.5s1.56-.1,2.12-.05c.23,.02,.43,.11,.62,.29,.25,.24,.54,.76,.88,1.57,.34,.81,.67,1.69,.99,2.64,.32,.95,.61,1.87,.87,2.74,.26,.88,.43,1.49,.51,1.86,.06,.27,.04,.45-.05,.55-.09,.1-.25,.18-.48,.22-.39,.07-.87,.12-1.45,.15-.58,.03-.94,.04-1.08,.02-.06,0-.11-.03-.16-.06-.16-.1-.31-.38-.46-.84s-.29-.78-.43-.95c-.08-.1-.19-.16-.33-.18h-1.09c-.34,0-.56,.11-.66,.33-.13,.28-.28,.59-.45,.93-.17,.34-.29,.55-.37,.63-.04,.05-.1,.08-.18,.1-.18,.04-.61,.05-1.28,.03-.67-.02-1.06-.09-1.15-.2Zm4.61-10.36c-.1-.03-.27-.21-.5-.56s-.4-.65-.48-.9c-.04-.11,.06-.27,.29-.49,.24-.22,.51-.45,.84-.68,.32-.23,.64-.44,.95-.62s.54-.29,.67-.33c.1-.03,.24,.06,.42,.26,.18,.2,.34,.43,.5,.69s.29,.51,.38,.75c.09,.24,.11,.38,.04,.44-.38,.3-.95,.65-1.71,1.02s-1.23,.52-1.4,.44Zm-.32,4.52c-.15,.15-.29,.41-.43,.78-.14,.36-.2,.6-.16,.72,.07,.19,.35,.28,.86,.26,.51-.02,.78-.14,.83-.37,.03-.14-.11-.45-.4-.94-.29-.49-.52-.64-.7-.45Z"/><path class="cls-19" d="M188.92,140.63c-.09,0-.18-.02-.25-.07-.09-.07-.14-.14-.14-.22,0-.08-.05-.15-.14-.23-.22-.17-.5-.14-.84,.09s-.2,.42,.42,.54c.07,.01,.14,.03,.22,.04,.08,.02,.16,.03,.25,.04,1.02,.18,1.82,.48,2.41,.91,.72,.53,1.14,1.22,1.25,2.08s-.13,1.62-.71,2.3c-.69,.8-1.62,1.26-2.8,1.38-1.18,.12-2.2-.13-3.05-.74-.74-.52-1.2-1.17-1.39-1.96-.08-.37,.11-.66,.56-.86,.2-.09,.42-.16,.66-.2,.24-.04,.47-.06,.69-.07,.36,0,.69,.04,.98,.13,.29,.09,.46,.21,.5,.37,0,.03,.02,.06,.03,.09,.05,.11,.14,.19,.28,.25,.16,.07,.35,.06,.57-.03s.28-.23,.19-.44c-.05-.1-.18-.18-.4-.24-.52-.15-1.03-.26-1.54-.34-.51-.08-1-.29-1.46-.63-.33-.24-.59-.57-.78-.98-.19-.42-.25-.97-.19-1.65,.09-.92,.53-1.68,1.33-2.28,.47-.35,1-.58,1.6-.7,.6-.12,1.18-.12,1.75,0,.57,.12,1.08,.35,1.53,.7,.45,.35,.77,.82,.94,1.4,.07,.23,0,.42-.19,.58s-.43,.3-.72,.4c-.29,.11-.58,.19-.88,.24-.3,.05-.53,.08-.68,.09Z"/></g><g><path class="cls-33" d="M68.23,140.52c-.4-.02-.76,.02-1.07,.13-.43,.15-.74,.4-.94,.74-.19,.34-.27,.69-.23,1.04,.04,.35,.21,.67,.49,.94,.28,.28,.69,.43,1.22,.45,.38,0,.6-.12,.64-.37,.04-.25,.08-.5,.12-.75-.02-.17,.15-.31,.49-.43s.73-.2,1.16-.24c.43-.04,.82-.03,1.19,.02,.37,.06,.57,.17,.59,.35,.04,.33,.08,.75,.1,1.26,.02,.51,.03,1.01,.03,1.51,0,.49-.03,.93-.06,1.31-.04,.38-.09,.6-.17,.67-.07,.09-.43,.15-1.06,.17-.64,.02-1.09-.01-1.36-.09-.04,0-.08-.04-.12-.11-.8,.19-1.58,.26-2.35,.21-1.36-.11-2.5-.64-3.42-1.6s-1.3-2.14-1.15-3.55c.17-1.54,.73-2.74,1.68-3.6,.95-.86,2.15-1.33,3.59-1.41,.95-.04,1.82,.15,2.6,.58,.78,.43,1.18,1.22,1.2,2.35,.02,.17-.09,.32-.32,.43-.23,.12-.51,.21-.83,.28-.32,.07-.64,.11-.95,.14-.31,.02-.54,.02-.68,0-.19-.03-.28-.1-.27-.23,0-.12-.04-.19-.13-.21Z"/><path class="cls-33" d="M76.91,147.02c-.09,.18-.55,.28-1.39,.31s-1.42-.02-1.76-.17c-.15-.07-.3-.52-.44-1.37-.14-.84-.25-1.79-.35-2.84-.1-1.05-.17-2.07-.21-3.04-.04-.97-.05-1.63,0-1.95,.03-.27,.28-.47,.75-.61,.47-.14,.98-.22,1.53-.23,.55-.02,1.06,.03,1.52,.14,.46,.11,.71,.27,.73,.5,.07,.64,.11,1.45,.12,2.45,0,.99-.01,1.98-.05,2.94s-.1,1.82-.18,2.57-.17,1.18-.27,1.31Z"/><path class="cls-33" d="M85.17,143.1c.45,.38,.85,.74,1.19,1.09,.34,.35,.51,.62,.52,.8,0,.13-.07,.32-.22,.57s-.31,.5-.5,.76-.37,.47-.55,.66c-.18,.19-.3,.29-.36,.29-.29,.06-.71-.09-1.26-.45s-.99-.59-1.33-.71c-.33-.1-.5-.06-.53,.13,0,.32-.02,.56-.09,.73-.06,.17-.28,.27-.65,.31-.42,.04-.91,.07-1.46,.07s-.89,0-1.04-.04c-.1-.02-.18-.08-.25-.17-.09-.12-.18-.67-.29-1.64s-.18-2.04-.24-3.18c-.06-1.14-.08-2.19-.08-3.14,0-.95,.08-1.47,.21-1.54,.48-.27,1.13-.46,1.94-.58s1.61-.1,2.42,.06,1.52,.49,2.15,.99c.63,.5,1.02,1.24,1.16,2.2,.18,1.29-.07,2.22-.76,2.79Zm-3.33-1.26c.34-.04,.6-.16,.78-.37s.28-.43,.27-.66c0-.23-.11-.43-.32-.6s-.54-.23-.98-.18c-.36,.04-.51,.36-.43,.96,.08,.6,.3,.89,.67,.85Z"/><path class="cls-33" d="M87.45,147.13c-.08-.09-.13-.2-.13-.32,0-.43,.07-1.07,.23-1.94,.16-.86,.36-1.76,.6-2.69s.49-1.8,.76-2.62c.27-.81,.5-1.39,.7-1.72,.08-.13,.31-.24,.7-.35,.39-.1,.81-.18,1.28-.22,.47-.04,.92-.04,1.35,0s.74,.14,.91,.3c.25,.24,.54,.76,.88,1.57,.34,.81,.67,1.69,.99,2.64,.32,.95,.61,1.87,.87,2.74,.26,.88,.43,1.49,.51,1.86,.06,.27,.04,.45-.05,.55-.09,.1-.25,.18-.48,.22-.39,.07-.87,.12-1.45,.15-.58,.03-.94,.04-1.08,.02-.06,0-.11-.03-.16-.06-.16-.1-.31-.38-.46-.84s-.29-.78-.43-.95c-.08-.1-.19-.16-.33-.18h-1.09c-.34,0-.56,.11-.66,.33-.13,.28-.28,.59-.45,.93-.17,.34-.29,.55-.37,.63-.04,.05-.1,.08-.18,.1-.18,.04-.61,.05-1.28,.03-.67-.02-1.06-.09-1.15-.2Zm4.3-5.85c-.15,.15-.29,.41-.43,.78-.14,.36-.2,.6-.16,.72,.07,.19,.35,.28,.86,.26,.51-.02,.78-.14,.83-.37,.03-.14-.11-.45-.4-.94-.29-.49-.52-.64-.7-.45Z"/><path class="cls-33" d="M104.19,143.1c.45,.38,.85,.74,1.19,1.09,.34,.35,.51,.62,.52,.8,0,.13-.07,.32-.22,.57s-.31,.5-.5,.76-.37,.47-.55,.66c-.18,.19-.3,.29-.36,.29-.29,.06-.71-.09-1.26-.45s-.99-.59-1.33-.71c-.33-.1-.5-.06-.53,.13,0,.32-.02,.56-.09,.73-.06,.17-.28,.27-.65,.31-.42,.04-.91,.07-1.46,.07s-.89,0-1.04-.04c-.1-.02-.18-.08-.25-.17-.09-.12-.18-.67-.29-1.64s-.18-2.04-.24-3.18c-.06-1.14-.08-2.19-.08-3.14,0-.95,.08-1.47,.21-1.54,.48-.27,1.13-.46,1.94-.58s1.61-.1,2.42,.06,1.52,.49,2.15,.99c.63,.5,1.02,1.24,1.16,2.2,.18,1.29-.07,2.22-.76,2.79Zm-3.33-1.26c.34-.04,.6-.16,.78-.37s.28-.43,.27-.66c0-.23-.11-.43-.32-.6s-.54-.23-.98-.18c-.36,.04-.51,.36-.43,.96,.08,.6,.3,.89,.67,.85Z"/><path class="cls-33" d="M119.35,141.79c-.15,.98-.6,1.8-1.34,2.46-.74,.66-1.62,.94-2.65,.85-.04,.51-.09,.94-.14,1.29-.06,.35-.12,.56-.18,.64-.09,.17-.55,.28-1.36,.31-.81,.04-1.39-.02-1.72-.17-.15-.07-.28-.51-.4-1.33-.12-.82-.21-1.74-.29-2.77-.07-1.03-.12-2.01-.14-2.96-.02-.95-.02-1.58,.01-1.91,.03-.3,.29-.53,.77-.69s1.04-.26,1.67-.3c.63-.04,1.27-.03,1.91,.04,.64,.07,1.14,.18,1.5,.33,1.89,.8,2.68,2.19,2.37,4.2Zm-2.85-.8c-.1-.48-.42-.74-.97-.8-.1,0-.18,0-.25,0-.42,.08-.62,.38-.58,.91,.04,.53,.18,.88,.42,1.03,.11,.08,.27,.09,.48,.05,.32-.05,.56-.19,.73-.41,.16-.23,.21-.49,.16-.79Z"/><path class="cls-33" d="M120.38,147.13c-.08-.09-.13-.2-.13-.32,0-.43,.07-1.07,.23-1.94,.16-.86,.36-1.76,.6-2.69s.49-1.8,.76-2.62c.27-.81,.5-1.39,.7-1.72,.08-.13,.31-.24,.7-.35,.39-.1,.81-.18,1.28-.22,.47-.04,.92-.04,1.35,0s.74,.14,.91,.3c.25,.24,.54,.76,.88,1.57,.34,.81,.67,1.69,.99,2.64,.32,.95,.61,1.87,.87,2.74,.26,.88,.43,1.49,.51,1.86,.06,.27,.04,.45-.05,.55-.09,.1-.25,.18-.48,.22-.39,.07-.87,.12-1.45,.15-.58,.03-.94,.04-1.08,.02-.06,0-.11-.03-.16-.06-.16-.1-.31-.38-.46-.84s-.29-.78-.43-.95c-.08-.1-.19-.16-.33-.18h-1.09c-.34,0-.56,.11-.66,.33-.13,.28-.28,.59-.45,.93-.17,.34-.29,.55-.37,.63-.04,.05-.1,.08-.18,.1-.18,.04-.61,.05-1.28,.03-.67-.02-1.06-.09-1.15-.2Zm4.3-5.85c-.15,.15-.29,.41-.43,.78-.14,.36-.2,.6-.16,.72,.07,.19,.35,.28,.86,.26,.51-.02,.78-.14,.83-.37,.03-.14-.11-.45-.4-.94-.29-.49-.52-.64-.7-.45Z"/><path class="cls-33" d="M137.13,143.1c.45,.38,.85,.74,1.19,1.09,.34,.35,.51,.62,.52,.8,0,.13-.07,.32-.22,.57s-.31,.5-.5,.76-.37,.47-.55,.66c-.18,.19-.3,.29-.36,.29-.29,.06-.71-.09-1.26-.45s-.99-.59-1.33-.71c-.33-.1-.5-.06-.53,.13,0,.32-.02,.56-.09,.73-.06,.17-.28,.27-.65,.31-.42,.04-.91,.07-1.46,.07s-.89,0-1.04-.04c-.1-.02-.18-.08-.25-.17-.09-.12-.18-.67-.29-1.64s-.18-2.04-.24-3.18c-.06-1.14-.08-2.19-.08-3.14,0-.95,.08-1.47,.21-1.54,.48-.27,1.13-.46,1.94-.58s1.61-.1,2.42,.06,1.52,.49,2.15,.99c.63,.5,1.02,1.24,1.16,2.2,.18,1.29-.07,2.22-.76,2.79Zm-3.33-1.26c.34-.04,.6-.16,.78-.37s.28-.43,.27-.66c0-.23-.11-.43-.32-.6s-.54-.23-.98-.18c-.36,.04-.51,.36-.43,.96,.08,.6,.3,.89,.67,.85Z"/><path class="cls-33" d="M139.4,147.13c-.08-.09-.13-.2-.13-.32,0-.43,.07-1.07,.23-1.94,.16-.86,.36-1.76,.6-2.69s.49-1.8,.76-2.62c.27-.81,.5-1.39,.7-1.72,.08-.13,.31-.24,.7-.35,.39-.1,.81-.18,1.28-.22,.47-.04,.92-.04,1.35,0s.74,.14,.91,.3c.25,.24,.54,.76,.88,1.57,.34,.81,.67,1.69,.99,2.64,.32,.95,.61,1.87,.87,2.74,.26,.88,.43,1.49,.51,1.86,.06,.27,.04,.45-.05,.55-.09,.1-.25,.18-.48,.22-.39,.07-.87,.12-1.45,.15-.58,.03-.94,.04-1.08,.02-.06,0-.11-.03-.16-.06-.16-.1-.31-.38-.46-.84s-.29-.78-.43-.95c-.08-.1-.19-.16-.33-.18h-1.09c-.34,0-.56,.11-.66,.33-.13,.28-.28,.59-.45,.93-.17,.34-.29,.55-.37,.63-.04,.05-.1,.08-.18,.1-.18,.04-.61,.05-1.28,.03-.67-.02-1.06-.09-1.15-.2Zm4.3-5.85c-.15,.15-.29,.41-.43,.78-.14,.36-.2,.6-.16,.72,.07,.19,.35,.28,.86,.26,.51-.02,.78-.14,.83-.37,.03-.14-.11-.45-.4-.94-.29-.49-.52-.64-.7-.45Z"/><path class="cls-33" d="M160.6,147.03c-.05,.09-.21,.16-.48,.21-.27,.05-.58,.09-.92,.1-.34,.01-.68,0-1.02-.02-.34-.03-.59-.08-.76-.15-.18-.08-.34-.73-.49-1.95s-.25-2.46-.33-3.71c-.65-.01-1.22-.05-1.69-.1-.47-.06-.73-.14-.78-.24-.08-.17-.15-.44-.21-.81s-.1-.76-.11-1.15c-.02-.39-.01-.74,.01-1.06,.02-.32,.08-.5,.17-.55,.13-.1,.56-.18,1.3-.25,.74-.06,1.59-.1,2.55-.13,.96-.02,1.93-.03,2.92-.02,.99,.01,1.8,.04,2.44,.08,.25,.02,.42,.23,.52,.65,.09,.42,.13,.87,.1,1.37-.03,.5-.1,.95-.23,1.37-.13,.42-.28,.63-.46,.64-.17,.03-.44,.05-.81,.08-.37,.02-.79,.05-1.25,.06-.01,1.25-.06,2.45-.14,3.6s-.18,1.82-.31,1.99Z"/><path class="cls-33" d="M171.48,143.1c.45,.38,.85,.74,1.19,1.09,.34,.35,.51,.62,.52,.8,0,.13-.07,.32-.22,.57s-.31,.5-.5,.76-.37,.47-.55,.66c-.18,.19-.3,.29-.36,.29-.29,.06-.71-.09-1.26-.45s-.99-.59-1.33-.71c-.33-.1-.5-.06-.53,.13,0,.32-.02,.56-.09,.73-.06,.17-.28,.27-.65,.31-.42,.04-.91,.07-1.46,.07s-.89,0-1.04-.04c-.1-.02-.18-.08-.25-.17-.09-.12-.18-.67-.29-1.64s-.18-2.04-.24-3.18c-.06-1.14-.08-2.19-.08-3.14,0-.95,.08-1.47,.21-1.54,.48-.27,1.13-.46,1.94-.58s1.61-.1,2.42,.06,1.52,.49,2.15,.99c.63,.5,1.02,1.24,1.16,2.2,.18,1.29-.07,2.22-.76,2.79Zm-3.33-1.26c.34-.04,.6-.16,.78-.37s.28-.43,.27-.66c0-.23-.11-.43-.32-.6s-.54-.23-.98-.18c-.36,.04-.51,.36-.43,.96,.08,.6,.3,.89,.67,.85Z"/><path class="cls-33" d="M173.75,147.13c-.08-.09-.13-.2-.13-.32,0-.43,.07-1.07,.23-1.94,.16-.86,.36-1.76,.6-2.69s.49-1.8,.76-2.62c.27-.81,.5-1.39,.7-1.72,.15-.25,.65-.42,1.5-.5s1.56-.1,2.12-.05c.23,.02,.43,.11,.62,.29,.25,.24,.54,.76,.88,1.57,.34,.81,.67,1.69,.99,2.64,.32,.95,.61,1.87,.87,2.74,.26,.88,.43,1.49,.51,1.86,.06,.27,.04,.45-.05,.55-.09,.1-.25,.18-.48,.22-.39,.07-.87,.12-1.45,.15-.58,.03-.94,.04-1.08,.02-.06,0-.11-.03-.16-.06-.16-.1-.31-.38-.46-.84s-.29-.78-.43-.95c-.08-.1-.19-.16-.33-.18h-1.09c-.34,0-.56,.11-.66,.33-.13,.28-.28,.59-.45,.93-.17,.34-.29,.55-.37,.63-.04,.05-.1,.08-.18,.1-.18,.04-.61,.05-1.28,.03-.67-.02-1.06-.09-1.15-.2Zm4.61-10.36c-.1-.03-.27-.21-.5-.56s-.4-.65-.48-.9c-.04-.11,.06-.27,.29-.49,.24-.22,.51-.45,.84-.68,.32-.23,.64-.44,.95-.62s.54-.29,.67-.33c.1-.03,.24,.06,.42,.26,.18,.2,.34,.43,.5,.69s.29,.51,.38,.75c.09,.24,.11,.38,.04,.44-.38,.3-.95,.65-1.71,1.02s-1.23,.52-1.4,.44Zm-.32,4.52c-.15,.15-.29,.41-.43,.78-.14,.36-.2,.6-.16,.72,.07,.19,.35,.28,.86,.26,.51-.02,.78-.14,.83-.37,.03-.14-.11-.45-.4-.94-.29-.49-.52-.64-.7-.45Z"/><path class="cls-33" d="M188.16,140.46c-.09,0-.18-.02-.25-.07-.09-.07-.14-.14-.14-.22,0-.08-.05-.15-.14-.23-.22-.17-.5-.14-.84,.09s-.2,.42,.42,.54c.07,.01,.14,.03,.22,.04,.08,.02,.16,.03,.25,.04,1.02,.18,1.82,.48,2.41,.91,.72,.53,1.14,1.22,1.25,2.08s-.13,1.62-.71,2.3c-.69,.8-1.62,1.26-2.8,1.38-1.18,.12-2.2-.13-3.05-.74-.74-.52-1.2-1.17-1.39-1.96-.08-.37,.11-.66,.56-.86,.2-.09,.42-.16,.66-.2,.24-.04,.47-.06,.69-.07,.36,0,.69,.04,.98,.13,.29,.09,.46,.21,.5,.37,0,.03,.02,.06,.03,.09,.05,.11,.14,.19,.28,.25,.16,.07,.35,.06,.57-.03s.28-.23,.19-.44c-.05-.1-.18-.18-.4-.24-.52-.15-1.03-.26-1.54-.34-.51-.08-1-.29-1.46-.63-.33-.24-.59-.57-.78-.98-.19-.42-.25-.97-.19-1.65,.09-.92,.53-1.68,1.33-2.28,.47-.35,1-.58,1.6-.7,.6-.12,1.18-.12,1.75,0,.57,.12,1.08,.35,1.53,.7,.45,.35,.77,.82,.94,1.4,.07,.23,0,.42-.19,.58s-.43,.3-.72,.4c-.29,.11-.58,.19-.88,.24-.3,.05-.53,.08-.68,.09Z"/></g><g><g><path class="cls-10" d="M180.29,93.95c6.13-.18,10.97-5.49,10.8-11.86-.17-6.37-5.29-11.39-11.42-11.21-6.13,.18-10.97,5.49-10.8,11.86,.17,6.37,5.29,11.39,11.42,11.21"/><path class="cls-10" d="M179.78,93.97c6.13-.18,10.97-5.49,10.8-11.86-.17-6.37-5.29-11.39-11.42-11.21s-10.97,5.49-10.8,11.86c.17,6.37,5.29,11.39,11.42,11.21"/></g><path class="cls-10" d="M144.88,85.46l47.5-1.39c3.31-.1,5.92-2.96,5.82-6.4h0c-.09-3.44-2.85-6.14-6.16-6.05l-47.5,1.39c-3.31,.1-5.92,2.96-5.82,6.4h0c.09,3.44,2.85,6.14,6.16,6.05Z"/><g><path class="cls-13" d="M144.89,85.69l47.5-1.39c3.31-.1,5.92-2.96,5.82-6.4h0c-.09-3.44-2.85-6.14-6.16-6.05l-47.5,1.39c-3.31,.1-5.92,2.96-5.82,6.4h0c.09,3.44,2.85,6.14,6.16,6.05Z"/><g class="cls-30"><path class="cls-10" d="M141.7,83.63c-2.22,.06-4.11-1.64-4.37-3.93-.27-2.47-.55-5.39-.59-7.19-.16-8.27-.35-17.96,4.14-26.51,6.73-12.85,20.58-16.62,23.23-17.29,1.24-.31,21.43-5.07,30.44,6.53,.82,1.05,3.2,4.38,4.48,17.96,.85,9.05,.68,16.93,.19,23.17-.25,3.2-2.79,5.68-5.88,5.77-8.03,.23-16.06,.47-24.1,.7-9.18,.27-18.37,.54-27.55,.8Z"/></g><path class="cls-8" d="M144.89,85.69l47.5-1.39c3.31-.1,5.92-2.96,5.82-6.4h0c-.09-3.44-2.85-6.14-6.16-6.05l-47.5,1.39c-3.31,.1-5.92,2.96-5.82,6.4h0c.09,3.44,2.85,6.14,6.16,6.05Z"/></g><path class="cls-10" d="M141.91,81.76c-2.22,.06-4.11-1.64-4.37-3.93-.27-2.47-.55-5.39-.59-7.19-.16-8.27-.35-17.96,4.14-26.51,6.73-12.85,20.58-16.62,23.23-17.29,1.24-.31,21.43-5.07,30.44,6.53,.82,1.05,3.2,4.38,4.48,17.96,.85,9.05,.68,16.93,.19,23.17-.25,3.2-2.79,5.68-5.88,5.77-8.03,.23-16.06,.47-24.1,.7-9.18,.27-18.37,.54-27.55,.8Z"/><path class="cls-10" d="M141.87,81.76c-2.2,.06-4.07-1.62-4.32-3.88-.27-2.43-.55-5.31-.58-7.09-.16-8.15-.34-17.71,4.1-26.15,6.67-12.67,19.3-16.37,21.93-17.02,1.23-.31-31.76,14.43-11.39,40.44,7.98,10.19,45.07,10.23,47.04-16.32,.68-9.13,1.17,17.15,.5,23.04-.35,3.14-3.08,5.4-6.14,5.49-7.95,.23-15.91,.46-23.86,.7-9.09,.27-18.19,.53-27.28,.8Z"/><path class="cls-4" d="M185.93,60.42c-11.69,2.72-27.43-9.88-25.93-19.41,1.21-7.7,13.4-11.58,19.36-12.43,6.02-.85,9.14,.89,9.89,1.34,3.37,2.01,4.82,5.2,5.61,6.95,.57,1.26,4.6,10.48-.24,17.65-3.04,4.5-7.89,5.7-8.69,5.89Z"/><path class="cls-10" d="M197.28,66.92c.1-9.45,.26-15.15,.32-19.72,.03-2.19-.16-4.38-.95-5.59-4.06-6.23-17.73-9.85-27.62-2.22-3.91,3.02-5.27,8.57-5.32,14.03-.04,4.92,1.5,10.11,4.88,14.55"/><path class="cls-10" d="M155.21,96.39c6.29-.18,11.25-5.63,11.07-12.17s-5.42-11.68-11.71-11.5c-6.29,.18-11.25,5.63-11.07,12.17,.18,6.54,5.42,11.68,11.71,11.5"/><path class="cls-10" d="M154.12,95.09c5.58-.16,9.98-5,9.82-10.8-.16-5.8-4.81-10.37-10.39-10.21s-9.98,5-9.82,10.8,4.81,10.37,10.39,10.21"/><path class="cls-9" d="M196.64,66.18c.1-9.15,.9-14.76,.95-19.19,.03-2.12-.16-4.24-.92-5.41-3.93-6.03-17.17-9.54-26.74-2.15-3.79,2.92-5.1,8.3-5.15,13.58-.04,4.76,1.45,9.79,4.73,14.09"/><path class="cls-10" d="M196.64,66.32c.1-9.09,.25-14.56,.31-18.96,.03-2.1-.15-4.21-.91-5.37-3.9-5.99-17.05-9.47-26.55-2.13-3.76,2.9-5.06,8.24-5.11,13.49-.04,4.73,1.44,9.72,4.69,13.99"/><path class="cls-9" d="M195.93,55.34c-.07-4.65-1.48-8.73-3.36-9.91-2.29-1.44-4.44,1.98-5.03,6.01-.25,1.71-.15,5.75-.07,6.76,.09,.03,.15,.15,.17-.19,.1-2.34,.51-4.4,1.35-6.33,.46-1.06,1.11-2.14,1.93-2.72,1.34-.94,2.33,.02,2.98,.8,.89,1.08,1.21,2.19,1.57,3.32"/><path class="cls-10" d="M195.94,55.98c-.07-4.65-1.48-8.73-3.36-9.91-2.29-1.44-4.44,1.98-5.03,6.01-.25,1.71-.15,5.75-.07,6.76,.09,.03,.15,.15,.17-.19,.1-2.34,.51-4.4,1.35-6.33,.46-1.06,1.11-2.14,1.93-2.72,1.34-.94,2.33,.02,2.98,.8,.89,1.08,1.21,2.19,1.57,3.32"/><path class="cls-9" d="M167.08,56.18c-.22-4.65,1.97-8.83,5.21-10.16,3.97-1.63,8.04,1.62,9.39,5.59,.57,1.68,.71,5.72,.64,6.74-.16,.04-.26,.16-.31-.17-.36-2.33-1.23-4.34-2.88-6.21-.9-1.02-2.13-2.04-3.64-2.56-2.46-.83-4.14,.21-5.23,1.04-1.5,1.15-1.98,2.28-2.54,3.44"/><path class="cls-10" d="M167.09,56.83c-.22-4.65,1.97-8.83,5.21-10.16,3.97-1.63,8.04,1.62,9.39,5.59,.57,1.68,.71,5.72,.64,6.74-.16,.04-.26,.16-.31-.17-.36-2.33-1.23-4.34-2.88-6.21-.9-1.02-2.13-2.04-3.64-2.56-2.46-.83-4.14,.21-5.23,1.04-1.5,1.15-1.98,2.28-2.54,3.44"/><path class="cls-5" d="M177.32,47.21c.65,.16,1.19,.94,1,1.36-.18,.41-1.09,.53-1.58,.09-.34-.3-.54-.91-.28-1.25,.26-.34,.82-.21,.87-.2Z"/><g><path class="cls-13" d="M154.12,95.09c5.58-.16,9.98-5,9.82-10.8-.16-5.8-4.81-10.37-10.39-10.21s-9.98,5-9.82,10.8,4.81,10.37,10.39,10.21"/><g class="cls-24"><polygon class="cls-10" points="141.74 81.99 166.42 81.27 166.27 75.64 141.59 76.36 141.74 81.99"/></g><path class="cls-8" d="M154.12,95.09c5.58-.16,9.98-5,9.82-10.8-.16-5.8-4.81-10.37-10.39-10.21s-9.98,5-9.82,10.8,4.81,10.37,10.39,10.21"/></g><path class="cls-10" d="M153.25,92.82c4.34-.13,7.76-3.88,7.64-8.39s-3.74-8.06-8.08-7.93c-4.34,.13-7.76,3.88-7.64,8.39s3.74,8.06,8.08,7.93"/><path class="cls-10" d="M153.23,92.24c4.03-.12,7.2-3.6,7.09-7.79-.11-4.18-3.47-7.48-7.5-7.36-4.03,.12-7.2,3.6-7.09,7.79,.11,4.18,3.47,7.48,7.5,7.36"/><path class="cls-10" d="M158.59,81.7c-.37,.89-3.64,3.21-5.64,2.88-.58-2.44,.61-5.51,1.5-6.44,.95-.99,4.76,2.07,4.14,3.55Z"/><path class="cls-10" d="M147.27,87.54c.37-.89,3.64-3.21,5.64-2.88,.58,2.44-.61,5.51-1.5,6.44-.95,.99-4.76-2.07-4.14-3.56Z"/><path class="cls-10" d="M155.94,90.44c-.86-.37-3.16-3.72-2.88-5.81,2.34-.64,5.31,.53,6.22,1.44,.97,.97-1.9,4.98-3.35,4.37Z"/><path class="cls-10" d="M150.11,78.79c.86,.37,3.16,3.72,2.87,5.81-2.34,.64-5.31-.54-6.22-1.44-.97-.97,1.91-4.98,3.35-4.37Z"/><g><g><path class="cls-10" d="M141.61,80.65c-.16-.9-.53-3.58-.41-5.14,.24-3.03,.8-5.22,3.26-8.18,2.07-2.49,4.63-3.31,6-3.73,1.13-.35,4.98-1.46,9.33,.4,.98,.42,5.34,2.42,7.38,7.57,1.47,3.72,.93,7.05,.65,8.32l-26.21,.77Z"/><path class="cls-10" d="M142.62,80.06c-.12-.65-.39-2.6-.3-3.73,.17-2.2,.58-3.79,2.37-5.94,1.5-1.81,3.36-2.41,4.36-2.71,.82-.25,3.61-1.06,6.77,.29,.71,.3,3.88,1.76,5.36,5.5,1.07,2.7,.67,5.12,.47,6.04l-19.03,.56Z"/></g><path class="cls-5" d="M155.86,68.66c1.38,.33,2.53,2,2.12,2.9-.39,.86-2.32,1.14-3.38,.19-.72-.64-1.15-1.94-.61-2.66,.55-.72,1.76-.45,1.86-.42Z"/></g></g><g><g><path class="cls-32" d="M180.51,93.61c6.13-.18,10.97-5.46,10.8-11.8-.17-6.34-5.29-11.34-11.42-11.16s-10.97,5.46-10.8,11.8c.17,6.34,5.29,11.34,11.42,11.16"/><path class="cls-23" d="M180,93.63c6.13-.18,10.97-5.46,10.8-11.8s-5.29-11.34-11.42-11.16-10.97,5.46-10.8,11.8c.17,6.34,5.29,11.34,11.42,11.16"/></g><path class="cls-26" d="M145.1,85.17l47.5-1.38c3.31-.1,5.92-2.95,5.82-6.37h0c-.09-3.42-2.85-6.11-6.16-6.02l-47.5,1.38c-3.31,.1-5.92,2.95-5.82,6.37h0c.09,3.42,2.85,6.11,6.16,6.02Z"/><g class="cls-20"><path class="cls-18" d="M141.92,83.34c-2.22,.06-4.11-1.64-4.37-3.91-.27-2.46-.55-5.36-.59-7.16-.16-8.23-.35-17.87,4.14-26.38,6.73-12.78,20.58-16.54,23.23-17.2,1.24-.31,21.43-5.05,30.44,6.49,.82,1.05,3.2,4.35,4.48,17.87,.85,9,.68,16.85,.19,23.05-.25,3.18-2.79,5.65-5.88,5.74-8.03,.23-16.06,.47-24.1,.7-9.18,.27-18.37,.53-27.55,.8Z"/></g><path class="cls-7" d="M142.13,81.48c-2.22,.06-4.11-1.64-4.37-3.91-.27-2.46-.55-5.36-.59-7.16-.16-8.23-.35-17.87,4.14-26.38,6.73-12.78,20.58-16.54,23.23-17.2,1.24-.31,21.43-5.05,30.44,6.49,.82,1.05,3.2,4.35,4.48,17.87,.85,9,.68,16.85,.19,23.05-.25,3.18-2.79,5.65-5.88,5.74-8.03,.23-16.06,.47-24.1,.7-9.18,.27-18.37,.53-27.55,.8Z"/><path class="cls-19" d="M142.08,81.48c-2.2,.06-4.07-1.61-4.32-3.86-.27-2.42-.55-5.29-.58-7.06-.16-8.11-.34-17.62,4.1-26.02,6.67-12.61,19.3-16.29,21.93-16.94,1.23-.3-31.76,14.36-11.39,40.24,7.98,10.14,45.07,10.18,47.04-16.24,.68-9.09,1.17,17.06,.5,22.93-.35,3.13-3.08,5.38-6.14,5.47-7.95,.23-15.91,.46-23.86,.69-9.09,.26-18.19,.53-27.28,.79Z"/><path class="cls-16" d="M186.15,60.24c-11.69,2.7-27.43-9.83-25.93-19.31,1.21-7.66,13.4-11.52,19.36-12.37,6.02-.85,9.14,.89,9.89,1.34,3.37,2,4.82,5.18,5.61,6.92,.57,1.25,4.6,10.43-.24,17.56-3.04,4.47-7.89,5.67-8.69,5.86Z"/><path class="cls-23" d="M197.5,66.71c.1-9.41,.26-15.07,.32-19.62,.03-2.17-.16-4.36-.95-5.56-4.06-6.19-17.73-9.8-27.62-2.21-3.91,3.01-5.27,8.53-5.32,13.96-.04,4.9,1.5,10.06,4.88,14.48"/><path class="cls-23" d="M155.42,96.04c6.29-.18,11.25-5.6,11.07-12.11-.18-6.5-5.42-11.63-11.71-11.44-6.29,.18-11.25,5.6-11.07,12.11s5.42,11.63,11.71,11.44"/><path class="cls-32" d="M154.34,94.74c5.58-.16,9.98-4.97,9.82-10.74-.16-5.77-4.81-10.32-10.39-10.15s-9.98,4.97-9.82,10.74c.16,5.77,4.81,10.32,10.39,10.15"/><path class="cls-14" d="M196.86,65.98c.1-9.11,.9-14.69,.95-19.09,.03-2.11-.16-4.22-.92-5.38-3.93-6-17.17-9.49-26.74-2.14-3.79,2.91-5.1,8.26-5.15,13.52-.04,4.74,1.45,9.74,4.73,14.02"/><path class="cls-28" d="M196.86,66.12c.1-9.04,.25-14.49,.31-18.86,.03-2.09-.15-4.19-.91-5.34-3.9-5.96-17.05-9.42-26.55-2.12-3.76,2.89-5.06,8.2-5.11,13.42-.04,4.71,1.44,9.68,4.69,13.92"/><path class="cls-14" d="M196.14,55.19c-.07-4.63-1.48-8.69-3.36-9.86-2.29-1.44-4.44,1.97-5.03,5.98-.25,1.7-.15,5.72-.07,6.73,.09,.03,.15,.15,.17-.19,.1-2.33,.51-4.37,1.35-6.3,.46-1.06,1.11-2.13,1.93-2.7,1.34-.94,2.33,.02,2.98,.8,.89,1.08,1.21,2.18,1.57,3.3"/><path class="cls-33" d="M196.16,55.83c-.07-4.63-1.48-8.69-3.36-9.86-2.29-1.44-4.44,1.97-5.03,5.98-.25,1.7-.15,5.72-.07,6.73,.09,.03,.15,.15,.17-.19,.1-2.33,.51-4.37,1.35-6.3,.46-1.06,1.11-2.13,1.93-2.7,1.34-.94,2.33,.02,2.98,.8,.89,1.08,1.21,2.18,1.57,3.3"/><path class="cls-14" d="M167.29,56.03c-.22-4.62,1.97-8.79,5.21-10.11,3.97-1.62,8.04,1.61,9.39,5.57,.57,1.67,.71,5.69,.64,6.71-.16,.04-.26,.16-.31-.17-.36-2.31-1.23-4.32-2.88-6.18-.9-1.02-2.13-2.03-3.64-2.54-2.46-.83-4.14,.2-5.23,1.04-1.5,1.15-1.98,2.27-2.54,3.42"/><path class="cls-33" d="M167.31,56.67c-.22-4.62,1.97-8.79,5.21-10.11,3.97-1.62,8.04,1.61,9.39,5.57,.57,1.67,.71,5.69,.64,6.71-.16,.04-.26,.16-.31-.17-.36-2.31-1.23-4.32-2.88-6.18-.9-1.02-2.13-2.03-3.64-2.54-2.46-.83-4.14,.2-5.23,1.04-1.5,1.15-1.98,2.27-2.54,3.42"/><path class="cls-15" d="M177.54,47.1c.65,.16,1.19,.93,1,1.35-.18,.4-1.09,.53-1.58,.09-.34-.3-.54-.91-.28-1.24,.26-.34,.82-.21,.87-.2Z"/><g class="cls-31"><polygon class="cls-17" points="141.96 81.71 166.64 80.99 166.48 75.39 141.81 76.11 141.96 81.71"/></g><path class="cls-23" d="M153.47,92.49c4.34-.13,7.76-3.86,7.64-8.35-.12-4.49-3.74-8.02-8.08-7.89-4.34,.13-7.76,3.86-7.64,8.35s3.74,8.02,8.08,7.89"/><path class="cls-19" d="M153.45,91.9c4.03-.12,7.2-3.59,7.09-7.75s-3.47-7.44-7.5-7.33c-4.03,.12-7.2,3.59-7.09,7.75s3.47,7.44,7.5,7.33"/><path class="cls-27" d="M158.8,81.42c-.37,.88-3.64,3.2-5.64,2.87-.58-2.43,.61-5.48,1.5-6.4,.95-.99,4.76,2.06,4.14,3.54Z"/><path class="cls-27" d="M147.49,87.23c.37-.88,3.64-3.2,5.64-2.87,.58,2.43-.61,5.48-1.5,6.4-.95,.99-4.76-2.06-4.14-3.54Z"/><path class="cls-27" d="M156.16,90.11c-.86-.36-3.16-3.7-2.88-5.78,2.34-.64,5.31,.53,6.22,1.43,.97,.97-1.9,4.95-3.35,4.35Z"/><path class="cls-27" d="M150.33,78.53c.86,.36,3.16,3.7,2.87,5.78-2.34,.64-5.31-.53-6.22-1.44-.97-.97,1.91-4.95,3.35-4.34Z"/><g><g><path class="cls-2" d="M141.83,80.37c-.16-.9-.53-3.56-.41-5.12,.24-3.01,.8-5.19,3.26-8.14,2.07-2.48,4.63-3.3,6-3.72,1.13-.34,4.98-1.45,9.33,.39,.98,.42,5.34,2.41,7.38,7.53,1.47,3.7,.93,7.02,.65,8.28l-26.21,.76Z"/><path class="cls-27" d="M142.84,79.79c-.12-.65-.39-2.58-.3-3.71,.17-2.19,.58-3.77,2.37-5.91,1.5-1.8,3.36-2.39,4.36-2.7,.82-.25,3.61-1.05,6.77,.29,.71,.3,3.88,1.75,5.36,5.47,1.07,2.69,.67,5.1,.47,6.01l-19.03,.55Z"/></g><path class="cls-15" d="M156.07,68.44c1.38,.33,2.53,1.99,2.12,2.88-.39,.86-2.32,1.13-3.38,.19-.72-.64-1.15-1.93-.61-2.65,.55-.72,1.76-.45,1.86-.42Z"/></g></g><path class="cls-13" d="M60.11,31.39c.5,.28,1.37,.14,1.7-.33,.39-.55,.04-1.56-.69-1.78-.39-.12-1.06-.07-1.39,.35-.4,.51-.19,1.45,.38,1.76Z"/><g><g><polygon class="cls-19" points="66.56 19.55 61.48 22.03 66.28 22.35 66.56 19.55"/><path class="cls-3" d="M94.14,57.88c5.57-2.68,11.51,2.33,9.55,8.05l-11.76,34.23c-.37,1.08-1.59,1.67-2.67,1.28l-34.08-12.19c-5.7-2.04-5.9-9.8-.33-12.48l39.29-18.89Z"/><path class="cls-11" d="M88.23,67.37c2.89-1.4,3.94-5,2.23-7.72-.2-.32-.39-.65-.56-.97-4.4-8.27-1.59-22.43,7.01-35.55,2.58-3.94-.85-9.06-5.48-8.23-8.1,1.44-16.22,2.83-23.24,4.07-1.14,.2-2.17,.76-2.97,1.59-3.7,3.87-11.51,14.56-12.7,32.02-.7,10.22,2.17,18.53,4.72,23.79,1.3,2.67,4.52,3.77,7.2,2.48,7.93-3.83,15.85-7.66,23.78-11.49Z"/><polygon class="cls-11" points="55.75 74.41 50.45 81.79 59.5 80.74 55.75 74.41"/><path class="cls-11" d="M94,58.35c5.57-2.68,11.55,2.41,9.61,8.17l-11.63,34.51c-.37,1.09-1.59,1.68-2.67,1.28l-34.22-12.47c-5.72-2.08-5.96-9.93-.39-12.61l39.29-18.89Z"/><path class="cls-6" d="M82.96,69.96c2.89-1.4,5.9-1.79,4.19-4.51-.2-.32-2.35-3.86-2.52-4.18-4.4-8.27-1.59-22.43,7.01-35.55,2.58-3.94-.85-9.06-5.48-8.23-8.1,1.44-16.22,2.83-23.24,4.07-1.14,.2-2.17,.76-2.97,1.59-3.7,3.87-11.51,14.56-12.7,32.02-.7,10.22,2.1,18.56,4.72,23.79,3.52,6.99,4.52,3.77,7.2,2.48,7.93-3.83,15.85-7.66,23.78-11.49Z"/><path class="cls-6" d="M91.83,63.2c5.89-2.83,12.21,2.54,10.15,8.64l-12.29,36.47c-.39,1.15-1.68,1.77-2.82,1.35l-36.15-13.17c-6.04-2.2-6.3-10.49-.41-13.32l41.51-19.96Z"/><path class="cls-6" d="M66.56,19.55c.08-.04,2.59-.46,5.55-.99l1.31,3.44-6.86-2.45Z"/></g><path class="cls-22" d="M88.46,67.28c2.89-1.4,3.94-5,2.23-7.72-.2-.32-.39-.65-.56-.97-4.4-8.27-1.59-22.43,7.01-35.55,2.58-3.94-.85-9.06-5.48-8.23-8.1,1.44-16.22,2.83-23.24,4.07-1.14,.2-2.17,.76-2.97,1.59-3.7,3.87-11.51,14.56-12.7,32.02-.7,10.22,2.17,18.53,4.72,23.79,1.3,2.67,4.52,3.77,7.2,2.48,7.93-3.83,15.85-7.66,23.78-11.49Z"/><polygon class="cls-19" points="66.38 19.58 61.3 22.07 66.1 22.39 66.38 19.58"/><path class="cls-22" d="M93.96,57.92c5.57-2.68,11.51,2.33,9.55,8.05l-11.76,34.23c-.37,1.08-1.59,1.67-2.67,1.28l-34.08-12.19c-5.7-2.04-5.9-9.8-.33-12.48l39.29-18.89Z"/><path class="cls-19" d="M88.05,67.41c2.89-1.4,3.94-5,2.23-7.72-.2-.32-.39-.65-.56-.97-4.4-8.27-1.59-22.43,7.01-35.55,2.58-3.94-.85-9.06-5.48-8.23-8.1,1.44-16.22,2.83-23.24,4.07-1.14,.2-2.17,.76-2.97,1.59-3.7,3.87-11.51,14.56-12.7,32.02-.7,10.22,2.17,18.53,4.72,23.79,1.3,2.67,4.52,3.77,7.2,2.48,7.93-3.83,15.85-7.66,23.78-11.49Z"/><polygon class="cls-22" points="52.12 78.86 46.8 86.2 55.83 85.11 52.12 78.86"/><polygon class="cls-19" points="51.99 79.33 46.68 86.72 55.73 85.66 51.99 79.33"/><path class="cls-19" d="M93.82,58.38c5.57-2.68,11.55,2.41,9.61,8.17l-11.63,34.51c-.37,1.09-1.59,1.68-2.67,1.28l-34.22-12.47c-5.72-2.08-5.96-9.93-.39-12.61l39.29-18.89Z"/><path class="cls-27" d="M82.78,69.99c2.89-1.4,5.9-1.79,4.19-4.51-.2-.32-2.35-3.86-2.52-4.18-4.4-8.27-1.59-22.43,7.01-35.55,2.58-3.94-.85-9.06-5.48-8.23-8.1,1.44-16.22,2.83-23.24,4.07-1.14,.2-2.17,.76-2.97,1.59-3.7,3.87-11.51,14.56-12.7,32.02-.7,10.22,2.1,18.56,4.72,23.79,3.52,6.99,4.52,3.77,7.2,2.48,7.93-3.83,15.85-7.66,23.78-11.49Z"/><path class="cls-27" d="M91.65,63.23c5.89-2.83,12.21,2.54,10.15,8.64l-12.29,36.47c-.39,1.15-1.68,1.77-2.82,1.35l-36.15-13.17c-6.04-2.2-6.3-10.49-.41-13.32l41.51-19.96Z"/><path class="cls-33" d="M90.53,65.12c5.43-2.61,11.25,2.34,9.35,7.96l-11.32,33.6c-.36,1.06-1.54,1.63-2.6,1.25l-33.31-12.14c-5.57-2.03-5.8-9.67-.37-12.28l38.25-18.39Z"/><path class="cls-33" d="M85.51,74.29c6.01-5.5,8.47,8.91-2.12-10.57-5.34-9.83-2.27-24.57,4.29-35.57,2.18-3.65,.13-8.05-4.02-7.31-7.26,1.29-14.55,2.53-20.84,3.65-1.02,.18-1.94,.69-2.66,1.44-3.31,3.51-10.3,13.2-11.33,29.06-.6,9.28,1.58,17.01,3.87,21.79,1.17,2.43,4.44,10.53,8.5,6.62,5.7-5.48,18.48-3.78,24.31-9.12Z"/><path class="cls-21" d="M84.67,72.63c5.74-5.24,7.31,9.43-2.76-9.14-5.08-9.37-2.36-23.91,3.9-34.38,2.08-3.48,1.19-7.87-2.77-7.17-6.93,1.22-13.75,2.5-19.76,3.55-.97,.17-1.9,.41-2.58,1.13-3.17,3.34-9.97,12.46-10.97,27.57-.59,8.84,1.48,17.18,3.66,21.74,1.11,2.32,5.34,11.62,9.21,7.91,5.44-5.21,16.5-6.14,22.07-11.22Z"/><path class="cls-29" d="M89.97,66.29c5.17-2.48,10.66,2.14,8.83,7.43l-10.94,31.64c-.35,1-1.47,1.54-2.47,1.19l-31.55-11.22c-5.27-1.87-5.45-9.05-.28-11.54l36.41-17.51Z"/><path class="cls-15" d="M60.35,83.73c.75-.67-3.97,.99-6.45,2.33-1.76,.95-2.99,2-3.31,2.67-.63,1.34-.8,3.71,3.85,5.18,4.32,1.37,5.23,1.57,7.95,2.34,.52,.15-3.33-2.59-4.37-4.57-.52-.98-.85-2.29-.6-3.62,.43-2.31,1.36-2.94,2.93-4.34Z"/><path class="cls-15" d="M65.51,28.04c-.78,.05-1.29,.05-1.42,.06-2.5,.1-7.92,6.27-10.83,16.34-.97,3.37-3.31,11.86-.7,21.68,1.08,4.07,3,8.31,3.46,8.17,.42-.12-.61-3.56-1.04-7.72-1.2-11.59,3.38-21.27,4.63-23.72,4.34-8.48,11.26-14.38,10.38-15.28-.29-.3-1.16,.26-4.49,.47Z"/></g></g></svg>