<?xml version="1.0" encoding="UTF-8"?><svg xmlns="http://www.w3.org/2000/svg" xmlns:xlink="http://www.w3.org/1999/xlink" viewBox="0 0 246.61 161.57"><defs><style>.cls-1,.cls-2{fill:#fff;}.cls-3{fill:url(#Gradiente_sem_nome_3-2);}.cls-4{stroke:#50267b;}.cls-4,.cls-5,.cls-6,.cls-7,.cls-8,.cls-9{stroke-miterlimit:10;}.cls-4,.cls-10{fill:none;}.cls-11{fill:url(#Gradiente_sem_nome_3);}.cls-12,.cls-6{fill:#f7d743;}.cls-2{opacity:.8;}.cls-5,.cls-6,.cls-7,.cls-8,.cls-9{stroke:#fff;}.cls-5,.cls-13{fill:#ffd455;}.cls-5,.cls-7,.cls-8{stroke-width:3.11px;}.cls-6,.cls-9{stroke-width:8.5px;}.cls-14{fill:url(#Gradiente_sem_nome_17-2);}.cls-15{fill:url(#Gradiente_sem_nome_17);}.cls-16{clip-path:url(#clippath);}.cls-17{fill:#50267b;}.cls-7,.cls-18{fill:#fcc11e;}.cls-19,.cls-8{fill:#fee18b;}.cls-20,.cls-9{fill:#27a7d9;}</style><clipPath id="clippath"><rect class="cls-10" x="103.67" y="17.11" width="58.38" height="109.96"/></clipPath><linearGradient id="Gradiente_sem_nome_3" x1="712.25" y1="-335.72" x2="712.07" y2="-314.92" gradientTransform="translate(819 297.63) rotate(174.8) scale(.87 -1) skewX(-.03)" gradientUnits="userSpaceOnUse"><stop offset=".06" stop-color="#2490cd"/><stop offset=".45" stop-color="#2493cf"/><stop offset=".84" stop-color="#269fd5"/><stop offset="1" stop-color="#27a7d9"/></linearGradient><linearGradient id="Gradiente_sem_nome_17" x1="4141.9" y1="4818.7" x2="4141.53" y2="4849.81" gradientTransform="translate(-4998.09 -2962.44) rotate(-23.09) scale(.94 .99) skewX(-4.38)" gradientUnits="userSpaceOnUse"><stop offset="0" stop-color="#2490cd"/><stop offset=".42" stop-color="#2493cf"/><stop offset=".83" stop-color="#269fd5"/><stop offset="1" stop-color="#27a7d9"/></linearGradient><linearGradient id="Gradiente_sem_nome_3-2" x1="813.25" y1="-326.11" x2="813.07" y2="-305.32" gradientTransform="translate(-549.61 -222.63) rotate(-1.19) scale(.87 -1) skewX(-.03)" xlink:href="#Gradiente_sem_nome_3"/><linearGradient id="Gradiente_sem_nome_17-2" x1="4049.03" y1="4800.69" x2="4048.65" y2="4831.8" gradientTransform="translate(5025.7 3435.59) rotate(160.92) scale(.94 .99) skewX(-4.38)" xlink:href="#Gradiente_sem_nome_17"/></defs><g id="Camada_2"><rect class="cls-17" x="0" y="-.05" width="246.61" height="161.57"/><ellipse class="cls-1" cx="125.63" cy="58.02" rx="56.99" ry="55.27"/><rect class="cls-1" x="109.91" y="42.26" width="31.43" height="198.75" rx="11.22" ry="11.22" transform="translate(267.26 16.01) rotate(90)"/><rect class="cls-4" x="31.17" y="129.22" width="188.92" height="24.82" rx="7.77" ry="7.77"/></g><g id="Camada_3"><path class="cls-6" d="M91.44,97.19l-24.26-14.18c-2.08-1.33-3.44-4.48-3.44-7.98v-9.15c0-3.57,1.41-6.76,3.55-8.04l23.41-14.71c3.63-2.17,10.4,.96,10.4,7.01v41.67c0,6.13-6.01,7.71-9.65,5.39Z"/><rect class="cls-6" x="54.16" y="57.09" width="22.37" height="27.02" rx="6.87" ry="6.87"/><path class="cls-9" d="M89.43,95.82l-24.26-14.18c-2.08-1.33-3.44-4.48-3.44-7.98v-9.15c0-3.57,1.41-6.76,3.55-8.04l23.41-14.71c3.63-2.17,10.4,.96,10.4,7.01v41.67c0,6.13-6.01,7.71-9.65,5.39Z"/><rect class="cls-9" x="52.15" y="55.71" width="22.37" height="27.02" rx="6.87" ry="6.87"/><path class="cls-12" d="M90.45,97.14l-24.26-14.18c-2.08-1.33-3.44-4.48-3.44-7.98v-9.15c0-3.57,1.41-6.76,3.55-8.04l23.41-14.71c3.63-2.17,10.4,.96,10.4,7.01v41.67c0,6.13-6.01,7.71-9.65,5.39Z"/><rect class="cls-12" x="53.17" y="57.04" width="22.37" height="27.02" rx="6.87" ry="6.87"/><path class="cls-20" d="M88.44,95.77l-24.26-14.18c-2.08-1.33-3.44-4.48-3.44-7.98v-9.15c0-3.57,1.41-6.76,3.55-8.04l23.41-14.71c3.63-2.17,10.4,.96,10.4,7.01v41.67c0,6.13-6.01,7.71-9.65,5.39Z"/><rect class="cls-20" x="51.16" y="55.66" width="22.37" height="27.02" rx="6.87" ry="6.87"/><g class="cls-16"><ellipse class="cls-12" cx="106.69" cy="69.77" rx="26.17" ry="29.44"/><ellipse class="cls-20" cx="105.1" cy="69.77" rx="26.17" ry="29.44"/><ellipse class="cls-1" cx="101.09" cy="69.55" rx="23.25" ry="26.15"/><ellipse class="cls-12" cx="96.94" cy="69.77" rx="21.27" ry="23.92"/><ellipse class="cls-20" cx="95.31" cy="69.77" rx="21.57" ry="24.26"/><ellipse class="cls-1" cx="91.35" cy="69.77" rx="19.16" ry="21.55"/></g><path class="cls-1" d="M187.06,28.4c-.18,.27-.14,.78,.11,.99,.3,.25,.89,.1,1.06-.31,.09-.22,.09-.61-.14-.82-.28-.26-.82-.18-1.03,.13Z"/><g><g><polygon class="cls-13" points="193.54 32.67 192.36 29.63 191.95 32.37 193.54 32.67"/><path class="cls-7" d="M170.22,46.64c1.27,3.33-1.89,6.49-5.08,5.09l-19.07-8.4c-.6-.27-.88-.99-.61-1.59l8.64-18.96c1.44-3.17,5.91-2.91,7.18,.42l8.94,23.45Z"/><path class="cls-5" d="M165.06,42.79c.66,1.73,2.68,2.5,4.32,1.65,.2-.1,.39-.19,.58-.27,4.96-2.12,12.94,.17,20.05,5.74,2.13,1.67,5.24-.05,4.99-2.75-.43-4.72-.84-9.44-1.21-13.53-.06-.66-.33-1.28-.77-1.78-2.04-2.31-7.79-7.31-17.76-8.83-5.83-.89-10.73,.35-13.87,1.56-1.6,.61-2.38,2.41-1.77,4.01,1.81,4.73,3.63,9.47,5.44,14.2Z"/><polygon class="cls-5" points="162.59 23.82 158.61 20.42 158.78 25.66 162.59 23.82"/><path class="cls-5" d="M169.96,46.54c1.27,3.33-1.94,6.51-5.15,5.12l-19.24-8.34c-.61-.26-.88-.99-.61-1.59l8.81-19.03c1.47-3.18,5.98-2.94,7.25,.39l8.94,23.45Z"/><path class="cls-8" d="M163.83,39.64c.66,1.73,.74,3.47,2.38,2.62,.2-.1,2.33-1.16,2.52-1.24,4.96-2.12,12.94,.17,20.05,5.74,2.13,1.67,5.24-.05,4.99-2.75-.43-4.72-.84-9.44-1.21-13.53-.06-.66-.33-1.28-.77-1.78-2.04-2.31-7.79-7.31-17.76-8.83-5.83-.89-10.75,.31-13.87,1.56-4.18,1.68-2.38,2.41-1.77,4.01,1.81,4.73,3.63,9.47,5.44,14.2Z"/><path class="cls-8" d="M167.28,45.06c1.34,3.52-2.05,6.88-5.45,5.41l-20.33-8.81c-.64-.28-.93-1.05-.64-1.68l9.3-20.1c1.56-3.36,6.32-3.1,7.66,.41l9.44,24.78Z"/><path class="cls-8" d="M193.54,32.67s.14,1.51,.3,3.23l-2.04,.59,1.74-3.82Z"/></g><path class="cls-18" d="M165.11,42.93c.66,1.73,2.68,2.5,4.32,1.65,.2-.1,.39-.19,.58-.27,4.96-2.12,12.94,.17,20.05,5.74,2.13,1.67,5.24-.05,4.99-2.75-.43-4.72-.84-9.44-1.21-13.53-.06-.66-.33-1.28-.77-1.78-2.04-2.31-7.79-7.31-17.76-8.83-5.83-.89-10.73,.35-13.87,1.56-1.6,.61-2.38,2.41-1.77,4.01,1.81,4.73,3.63,9.47,5.44,14.2Z"/><polygon class="cls-13" points="193.54 32.57 192.35 29.53 191.94 32.27 193.54 32.57"/><path class="cls-18" d="M170.21,46.54c1.27,3.33-1.89,6.49-5.08,5.09l-19.07-8.4c-.6-.27-.88-.99-.61-1.59l8.64-18.96c1.44-3.17,5.91-2.91,7.18,.42l8.94,23.45Z"/><path class="cls-13" d="M165.05,42.69c.66,1.73,2.68,2.5,4.32,1.65,.2-.1,.39-.19,.58-.27,4.96-2.12,12.94,.17,20.05,5.74,2.13,1.67,5.24-.05,4.99-2.75-.43-4.72-.84-9.44-1.21-13.53-.06-.66-.33-1.28-.77-1.78-2.04-2.31-7.79-7.31-17.76-8.83-5.83-.89-10.73,.35-13.87,1.56-1.6,.61-2.38,2.41-1.77,4.01,1.81,4.73,3.63,9.47,5.44,14.2Z"/><polygon class="cls-18" points="160.21 21.52 156.26 18.11 156.45 23.35 160.21 21.52"/><polygon class="cls-13" points="159.95 21.42 155.97 18.02 156.14 23.26 159.95 21.42"/><path class="cls-13" d="M169.95,46.43c1.27,3.33-1.94,6.51-5.15,5.12l-19.24-8.34c-.61-.26-.88-.99-.61-1.59l8.81-19.03c1.47-3.18,5.98-2.94,7.25,.39l8.94,23.45Z"/><path class="cls-19" d="M163.82,39.54c.66,1.73,.74,3.47,2.38,2.62,.2-.1,2.33-1.16,2.52-1.24,4.96-2.12,12.94,.17,20.05,5.74,2.13,1.67,5.24-.05,4.99-2.75-.43-4.72-.84-9.44-1.21-13.53-.06-.66-.33-1.28-.77-1.78-2.04-2.31-7.79-7.31-17.76-8.83-5.83-.89-10.75,.31-13.87,1.56-4.18,1.68-2.38,2.41-1.77,4.01,1.81,4.73,3.63,9.47,5.44,14.2Z"/><path class="cls-19" d="M167.27,44.95c1.34,3.52-2.05,6.88-5.45,5.41l-20.33-8.81c-.64-.28-.93-1.05-.64-1.68l9.3-20.1c1.56-3.36,6.32-3.1,7.66,.41l9.44,24.78Z"/><path class="cls-20" d="M166.24,44.22c1.23,3.24-1.89,6.34-5.02,4.98l-18.73-8.12c-.59-.26-.86-.96-.59-1.55l8.57-18.52c1.43-3.1,5.83-2.86,7.06,.38l8.7,22.83Z"/><path class="cls-20" d="M161.22,40.9c2.87,3.71-5.52,4.43,6.16-.71,5.9-2.59,14.2-.11,20.2,4.18,1.99,1.43,4.61,.47,4.39-1.95-.39-4.23-.75-8.47-1.09-12.13-.05-.59-.3-1.15-.7-1.59-1.85-2.07-7.07-6.54-16.13-7.9-5.29-.79-9.83,.08-12.69,1.17-1.45,.55-6.25,2.04-4.21,4.56,2.87,3.53,1.28,10.78,4.05,14.38Z"/><path class="cls-11" d="M162.22,40.49c2.73,3.55-5.76,3.74,5.38-1.14,5.62-2.46,13.83-.2,19.54,3.9,1.89,1.36,4.46,1.06,4.25-1.25-.37-4.03-.77-8.01-1.08-11.51-.05-.57-.15-1.11-.53-1.54-1.76-1.98-6.67-6.32-15.29-7.63-5.04-.76-9.93,.02-12.65,1.05-1.38,.52-6.92,2.5-4.98,4.9,2.73,3.37,2.73,9.76,5.37,13.2Z"/><path class="cls-15" d="M165.6,43.84c1.18,3.08-1.74,6.01-4.69,4.71l-17.63-7.8c-.56-.25-.81-.92-.56-1.47l7.96-17.56c1.33-2.93,5.46-2.69,6.63,.39l8.28,21.73Z"/><path class="cls-2" d="M157.02,26.01c.35,.46-.37-2.32-1.03-3.81-.46-1.05-1.01-1.81-1.37-2.03-.74-.43-2.09-.64-3.16,1.96-.99,2.41-1.15,2.92-1.73,4.45-.11,.29,1.65-1.78,2.83-2.29,.59-.25,1.35-.38,2.11-.17,1.3,.36,1.62,.92,2.35,1.89Z"/><path class="cls-2" d="M188.72,31.66c0-.45,.03-.74,.03-.82,.07-1.44-3.21-4.85-8.85-7-1.88-.72-6.64-2.47-12.4-1.45-2.39,.42-4.91,1.32-4.86,1.59,.05,.24,2.07-.18,4.48-.23,6.71-.13,12.04,2.97,13.38,3.8,4.66,2.9,7.7,7.15,8.27,6.69,.19-.15-.09-.68-.05-2.6Z"/></g><path class="cls-1" d="M149.48,78.64c.2-.26,.2-.77-.04-1-.28-.27-.88-.16-1.08,.23-.1,.21-.13,.6,.08,.82,.26,.27,.81,.24,1.04-.06Z"/><g><polygon class="cls-13" points="143.31 73.92 144.27 77.04 144.88 74.33 143.31 73.92"/><path class="cls-7" d="M167.55,61.62c-1.03-3.41,2.34-6.35,5.42-4.72l18.43,9.71c.58,.31,.81,1.05,.49,1.63l-9.94,18.31c-1.66,3.06-6.1,2.49-7.13-.92l-7.28-24.02Z"/><path class="cls-5" d="M172.43,65.82c-.54-1.77-2.5-2.68-4.2-1.95-.2,.09-.4,.16-.6,.23-5.09,1.77-12.9-1.07-19.6-7.13-2.01-1.82-5.23-.32-5.17,2.39,.1,4.74,.18,9.48,.26,13.58,.01,.66,.24,1.3,.65,1.83,1.88,2.45,7.27,7.83,17.1,10.05,5.75,1.3,10.73,.4,13.95-.59,1.64-.5,2.55-2.24,2.05-3.88-1.48-4.85-2.96-9.7-4.44-14.54Z"/><polygon class="cls-5" points="173.56 84.91 177.3 88.58 177.5 83.34 173.56 84.91"/><path class="cls-5" d="M167.8,61.74c-1.03-3.41,2.39-6.36,5.5-4.75l18.61,9.66c.59,.31,.81,1.05,.49,1.63l-10.11,18.37c-1.69,3.07-6.17,2.51-7.21-.89l-7.28-24.02Z"/><path class="cls-8" d="M173.43,69.04c-.54-1.77-.5-3.51-2.19-2.78-.2,.09-2.4,1-2.6,1.07-5.09,1.77-12.9-1.07-19.6-7.13-2.01-1.82-5.23-.32-5.17,2.39,.1,4.74,.18,9.48,.26,13.58,.01,.66,.24,1.3,.65,1.83,1.88,2.45,7.27,7.83,17.1,10.05,5.75,1.3,10.75,.45,13.95-.59,4.29-1.38,2.55-2.24,2.05-3.88-1.48-4.85-2.96-9.7-4.44-14.54Z"/><path class="cls-8" d="M170.37,63.4c-1.09-3.6,2.52-6.72,5.81-5.01l19.66,10.21c.62,.32,.86,1.11,.52,1.72l-10.68,19.41c-1.79,3.24-6.52,2.66-7.62-.94l-7.69-25.38Z"/><path class="cls-8" d="M143.31,73.92s-.03-1.51-.07-3.24l2.07-.44-2,3.69Z"/></g><path class="cls-18" d="M172.39,65.68c-.54-1.77-2.5-2.68-4.2-1.95-.2,.09-.4,.16-.6,.23-5.09,1.77-12.9-1.07-19.6-7.13-2.01-1.82-5.23-.32-5.17,2.39,.1,4.74,.18,9.48,.26,13.58,.01,.66,.24,1.3,.65,1.83,1.88,2.45,7.27,7.83,17.1,10.05,5.75,1.3,10.73,.4,13.95-.59,1.64-.5,2.55-2.24,2.05-3.88-1.48-4.85-2.96-9.7-4.44-14.54Z"/><polygon class="cls-13" points="143.31 74.03 144.27 77.14 144.88 74.44 143.31 74.03"/><path class="cls-18" d="M167.55,61.72c-1.03-3.41,2.34-6.35,5.42-4.72l18.43,9.71c.58,.31,.81,1.05,.49,1.63l-9.94,18.31c-1.66,3.06-6.1,2.49-7.13-.92l-7.28-24.02Z"/><path class="cls-13" d="M172.43,65.92c-.54-1.77-2.5-2.68-4.2-1.95-.2,.09-.4,.16-.6,.23-5.09,1.77-12.9-1.07-19.6-7.13-2.01-1.82-5.23-.32-5.17,2.39,.1,4.74,.18,9.48,.26,13.58,.01,.66,.24,1.3,.65,1.83,1.88,2.45,7.27,7.83,17.1,10.05,5.75,1.3,10.73,.4,13.95-.59,1.64-.5,2.55-2.24,2.05-3.88-1.48-4.85-2.96-9.7-4.44-14.54Z"/><polygon class="cls-18" points="175.78 87.37 179.48 91.05 179.66 85.81 175.78 87.37"/><polygon class="cls-13" points="176.03 87.49 179.76 91.16 179.96 85.92 176.03 87.49"/><path class="cls-13" d="M167.8,61.84c-1.03-3.41,2.39-6.36,5.5-4.75l18.61,9.66c.59,.31,.81,1.05,.49,1.63l-10.11,18.37c-1.69,3.07-6.17,2.51-7.21-.89l-7.28-24.02Z"/><path class="cls-19" d="M173.43,69.15c-.54-1.77-.5-3.51-2.19-2.78-.2,.09-2.4,1-2.6,1.07-5.09,1.77-12.9-1.07-19.6-7.13-2.01-1.82-5.23-.32-5.17,2.39,.1,4.74,.18,9.48,.26,13.58,.01,.66,.24,1.3,.65,1.83,1.88,2.45,7.27,7.83,17.1,10.05,5.75,1.3,10.75,.45,13.95-.59,4.29-1.38,2.55-2.24,2.05-3.88-1.48-4.85-2.96-9.7-4.44-14.54Z"/><path class="cls-19" d="M170.37,63.51c-1.09-3.6,2.52-6.72,5.81-5.01l19.66,10.21c.62,.32,.86,1.11,.52,1.72l-10.68,19.41c-1.79,3.24-6.52,2.66-7.62-.94l-7.69-25.38Z"/><path class="cls-20" d="M171.35,64.31c-1.01-3.32,2.33-6.19,5.35-4.62l18.11,9.4c.57,.3,.79,1.02,.48,1.59l-9.84,17.88c-1.65,2.99-6.01,2.45-7.02-.87l-7.09-23.38Z"/><path class="cls-20" d="M176.12,67.98c-2.6-3.91,5.82-4.03-6.2,.28-6.06,2.17-14.18-.88-19.86-5.58-1.89-1.56-4.57-.79-4.52,1.64,.09,4.25,.16,8.5,.24,12.18,.01,.6,.22,1.17,.59,1.64,1.7,2.2,6.6,7.02,15.54,9.01,5.23,1.16,9.81,.6,12.74-.28,1.49-.45,6.38-1.6,4.52-4.25-2.61-3.72-.52-10.84-3.04-14.63Z"/><path class="cls-3" d="M175.1,68.31c-2.47-3.73,6.01-3.33-5.44,.76-5.78,2.06-13.81-.76-19.22-5.26-1.79-1.49-4.37-1.37-4.32,.95,.08,4.05,.21,8.05,.28,11.55,.01,.57,.07,1.12,.42,1.57,1.62,2.1,6.21,6.77,14.72,8.68,4.98,1.12,9.9,.68,12.69-.16,1.42-.43,7.08-2.01,5.31-4.54-2.48-3.55-2.04-9.93-4.43-13.54Z"/><path class="cls-14" d="M171.96,64.73c-.96-3.16,2.16-5.88,5-4.37l17.04,9.02c.54,.28,.75,.97,.46,1.51l-9.16,16.96c-1.53,2.83-5.63,2.3-6.59-.86l-6.75-22.26Z"/><g><path class="cls-12" d="M84.17,139.3c-.09,0-.18-.02-.25-.07-.09-.07-.14-.14-.14-.22,0-.08-.05-.15-.14-.23-.22-.17-.5-.14-.84,.09s-.2,.42,.42,.54c.07,.01,.14,.03,.22,.04s.16,.03,.25,.04c1.02,.18,1.82,.48,2.41,.91,.72,.53,1.14,1.22,1.25,2.08,.11,.85-.13,1.62-.71,2.3-.69,.8-1.62,1.26-2.8,1.38-1.18,.12-2.2-.13-3.05-.74-.74-.52-1.2-1.17-1.39-1.96-.08-.37,.11-.66,.56-.86,.2-.09,.42-.16,.66-.2,.24-.04,.47-.06,.69-.07,.36,0,.69,.04,.98,.13,.29,.09,.46,.21,.5,.37,0,.03,.02,.06,.03,.09,.05,.11,.14,.19,.28,.25,.16,.07,.35,.06,.57-.03,.22-.09,.28-.23,.19-.44-.05-.1-.18-.18-.4-.24-.52-.15-1.03-.26-1.54-.34-.51-.08-1-.29-1.46-.63-.33-.24-.59-.57-.78-.98-.19-.42-.25-.97-.19-1.65,.09-.92,.53-1.68,1.33-2.28,.47-.35,1-.58,1.6-.7,.6-.12,1.18-.12,1.75,0,.57,.12,1.08,.35,1.53,.7,.45,.35,.77,.82,.94,1.4,.07,.23,0,.42-.19,.58-.19,.16-.43,.3-.72,.4-.29,.11-.58,.19-.88,.24-.3,.05-.53,.08-.68,.09Z"/><path class="cls-12" d="M98.04,141.84c-.23,1.39-.9,2.52-2.03,3.37-1.12,.85-2.42,1.16-3.91,.91-1.43-.24-2.56-.92-3.38-2.05-.82-1.13-1.12-2.38-.9-3.75,.21-1.27,.82-2.34,1.85-3.21,1.02-.86,2.21-1.24,3.57-1.12,1.64,.14,2.91,.76,3.82,1.86s1.24,2.43,.98,3.98Zm-3.81-.56c.06-.38,0-.7-.22-.97-.21-.27-.5-.43-.9-.5-.37-.06-.7,.02-.98,.24-.28,.22-.45,.51-.5,.85-.07,.41,.04,.77,.34,1.09,.3,.32,.67,.45,1.11,.39,.31-.03,.56-.15,.76-.36,.2-.21,.33-.46,.38-.74Z"/><path class="cls-12" d="M105.22,139.62c.44-.65,.86-1.27,1.27-1.86,.41-.59,.77-1.04,1.08-1.34,.14-.13,.4-.23,.8-.29,.4-.06,.81-.09,1.24-.09s.82,.04,1.17,.1c.35,.06,.55,.15,.61,.26,.08,.19,.15,.77,.2,1.72,.05,.95,.07,1.98,.07,3.09s-.03,2.13-.08,3.07c-.05,.94-.14,1.5-.26,1.67-.09,.11-.54,.17-1.35,.2-.81,.03-1.38,.01-1.7-.06-.13-.03-.25-.41-.36-1.15-.11-.74-.19-1.49-.23-2.24-.09,.09-.25,.26-.47,.5s-.47,.48-.73,.74c-.26,.25-.51,.48-.75,.67-.24,.19-.42,.29-.53,.29s-.29-.09-.52-.28c-.23-.19-.47-.4-.72-.64-.25-.24-.48-.48-.7-.71-.22-.23-.37-.39-.45-.48-.05,.71-.13,1.42-.24,2.15-.11,.73-.22,1.11-.34,1.15-.16,.05-.41,.08-.73,.09-.32,0-.65,0-.98,0-.33-.01-.63-.04-.89-.08-.26-.04-.41-.09-.45-.14-.12-.17-.21-.73-.27-1.7-.06-.96-.1-2-.1-3.12,0-1.12,.01-2.15,.05-3.1,.04-.95,.11-1.5,.2-1.65,.07-.11,.28-.19,.63-.25,.35-.06,.74-.09,1.17-.1s.83,.03,1.22,.09c.39,.06,.66,.16,.8,.29,.31,.3,.67,.75,1.09,1.34,.42,.59,.84,1.21,1.27,1.86Z"/><path class="cls-12" d="M121.32,142.67c.77,0,1.47-.03,2.09-.07,.62-.04,.99,0,1.1,.13,.12,.1,.21,.52,.26,1.27,.06,.75,.03,1.29-.06,1.62-.04,.14-.39,.26-1.04,.35-.65,.09-1.38,.16-2.19,.19-.81,.03-1.58,.04-2.33,.02-.74-.02-1.23-.08-1.45-.18-.13-.05-.24-.41-.33-1.07-.09-.66-.15-1.43-.2-2.32-.05-.89-.08-1.79-.09-2.71,0-.92,0-1.67,.03-2.25,0-.32,.03-.61,.08-.87,.05-.26,.13-.43,.25-.49s.5-.12,1.17-.17c.67-.05,1.39-.08,2.16-.09,.77-.01,1.49,0,2.15,.04,.66,.04,1.04,.11,1.13,.2,.12,.1,.19,.48,.2,1.15,.02,.67-.03,1.17-.12,1.52-.05,.16-.36,.26-.93,.29-.57,.04-1.24,.07-2.01,.1,0,.05,0,.12,0,.19,0,.07,0,.13,.01,.19,.5,0,.91,.05,1.22,.11,.08,.02,.15,.15,.22,.39,.07,.24,.12,.5,.15,.79s.03,.55,0,.79-.11,.37-.23,.39c-.09,.03-.25,.05-.48,.07-.23,.02-.49,.03-.77,.04v.39Z"/><path class="cls-12" d="M131.68,139.62c.44-.65,.86-1.27,1.27-1.86,.41-.59,.77-1.04,1.08-1.34,.14-.13,.4-.23,.8-.29,.4-.06,.81-.09,1.24-.09,.43,0,.82,.04,1.17,.1,.35,.06,.55,.15,.61,.26,.08,.19,.15,.77,.2,1.72,.05,.95,.07,1.98,.07,3.09s-.03,2.13-.08,3.07c-.05,.94-.14,1.5-.26,1.67-.09,.11-.54,.17-1.35,.2-.81,.03-1.38,.01-1.7-.06-.13-.03-.25-.41-.36-1.15-.11-.74-.19-1.49-.23-2.24-.09,.09-.25,.26-.47,.5s-.47,.48-.73,.74-.51,.48-.75,.67c-.24,.19-.42,.29-.53,.29s-.29-.09-.52-.28c-.23-.19-.47-.4-.72-.64-.25-.24-.48-.48-.7-.71-.22-.23-.37-.39-.45-.48-.05,.71-.13,1.42-.24,2.15-.11,.73-.22,1.11-.34,1.15-.16,.05-.41,.08-.73,.09s-.65,0-.98,0c-.33-.01-.63-.04-.89-.08s-.41-.09-.45-.14c-.12-.17-.21-.73-.27-1.7-.06-.96-.09-2-.1-3.12,0-1.12,.01-2.15,.05-3.1s.11-1.5,.2-1.65c.07-.11,.28-.19,.63-.25,.35-.06,.74-.09,1.17-.1,.42,0,.83,.03,1.22,.09,.39,.06,.66,.16,.8,.29,.31,.3,.67,.75,1.09,1.34,.42,.59,.84,1.21,1.27,1.86Z"/><path class="cls-12" d="M147.6,136.42c.02,.21,.04,.59,.05,1.16,.01,.57,.02,1.15,.03,1.76s.02,1.16,.03,1.65c.01,.49,.03,.77,.05,.83,.03,.1,.18,.16,.44,.17s.56,0,.88-.01c.33-.02,.64-.04,.94-.06s.51-.01,.62,.02c.16,.05,.29,.28,.39,.69,.1,.41,.16,.85,.19,1.33,.03,.47,.02,.91-.04,1.31-.05,.4-.16,.62-.3,.65-.23,.06-.68,.11-1.35,.16s-1.39,.08-2.14,.09c-.75,0-1.45-.01-2.09-.07-.64-.05-1.04-.16-1.19-.32-.15-.16-.27-.67-.35-1.54-.08-.87-.14-1.83-.17-2.87-.03-1.04-.04-2.04-.03-2.98,0-.94,.03-1.56,.06-1.87,.02-.18,.23-.31,.64-.4,.41-.08,.86-.13,1.35-.13,.49,0,.93,.03,1.34,.1,.41,.07,.62,.17,.64,.3Z"/><path class="cls-12" d="M161.78,141.84c-.23,1.39-.91,2.52-2.03,3.37s-2.42,1.16-3.91,.91c-1.43-.24-2.56-.92-3.38-2.05s-1.12-2.38-.9-3.75c.21-1.27,.82-2.34,1.85-3.21,1.02-.86,2.21-1.24,3.57-1.12,1.63,.14,2.91,.76,3.82,1.86s1.24,2.43,.98,3.98Zm-3.81-.56c.06-.38,0-.7-.22-.97-.21-.27-.5-.43-.9-.5-.37-.06-.7,.02-.98,.24-.28,.22-.45,.51-.5,.85-.07,.41,.04,.77,.34,1.09,.3,.32,.67,.45,1.11,.39,.31-.03,.56-.15,.76-.36,.2-.21,.33-.46,.38-.74Z"/><path class="cls-12" d="M172.65,141.84c-.23,1.39-.9,2.52-2.03,3.37-1.12,.85-2.42,1.16-3.91,.91-1.43-.24-2.56-.92-3.38-2.05-.82-1.13-1.12-2.38-.9-3.75,.21-1.27,.82-2.34,1.85-3.21,1.02-.86,2.21-1.24,3.57-1.12,1.64,.14,2.91,.76,3.82,1.86s1.24,2.43,.98,3.98Zm-3.81-.56c.06-.38,0-.7-.21-.97-.21-.27-.5-.43-.9-.5-.37-.06-.7,.02-.98,.24s-.45,.51-.5,.85c-.07,.41,.04,.77,.34,1.09s.67,.45,1.11,.39c.3-.03,.56-.15,.76-.36,.2-.21,.33-.46,.38-.74Z"/><path class="cls-12" d="M181.63,140.63c-.15,.98-.6,1.8-1.34,2.46-.74,.66-1.62,.94-2.65,.85-.04,.51-.09,.94-.14,1.29-.06,.35-.12,.56-.18,.64-.09,.17-.55,.28-1.36,.31-.81,.04-1.39-.02-1.72-.17-.15-.07-.28-.51-.4-1.33-.12-.82-.21-1.74-.29-2.77-.07-1.03-.12-2.01-.14-2.96-.02-.95-.02-1.58,.01-1.91,.03-.3,.29-.53,.77-.69s1.04-.26,1.67-.3,1.27-.03,1.91,.04c.64,.07,1.14,.18,1.5,.33,1.89,.8,2.68,2.19,2.37,4.2Zm-2.85-.8c-.1-.48-.42-.74-.97-.8-.1,0-.18,0-.25,0-.42,.08-.62,.38-.58,.91s.18,.88,.42,1.03c.11,.08,.27,.09,.48,.05,.32-.05,.56-.19,.73-.41,.16-.23,.21-.49,.16-.79Z"/></g><g><path class="cls-20" d="M83.67,139.3c-.09,0-.18-.02-.25-.07-.09-.07-.14-.14-.14-.22,0-.08-.05-.15-.14-.23-.22-.17-.5-.14-.84,.09s-.2,.42,.42,.54c.07,.01,.14,.03,.22,.04,.08,.02,.16,.03,.25,.04,1.02,.18,1.82,.48,2.41,.91,.72,.53,1.14,1.22,1.25,2.08,.11,.86-.13,1.62-.71,2.3-.69,.8-1.62,1.26-2.8,1.38-1.18,.12-2.2-.13-3.05-.74-.74-.52-1.2-1.17-1.39-1.96-.08-.37,.11-.66,.56-.86,.2-.09,.42-.16,.66-.2,.24-.04,.47-.06,.69-.07,.36,0,.69,.04,.98,.13,.29,.09,.46,.21,.5,.37,0,.03,.02,.06,.03,.09,.05,.11,.14,.19,.28,.25,.16,.07,.35,.06,.57-.03,.22-.09,.28-.23,.19-.44-.05-.1-.18-.18-.4-.24-.52-.15-1.03-.26-1.54-.34-.51-.08-1-.29-1.46-.63-.33-.24-.59-.57-.78-.98-.19-.42-.25-.97-.19-1.65,.09-.92,.53-1.68,1.33-2.28,.47-.35,1-.58,1.6-.7s1.18-.12,1.75,0c.57,.12,1.08,.35,1.53,.7,.45,.35,.77,.82,.94,1.4,.07,.23,0,.42-.19,.58-.19,.16-.43,.29-.72,.4-.29,.11-.58,.19-.88,.24-.3,.05-.53,.08-.68,.09Z"/><path class="cls-20" d="M97.54,141.84c-.23,1.39-.9,2.52-2.03,3.37-1.12,.85-2.42,1.16-3.91,.91-1.43-.24-2.56-.92-3.38-2.05-.82-1.13-1.12-2.38-.9-3.75,.21-1.27,.82-2.34,1.85-3.21,1.02-.86,2.21-1.24,3.57-1.12,1.64,.14,2.91,.76,3.82,1.86s1.24,2.43,.98,3.98Zm-3.81-.56c.06-.38,0-.7-.22-.97s-.5-.43-.9-.5c-.37-.06-.7,.02-.98,.24-.28,.22-.45,.5-.5,.85-.07,.41,.04,.77,.34,1.09,.3,.32,.67,.45,1.11,.39,.31-.03,.56-.15,.76-.36,.2-.21,.33-.46,.38-.74Z"/><path class="cls-20" d="M104.72,139.62c.44-.65,.86-1.27,1.27-1.86,.41-.59,.77-1.04,1.08-1.34,.14-.13,.4-.23,.8-.29,.4-.06,.81-.09,1.24-.09s.82,.04,1.17,.1c.35,.06,.55,.15,.61,.26,.08,.19,.15,.77,.2,1.72,.05,.95,.07,1.98,.07,3.09s-.03,2.13-.08,3.07c-.05,.94-.14,1.5-.26,1.67-.09,.11-.54,.17-1.35,.2-.81,.03-1.38,0-1.7-.06-.13-.03-.25-.41-.36-1.15-.11-.74-.19-1.48-.23-2.24-.09,.09-.25,.26-.47,.5-.23,.24-.47,.48-.73,.74-.26,.25-.51,.47-.75,.67-.24,.19-.42,.29-.53,.29s-.29-.09-.52-.28c-.23-.19-.47-.4-.72-.64-.25-.24-.48-.48-.7-.71-.22-.23-.37-.39-.45-.48-.05,.71-.13,1.42-.24,2.15s-.22,1.11-.34,1.15c-.16,.05-.41,.08-.73,.09-.32,0-.65,0-.98,0-.33-.01-.63-.04-.89-.08-.26-.04-.41-.09-.45-.14-.12-.17-.21-.73-.27-1.7-.06-.96-.1-2-.1-3.12,0-1.12,.01-2.15,.05-3.1,.04-.95,.11-1.5,.2-1.65,.07-.11,.28-.19,.63-.25,.35-.06,.74-.09,1.17-.1s.83,.03,1.22,.09c.39,.06,.66,.16,.8,.29,.31,.3,.67,.75,1.09,1.34,.42,.59,.84,1.21,1.27,1.86Z"/><path class="cls-20" d="M120.82,142.67c.77,0,1.47-.03,2.09-.07,.62-.04,.99,0,1.1,.13,.12,.1,.21,.52,.26,1.27s.03,1.29-.06,1.62c-.04,.14-.39,.26-1.04,.35s-1.38,.16-2.19,.19c-.81,.03-1.58,.04-2.33,.02-.74-.02-1.23-.08-1.45-.18-.13-.05-.24-.41-.33-1.07-.09-.66-.15-1.43-.2-2.32-.05-.89-.08-1.79-.09-2.71,0-.92,0-1.67,.03-2.25,0-.32,.03-.61,.08-.87,.05-.26,.13-.43,.25-.49,.11-.07,.5-.12,1.17-.17s1.39-.08,2.16-.09c.77-.01,1.49,0,2.15,.04,.66,.04,1.04,.1,1.13,.2,.12,.1,.19,.48,.2,1.15,.02,.67-.03,1.17-.12,1.51-.05,.16-.36,.26-.93,.29-.57,.04-1.24,.07-2.01,.1,0,.05,0,.11,0,.19,0,.07,0,.13,.01,.19,.5,0,.91,.05,1.22,.11,.08,.02,.15,.15,.22,.39,.07,.24,.12,.5,.15,.79s.03,.55,0,.79c-.03,.24-.11,.37-.23,.39-.09,.03-.25,.05-.48,.07-.23,.02-.49,.03-.77,.04v.39Z"/><path class="cls-20" d="M131.19,139.62c.44-.65,.86-1.27,1.27-1.86,.41-.59,.77-1.04,1.08-1.34,.14-.13,.4-.23,.8-.29,.4-.06,.81-.09,1.24-.09,.43,0,.82,.04,1.17,.1,.35,.06,.55,.15,.61,.26,.08,.19,.15,.77,.2,1.72,.05,.95,.07,1.98,.07,3.09s-.03,2.13-.08,3.07-.14,1.5-.26,1.67c-.09,.11-.54,.17-1.35,.2-.81,.03-1.38,0-1.7-.06-.13-.03-.25-.41-.36-1.15-.11-.74-.19-1.48-.23-2.24-.09,.09-.25,.26-.47,.5-.23,.24-.47,.48-.73,.74-.26,.25-.51,.47-.75,.67-.24,.19-.42,.29-.53,.29s-.29-.09-.52-.28c-.23-.19-.47-.4-.72-.64-.25-.24-.48-.48-.7-.71-.22-.23-.37-.39-.45-.48-.05,.71-.13,1.42-.24,2.15-.11,.73-.22,1.11-.34,1.15-.16,.05-.41,.08-.73,.09-.32,0-.65,0-.98,0-.33-.01-.63-.04-.89-.08-.26-.04-.41-.09-.45-.14-.12-.17-.21-.73-.27-1.7-.06-.96-.1-2-.1-3.12,0-1.12,.01-2.15,.05-3.1,.04-.95,.11-1.5,.2-1.65,.07-.11,.28-.19,.63-.25,.35-.06,.74-.09,1.17-.1,.42,0,.83,.03,1.22,.09,.39,.06,.66,.16,.8,.29,.31,.3,.67,.75,1.09,1.34,.42,.59,.84,1.21,1.27,1.86Z"/><path class="cls-20" d="M147.1,136.42c.02,.21,.04,.59,.05,1.16,.01,.57,.02,1.15,.03,1.76,0,.61,.02,1.16,.03,1.65,.01,.49,.03,.77,.05,.83,.03,.1,.18,.16,.44,.17,.26,.01,.56,0,.88,0,.32-.02,.64-.04,.94-.06,.3-.02,.51-.01,.62,.02,.16,.05,.29,.28,.39,.69,.1,.41,.16,.85,.19,1.33,.03,.48,.02,.91-.04,1.31-.05,.4-.15,.62-.3,.65-.23,.06-.67,.11-1.35,.16-.67,.05-1.39,.08-2.14,.09-.75,0-1.45-.01-2.09-.07-.64-.05-1.04-.16-1.19-.32s-.27-.67-.35-1.54c-.08-.87-.14-1.83-.17-2.87-.03-1.04-.04-2.04-.03-2.98,0-.94,.03-1.56,.06-1.87,.02-.18,.23-.31,.64-.4s.86-.13,1.35-.13c.49,0,.93,.03,1.34,.1,.41,.07,.62,.17,.64,.3Z"/><path class="cls-20" d="M161.28,141.84c-.23,1.39-.9,2.52-2.03,3.37-1.12,.85-2.42,1.16-3.91,.91-1.43-.24-2.56-.92-3.38-2.05-.82-1.13-1.12-2.38-.9-3.75,.21-1.27,.82-2.34,1.85-3.21s2.21-1.24,3.57-1.12c1.64,.14,2.91,.76,3.82,1.86s1.24,2.43,.98,3.98Zm-3.81-.56c.06-.38,0-.7-.21-.97-.21-.27-.5-.43-.9-.5-.37-.06-.7,.02-.98,.24s-.45,.5-.5,.85c-.07,.41,.04,.77,.34,1.09s.67,.45,1.11,.39c.3-.03,.56-.15,.76-.36,.2-.21,.33-.46,.38-.74Z"/><path class="cls-20" d="M172.15,141.84c-.23,1.39-.91,2.52-2.03,3.37s-2.42,1.16-3.91,.91c-1.43-.24-2.56-.92-3.38-2.05-.82-1.13-1.12-2.38-.9-3.75,.21-1.27,.82-2.34,1.85-3.21,1.02-.86,2.21-1.24,3.57-1.12,1.63,.14,2.91,.76,3.82,1.86s1.24,2.43,.98,3.98Zm-3.81-.56c.06-.38,0-.7-.22-.97-.21-.27-.5-.43-.9-.5-.37-.06-.7,.02-.98,.24-.28,.22-.45,.5-.5,.85-.07,.41,.04,.77,.34,1.09,.3,.32,.67,.45,1.11,.39,.31-.03,.56-.15,.76-.36,.2-.21,.33-.46,.38-.74Z"/><path class="cls-20" d="M181.13,140.63c-.16,.98-.6,1.8-1.34,2.46-.74,.66-1.62,.94-2.65,.85-.04,.51-.09,.94-.14,1.29-.05,.35-.12,.56-.18,.64-.09,.17-.55,.28-1.36,.31-.81,.04-1.39-.02-1.72-.17-.15-.07-.28-.51-.4-1.33s-.21-1.74-.29-2.77-.12-2.01-.14-2.96c-.02-.95-.02-1.58,.01-1.91,.03-.3,.29-.53,.77-.69s1.04-.26,1.67-.3c.63-.04,1.27-.03,1.91,.04,.64,.07,1.14,.18,1.5,.33,1.89,.8,2.68,2.19,2.37,4.2Zm-2.85-.8c-.1-.48-.42-.74-.97-.8-.1,0-.18,0-.25,0-.42,.08-.62,.38-.58,.91,.04,.53,.18,.88,.42,1.03,.11,.08,.27,.09,.48,.05,.32-.05,.57-.19,.73-.41,.16-.23,.21-.49,.16-.79Z"/></g></g></svg>