<?xml version="1.0" encoding="UTF-8"?><svg xmlns="http://www.w3.org/2000/svg" xmlns:xlink="http://www.w3.org/1999/xlink" viewBox="0 0 246.61 161.57"><defs><style>.cls-1,.cls-2,.cls-3,.cls-4,.cls-5,.cls-6,.cls-7,.cls-8,.cls-9,.cls-10,.cls-11{stroke-miterlimit:10;}.cls-1,.cls-2,.cls-3,.cls-4,.cls-5,.cls-7,.cls-10,.cls-11{stroke:#fff;}.cls-1,.cls-2,.cls-3,.cls-4,.cls-10{stroke-width:5.67px;}.cls-1,.cls-8,.cls-12{fill:none;}.cls-2,.cls-13,.cls-3,.cls-14,.cls-4,.cls-15,.cls-16,.cls-10{fill:#fff;}.cls-3,.cls-16{opacity:.19;}.cls-17{fill:#898888;}.cls-14,.cls-10{opacity:.9;}.cls-18{fill:#dbdcdb;}.cls-19{clip-path:url(#clippath-2);}.cls-20{fill:url(#Gradiente_sem_nome_3);}.cls-4,.cls-15{opacity:.8;}.cls-21{fill:#f7d743;}.cls-5,.cls-7,.cls-11{stroke-width:5.4px;}.cls-5,.cls-22{fill:#fcc11e;}.cls-23{fill:#585657;}.cls-24{clip-path:url(#clippath-1);}.cls-6,.cls-25,.cls-11{fill:#ffd455;}.cls-6,.cls-9{stroke:#fdc729;stroke-width:1px;}.cls-26{fill:#eaeaea;}.cls-7,.cls-27,.cls-9{fill:#fee18b;}.cls-8{stroke:#f7d743;}.cls-28{fill:url(#Gradiente_sem_nome_13);}.cls-29{fill:url(#Gradiente_sem_nome_17);}.cls-30{clip-path:url(#clippath);}.cls-31{clip-path:url(#clippath-3);}.cls-32{fill:#9b9b9b;}.cls-33{fill:#27a7d9;}</style><clipPath id="clippath"><path class="cls-2" d="M190.77,84.86l-47.5-1.39c-3.31-.1-5.92-2.96-5.82-6.4h0c.09-3.44,2.85-6.14,6.16-6.05l47.5,1.39c3.31,.1,5.92,2.96,5.82,6.4h0c-.09,3.44-2.85,6.14-6.16,6.05Z"/></clipPath><clipPath id="clippath-1"><path class="cls-2" d="M181.53,94.26c-5.58-.16-9.98-5-9.82-10.8,.16-5.8,4.81-10.37,10.39-10.21s9.98,5,9.82,10.8c-.16,5.8-4.81,10.37-10.39,10.21"/></clipPath><clipPath id="clippath-2"><path class="cls-12" d="M190.55,84.56l-47.5-1.38c-3.31-.1-5.92-2.95-5.82-6.37h0c.09-3.42,2.85-6.11,6.16-6.02l47.5,1.38c3.31,.1,5.92,2.95,5.82,6.37h0c-.09,3.42-2.85,6.11-6.16,6.02Z"/></clipPath><linearGradient id="Gradiente_sem_nome_13" x1="44.76" y1="43.64" x2="45.06" y2="77.52" gradientTransform="translate(109.48 -11.19) rotate(1.54) scale(1.05 1) skewX(-.14)" gradientUnits="userSpaceOnUse"><stop offset="0" stop-color="#228dcd"/><stop offset=".06" stop-color="#2e80b1"/><stop offset=".14" stop-color="#3b7395"/><stop offset=".23" stop-color="#45687e"/><stop offset=".33" stop-color="#4e606c"/><stop offset=".45" stop-color="#535a60"/><stop offset=".62" stop-color="#575659"/><stop offset="1" stop-color="#585657"/></linearGradient><clipPath id="clippath-3"><path class="cls-12" d="M181.32,93.92c-5.58-.16-9.98-4.97-9.82-10.74,.16-5.77,4.81-10.32,10.39-10.15s9.98,4.97,9.82,10.74c-.16,5.77-4.81,10.32-10.39,10.15"/></clipPath><linearGradient id="Gradiente_sem_nome_3" x1="422.82" y1="36.13" x2="422.5" y2="72.25" gradientTransform="translate(449.04 1.06) rotate(-179.91) scale(.87 -1) skewX(-.03)" gradientUnits="userSpaceOnUse"><stop offset=".06" stop-color="#2490cd"/><stop offset=".45" stop-color="#2493cf"/><stop offset=".84" stop-color="#269fd5"/><stop offset="1" stop-color="#27a7d9"/></linearGradient><linearGradient id="Gradiente_sem_nome_17" x1="4945.85" y1="5343.73" x2="4945.2" y2="5397.77" gradientTransform="translate(-5655.74 -3682.59) rotate(-17.8) scale(.94 .99) skewX(-4.38)" gradientUnits="userSpaceOnUse"><stop offset="0" stop-color="#2490cd"/><stop offset=".42" stop-color="#2493cf"/><stop offset=".83" stop-color="#269fd5"/><stop offset="1" stop-color="#27a7d9"/></linearGradient></defs><g id="Camada_2"><rect class="cls-21" x="0" y="0" width="246.61" height="161.57"/></g><g id="Camada_3"><rect class="cls-13" x="104.52" y="41.77" width="31.43" height="198.75" rx="11.22" ry="11.22" transform="translate(261.38 20.91) rotate(90)"/><rect class="cls-8" x="25.77" y="128.73" width="188.92" height="24.82" rx="7.77" ry="7.77"/><g><path class="cls-25" d="M46.26,138.61c-.4-.02-.76,.02-1.07,.13-.43,.15-.74,.4-.94,.74-.19,.34-.27,.69-.23,1.04,.04,.35,.21,.67,.49,.94,.28,.28,.69,.43,1.22,.45,.38,0,.6-.12,.64-.37,.04-.25,.08-.5,.12-.75-.02-.17,.15-.31,.49-.43s.73-.2,1.16-.24c.43-.04,.82-.03,1.19,.02,.37,.06,.57,.17,.59,.35,.04,.33,.08,.75,.1,1.26,.02,.51,.03,1.01,.03,1.51,0,.49-.03,.93-.06,1.31-.04,.38-.09,.6-.17,.67-.07,.09-.43,.15-1.06,.17-.64,.02-1.09-.01-1.36-.09-.04,0-.08-.04-.12-.11-.8,.19-1.58,.26-2.35,.21-1.36-.11-2.5-.64-3.42-1.6s-1.3-2.14-1.15-3.55c.17-1.54,.73-2.74,1.68-3.6,.95-.86,2.15-1.33,3.59-1.41,.95-.04,1.82,.15,2.6,.58,.78,.43,1.18,1.22,1.2,2.35,.02,.17-.09,.32-.32,.43-.23,.12-.51,.21-.83,.28-.32,.07-.64,.11-.95,.14-.31,.02-.54,.02-.68,0-.19-.03-.28-.1-.27-.23,0-.12-.04-.19-.13-.21Z"/><path class="cls-25" d="M54.93,145.11c-.09,.18-.55,.28-1.39,.31s-1.42-.02-1.76-.17c-.15-.07-.3-.52-.44-1.37-.14-.84-.25-1.79-.35-2.84-.1-1.05-.17-2.07-.21-3.04-.04-.97-.05-1.63,0-1.95,.03-.27,.28-.47,.75-.61,.47-.14,.98-.22,1.53-.23,.55-.02,1.06,.03,1.52,.14,.46,.11,.71,.27,.73,.5,.07,.64,.11,1.45,.12,2.45,0,.99-.01,1.98-.05,2.94s-.1,1.82-.18,2.57-.17,1.18-.27,1.31Z"/><path class="cls-25" d="M63.2,141.19c.45,.38,.85,.74,1.19,1.09,.34,.35,.51,.62,.52,.8,0,.13-.07,.32-.22,.57s-.31,.5-.5,.76-.37,.47-.55,.66c-.18,.19-.3,.29-.36,.29-.29,.06-.71-.09-1.26-.45s-.99-.59-1.33-.71c-.33-.1-.5-.06-.53,.13,0,.32-.02,.56-.09,.73-.06,.17-.28,.27-.65,.31-.42,.04-.91,.07-1.46,.07s-.89,0-1.04-.04c-.1-.02-.18-.08-.25-.17-.09-.12-.18-.67-.29-1.64s-.18-2.04-.24-3.18c-.06-1.14-.08-2.19-.08-3.14,0-.95,.08-1.47,.21-1.54,.48-.27,1.13-.46,1.94-.58s1.61-.1,2.42,.06,1.52,.49,2.15,.99c.63,.5,1.02,1.24,1.16,2.2,.18,1.29-.07,2.22-.76,2.79Zm-3.33-1.26c.34-.04,.6-.16,.78-.37s.28-.43,.27-.66c0-.23-.11-.43-.32-.6s-.54-.23-.98-.18c-.36,.04-.51,.36-.43,.96,.08,.6,.3,.89,.67,.85Z"/><path class="cls-25" d="M65.47,145.22c-.08-.09-.13-.2-.13-.32,0-.43,.07-1.07,.23-1.94,.16-.86,.36-1.76,.6-2.69s.49-1.8,.76-2.62c.27-.81,.5-1.39,.7-1.72,.08-.13,.31-.24,.7-.35,.39-.1,.81-.18,1.28-.22,.47-.04,.92-.04,1.35,0s.74,.14,.91,.3c.25,.24,.54,.76,.88,1.57,.34,.81,.67,1.69,.99,2.64,.32,.95,.61,1.87,.87,2.74,.26,.88,.43,1.49,.51,1.86,.06,.27,.04,.45-.05,.55-.09,.1-.25,.18-.48,.22-.39,.07-.87,.12-1.45,.15-.58,.03-.94,.04-1.08,.02-.06,0-.11-.03-.16-.06-.16-.1-.31-.38-.46-.84s-.29-.78-.43-.95c-.08-.1-.19-.16-.33-.18h-1.09c-.34,0-.56,.11-.66,.33-.13,.28-.28,.59-.45,.93-.17,.34-.29,.55-.37,.63-.04,.05-.1,.08-.18,.1-.18,.04-.61,.05-1.28,.03-.67-.02-1.06-.09-1.15-.2Zm4.3-5.85c-.15,.15-.29,.41-.43,.78-.14,.36-.2,.6-.16,.72,.07,.19,.35,.28,.86,.26,.51-.02,.78-.14,.83-.37,.03-.14-.11-.45-.4-.94-.29-.49-.52-.64-.7-.45Z"/><path class="cls-25" d="M82.22,141.19c.45,.38,.85,.74,1.19,1.09,.34,.35,.51,.62,.52,.8,0,.13-.07,.32-.22,.57s-.31,.5-.5,.76-.37,.47-.55,.66c-.18,.19-.3,.29-.36,.29-.29,.06-.71-.09-1.26-.45s-.99-.59-1.33-.71c-.33-.1-.5-.06-.53,.13,0,.32-.02,.56-.09,.73-.06,.17-.28,.27-.65,.31-.42,.04-.91,.07-1.46,.07s-.89,0-1.04-.04c-.1-.02-.18-.08-.25-.17-.09-.12-.18-.67-.29-1.64s-.18-2.04-.24-3.18c-.06-1.14-.08-2.19-.08-3.14,0-.95,.08-1.47,.21-1.54,.48-.27,1.13-.46,1.94-.58s1.61-.1,2.42,.06,1.52,.49,2.15,.99c.63,.5,1.02,1.24,1.16,2.2,.18,1.29-.07,2.22-.76,2.79Zm-3.33-1.26c.34-.04,.6-.16,.78-.37s.28-.43,.27-.66c0-.23-.11-.43-.32-.6s-.54-.23-.98-.18c-.36,.04-.51,.36-.43,.96,.08,.6,.3,.89,.67,.85Z"/><path class="cls-25" d="M97.38,139.88c-.15,.98-.6,1.8-1.34,2.46-.74,.66-1.62,.94-2.65,.85-.04,.51-.09,.94-.14,1.29-.06,.35-.12,.56-.18,.64-.09,.17-.55,.28-1.36,.31-.81,.04-1.39-.02-1.72-.17-.15-.07-.28-.51-.4-1.33-.12-.82-.21-1.74-.29-2.77-.07-1.03-.12-2.01-.14-2.96-.02-.95-.02-1.58,.01-1.91,.03-.3,.29-.53,.77-.69s1.04-.26,1.67-.3c.63-.04,1.27-.03,1.91,.04,.64,.07,1.14,.18,1.5,.33,1.89,.8,2.68,2.19,2.37,4.2Zm-2.85-.8c-.1-.48-.42-.74-.97-.8-.1,0-.18,0-.25,0-.42,.08-.62,.38-.58,.91,.04,.53,.18,.88,.42,1.03,.11,.08,.27,.09,.48,.05,.32-.05,.56-.19,.73-.41,.16-.23,.21-.49,.16-.79Z"/><path class="cls-25" d="M98.4,145.22c-.08-.09-.13-.2-.13-.32,0-.43,.07-1.07,.23-1.94,.16-.86,.36-1.76,.6-2.69s.49-1.8,.76-2.62c.27-.81,.5-1.39,.7-1.72,.08-.13,.31-.24,.7-.35,.39-.1,.81-.18,1.28-.22,.47-.04,.92-.04,1.35,0s.74,.14,.91,.3c.25,.24,.54,.76,.88,1.57,.34,.81,.67,1.69,.99,2.64,.32,.95,.61,1.87,.87,2.74,.26,.88,.43,1.49,.51,1.86,.06,.27,.04,.45-.05,.55-.09,.1-.25,.18-.48,.22-.39,.07-.87,.12-1.45,.15-.58,.03-.94,.04-1.08,.02-.06,0-.11-.03-.16-.06-.16-.1-.31-.38-.46-.84s-.29-.78-.43-.95c-.08-.1-.19-.16-.33-.18h-1.09c-.34,0-.56,.11-.66,.33-.13,.28-.28,.59-.45,.93-.17,.34-.29,.55-.37,.63-.04,.05-.1,.08-.18,.1-.18,.04-.61,.05-1.28,.03-.67-.02-1.06-.09-1.15-.2Zm4.3-5.85c-.15,.15-.29,.41-.43,.78-.14,.36-.2,.6-.16,.72,.07,.19,.35,.28,.86,.26,.51-.02,.78-.14,.83-.37,.03-.14-.11-.45-.4-.94-.29-.49-.52-.64-.7-.45Z"/><path class="cls-25" d="M115.15,141.19c.45,.38,.85,.74,1.19,1.09,.34,.35,.51,.62,.52,.8,0,.13-.07,.32-.22,.57s-.31,.5-.5,.76-.37,.47-.55,.66c-.18,.19-.3,.29-.36,.29-.29,.06-.71-.09-1.26-.45s-.99-.59-1.33-.71c-.33-.1-.5-.06-.53,.13,0,.32-.02,.56-.09,.73-.06,.17-.28,.27-.65,.31-.42,.04-.91,.07-1.46,.07s-.89,0-1.04-.04c-.1-.02-.18-.08-.25-.17-.09-.12-.18-.67-.29-1.64s-.18-2.04-.24-3.18c-.06-1.14-.08-2.19-.08-3.14,0-.95,.08-1.47,.21-1.54,.48-.27,1.13-.46,1.94-.58s1.61-.1,2.42,.06,1.52,.49,2.15,.99c.63,.5,1.02,1.24,1.16,2.2,.18,1.29-.07,2.22-.76,2.79Zm-3.33-1.26c.34-.04,.6-.16,.78-.37s.28-.43,.27-.66c0-.23-.11-.43-.32-.6s-.54-.23-.98-.18c-.36,.04-.51,.36-.43,.96,.08,.6,.3,.89,.67,.85Z"/><path class="cls-25" d="M117.43,145.22c-.08-.09-.13-.2-.13-.32,0-.43,.07-1.07,.23-1.94,.16-.86,.36-1.76,.6-2.69s.49-1.8,.76-2.62c.27-.81,.5-1.39,.7-1.72,.08-.13,.31-.24,.7-.35,.39-.1,.81-.18,1.28-.22,.47-.04,.92-.04,1.35,0s.74,.14,.91,.3c.25,.24,.54,.76,.88,1.57,.34,.81,.67,1.69,.99,2.64,.32,.95,.61,1.87,.87,2.74,.26,.88,.43,1.49,.51,1.86,.06,.27,.04,.45-.05,.55-.09,.1-.25,.18-.48,.22-.39,.07-.87,.12-1.45,.15-.58,.03-.94,.04-1.08,.02-.06,0-.11-.03-.16-.06-.16-.1-.31-.38-.46-.84s-.29-.78-.43-.95c-.08-.1-.19-.16-.33-.18h-1.09c-.34,0-.56,.11-.66,.33-.13,.28-.28,.59-.45,.93-.17,.34-.29,.55-.37,.63-.04,.05-.1,.08-.18,.1-.18,.04-.61,.05-1.28,.03-.67-.02-1.06-.09-1.15-.2Zm4.3-5.85c-.15,.15-.29,.41-.43,.78-.14,.36-.2,.6-.16,.72,.07,.19,.35,.28,.86,.26,.51-.02,.78-.14,.83-.37,.03-.14-.11-.45-.4-.94-.29-.49-.52-.64-.7-.45Z"/><path class="cls-25" d="M136.05,141.91c.77,0,1.47-.03,2.09-.07,.62-.04,.99,0,1.1,.13,.12,.1,.21,.52,.26,1.27s.03,1.29-.06,1.62c-.04,.14-.39,.26-1.04,.35-.65,.09-1.38,.16-2.19,.19-.81,.03-1.58,.04-2.33,.02-.74-.02-1.23-.08-1.45-.18-.13-.05-.24-.41-.33-1.07-.09-.66-.15-1.43-.2-2.32s-.08-1.79-.09-2.71,0-1.67,.03-2.25c0-.32,.03-.61,.08-.87,.05-.26,.13-.43,.25-.49,.11-.07,.5-.12,1.17-.17,.67-.05,1.39-.08,2.16-.09,.77-.01,1.49,0,2.15,.04,.66,.04,1.04,.11,1.13,.2,.12,.1,.19,.48,.2,1.15,.02,.67-.03,1.17-.12,1.52-.05,.16-.36,.26-.93,.29-.57,.04-1.24,.07-2.01,.1,0,.05,0,.11,0,.19,0,.07,0,.13,.01,.19,.5,0,.91,.05,1.22,.11,.08,.02,.15,.15,.22,.39,.07,.24,.12,.5,.15,.79s.03,.55,0,.79c-.03,.24-.11,.37-.23,.39-.09,.03-.25,.05-.48,.07-.23,.02-.49,.03-.77,.04v.39Z"/><path class="cls-25" d="M144.78,138.55c-.09,0-.18-.02-.25-.07-.09-.07-.14-.14-.14-.22,0-.08-.05-.15-.14-.23-.22-.17-.5-.14-.84,.09s-.2,.42,.42,.54c.07,.01,.14,.03,.22,.04,.08,.02,.16,.03,.25,.04,1.02,.18,1.82,.48,2.41,.91,.72,.53,1.14,1.22,1.25,2.08s-.13,1.62-.71,2.3c-.69,.8-1.62,1.26-2.8,1.38-1.18,.12-2.2-.13-3.05-.74-.74-.52-1.2-1.17-1.39-1.96-.08-.37,.11-.66,.56-.86,.2-.09,.42-.16,.66-.2,.24-.04,.47-.06,.69-.07,.36,0,.69,.04,.98,.13,.29,.09,.46,.21,.5,.37,0,.03,.02,.06,.03,.09,.05,.11,.14,.19,.28,.25,.16,.07,.35,.06,.57-.03s.28-.23,.19-.44c-.05-.1-.18-.18-.4-.24-.52-.15-1.03-.26-1.54-.34-.51-.08-1-.29-1.46-.63-.33-.24-.59-.57-.78-.98-.19-.42-.25-.97-.19-1.65,.09-.92,.53-1.68,1.33-2.28,.47-.35,1-.58,1.6-.7,.6-.12,1.18-.12,1.75,0,.57,.12,1.08,.35,1.53,.7,.45,.35,.77,.82,.94,1.4,.07,.23,0,.42-.19,.58s-.43,.3-.72,.4c-.29,.11-.58,.19-.88,.24-.3,.05-.53,.08-.68,.09Z"/><path class="cls-25" d="M158.37,141.09c-.07,.4-.17,.78-.31,1.13,.33,.4,.5,.69,.5,.89,.03,.15-.2,.51-.69,1.09-.49,.58-.87,.95-1.15,1.12-.09,.06-.24,.05-.44-.02-.2-.07-.43-.18-.67-.33-.46,.23-.97,.38-1.54,.44-1.39,.15-2.62-.21-3.69-1.11-1.07-.89-1.68-2.02-1.83-3.39-.15-1.33,.19-2.56,1.02-3.7,.82-1.13,1.91-1.79,3.27-1.96,.86-.11,1.66-.03,2.39,.26,.73,.28,1.35,.7,1.86,1.24,.51,.55,.88,1.2,1.12,1.95s.29,1.55,.16,2.38Zm-3.65-.57c.13-.83-.23-1.32-1.06-1.47-.42-.07-.77,.05-1.06,.36-.29,.31-.42,.67-.37,1.07,.04,.35,.19,.64,.46,.87,.27,.23,.59,.32,.94,.28,.62-.08,.99-.44,1.09-1.11Z"/><path class="cls-25" d="M165.63,135.84c0-.12,.18-.21,.54-.28,.35-.07,.75-.1,1.18-.11,.43,0,.84,.03,1.21,.1,.38,.07,.6,.19,.67,.34,.09,.23,.16,.64,.2,1.22s.04,1.21,.02,1.89c-.02,.68-.08,1.35-.18,2-.1,.65-.23,1.17-.4,1.55-.37,.81-.91,1.48-1.63,1.99s-1.53,.8-2.45,.88c-1.16,.08-2.24-.2-3.24-.85s-1.69-1.51-2.08-2.58c-.13-.35-.22-.85-.27-1.5-.06-.65-.08-1.32-.08-1.99,0-.67,.04-1.28,.12-1.83s.19-.9,.33-1.04c.12-.12,.38-.2,.78-.24,.39-.04,.8-.05,1.22-.03,.42,.02,.8,.07,1.13,.15,.33,.08,.49,.18,.49,.3,0,.34-.04,.83-.09,1.45-.05,.62-.06,1.24-.04,1.86,.02,.62,.12,1.16,.28,1.63,.16,.47,.45,.73,.87,.77,.45,.05,.77-.15,.97-.62s.32-1.02,.38-1.66c.06-.64,.08-1.29,.06-1.94s-.02-1.13,0-1.45Z"/><path class="cls-25" d="M174.23,141.91c.77,0,1.47-.03,2.09-.07,.62-.04,.99,0,1.1,.13,.12,.1,.21,.52,.26,1.27s.03,1.29-.06,1.62c-.04,.14-.39,.26-1.04,.35-.65,.09-1.38,.16-2.19,.19-.81,.03-1.58,.04-2.33,.02-.74-.02-1.23-.08-1.45-.18-.13-.05-.24-.41-.33-1.07-.09-.66-.15-1.43-.2-2.32s-.08-1.79-.09-2.71,0-1.67,.03-2.25c0-.32,.03-.61,.08-.87,.05-.26,.13-.43,.25-.49,.11-.07,.5-.12,1.17-.17,.67-.05,1.39-.08,2.16-.09,.77-.01,1.49,0,2.15,.04,.66,.04,1.04,.11,1.13,.2,.12,.1,.19,.48,.2,1.15,.02,.67-.03,1.17-.12,1.52-.05,.16-.36,.26-.93,.29-.57,.04-1.24,.07-2.01,.1,0,.05,0,.11,0,.19,0,.07,0,.13,.01,.19,.5,0,.91,.05,1.22,.11,.08,.02,.15,.15,.22,.39,.07,.24,.12,.5,.15,.79s.03,.55,0,.79c-.03,.24-.11,.37-.23,.39-.09,.03-.25,.05-.48,.07-.23,.02-.49,.03-.77,.04v.39Z"/><path class="cls-25" d="M185.28,141.19c.45,.38,.85,.74,1.19,1.09,.34,.35,.51,.62,.52,.8,0,.13-.07,.32-.22,.57s-.31,.5-.5,.76-.37,.47-.55,.66c-.18,.19-.3,.29-.36,.29-.29,.06-.71-.09-1.26-.45s-.99-.59-1.33-.71c-.33-.1-.5-.06-.53,.13,0,.32-.02,.56-.09,.73-.06,.17-.28,.27-.65,.31-.42,.04-.91,.07-1.46,.07s-.89,0-1.04-.04c-.1-.02-.18-.08-.25-.17-.09-.12-.18-.67-.29-1.64s-.18-2.04-.24-3.18c-.06-1.14-.08-2.19-.08-3.14,0-.95,.08-1.47,.21-1.54,.48-.27,1.13-.46,1.94-.58s1.61-.1,2.42,.06,1.52,.49,2.15,.99c.63,.5,1.02,1.24,1.16,2.2,.18,1.29-.07,2.22-.76,2.79Zm-3.33-1.26c.34-.04,.6-.16,.78-.37s.28-.43,.27-.66c0-.23-.11-.43-.32-.6s-.54-.23-.98-.18c-.36,.04-.51,.36-.43,.96,.08,.6,.3,.89,.67,.85Z"/><path class="cls-25" d="M195.95,142.46c-.49,1.15-1.26,1.94-2.32,2.37-1.06,.43-2.17,.63-3.33,.61-.4,0-.78-.04-1.15-.08-.37-.05-.64-.1-.8-.18-.26-.11-.46-.63-.62-1.58-.15-.95-.25-1.99-.28-3.11-.03-1.13,0-2.18,.09-3.15s.27-1.54,.52-1.69c.25-.16,.64-.28,1.15-.35,.83-.11,1.72-.1,2.68,.03s1.78,.47,2.44,1c.88,.71,1.47,1.65,1.79,2.81,.32,1.17,.26,2.27-.18,3.31Zm-5.01-2.97c-.08,.24-.09,.6-.05,1.07s.14,.75,.29,.83c.07,.04,.21,.06,.42,.05,.35,0,.64-.09,.88-.24,.24-.15,.37-.37,.4-.66,.03-.36-.1-.66-.39-.91-.29-.25-.59-.39-.91-.42-.13,0-.26,0-.39,.03s-.22,.11-.26,.25Z"/><path class="cls-25" d="M197.2,145.22c-.08-.09-.13-.2-.13-.32,0-.43,.07-1.07,.23-1.94,.16-.86,.36-1.76,.6-2.69s.49-1.8,.76-2.62c.27-.81,.5-1.39,.7-1.72,.08-.13,.31-.24,.7-.35,.39-.1,.81-.18,1.28-.22,.47-.04,.92-.04,1.35,0s.74,.14,.91,.3c.25,.24,.54,.76,.88,1.57,.34,.81,.67,1.69,.99,2.64,.32,.95,.61,1.87,.87,2.74,.26,.88,.43,1.49,.51,1.86,.06,.27,.04,.45-.05,.55-.09,.1-.25,.18-.48,.22-.39,.07-.87,.12-1.45,.15-.58,.03-.94,.04-1.08,.02-.06,0-.11-.03-.16-.06-.16-.1-.31-.38-.46-.84s-.29-.78-.43-.95c-.08-.1-.19-.16-.33-.18h-1.09c-.34,0-.56,.11-.66,.33-.13,.28-.28,.59-.45,.93-.17,.34-.29,.55-.37,.63-.04,.05-.1,.08-.18,.1-.18,.04-.61,.05-1.28,.03-.67-.02-1.06-.09-1.15-.2Zm4.3-5.85c-.15,.15-.29,.41-.43,.78-.14,.36-.2,.6-.16,.72,.07,.19,.35,.28,.86,.26,.51-.02,.78-.14,.83-.37,.03-.14-.11-.45-.4-.94-.29-.49-.52-.64-.7-.45Z"/></g><g><path class="cls-33" d="M45.51,138.44c-.4-.02-.76,.02-1.07,.13-.43,.15-.74,.4-.94,.74-.19,.34-.27,.69-.23,1.04,.04,.35,.21,.67,.49,.94,.28,.28,.69,.43,1.22,.45,.38,0,.6-.12,.64-.37,.04-.25,.08-.5,.12-.75-.02-.17,.15-.31,.49-.43s.73-.2,1.16-.24c.43-.04,.82-.03,1.19,.02,.37,.06,.57,.17,.59,.35,.04,.33,.08,.75,.1,1.26,.02,.51,.03,1.01,.03,1.51,0,.49-.03,.93-.06,1.31-.04,.38-.09,.6-.17,.67-.07,.09-.43,.15-1.06,.17-.64,.02-1.09-.01-1.36-.09-.04,0-.08-.04-.12-.11-.8,.19-1.58,.26-2.35,.21-1.36-.11-2.5-.64-3.42-1.6s-1.3-2.14-1.15-3.55c.17-1.54,.73-2.74,1.68-3.6,.95-.86,2.15-1.33,3.59-1.41,.95-.04,1.82,.15,2.6,.58,.78,.43,1.18,1.22,1.2,2.35,.02,.17-.09,.32-.32,.43-.23,.12-.51,.21-.83,.28-.32,.07-.64,.11-.95,.14-.31,.02-.54,.02-.68,0-.19-.03-.28-.1-.27-.23,0-.12-.04-.19-.13-.21Z"/><path class="cls-33" d="M54.18,144.94c-.09,.18-.55,.28-1.39,.31s-1.42-.02-1.76-.17c-.15-.07-.3-.52-.44-1.37-.14-.84-.25-1.79-.35-2.84-.1-1.05-.17-2.07-.21-3.04-.04-.97-.05-1.63,0-1.95,.03-.27,.28-.47,.75-.61,.47-.14,.98-.22,1.53-.23,.55-.02,1.06,.03,1.52,.14,.46,.11,.71,.27,.73,.5,.07,.64,.11,1.45,.12,2.45,0,.99-.01,1.98-.05,2.94s-.1,1.82-.18,2.57-.17,1.18-.27,1.31Z"/><path class="cls-33" d="M62.45,141.01c.45,.38,.85,.74,1.19,1.09,.34,.35,.51,.62,.52,.8,0,.13-.07,.32-.22,.57s-.31,.5-.5,.76-.37,.47-.55,.66c-.18,.19-.3,.29-.36,.29-.29,.06-.71-.09-1.26-.45s-.99-.59-1.33-.71c-.33-.1-.5-.06-.53,.13,0,.32-.02,.56-.09,.73-.06,.17-.28,.27-.65,.31-.42,.04-.91,.07-1.46,.07s-.89,0-1.04-.04c-.1-.02-.18-.08-.25-.17-.09-.12-.18-.67-.29-1.64s-.18-2.04-.24-3.18c-.06-1.14-.08-2.19-.08-3.14,0-.95,.08-1.47,.21-1.54,.48-.27,1.13-.46,1.94-.58s1.61-.1,2.42,.06,1.52,.49,2.15,.99c.63,.5,1.02,1.24,1.16,2.2,.18,1.29-.07,2.22-.76,2.79Zm-3.33-1.26c.34-.04,.6-.16,.78-.37s.28-.43,.27-.66c0-.23-.11-.43-.32-.6s-.54-.23-.98-.18c-.36,.04-.51,.36-.43,.96,.08,.6,.3,.89,.67,.85Z"/><path class="cls-33" d="M64.72,145.04c-.08-.09-.13-.2-.13-.32,0-.43,.07-1.07,.23-1.94,.16-.86,.36-1.76,.6-2.69s.49-1.8,.76-2.62c.27-.81,.5-1.39,.7-1.72,.08-.13,.31-.24,.7-.35,.39-.1,.81-.18,1.28-.22,.47-.04,.92-.04,1.35,0s.74,.14,.91,.3c.25,.24,.54,.76,.88,1.57,.34,.81,.67,1.69,.99,2.64,.32,.95,.61,1.87,.87,2.74,.26,.88,.43,1.49,.51,1.86,.06,.27,.04,.45-.05,.55-.09,.1-.25,.18-.48,.22-.39,.07-.87,.12-1.45,.15-.58,.03-.94,.04-1.08,.02-.06,0-.11-.03-.16-.06-.16-.1-.31-.38-.46-.84s-.29-.78-.43-.95c-.08-.1-.19-.16-.33-.18h-1.09c-.34,0-.56,.11-.66,.33-.13,.28-.28,.59-.45,.93-.17,.34-.29,.55-.37,.63-.04,.05-.1,.08-.18,.1-.18,.04-.61,.05-1.28,.03-.67-.02-1.06-.09-1.15-.2Zm4.3-5.85c-.15,.15-.29,.41-.43,.78-.14,.36-.2,.6-.16,.72,.07,.19,.35,.28,.86,.26,.51-.02,.78-.14,.83-.37,.03-.14-.11-.45-.4-.94-.29-.49-.52-.64-.7-.45Z"/><path class="cls-33" d="M81.47,141.01c.45,.38,.85,.74,1.19,1.09,.34,.35,.51,.62,.52,.8,0,.13-.07,.32-.22,.57s-.31,.5-.5,.76-.37,.47-.55,.66c-.18,.19-.3,.29-.36,.29-.29,.06-.71-.09-1.26-.45s-.99-.59-1.33-.71c-.33-.1-.5-.06-.53,.13,0,.32-.02,.56-.09,.73-.06,.17-.28,.27-.65,.31-.42,.04-.91,.07-1.46,.07s-.89,0-1.04-.04c-.1-.02-.18-.08-.25-.17-.09-.12-.18-.67-.29-1.64s-.18-2.04-.24-3.18c-.06-1.14-.08-2.19-.08-3.14,0-.95,.08-1.47,.21-1.54,.48-.27,1.13-.46,1.94-.58s1.61-.1,2.42,.06,1.52,.49,2.15,.99c.63,.5,1.02,1.24,1.16,2.2,.18,1.29-.07,2.22-.76,2.79Zm-3.33-1.26c.34-.04,.6-.16,.78-.37s.28-.43,.27-.66c0-.23-.11-.43-.32-.6s-.54-.23-.98-.18c-.36,.04-.51,.36-.43,.96,.08,.6,.3,.89,.67,.85Z"/><path class="cls-33" d="M96.62,139.71c-.15,.98-.6,1.8-1.34,2.46-.74,.66-1.62,.94-2.65,.85-.04,.51-.09,.94-.14,1.29-.06,.35-.12,.56-.18,.64-.09,.17-.55,.28-1.36,.31-.81,.04-1.39-.02-1.72-.17-.15-.07-.28-.51-.4-1.33-.12-.82-.21-1.74-.29-2.77-.07-1.03-.12-2.01-.14-2.96-.02-.95-.02-1.58,.01-1.91,.03-.3,.29-.53,.77-.69s1.04-.26,1.67-.3c.63-.04,1.27-.03,1.91,.04,.64,.07,1.14,.18,1.5,.33,1.89,.8,2.68,2.19,2.37,4.2Zm-2.85-.8c-.1-.48-.42-.74-.97-.8-.1,0-.18,0-.25,0-.42,.08-.62,.38-.58,.91,.04,.53,.18,.88,.42,1.03,.11,.08,.27,.09,.48,.05,.32-.05,.56-.19,.73-.41,.16-.23,.21-.49,.16-.79Z"/><path class="cls-33" d="M97.65,145.04c-.08-.09-.13-.2-.13-.32,0-.43,.07-1.07,.23-1.94,.16-.86,.36-1.76,.6-2.69s.49-1.8,.76-2.62c.27-.81,.5-1.39,.7-1.72,.08-.13,.31-.24,.7-.35,.39-.1,.81-.18,1.28-.22,.47-.04,.92-.04,1.35,0s.74,.14,.91,.3c.25,.24,.54,.76,.88,1.57,.34,.81,.67,1.69,.99,2.64,.32,.95,.61,1.87,.87,2.74,.26,.88,.43,1.49,.51,1.86,.06,.27,.04,.45-.05,.55-.09,.1-.25,.18-.48,.22-.39,.07-.87,.12-1.45,.15-.58,.03-.94,.04-1.08,.02-.06,0-.11-.03-.16-.06-.16-.1-.31-.38-.46-.84s-.29-.78-.43-.95c-.08-.1-.19-.16-.33-.18h-1.09c-.34,0-.56,.11-.66,.33-.13,.28-.28,.59-.45,.93-.17,.34-.29,.55-.37,.63-.04,.05-.1,.08-.18,.1-.18,.04-.61,.05-1.28,.03-.67-.02-1.06-.09-1.15-.2Zm4.3-5.85c-.15,.15-.29,.41-.43,.78-.14,.36-.2,.6-.16,.72,.07,.19,.35,.28,.86,.26,.51-.02,.78-.14,.83-.37,.03-.14-.11-.45-.4-.94-.29-.49-.52-.64-.7-.45Z"/><path class="cls-33" d="M114.4,141.01c.45,.38,.85,.74,1.19,1.09,.34,.35,.51,.62,.52,.8,0,.13-.07,.32-.22,.57s-.31,.5-.5,.76-.37,.47-.55,.66c-.18,.19-.3,.29-.36,.29-.29,.06-.71-.09-1.26-.45s-.99-.59-1.33-.71c-.33-.1-.5-.06-.53,.13,0,.32-.02,.56-.09,.73-.06,.17-.28,.27-.65,.31-.42,.04-.91,.07-1.46,.07s-.89,0-1.04-.04c-.1-.02-.18-.08-.25-.17-.09-.12-.18-.67-.29-1.64s-.18-2.04-.24-3.18c-.06-1.14-.08-2.19-.08-3.14,0-.95,.08-1.47,.21-1.54,.48-.27,1.13-.46,1.94-.58s1.61-.1,2.42,.06,1.52,.49,2.15,.99c.63,.5,1.02,1.24,1.16,2.2,.18,1.29-.07,2.22-.76,2.79Zm-3.33-1.26c.34-.04,.6-.16,.78-.37s.28-.43,.27-.66c0-.23-.11-.43-.32-.6s-.54-.23-.98-.18c-.36,.04-.51,.36-.43,.96,.08,.6,.3,.89,.67,.85Z"/><path class="cls-33" d="M116.67,145.04c-.08-.09-.13-.2-.13-.32,0-.43,.07-1.07,.23-1.94,.16-.86,.36-1.76,.6-2.69s.49-1.8,.76-2.62c.27-.81,.5-1.39,.7-1.72,.08-.13,.31-.24,.7-.35,.39-.1,.81-.18,1.28-.22,.47-.04,.92-.04,1.35,0s.74,.14,.91,.3c.25,.24,.54,.76,.88,1.57,.34,.81,.67,1.69,.99,2.64,.32,.95,.61,1.87,.87,2.74,.26,.88,.43,1.49,.51,1.86,.06,.27,.04,.45-.05,.55-.09,.1-.25,.18-.48,.22-.39,.07-.87,.12-1.45,.15-.58,.03-.94,.04-1.08,.02-.06,0-.11-.03-.16-.06-.16-.1-.31-.38-.46-.84s-.29-.78-.43-.95c-.08-.1-.19-.16-.33-.18h-1.09c-.34,0-.56,.11-.66,.33-.13,.28-.28,.59-.45,.93-.17,.34-.29,.55-.37,.63-.04,.05-.1,.08-.18,.1-.18,.04-.61,.05-1.28,.03-.67-.02-1.06-.09-1.15-.2Zm4.3-5.85c-.15,.15-.29,.41-.43,.78-.14,.36-.2,.6-.16,.72,.07,.19,.35,.28,.86,.26,.51-.02,.78-.14,.83-.37,.03-.14-.11-.45-.4-.94-.29-.49-.52-.64-.7-.45Z"/><path class="cls-33" d="M135.3,141.74c.77,0,1.47-.03,2.09-.07,.62-.04,.99,0,1.1,.13,.12,.1,.21,.52,.26,1.27s.03,1.29-.06,1.62c-.04,.14-.39,.26-1.04,.35-.65,.09-1.38,.16-2.19,.19-.81,.03-1.58,.04-2.33,.02-.74-.02-1.23-.08-1.45-.18-.13-.05-.24-.41-.33-1.07-.09-.66-.15-1.43-.2-2.32s-.08-1.79-.09-2.71,0-1.67,.03-2.25c0-.32,.03-.61,.08-.87,.05-.26,.13-.43,.25-.49,.11-.07,.5-.12,1.17-.17,.67-.05,1.39-.08,2.16-.09,.77-.01,1.49,0,2.15,.04,.66,.04,1.04,.11,1.13,.2,.12,.1,.19,.48,.2,1.15,.02,.67-.03,1.17-.12,1.52-.05,.16-.36,.26-.93,.29-.57,.04-1.24,.07-2.01,.1,0,.05,0,.11,0,.19,0,.07,0,.13,.01,.19,.5,0,.91,.05,1.22,.11,.08,.02,.15,.15,.22,.39,.07,.24,.12,.5,.15,.79s.03,.55,0,.79c-.03,.24-.11,.37-.23,.39-.09,.03-.25,.05-.48,.07-.23,.02-.49,.03-.77,.04v.39Z"/><path class="cls-33" d="M144.02,138.38c-.09,0-.18-.02-.25-.07-.09-.07-.14-.14-.14-.22,0-.08-.05-.15-.14-.23-.22-.17-.5-.14-.84,.09s-.2,.42,.42,.54c.07,.01,.14,.03,.22,.04,.08,.02,.16,.03,.25,.04,1.02,.18,1.82,.48,2.41,.91,.72,.53,1.14,1.22,1.25,2.08s-.13,1.62-.71,2.3c-.69,.8-1.62,1.26-2.8,1.38-1.18,.12-2.2-.13-3.05-.74-.74-.52-1.2-1.17-1.39-1.96-.08-.37,.11-.66,.56-.86,.2-.09,.42-.16,.66-.2,.24-.04,.47-.06,.69-.07,.36,0,.69,.04,.98,.13,.29,.09,.46,.21,.5,.37,0,.03,.02,.06,.03,.09,.05,.11,.14,.19,.28,.25,.16,.07,.35,.06,.57-.03s.28-.23,.19-.44c-.05-.1-.18-.18-.4-.24-.52-.15-1.03-.26-1.54-.34-.51-.08-1-.29-1.46-.63-.33-.24-.59-.57-.78-.98-.19-.42-.25-.97-.19-1.65,.09-.92,.53-1.68,1.33-2.28,.47-.35,1-.58,1.6-.7,.6-.12,1.18-.12,1.75,0,.57,.12,1.08,.35,1.53,.7,.45,.35,.77,.82,.94,1.4,.07,.23,0,.42-.19,.58s-.43,.3-.72,.4c-.29,.11-.58,.19-.88,.24-.3,.05-.53,.08-.68,.09Z"/><path class="cls-33" d="M157.61,140.91c-.07,.4-.17,.78-.31,1.13,.33,.4,.5,.69,.5,.89,.03,.15-.2,.51-.69,1.09-.49,.58-.87,.95-1.15,1.12-.09,.06-.24,.05-.44-.02-.2-.07-.43-.18-.67-.33-.46,.23-.97,.38-1.54,.44-1.39,.15-2.62-.21-3.69-1.11-1.07-.89-1.68-2.02-1.83-3.39-.15-1.33,.19-2.56,1.02-3.7,.82-1.13,1.91-1.79,3.27-1.96,.86-.11,1.66-.03,2.39,.26,.73,.28,1.35,.7,1.86,1.24,.51,.55,.88,1.2,1.12,1.95s.29,1.55,.16,2.38Zm-3.65-.57c.13-.83-.23-1.32-1.06-1.47-.42-.07-.77,.05-1.06,.36-.29,.31-.42,.67-.37,1.07,.04,.35,.19,.64,.46,.87,.27,.23,.59,.32,.94,.28,.62-.08,.99-.44,1.09-1.11Z"/><path class="cls-33" d="M164.87,135.67c0-.12,.18-.21,.54-.28,.35-.07,.75-.1,1.18-.11,.43,0,.84,.03,1.21,.1,.38,.07,.6,.19,.67,.34,.09,.23,.16,.64,.2,1.22s.04,1.21,.02,1.89c-.02,.68-.08,1.35-.18,2-.1,.65-.23,1.17-.4,1.55-.37,.81-.91,1.48-1.63,1.99s-1.53,.8-2.45,.88c-1.16,.08-2.24-.2-3.24-.85s-1.69-1.51-2.08-2.58c-.13-.35-.22-.85-.27-1.5-.06-.65-.08-1.32-.08-1.99,0-.67,.04-1.28,.12-1.83s.19-.9,.33-1.04c.12-.12,.38-.2,.78-.24,.39-.04,.8-.05,1.22-.03,.42,.02,.8,.07,1.13,.15,.33,.08,.49,.18,.49,.3,0,.34-.04,.83-.09,1.45-.05,.62-.06,1.24-.04,1.86,.02,.62,.12,1.16,.28,1.63,.16,.47,.45,.73,.87,.77,.45,.05,.77-.15,.97-.62s.32-1.02,.38-1.66c.06-.64,.08-1.29,.06-1.94s-.02-1.13,0-1.45Z"/><path class="cls-33" d="M173.47,141.74c.77,0,1.47-.03,2.09-.07,.62-.04,.99,0,1.1,.13,.12,.1,.21,.52,.26,1.27s.03,1.29-.06,1.62c-.04,.14-.39,.26-1.04,.35-.65,.09-1.38,.16-2.19,.19-.81,.03-1.58,.04-2.33,.02-.74-.02-1.23-.08-1.45-.18-.13-.05-.24-.41-.33-1.07-.09-.66-.15-1.43-.2-2.32s-.08-1.79-.09-2.71,0-1.67,.03-2.25c0-.32,.03-.61,.08-.87,.05-.26,.13-.43,.25-.49,.11-.07,.5-.12,1.17-.17,.67-.05,1.39-.08,2.16-.09,.77-.01,1.49,0,2.15,.04,.66,.04,1.04,.11,1.13,.2,.12,.1,.19,.48,.2,1.15,.02,.67-.03,1.17-.12,1.52-.05,.16-.36,.26-.93,.29-.57,.04-1.24,.07-2.01,.1,0,.05,0,.11,0,.19,0,.07,0,.13,.01,.19,.5,0,.91,.05,1.22,.11,.08,.02,.15,.15,.22,.39,.07,.24,.12,.5,.15,.79s.03,.55,0,.79c-.03,.24-.11,.37-.23,.39-.09,.03-.25,.05-.48,.07-.23,.02-.49,.03-.77,.04v.39Z"/><path class="cls-33" d="M184.53,141.01c.45,.38,.85,.74,1.19,1.09,.34,.35,.51,.62,.52,.8,0,.13-.07,.32-.22,.57s-.31,.5-.5,.76-.37,.47-.55,.66c-.18,.19-.3,.29-.36,.29-.29,.06-.71-.09-1.26-.45s-.99-.59-1.33-.71c-.33-.1-.5-.06-.53,.13,0,.32-.02,.56-.09,.73-.06,.17-.28,.27-.65,.31-.42,.04-.91,.07-1.46,.07s-.89,0-1.04-.04c-.1-.02-.18-.08-.25-.17-.09-.12-.18-.67-.29-1.64s-.18-2.04-.24-3.18c-.06-1.14-.08-2.19-.08-3.14,0-.95,.08-1.47,.21-1.54,.48-.27,1.13-.46,1.94-.58s1.61-.1,2.42,.06,1.52,.49,2.15,.99c.63,.5,1.02,1.24,1.16,2.2,.18,1.29-.07,2.22-.76,2.79Zm-3.33-1.26c.34-.04,.6-.16,.78-.37s.28-.43,.27-.66c0-.23-.11-.43-.32-.6s-.54-.23-.98-.18c-.36,.04-.51,.36-.43,.96,.08,.6,.3,.89,.67,.85Z"/><path class="cls-33" d="M195.19,142.29c-.49,1.15-1.26,1.94-2.32,2.37-1.06,.43-2.17,.63-3.33,.61-.4,0-.78-.04-1.15-.08-.37-.05-.64-.1-.8-.18-.26-.11-.46-.63-.62-1.58-.15-.95-.25-1.99-.28-3.11-.03-1.13,0-2.18,.09-3.15s.27-1.54,.52-1.69c.25-.16,.64-.28,1.15-.35,.83-.11,1.72-.1,2.68,.03s1.78,.47,2.44,1c.88,.71,1.47,1.65,1.79,2.81,.32,1.17,.26,2.27-.18,3.31Zm-5.01-2.97c-.08,.24-.09,.6-.05,1.07s.14,.75,.29,.83c.07,.04,.21,.06,.42,.05,.35,0,.64-.09,.88-.24,.24-.15,.37-.37,.4-.66,.03-.36-.1-.66-.39-.91-.29-.25-.59-.39-.91-.42-.13,0-.26,0-.39,.03s-.22,.11-.26,.25Z"/><path class="cls-33" d="M196.45,145.04c-.08-.09-.13-.2-.13-.32,0-.43,.07-1.07,.23-1.94,.16-.86,.36-1.76,.6-2.69s.49-1.8,.76-2.62c.27-.81,.5-1.39,.7-1.72,.08-.13,.31-.24,.7-.35,.39-.1,.81-.18,1.28-.22,.47-.04,.92-.04,1.35,0s.74,.14,.91,.3c.25,.24,.54,.76,.88,1.57,.34,.81,.67,1.69,.99,2.64,.32,.95,.61,1.87,.87,2.74,.26,.88,.43,1.49,.51,1.86,.06,.27,.04,.45-.05,.55-.09,.1-.25,.18-.48,.22-.39,.07-.87,.12-1.45,.15-.58,.03-.94,.04-1.08,.02-.06,0-.11-.03-.16-.06-.16-.1-.31-.38-.46-.84s-.29-.78-.43-.95c-.08-.1-.19-.16-.33-.18h-1.09c-.34,0-.56,.11-.66,.33-.13,.28-.28,.59-.45,.93-.17,.34-.29,.55-.37,.63-.04,.05-.1,.08-.18,.1-.18,.04-.61,.05-1.28,.03-.67-.02-1.06-.09-1.15-.2Zm4.3-5.85c-.15,.15-.29,.41-.43,.78-.14,.36-.2,.6-.16,.72,.07,.19,.35,.28,.86,.26,.51-.02,.78-.14,.83-.37,.03-.14-.11-.45-.4-.94-.29-.49-.52-.64-.7-.45Z"/></g><ellipse class="cls-13" cx="128.25" cy="59.74" rx="56.99" ry="55.27"/><path class="cls-13" d="M105.6,54.63c-.36,.44-.37,1.33,.03,1.74,.47,.48,1.53,.32,1.88-.36,.18-.36,.25-1.03-.1-1.43-.44-.49-1.39-.44-1.8,.06Z"/><g><g><path class="cls-2" d="M155.37,93.12c-6.13-.18-10.97-5.49-10.8-11.86,.17-6.37,5.29-11.39,11.42-11.21,6.13,.18,10.97,5.49,10.8,11.86-.17,6.37-5.29,11.39-11.42,11.21"/><path class="cls-2" d="M155.88,93.14c-6.13-.18-10.97-5.49-10.8-11.86,.17-6.37,5.29-11.39,11.42-11.21s10.97,5.49,10.8,11.86c-.17,6.37-5.29,11.39-11.42,11.21"/></g><path class="cls-2" d="M190.78,84.64l-47.5-1.39c-3.31-.1-5.92-2.96-5.82-6.4h0c.09-3.44,2.85-6.14,6.16-6.05l47.5,1.39c3.31,.1,5.92,2.96,5.82,6.4h0c-.09,3.44-2.85,6.14-6.16,6.05Z"/><g><path class="cls-13" d="M190.77,84.86l-47.5-1.39c-3.31-.1-5.92-2.96-5.82-6.4h0c.09-3.44,2.85-6.14,6.16-6.05l47.5,1.39c3.31,.1,5.92,2.96,5.82,6.4h0c-.09,3.44-2.85,6.14-6.16,6.05Z"/><g class="cls-30"><path class="cls-2" d="M193.96,82.8c2.22,.06,4.11-1.64,4.37-3.93,.27-2.47,.55-5.39,.59-7.19,.16-8.27,.35-17.96-4.14-26.51-6.73-12.85-20.58-16.62-23.23-17.29-1.24-.31-21.43-5.07-30.44,6.53-.82,1.05-3.2,4.38-4.48,17.96-.85,9.05-.68,16.93-.19,23.17,.25,3.2,2.79,5.68,5.88,5.77,8.03,.23,16.06,.47,24.1,.7,9.18,.27,18.37,.54,27.55,.8Z"/></g><path class="cls-1" d="M190.77,84.86l-47.5-1.39c-3.31-.1-5.92-2.96-5.82-6.4h0c.09-3.44,2.85-6.14,6.16-6.05l47.5,1.39c3.31,.1,5.92,2.96,5.82,6.4h0c-.09,3.44-2.85,6.14-6.16,6.05Z"/></g><path class="cls-2" d="M193.75,80.93c2.22,.06,4.11-1.64,4.37-3.93,.27-2.47,.55-5.39,.59-7.19,.16-8.27,.35-17.96-4.14-26.51-6.73-12.85-20.58-16.62-23.23-17.29-1.24-.31-21.43-5.07-30.44,6.53-.82,1.05-3.2,4.38-4.48,17.96-.85,9.05-.68,16.93-.19,23.17,.25,3.2,2.79,5.68,5.88,5.77,8.03,.23,16.06,.47,24.1,.7,9.18,.27,18.37,.54,27.55,.8Z"/><path class="cls-2" d="M193.79,80.94c2.2,.06,4.07-1.62,4.32-3.88,.27-2.43,.55-5.31,.58-7.09,.16-8.15,.34-17.71-4.1-26.15-6.67-12.67-19.3-16.37-21.93-17.02-1.23-.31,31.76,14.43,11.39,40.44-7.98,10.19-45.07,10.23-47.04-16.32-.68-9.13-1.17,17.15-.5,23.04,.35,3.14,3.08,5.4,6.14,5.49,7.95,.23,15.91,.46,23.86,.7,9.09,.27,18.19,.53,27.28,.8Z"/><path class="cls-3" d="M149.73,59.59c11.69,2.72,27.43-9.88,25.93-19.41-1.21-7.7-13.4-11.58-19.36-12.43-6.02-.85-9.14,.89-9.89,1.34-3.37,2.01-4.82,5.2-5.61,6.95-.57,1.26-4.6,10.48,.24,17.65,3.04,4.5,7.89,5.7,8.69,5.89Z"/><path class="cls-2" d="M138.38,66.09c-.1-9.45-.26-15.15-.32-19.72-.03-2.19,.16-4.38,.95-5.59,4.06-6.23,17.73-9.85,27.62-2.22,3.91,3.02,5.27,8.57,5.32,14.03,.04,4.92-1.5,10.11-4.88,14.55"/><path class="cls-2" d="M180.45,95.57c-6.29-.18-11.25-5.63-11.07-12.17s5.42-11.68,11.71-11.5c6.29,.18,11.25,5.63,11.07,12.17-.18,6.54-5.42,11.68-11.71,11.5"/><path class="cls-2" d="M181.53,94.26c-5.58-.16-9.98-5-9.82-10.8,.16-5.8,4.81-10.37,10.39-10.21s9.98,5,9.82,10.8c-.16,5.8-4.81,10.37-10.39,10.21"/><path class="cls-10" d="M139.02,65.36c-.1-9.15-.9-14.76-.95-19.19-.03-2.12,.16-4.24,.92-5.41,3.93-6.03,17.17-9.54,26.74-2.15,3.79,2.92,5.1,8.3,5.15,13.58,.04,4.76-1.45,9.79-4.73,14.09"/><path class="cls-2" d="M139.02,65.49c-.1-9.09-.25-14.56-.31-18.96-.03-2.1,.15-4.21,.91-5.37,3.9-5.99,17.05-9.47,26.55-2.13,3.76,2.9,5.06,8.24,5.11,13.49,.04,4.73-1.44,9.72-4.69,13.99"/><path class="cls-10" d="M139.73,54.51c.07-4.65,1.48-8.73,3.36-9.91,2.29-1.44,4.44,1.98,5.03,6.01,.25,1.71,.15,5.75,.07,6.76-.09,.03-.15,.15-.17-.19-.1-2.34-.51-4.4-1.35-6.33-.46-1.06-1.11-2.14-1.93-2.72-1.34-.94-2.33,.02-2.98,.8-.89,1.08-1.21,2.19-1.57,3.32"/><path class="cls-2" d="M139.72,55.16c.07-4.65,1.48-8.73,3.36-9.91,2.29-1.44,4.44,1.98,5.03,6.01,.25,1.71,.15,5.75,.07,6.76-.09,.03-.15,.15-.17-.19-.1-2.34-.51-4.4-1.35-6.33-.46-1.06-1.11-2.14-1.93-2.72-1.34-.94-2.33,.02-2.98,.8-.89,1.08-1.21,2.19-1.57,3.32"/><path class="cls-10" d="M168.58,55.35c.22-4.65-1.97-8.83-5.21-10.16-3.97-1.63-8.04,1.62-9.39,5.59-.57,1.68-.71,5.72-.64,6.74,.16,.04,.26,.16,.31-.17,.36-2.33,1.23-4.34,2.88-6.21,.9-1.02,2.13-2.04,3.64-2.56,2.46-.83,4.14,.21,5.23,1.04,1.5,1.15,1.98,2.28,2.54,3.44"/><path class="cls-2" d="M168.56,56c.22-4.65-1.97-8.83-5.21-10.16-3.97-1.63-8.04,1.62-9.39,5.59-.57,1.68-.71,5.72-.64,6.74,.16,.04,.26,.16,.31-.17,.36-2.33,1.23-4.34,2.88-6.21,.9-1.02,2.13-2.04,3.64-2.56,2.46-.83,4.14,.21,5.23,1.04,1.5,1.15,1.98,2.28,2.54,3.44"/><path class="cls-4" d="M158.34,46.38c-.65,.16-1.19,.94-1,1.36,.18,.41,1.09,.53,1.58,.09,.34-.3,.54-.91,.28-1.25-.26-.34-.82-.21-.87-.2Z"/><g><path class="cls-13" d="M181.53,94.26c-5.58-.16-9.98-5-9.82-10.8,.16-5.8,4.81-10.37,10.39-10.21s9.98,5,9.82,10.8c-.16,5.8-4.81,10.37-10.39,10.21"/><g class="cls-24"><polygon class="cls-2" points="193.92 81.16 169.24 80.44 169.39 74.81 194.07 75.53 193.92 81.16"/></g><path class="cls-1" d="M181.53,94.26c-5.58-.16-9.98-5-9.82-10.8,.16-5.8,4.81-10.37,10.39-10.21s9.98,5,9.82,10.8c-.16,5.8-4.81,10.37-10.39,10.21"/></g><path class="cls-2" d="M182.41,91.99c-4.34-.13-7.76-3.88-7.64-8.39s3.74-8.06,8.08-7.93c4.34,.13,7.76,3.88,7.64,8.39s-3.74,8.06-8.08,7.93"/><path class="cls-2" d="M182.42,91.41c-4.03-.12-7.2-3.6-7.09-7.79,.11-4.18,3.47-7.48,7.5-7.36,4.03,.12,7.2,3.6,7.09,7.79-.11,4.18-3.47,7.48-7.5,7.36"/><path class="cls-2" d="M177.07,80.87c.37,.89,3.64,3.21,5.64,2.88,.58-2.44-.61-5.51-1.5-6.44-.95-.99-4.76,2.07-4.14,3.55Z"/><path class="cls-2" d="M188.39,86.72c-.37-.89-3.64-3.21-5.64-2.88-.58,2.44,.61,5.51,1.5,6.44,.95,.99,4.76-2.07,4.14-3.56Z"/><path class="cls-2" d="M179.71,89.61c.86-.37,3.16-3.72,2.88-5.81-2.34-.64-5.31,.53-6.22,1.44-.97,.97,1.9,4.98,3.35,4.37Z"/><path class="cls-2" d="M185.54,77.96c-.86,.37-3.16,3.72-2.87,5.81,2.34,.64,5.31-.54,6.22-1.44,.97-.97-1.91-4.98-3.35-4.37Z"/><g><g><path class="cls-2" d="M194.04,79.82c.16-.9,.53-3.58,.41-5.14-.24-3.03-.8-5.22-3.26-8.18-2.07-2.49-4.63-3.31-6-3.73-1.13-.35-4.98-1.46-9.33,.4-.98,.42-5.34,2.42-7.38,7.57-1.47,3.72-.93,7.05-.65,8.32l26.21,.77Z"/><path class="cls-2" d="M193.04,79.23c.12-.65,.39-2.6,.3-3.73-.17-2.2-.58-3.79-2.37-5.94-1.5-1.81-3.36-2.41-4.36-2.71-.82-.25-3.61-1.06-6.77,.29-.71,.3-3.88,1.76-5.36,5.5-1.07,2.7-.67,5.12-.47,6.04l19.03,.56Z"/></g><path class="cls-4" d="M179.8,67.83c-1.38,.33-2.53,2-2.12,2.9,.39,.86,2.32,1.14,3.38,.19,.72-.64,1.15-1.94,.61-2.66-.55-.72-1.76-.45-1.86-.42Z"/></g></g><g><g><path class="cls-32" d="M155.15,92.78c-6.13-.18-10.97-5.46-10.8-11.8,.17-6.34,5.29-11.34,11.42-11.16s10.97,5.46,10.8,11.8-5.29,11.34-11.42,11.16"/><path class="cls-23" d="M155.66,92.8c-6.13-.18-10.97-5.46-10.8-11.8s5.29-11.34,11.42-11.16,10.97,5.46,10.8,11.8c-.17,6.34-5.29,11.34-11.42,11.16"/></g><path class="cls-26" d="M190.56,84.34l-47.5-1.38c-3.31-.1-5.92-2.95-5.82-6.37h0c.09-3.42,2.85-6.11,6.16-6.02l47.5,1.38c3.31,.1,5.92,2.95,5.82,6.37h0c-.09,3.42-2.85,6.11-6.16,6.02Z"/><g class="cls-19"><path class="cls-18" d="M193.74,82.51c2.22,.06,4.11-1.64,4.37-3.91,.27-2.46,.55-5.36,.59-7.16,.16-8.23,.35-17.87-4.14-26.38-6.73-12.78-20.58-16.54-23.23-17.2-1.24-.31-21.43-5.05-30.44,6.49-.82,1.05-3.2,4.35-4.48,17.87-.85,9-.68,16.85-.19,23.05,.25,3.18,2.79,5.65,5.88,5.74,8.03,.23,16.06,.47,24.1,.7,9.18,.27,18.37,.53,27.55,.8Z"/></g><path class="cls-9" d="M193.53,80.65c2.22,.06,4.11-1.64,4.37-3.91,.27-2.46,.55-5.36,.59-7.16,.16-8.23,.35-17.87-4.14-26.38-6.73-12.78-20.58-16.54-23.23-17.2-1.24-.31-21.43-5.05-30.44,6.49-.82,1.05-3.2,4.35-4.48,17.87-.85,9-.68,16.85-.19,23.05,.25,3.18,2.79,5.65,5.88,5.74,8.03,.23,16.06,.47,24.1,.7,9.18,.27,18.37,.53,27.55,.8Z"/><path class="cls-25" d="M193.57,80.66c2.2,.06,4.07-1.61,4.32-3.86,.27-2.42,.55-5.29,.58-7.06,.16-8.11,.34-17.62-4.1-26.02-6.67-12.61-19.3-16.29-21.93-16.94-1.23-.3,31.76,14.36,11.39,40.24-7.98,10.14-45.07,10.18-47.04-16.24-.68-9.09-1.17,17.06-.5,22.93,.35,3.13,3.08,5.38,6.14,5.47,7.95,.23,15.91,.46,23.86,.69,9.09,.26,18.19,.53,27.28,.79Z"/><path class="cls-16" d="M149.51,59.42c11.69,2.7,27.43-9.83,25.93-19.31-1.21-7.66-13.4-11.52-19.36-12.37-6.02-.85-9.14,.89-9.89,1.34-3.37,2-4.82,5.18-5.61,6.92-.57,1.25-4.6,10.43,.24,17.56,3.04,4.47,7.89,5.67,8.69,5.86Z"/><path class="cls-23" d="M138.16,65.89c-.1-9.41-.26-15.07-.32-19.62-.03-2.17,.16-4.36,.95-5.56,4.06-6.19,17.73-9.8,27.62-2.21,3.91,3.01,5.27,8.53,5.32,13.96,.04,4.9-1.5,10.06-4.88,14.48"/><path class="cls-23" d="M180.23,95.21c-6.29-.18-11.25-5.6-11.07-12.11,.18-6.5,5.42-11.63,11.71-11.44,6.29,.18,11.25,5.6,11.07,12.11s-5.42,11.63-11.71,11.44"/><path class="cls-32" d="M181.32,93.92c-5.58-.16-9.98-4.97-9.82-10.74,.16-5.77,4.81-10.32,10.39-10.15s9.98,4.97,9.82,10.74c-.16,5.77-4.81,10.32-10.39,10.15"/><path class="cls-14" d="M138.8,65.15c-.1-9.11-.9-14.69-.95-19.09-.03-2.11,.16-4.22,.92-5.38,3.93-6,17.17-9.49,26.74-2.14,3.79,2.91,5.1,8.26,5.15,13.52,.04,4.74-1.45,9.74-4.73,14.02"/><path class="cls-28" d="M138.8,65.29c-.1-9.04-.25-14.49-.31-18.86-.03-2.09,.15-4.19,.91-5.34,3.9-5.96,17.05-9.42,26.55-2.12,3.76,2.89,5.06,8.2,5.11,13.42,.04,4.71-1.44,9.68-4.69,13.92"/><path class="cls-14" d="M139.51,54.36c.07-4.63,1.48-8.69,3.36-9.86,2.29-1.44,4.44,1.97,5.03,5.98,.25,1.7,.15,5.72,.07,6.73-.09,.03-.15,.15-.17-.19-.1-2.33-.51-4.37-1.35-6.3-.46-1.06-1.11-2.13-1.93-2.7-1.34-.94-2.33,.02-2.98,.8-.89,1.08-1.21,2.18-1.57,3.3"/><path class="cls-33" d="M139.5,55c.07-4.63,1.48-8.69,3.36-9.86,2.29-1.44,4.44,1.97,5.03,5.98,.25,1.7,.15,5.72,.07,6.73-.09,.03-.15,.15-.17-.19-.1-2.33-.51-4.37-1.35-6.3-.46-1.06-1.11-2.13-1.93-2.7-1.34-.94-2.33,.02-2.98,.8-.89,1.08-1.21,2.18-1.57,3.3"/><path class="cls-14" d="M168.36,55.2c.22-4.62-1.97-8.79-5.21-10.11-3.97-1.62-8.04,1.61-9.39,5.57-.57,1.67-.71,5.69-.64,6.71,.16,.04,.26,.16,.31-.17,.36-2.31,1.23-4.32,2.88-6.18,.9-1.02,2.13-2.03,3.64-2.54,2.46-.83,4.14,.2,5.23,1.04,1.5,1.15,1.98,2.27,2.54,3.42"/><path class="cls-33" d="M168.35,55.84c.22-4.62-1.97-8.79-5.21-10.11-3.97-1.62-8.04,1.61-9.39,5.57-.57,1.67-.71,5.69-.64,6.71,.16,.04,.26,.16,.31-.17,.36-2.31,1.23-4.32,2.88-6.18,.9-1.02,2.13-2.03,3.64-2.54,2.46-.83,4.14,.2,5.23,1.04,1.5,1.15,1.98,2.27,2.54,3.42"/><path class="cls-15" d="M158.12,46.27c-.65,.16-1.19,.93-1,1.35,.18,.4,1.09,.53,1.58,.09,.34-.3,.54-.91,.28-1.24-.26-.34-.82-.21-.87-.2Z"/><g class="cls-31"><polygon class="cls-17" points="193.7 80.88 169.02 80.17 169.17 74.56 193.85 75.28 193.7 80.88"/></g><path class="cls-23" d="M182.19,91.66c-4.34-.13-7.76-3.86-7.64-8.35,.12-4.49,3.74-8.02,8.08-7.89,4.34,.13,7.76,3.86,7.64,8.35s-3.74,8.02-8.08,7.89"/><path class="cls-25" d="M182.2,91.08c-4.03-.12-7.2-3.59-7.09-7.75s3.47-7.44,7.5-7.33c4.03,.12,7.2,3.59,7.09,7.75s-3.47,7.44-7.5,7.33"/><path class="cls-27" d="M176.85,80.59c.37,.88,3.64,3.2,5.64,2.87,.58-2.43-.61-5.48-1.5-6.4-.95-.99-4.76,2.06-4.14,3.54Z"/><path class="cls-27" d="M188.17,86.41c-.37-.88-3.64-3.2-5.64-2.87-.58,2.43,.61,5.48,1.5,6.4,.95,.99,4.76-2.06,4.14-3.54Z"/><path class="cls-27" d="M179.5,89.29c.86-.36,3.16-3.7,2.88-5.78-2.34-.64-5.31,.53-6.22,1.43-.97,.97,1.9,4.95,3.35,4.35Z"/><path class="cls-27" d="M185.33,77.7c-.86,.36-3.16,3.7-2.87,5.78,2.34,.64,5.31-.53,6.22-1.44,.97-.97-1.91-4.95-3.35-4.34Z"/><g><g><path class="cls-6" d="M193.83,79.55c.16-.9,.53-3.56,.41-5.12-.24-3.01-.8-5.19-3.26-8.14-2.07-2.48-4.63-3.3-6-3.72-1.13-.34-4.98-1.45-9.33,.39-.98,.42-5.34,2.41-7.38,7.53-1.47,3.7-.93,7.02-.65,8.28l26.21,.76Z"/><path class="cls-27" d="M192.82,78.96c.12-.65,.39-2.58,.3-3.71-.17-2.19-.58-3.77-2.37-5.91-1.5-1.8-3.36-2.39-4.36-2.7-.82-.25-3.61-1.05-6.77,.29-.71,.3-3.88,1.75-5.36,5.47-1.07,2.69-.67,5.1-.47,6.01l19.03,.55Z"/></g><path class="cls-15" d="M179.58,67.61c-1.38,.33-2.53,1.99-2.12,2.88,.39,.86,2.32,1.13,3.38,.19,.72-.64,1.15-1.93,.61-2.65-.55-.72-1.76-.45-1.86-.42Z"/></g></g><g><g><polygon class="cls-25" points="116.13 63.05 114.58 57.61 113.42 62.28 116.13 63.05"/><path class="cls-5" d="M73.55,83.48c1.66,5.96-4.31,10.93-9.6,7.99l-31.63-17.59c-1-.56-1.36-1.86-.79-2.85l17.98-31.41c3-5.25,10.69-4.09,12.35,1.87l11.7,41.99Z"/><path class="cls-11" d="M65.25,75.99c.87,3.09,4.23,4.75,7.21,3.55,.36-.14,.7-.27,1.05-.38,8.91-2.88,22.36,2.37,33.77,13.14,3.42,3.23,9.07,.75,9.07-3.95,0-8.23,.06-16.46,.07-23.59,0-1.16-.37-2.27-1.05-3.2-3.16-4.33-12.31-13.88-29.3-18.12-9.94-2.48-18.62-1.11-24.25,.48-2.86,.81-4.51,3.79-3.7,6.65,2.38,8.48,4.76,16.95,7.14,25.43Z"/><polygon class="cls-11" points="64.01 42.79 57.68 36.28 57.13 45.37 64.01 42.79"/><path class="cls-11" d="M73.12,83.26c1.66,5.96-4.4,10.95-9.73,8.03l-31.94-17.5c-1.01-.55-1.37-1.85-.79-2.85l18.28-31.5c3.05-5.26,10.82-4.12,12.48,1.83l11.7,41.99Z"/><path class="cls-7" d="M63.63,70.35c.87,3.09,.73,6.12,3.7,4.92,.36-.14,4.21-1.64,4.55-1.75,8.91-2.88,22.36,2.37,33.77,13.14,3.42,3.23,9.07,.75,9.07-3.95,0-8.23,.06-16.46,.07-23.59,0-1.16-.37-2.27-1.05-3.2-3.16-4.33-12.31-13.88-29.3-18.12-9.94-2.48-18.64-1.19-24.25,.48-7.5,2.24-4.51,3.79-3.7,6.65,2.38,8.48,4.76,16.95,7.14,25.43Z"/><path class="cls-7" d="M68.72,80.27c1.75,6.29-4.64,11.57-10.28,8.48l-33.74-18.49c-1.07-.58-1.45-1.96-.84-3.01l19.31-33.28c3.23-5.56,11.43-4.36,13.19,1.94l12.37,44.37Z"/><path class="cls-7" d="M116.13,63.05c.03,.08,0,2.63,0,5.64l-3.61,.69,3.61-6.32Z"/></g><path class="cls-22" d="M65.3,76.24c.87,3.09,4.23,4.75,7.21,3.55,.36-.14,.7-.27,1.05-.38,8.91-2.88,22.36,2.37,33.77,13.14,3.42,3.23,9.07,.75,9.07-3.95,0-8.23,.06-16.46,.07-23.59,0-1.16-.37-2.27-1.05-3.2-3.16-4.33-12.31-13.88-29.3-18.12-9.94-2.48-18.62-1.11-24.25,.48-2.86,.81-4.51,3.79-3.7,6.65,2.38,8.48,4.76,16.95,7.14,25.43Z"/><polygon class="cls-25" points="116.13 62.87 114.58 57.43 113.42 62.1 116.13 62.87"/><path class="cls-22" d="M73.55,83.3c1.66,5.96-4.31,10.93-9.6,7.99l-31.63-17.59c-1-.56-1.36-1.86-.79-2.85l17.98-31.41c3-5.25,10.69-4.09,12.35,1.87l11.7,41.99Z"/><path class="cls-25" d="M65.25,75.81c.87,3.09,4.23,4.75,7.21,3.55,.36-.14,.7-.27,1.05-.38,8.91-2.88,22.36,2.37,33.77,13.14,3.42,3.23,9.07,.75,9.07-3.95,0-8.23,.06-16.46,.07-23.59,0-1.16-.37-2.27-1.05-3.2-3.16-4.33-12.31-13.88-29.3-18.12-9.94-2.48-18.62-1.11-24.25,.48-2.86,.81-4.51,3.79-3.7,6.65,2.38,8.48,4.76,16.95,7.14,25.43Z"/><polygon class="cls-22" points="60.27 38.44 53.98 31.91 53.47 40.99 60.27 38.44"/><polygon class="cls-25" points="59.83 38.22 53.49 31.7 52.94 40.79 59.83 38.22"/><path class="cls-25" d="M73.12,83.08c1.66,5.96-4.4,10.95-9.73,8.03l-31.94-17.5c-1.01-.55-1.37-1.85-.79-2.85l18.28-31.5c3.05-5.26,10.82-4.12,12.48,1.83l11.7,41.99Z"/><path class="cls-27" d="M63.63,70.17c.87,3.09,.73,6.12,3.7,4.92,.36-.14,4.21-1.64,4.55-1.75,8.91-2.88,22.36,2.37,33.77,13.14,3.42,3.23,9.07,.75,9.07-3.95,0-8.23,.06-16.46,.07-23.59,0-1.16-.37-2.27-1.05-3.2-3.16-4.33-12.31-13.88-29.3-18.12-9.94-2.48-18.64-1.19-24.25,.48-7.5,2.24-4.51,3.79-3.7,6.65,2.38,8.48,4.76,16.95,7.14,25.43Z"/><path class="cls-27" d="M68.72,80.09c1.75,6.29-4.64,11.57-10.28,8.48l-33.74-18.49c-1.07-.58-1.45-1.96-.84-3.01l19.31-33.28c3.23-5.56,11.43-4.36,13.19,1.94l12.37,44.37Z"/><path class="cls-33" d="M67.06,78.66c1.62,5.8-4.28,10.66-9.48,7.81l-31.09-17.04c-.98-.54-1.34-1.81-.77-2.77l17.79-30.66c2.97-5.13,10.53-4.01,12.15,1.78l11.39,40.88Z"/><path class="cls-33" d="M58.91,72.11c4.36,6.88-10.26,6.77,10.77-.24,10.61-3.54,24.58,2.08,34.27,10.46,3.21,2.78,7.9,1.54,7.91-2.68,0-7.38,.06-14.76,.06-21.16,0-1.04-.33-2.03-.95-2.87-2.87-3.88-11.19-12.45-26.63-16.25-9.03-2.22-17.02-1.43-22.13,0-2.6,.72-11.14,2.53-8.01,7.21,4.39,6.57,.48,18.85,4.71,25.53Z"/><path class="cls-20" d="M60.69,71.57c4.15,6.57-10.56,5.54,9.48-1.11,10.11-3.36,23.95,1.87,33.16,9.88,3.06,2.66,7.54,2.55,7.55-1.47,.01-7.04-.05-13.98-.03-20.07,0-.99-.07-1.94-.66-2.74-2.73-3.7-10.52-12-25.22-15.64-8.6-2.13-17.17-1.56-22.05-.21-2.48,.69-12.38,3.22-9.4,7.68,4.18,6.27,3.15,17.32,7.17,23.69Z"/><path class="cls-29" d="M66.01,77.91c1.54,5.52-3.97,10.12-8.86,7.39l-29.23-16.32c-.92-.52-1.26-1.72-.74-2.64l16.58-29.09c2.77-4.86,9.87-3.78,11.41,1.74l10.85,38.91Z"/><path class="cls-15" d="M54.03,45.68c.53,.85-.28-4.08-1.17-6.76-.63-1.9-1.45-3.3-2.05-3.73-1.2-.86-3.51-1.44-5.78,2.88-2.1,4.01-2.46,4.87-3.7,7.42-.23,.48,3.13-2.82,5.26-3.5,1.05-.34,2.4-.43,3.67,.04,2.19,.83,2.65,1.86,3.76,3.64Z"/><path class="cls-15" d="M107.95,60.53c.09-.77,.17-1.28,.19-1.41,.34-2.48-4.78-8.9-14.18-13.53-3.14-1.55-11.09-5.34-21.22-4.49-4.2,.35-8.71,1.49-8.65,1.97,.05,.43,3.61,.02,7.78,.33,11.63,.85,20.34,7.06,22.54,8.72,7.59,5.76,12.18,13.61,13.22,12.9,.35-.24-.05-1.19,.33-4.5Z"/></g></g></svg>