<?xml version="1.0" encoding="UTF-8"?><svg xmlns="http://www.w3.org/2000/svg" xmlns:xlink="http://www.w3.org/1999/xlink" viewBox="0 0 246.61 161.57"><defs><style>.cls-1,.cls-2,.cls-3,.cls-4,.cls-5,.cls-6,.cls-7,.cls-8{fill:#fff;}.cls-2,.cls-9,.cls-4,.cls-6,.cls-10,.cls-8,.cls-11,.cls-12,.cls-13,.cls-14,.cls-15,.cls-16{stroke-miterlimit:10;}.cls-2,.cls-4,.cls-6,.cls-10,.cls-8,.cls-12,.cls-14,.cls-15,.cls-16{stroke:#fff;}.cls-2,.cls-4,.cls-6,.cls-8,.cls-15{stroke-width:5.67px;}.cls-2,.cls-5{opacity:.8;}.cls-17{fill:#898888;}.cls-3,.cls-8{opacity:.9;}.cls-9,.cls-11{stroke:#fdc729;}.cls-9,.cls-18{fill:#fee18b;}.cls-4,.cls-7{opacity:.19;}.cls-19{fill:#dbdcdb;}.cls-20{clip-path:url(#clippath-2);}.cls-21,.cls-10,.cls-22{fill:#f7d743;}.cls-23{fill:#585657;}.cls-24{clip-path:url(#clippath-1);}.cls-25{clip-path:url(#clippath-4);}.cls-10,.cls-14{stroke-width:8.5px;}.cls-22,.cls-12,.cls-16,.cls-26{font-family:ARCO-Typography-Regular, 'ARCO Typography';}.cls-22,.cls-16{font-size:53.3px;}.cls-27{fill:#eaeaea;}.cls-11,.cls-28{fill:#ffd455;}.cls-29{fill:url(#Gradiente_sem_nome_13);}.cls-30{clip-path:url(#clippath);}.cls-31,.cls-13,.cls-15{fill:none;}.cls-32{clip-path:url(#clippath-3);}.cls-33{fill:#9b9b9b;}.cls-34{fill:#eb7f96;}.cls-12,.cls-35,.cls-14,.cls-26{fill:#27a7d9;}.cls-12,.cls-16{stroke-width:4.97px;}.cls-12,.cls-26{font-size:53.73px;}.cls-13{stroke:#eb7f96;}.cls-16{fill:#f6e06b;}</style><clipPath id="clippath"><path class="cls-6" d="M202.84,100.59l-47.5-1.39c-3.31-.1-5.92-2.96-5.82-6.4h0c.09-3.44,2.85-6.14,6.16-6.05l47.5,1.39c3.31,.1,5.92,2.96,5.82,6.4h0c-.09,3.44-2.85,6.14-6.16,6.05Z"/></clipPath><clipPath id="clippath-1"><path class="cls-6" d="M193.6,110c-5.58-.16-9.98-5-9.82-10.8,.16-5.8,4.81-10.37,10.39-10.21,5.58,.16,9.98,5,9.82,10.8s-4.81,10.37-10.39,10.21"/></clipPath><clipPath id="clippath-2"><path class="cls-31" d="M202.62,100.29l-47.5-1.38c-3.31-.1-5.92-2.95-5.82-6.37h0c.09-3.42,2.85-6.11,6.16-6.02l47.5,1.38c3.31,.1,5.92,2.95,5.82,6.37h0c-.09,3.42-2.85,6.11-6.16,6.02Z"/></clipPath><linearGradient id="Gradiente_sem_nome_13" x1="-298.43" y1="53.86" x2="-298.14" y2="87.75" gradientTransform="translate(493.56 3.96) rotate(1.48) scale(1.09 1) skewX(-.25)" gradientUnits="userSpaceOnUse"><stop offset="0" stop-color="#228dcd"/><stop offset=".06" stop-color="#2e80b1"/><stop offset=".14" stop-color="#3b7395"/><stop offset=".23" stop-color="#45687e"/><stop offset=".33" stop-color="#4e606c"/><stop offset=".45" stop-color="#535a60"/><stop offset=".62" stop-color="#575659"/><stop offset="1" stop-color="#585657"/></linearGradient><clipPath id="clippath-3"><path class="cls-31" d="M193.38,109.65c-5.58-.16-9.98-4.97-9.82-10.74,.16-5.77,4.81-10.32,10.39-10.15s9.98,4.97,9.82,10.74c-.16,5.77-4.81,10.32-10.39,10.15"/></clipPath><clipPath id="clippath-4"><rect class="cls-31" x="88.29" y="7.46" width="58.38" height="109.96"/></clipPath></defs><g id="Camada_2"><rect class="cls-34" x="0" y="-.05" width="246.61" height="161.57"/><ellipse class="cls-1" cx="125.63" cy="58.02" rx="56.99" ry="55.27"/><rect class="cls-1" x="109.91" y="42.26" width="31.43" height="198.75" rx="11.22" ry="11.22" transform="translate(267.26 16.01) rotate(90)"/><rect class="cls-13" x="31.17" y="129.22" width="188.92" height="24.82" rx="7.77" ry="7.77"/></g><g id="Camada_3"><path class="cls-10" d="M76.06,87.54l-24.26-14.18c-2.08-1.33-3.44-4.48-3.44-7.98v-9.15c0-3.57,1.41-6.76,3.55-8.04l23.41-14.71c3.63-2.17,10.4,.96,10.4,7.01v41.67c0,6.13-6.01,7.71-9.65,5.39Z"/><rect class="cls-10" x="38.78" y="47.44" width="22.37" height="27.02" rx="6.87" ry="6.87"/><path class="cls-14" d="M74.05,86.17l-24.26-14.18c-2.08-1.33-3.44-4.48-3.44-7.98v-9.15c0-3.57,1.41-6.76,3.55-8.04l23.41-14.71c3.63-2.17,10.4,.96,10.4,7.01v41.67c0,6.13-6.01,7.71-9.65,5.39Z"/><rect class="cls-14" x="36.77" y="46.06" width="22.37" height="27.02" rx="6.87" ry="6.87"/><path class="cls-21" d="M75.07,87.5l-24.26-14.18c-2.08-1.33-3.44-4.48-3.44-7.98v-9.15c0-3.57,1.41-6.76,3.55-8.04l23.41-14.71c3.63-2.17,10.4,.96,10.4,7.01v41.67c0,6.13-6.01,7.71-9.65,5.39Z"/><rect class="cls-21" x="37.79" y="47.39" width="22.37" height="27.02" rx="6.87" ry="6.87"/><g><g><path class="cls-6" d="M167.43,108.86c-6.13-.18-10.97-5.49-10.8-11.86s5.29-11.39,11.42-11.21c6.13,.18,10.97,5.49,10.8,11.86-.17,6.37-5.29,11.39-11.42,11.21"/><path class="cls-6" d="M167.95,108.87c-6.13-.18-10.97-5.49-10.8-11.86,.17-6.37,5.29-11.39,11.42-11.21s10.97,5.49,10.8,11.86c-.17,6.37-5.29,11.39-11.42,11.21"/></g><path class="cls-6" d="M202.84,100.37l-47.5-1.39c-3.31-.1-5.92-2.96-5.82-6.4h0c.09-3.44,2.85-6.14,6.16-6.05l47.5,1.39c3.31,.1,5.92,2.96,5.82,6.4h0c-.09,3.44-2.85,6.14-6.16,6.05Z"/><g><path class="cls-1" d="M202.84,100.59l-47.5-1.39c-3.31-.1-5.92-2.96-5.82-6.4h0c.09-3.44,2.85-6.14,6.16-6.05l47.5,1.39c3.31,.1,5.92,2.96,5.82,6.4h0c-.09,3.44-2.85,6.14-6.16,6.05Z"/><g class="cls-30"><path class="cls-6" d="M206.03,98.53c2.22,.06,4.11-1.64,4.37-3.93,.27-2.47,.55-5.39,.59-7.19,.16-8.27,.35-17.96-4.14-26.51-6.73-12.85-20.58-16.62-23.23-17.29-1.24-.31-21.43-5.07-30.44,6.53-.82,1.05-3.2,4.38-4.48,17.96-.85,9.05-.68,16.93-.19,23.17,.25,3.2,2.79,5.68,5.88,5.77,8.03,.23,16.06,.47,24.1,.7,9.18,.27,18.37,.54,27.55,.8Z"/></g><path class="cls-15" d="M202.84,100.59l-47.5-1.39c-3.31-.1-5.92-2.96-5.82-6.4h0c.09-3.44,2.85-6.14,6.16-6.05l47.5,1.39c3.31,.1,5.92,2.96,5.82,6.4h0c-.09,3.44-2.85,6.14-6.16,6.05Z"/></g><path class="cls-6" d="M205.81,96.67c2.22,.06,4.11-1.64,4.37-3.93,.27-2.47,.55-5.39,.59-7.19,.16-8.27,.35-17.96-4.14-26.51-6.73-12.85-20.58-16.62-23.23-17.29-1.24-.31-21.43-5.07-30.44,6.53-.82,1.05-3.2,4.38-4.48,17.96-.85,9.05-.68,16.93-.19,23.17,.25,3.2,2.79,5.68,5.88,5.77,8.03,.23,16.06,.47,24.1,.7,9.18,.27,18.37,.54,27.55,.8Z"/><path class="cls-6" d="M205.86,96.67c2.2,.06,4.07-1.62,4.32-3.88,.27-2.43,.55-5.31,.58-7.09,.16-8.15,.34-17.71-4.1-26.15-6.67-12.67-19.3-16.37-21.93-17.02-1.23-.31,31.76,14.43,11.39,40.44-7.98,10.19-45.06,10.23-47.04-16.32-.68-9.13-1.17,17.15-.5,23.04,.35,3.14,3.08,5.4,6.14,5.49,7.95,.23,15.9,.46,23.86,.7,9.09,.27,18.19,.53,27.28,.8Z"/><path class="cls-4" d="M161.8,75.32c11.69,2.72,27.43-9.88,25.93-19.41-1.21-7.7-13.4-11.58-19.36-12.43-6.02-.85-9.14,.89-9.89,1.34-3.37,2.01-4.82,5.2-5.61,6.95-.57,1.26-4.6,10.48,.24,17.65,3.04,4.5,7.89,5.7,8.69,5.89Z"/><path class="cls-6" d="M150.45,81.82c-.1-9.45-.26-15.15-.32-19.72-.03-2.19,.16-4.38,.95-5.59,4.06-6.23,17.73-9.85,27.62-2.22,3.91,3.02,5.27,8.57,5.32,14.03,.04,4.92-1.5,10.11-4.88,14.55"/><path class="cls-6" d="M192.52,111.3c-6.29-.18-11.25-5.63-11.07-12.17s5.42-11.68,11.71-11.5c6.29,.18,11.25,5.63,11.07,12.17-.18,6.54-5.42,11.68-11.71,11.5"/><path class="cls-6" d="M193.6,110c-5.58-.16-9.98-5-9.82-10.8,.16-5.8,4.81-10.37,10.39-10.21,5.58,.16,9.98,5,9.82,10.8s-4.81,10.37-10.39,10.21"/><path class="cls-8" d="M151.08,81.09c-.1-9.15-.9-14.76-.95-19.19-.03-2.12,.16-4.24,.92-5.41,3.93-6.03,17.17-9.54,26.74-2.15,3.79,2.92,5.1,8.3,5.15,13.58,.04,4.76-1.45,9.79-4.73,14.09"/><path class="cls-6" d="M151.09,81.22c-.1-9.09-.25-14.56-.31-18.96-.03-2.1,.15-4.21,.91-5.37,3.9-5.99,17.05-9.47,26.55-2.13,3.76,2.9,5.06,8.24,5.11,13.49,.04,4.73-1.44,9.72-4.69,13.99"/><path class="cls-8" d="M151.8,70.24c.07-4.65,1.48-8.73,3.36-9.91,2.29-1.44,4.44,1.98,5.03,6.01,.25,1.71,.15,5.75,.07,6.76-.09,.03-.15,.15-.17-.19-.1-2.34-.51-4.4-1.35-6.33-.46-1.06-1.11-2.14-1.93-2.72-1.34-.94-2.33,.02-2.98,.8-.89,1.08-1.21,2.19-1.57,3.32"/><path class="cls-6" d="M151.78,70.89c.07-4.65,1.48-8.73,3.36-9.91,2.29-1.44,4.44,1.98,5.03,6.01,.25,1.71,.15,5.75,.07,6.76-.09,.03-.15,.15-.17-.19-.1-2.34-.51-4.4-1.35-6.33-.46-1.06-1.11-2.14-1.93-2.72-1.34-.94-2.33,.02-2.98,.8-.89,1.08-1.21,2.19-1.57,3.32"/><path class="cls-8" d="M180.65,71.08c.22-4.65-1.97-8.83-5.21-10.16-3.97-1.63-8.04,1.62-9.39,5.59-.57,1.68-.71,5.72-.64,6.74,.16,.04,.26,.16,.31-.17,.36-2.33,1.23-4.34,2.88-6.21,.9-1.02,2.13-2.04,3.64-2.56,2.46-.83,4.14,.21,5.23,1.04,1.5,1.15,1.98,2.28,2.54,3.44"/><path class="cls-6" d="M180.63,71.73c.22-4.65-1.97-8.83-5.21-10.16-3.97-1.63-8.04,1.62-9.39,5.59-.57,1.68-.71,5.72-.64,6.74,.16,.04,.26,.16,.31-.17,.36-2.33,1.23-4.34,2.88-6.21,.9-1.02,2.13-2.04,3.64-2.56,2.46-.83,4.14,.21,5.23,1.04,1.5,1.15,1.98,2.28,2.54,3.44"/><path class="cls-2" d="M170.41,62.11c-.65,.16-1.19,.94-1,1.36,.18,.41,1.09,.53,1.58,.09,.34-.3,.54-.91,.28-1.25-.26-.34-.82-.21-.87-.2Z"/><g><path class="cls-1" d="M193.6,110c-5.58-.16-9.98-5-9.82-10.8,.16-5.8,4.81-10.37,10.39-10.21,5.58,.16,9.98,5,9.82,10.8s-4.81,10.37-10.39,10.21"/><g class="cls-24"><polygon class="cls-6" points="205.98 96.9 181.31 96.18 181.46 90.54 206.14 91.26 205.98 96.9"/></g><path class="cls-15" d="M193.6,110c-5.58-.16-9.98-5-9.82-10.8,.16-5.8,4.81-10.37,10.39-10.21,5.58,.16,9.98,5,9.82,10.8s-4.81,10.37-10.39,10.21"/></g><path class="cls-6" d="M194.47,107.73c-4.34-.13-7.76-3.88-7.64-8.39s3.74-8.06,8.08-7.93c4.34,.13,7.76,3.88,7.64,8.39-.12,4.51-3.74,8.06-8.08,7.93"/><path class="cls-6" d="M194.49,107.14c-4.03-.12-7.2-3.6-7.09-7.79,.11-4.18,3.47-7.48,7.5-7.36,4.03,.12,7.2,3.6,7.09,7.79-.11,4.18-3.47,7.48-7.5,7.36"/><path class="cls-6" d="M189.14,96.6c.37,.89,3.64,3.21,5.64,2.88,.58-2.44-.61-5.51-1.5-6.44-.95-.99-4.76,2.07-4.14,3.55Z"/><path class="cls-6" d="M200.46,102.45c-.37-.89-3.64-3.21-5.64-2.88-.58,2.44,.61,5.51,1.5,6.44,.95,.99,4.76-2.07,4.14-3.56Z"/><path class="cls-6" d="M191.78,105.34c.86-.37,3.16-3.72,2.88-5.81-2.34-.64-5.31,.53-6.22,1.44-.97,.97,1.9,4.98,3.35,4.37Z"/><path class="cls-6" d="M197.61,93.7c-.86,.37-3.16,3.72-2.87,5.81,2.34,.64,5.31-.54,6.22-1.44,.97-.97-1.91-4.98-3.35-4.37Z"/><g><g><path class="cls-6" d="M206.11,95.55c.16-.9,.53-3.58,.41-5.14-.24-3.03-.8-5.22-3.26-8.18-2.07-2.49-4.63-3.31-6-3.73-1.13-.35-4.98-1.46-9.32,.4-.98,.42-5.34,2.42-7.38,7.57-1.47,3.72-.93,7.05-.65,8.32l26.21,.77Z"/><path class="cls-6" d="M205.11,94.97c.12-.65,.39-2.6,.3-3.73-.17-2.2-.58-3.79-2.37-5.94-1.5-1.81-3.36-2.41-4.36-2.71-.82-.25-3.61-1.06-6.77,.29-.71,.3-3.88,1.76-5.36,5.5-1.07,2.7-.67,5.12-.47,6.04l19.03,.56Z"/></g><path class="cls-2" d="M191.87,83.56c-1.38,.33-2.53,2-2.12,2.9,.39,.86,2.32,1.14,3.38,.19,.72-.64,1.15-1.94,.61-2.66-.55-.72-1.76-.45-1.86-.42Z"/></g></g><g><g><path class="cls-33" d="M167.22,108.52c-6.13-.18-10.97-5.46-10.8-11.8s5.29-11.34,11.42-11.16c6.13,.18,10.97,5.46,10.8,11.8s-5.29,11.34-11.42,11.16"/><path class="cls-23" d="M167.73,108.53c-6.13-.18-10.97-5.46-10.8-11.8s5.29-11.34,11.42-11.16c6.13,.18,10.97,5.46,10.8,11.8-.17,6.34-5.29,11.34-11.42,11.16"/></g><path class="cls-27" d="M202.63,100.07l-47.5-1.38c-3.31-.1-5.92-2.95-5.82-6.37h0c.09-3.42,2.85-6.11,6.16-6.02l47.5,1.38c3.31,.1,5.92,2.95,5.82,6.37h0c-.09,3.42-2.85,6.11-6.16,6.02Z"/><g class="cls-20"><path class="cls-19" d="M205.81,98.24c2.22,.06,4.11-1.64,4.37-3.91,.27-2.46,.55-5.36,.59-7.16,.16-8.23,.35-17.87-4.14-26.38-6.73-12.78-20.58-16.54-23.23-17.2-1.24-.31-21.43-5.05-30.44,6.49-.82,1.05-3.2,4.35-4.48,17.87-.85,9-.68,16.85-.19,23.05,.25,3.18,2.79,5.65,5.88,5.74,8.03,.23,16.06,.47,24.1,.7,9.18,.27,18.37,.53,27.55,.8Z"/></g><path class="cls-9" d="M205.6,96.39c2.22,.06,4.11-1.64,4.37-3.91,.27-2.46,.55-5.36,.59-7.16,.16-8.23,.35-17.87-4.14-26.38-6.73-12.78-20.58-16.54-23.23-17.2-1.24-.31-21.43-5.05-30.44,6.49-.82,1.05-3.2,4.35-4.48,17.87-.85,9-.68,16.85-.19,23.05,.25,3.18,2.79,5.65,5.88,5.74,8.03,.23,16.06,.47,24.1,.7,9.18,.27,18.37,.53,27.55,.8Z"/><path class="cls-28" d="M205.64,96.39c2.2,.06,4.07-1.61,4.32-3.86,.27-2.42,.55-5.29,.58-7.06,.16-8.11,.34-17.62-4.1-26.02-6.67-12.61-19.3-16.29-21.93-16.94-1.23-.3,31.76,14.36,11.39,40.24-7.98,10.14-45.06,10.18-47.04-16.24-.68-9.09-1.17,17.06-.5,22.93,.35,3.13,3.08,5.38,6.14,5.47,7.95,.23,15.9,.46,23.86,.69,9.09,.26,18.19,.53,27.28,.79Z"/><path class="cls-7" d="M161.58,75.15c11.69,2.7,27.43-9.83,25.93-19.31-1.21-7.66-13.4-11.52-19.36-12.37-6.02-.85-9.14,.89-9.89,1.34-3.37,2-4.82,5.18-5.61,6.92-.57,1.25-4.6,10.43,.24,17.56,3.04,4.47,7.89,5.67,8.69,5.86Z"/><path class="cls-23" d="M150.23,81.62c-.1-9.41-.26-15.07-.32-19.62-.03-2.17,.16-4.36,.95-5.56,4.06-6.19,17.73-9.8,27.62-2.21,3.91,3.01,5.27,8.53,5.32,13.96,.04,4.9-1.5,10.06-4.88,14.48"/><path class="cls-23" d="M192.3,110.95c-6.29-.18-11.25-5.6-11.07-12.11s5.42-11.63,11.71-11.44c6.29,.18,11.25,5.6,11.07,12.11s-5.42,11.63-11.71,11.44"/><path class="cls-33" d="M193.38,109.65c-5.58-.16-9.98-4.97-9.82-10.74,.16-5.77,4.81-10.32,10.39-10.15s9.98,4.97,9.82,10.74c-.16,5.77-4.81,10.32-10.39,10.15"/><path class="cls-3" d="M150.87,80.89c-.1-9.11-.9-14.69-.95-19.09-.03-2.11,.16-4.22,.92-5.38,3.93-6,17.17-9.49,26.74-2.14,3.79,2.91,5.1,8.26,5.15,13.52,.04,4.74-1.45,9.74-4.73,14.02"/><path class="cls-29" d="M150.87,81.02c-.1-9.04-.25-14.49-.31-18.86-.03-2.09,.15-4.19,.91-5.34,3.9-5.96,17.05-9.42,26.55-2.12,3.76,2.89,5.06,8.2,5.11,13.42,.04,4.71-1.44,9.68-4.69,13.92"/><path class="cls-3" d="M151.58,70.09c.07-4.63,1.48-8.69,3.36-9.86,2.29-1.44,4.44,1.97,5.03,5.98,.25,1.7,.15,5.72,.07,6.73-.09,.03-.15,.15-.17-.19-.1-2.33-.51-4.37-1.35-6.3-.46-1.06-1.11-2.13-1.93-2.7-1.34-.94-2.33,.02-2.98,.8-.89,1.08-1.21,2.18-1.57,3.3"/><path class="cls-35" d="M151.57,70.74c.07-4.63,1.48-8.69,3.36-9.86,2.29-1.44,4.44,1.97,5.03,5.98,.25,1.7,.15,5.72,.07,6.73-.09,.03-.15,.15-.17-.19-.1-2.33-.51-4.37-1.35-6.3-.46-1.06-1.11-2.13-1.93-2.7-1.34-.94-2.33,.02-2.98,.8-.89,1.08-1.21,2.18-1.57,3.3"/><path class="cls-3" d="M180.43,70.93c.22-4.62-1.97-8.79-5.21-10.11-3.97-1.62-8.04,1.61-9.39,5.57-.57,1.67-.71,5.69-.64,6.71,.16,.04,.26,.16,.31-.17,.36-2.31,1.23-4.32,2.88-6.18,.9-1.02,2.13-2.03,3.64-2.54,2.46-.83,4.14,.2,5.23,1.04,1.5,1.15,1.98,2.27,2.54,3.42"/><path class="cls-35" d="M180.41,71.57c.22-4.62-1.97-8.79-5.21-10.11-3.97-1.62-8.04,1.61-9.39,5.57-.57,1.67-.71,5.69-.64,6.71,.16,.04,.26,.16,.31-.17,.36-2.31,1.23-4.32,2.88-6.18,.9-1.02,2.13-2.03,3.64-2.54,2.46-.83,4.14,.2,5.23,1.04,1.5,1.15,1.98,2.27,2.54,3.42"/><path class="cls-5" d="M170.19,62.01c-.65,.16-1.19,.93-1,1.35,.18,.4,1.09,.53,1.58,.09,.34-.3,.54-.91,.28-1.24-.26-.34-.82-.21-.87-.2Z"/><g class="cls-32"><polygon class="cls-17" points="205.76 96.62 181.09 95.9 181.24 90.29 205.92 91.01 205.76 96.62"/></g><path class="cls-23" d="M194.26,107.39c-4.34-.13-7.76-3.86-7.64-8.35,.12-4.49,3.74-8.02,8.08-7.89,4.34,.13,7.76,3.86,7.64,8.35-.12,4.49-3.74,8.02-8.08,7.89"/><path class="cls-28" d="M194.27,106.81c-4.03-.12-7.2-3.59-7.09-7.75,.11-4.16,3.47-7.44,7.5-7.33,4.03,.12,7.2,3.59,7.09,7.75-.11,4.16-3.47,7.44-7.5,7.33"/><path class="cls-18" d="M188.92,96.33c.37,.88,3.64,3.2,5.64,2.87,.58-2.43-.61-5.48-1.5-6.4-.95-.99-4.76,2.06-4.14,3.54Z"/><path class="cls-18" d="M200.24,102.14c-.37-.88-3.64-3.2-5.64-2.87-.58,2.43,.61,5.48,1.5,6.4,.95,.99,4.76-2.06,4.14-3.54Z"/><path class="cls-18" d="M191.56,105.02c.86-.36,3.16-3.7,2.88-5.78-2.34-.64-5.31,.53-6.22,1.43-.97,.97,1.9,4.95,3.35,4.35Z"/><path class="cls-18" d="M197.39,93.43c-.86,.36-3.16,3.7-2.87,5.78,2.34,.64,5.31-.53,6.22-1.44,.97-.97-1.91-4.95-3.35-4.34Z"/><g><g><path class="cls-11" d="M205.89,95.28c.16-.9,.53-3.56,.41-5.12-.24-3.01-.8-5.19-3.26-8.14-2.07-2.48-4.63-3.3-6-3.72-1.13-.34-4.98-1.45-9.32,.39-.98,.42-5.34,2.41-7.38,7.53-1.47,3.7-.93,7.02-.65,8.28l26.21,.76Z"/><path class="cls-18" d="M204.89,94.7c.12-.65,.39-2.58,.3-3.71-.17-2.19-.58-3.77-2.37-5.91-1.5-1.8-3.36-2.39-4.36-2.7-.82-.25-3.61-1.05-6.77,.29-.71,.3-3.88,1.75-5.36,5.47-1.07,2.69-.67,5.1-.47,6.01l19.03,.55Z"/></g><path class="cls-5" d="M191.65,83.35c-1.38,.33-2.53,1.99-2.12,2.88,.39,.86,2.32,1.13,3.38,.19,.72-.64,1.15-1.93,.61-2.65-.55-.72-1.76-.45-1.86-.42Z"/></g></g><g><path class="cls-21" d="M74.6,145.89c-.05,.09-.21,.16-.48,.21-.27,.05-.58,.09-.92,.1-.34,.01-.68,0-1.02-.02-.34-.03-.59-.08-.76-.15-.18-.08-.34-.73-.49-1.95s-.25-2.46-.33-3.71c-.65-.01-1.22-.05-1.69-.1-.47-.06-.73-.14-.78-.24-.08-.17-.15-.44-.21-.81s-.1-.76-.11-1.15c-.02-.39-.01-.74,.01-1.06,.02-.32,.08-.5,.17-.55,.13-.1,.56-.18,1.3-.25,.74-.06,1.59-.1,2.55-.13,.96-.02,1.93-.03,2.92-.02,.99,.01,1.8,.04,2.44,.08,.25,.02,.42,.23,.52,.65,.09,.42,.13,.87,.1,1.37-.03,.5-.1,.95-.23,1.37-.13,.42-.28,.63-.46,.64-.17,.03-.44,.05-.81,.08-.37,.02-.79,.05-1.25,.06-.01,1.25-.06,2.45-.14,3.6-.08,1.16-.18,1.82-.31,1.99Z"/><path class="cls-21" d="M88.47,141.86c-.23,1.39-.91,2.52-2.03,3.37s-2.42,1.16-3.91,.91c-1.43-.24-2.56-.92-3.38-2.05-.82-1.13-1.12-2.38-.9-3.75,.21-1.27,.82-2.34,1.85-3.21,1.02-.86,2.21-1.24,3.57-1.12,1.63,.14,2.91,.76,3.82,1.86s1.24,2.43,.98,3.98Zm-3.81-.56c.06-.38,0-.7-.22-.97-.21-.27-.5-.43-.9-.5-.37-.06-.7,.02-.98,.24-.28,.22-.45,.51-.5,.85-.07,.41,.04,.77,.34,1.09,.3,.32,.67,.45,1.11,.39,.31-.03,.56-.15,.76-.36s.33-.46,.38-.74Z"/><path class="cls-21" d="M96.09,139.52c-.19,0-.39,.02-.58,.03-.19,.01-.38,.04-.56,.07-.46,.09-.88,.31-1.26,.66s-.52,.78-.41,1.29c.05,.23,.16,.42,.33,.55,.27,.22,.64,.32,1.09,.31s.85-.05,1.18-.13c.19-.06,.37-.05,.54,.03,.16,.08,.31,.22,.44,.41,.21,.32,.35,.74,.43,1.27,.08,.53,.05,.97-.09,1.31-.11,.28-.28,.45-.5,.5-.73,.27-1.52,.39-2.39,.39-.87,0-1.65-.17-2.34-.48-.93-.42-1.65-1.04-2.14-1.86-.5-.82-.69-1.75-.59-2.8,.17-1.66,.83-2.95,1.97-3.89,1.14-.93,2.56-1.31,4.26-1.13,.28,.03,.53,.18,.75,.44,.21,.27,.39,.73,.53,1.39,.14,.66,.06,1.14-.25,1.45-.11,.11-.25,.17-.4,.18Z"/><path class="cls-21" d="M97.95,145.99c-.08-.09-.13-.2-.13-.32,0-.43,.07-1.07,.23-1.94,.16-.86,.36-1.76,.6-2.69,.24-.93,.49-1.8,.76-2.62,.27-.81,.5-1.39,.7-1.72,.08-.13,.31-.24,.7-.35,.39-.1,.81-.18,1.28-.22,.47-.04,.92-.04,1.35,0,.43,.04,.74,.14,.91,.3,.25,.24,.54,.76,.88,1.57,.34,.81,.67,1.69,.99,2.64,.32,.95,.61,1.87,.87,2.74,.26,.88,.43,1.49,.51,1.86,.06,.27,.04,.45-.05,.55-.09,.1-.25,.18-.48,.22-.39,.07-.87,.12-1.45,.15-.58,.03-.94,.04-1.08,.02-.06,0-.11-.03-.16-.06-.16-.1-.31-.38-.46-.84-.15-.46-.29-.78-.43-.95-.08-.1-.2-.16-.33-.18h-1.09c-.34,0-.56,.11-.66,.33-.13,.28-.28,.59-.45,.93-.17,.34-.29,.55-.37,.63-.04,.05-.1,.08-.18,.1-.18,.04-.61,.05-1.28,.03-.67-.02-1.06-.09-1.15-.2Zm4.3-5.85c-.15,.15-.29,.41-.43,.78-.14,.36-.2,.6-.16,.72,.07,.19,.35,.28,.86,.26,.51-.02,.78-.14,.83-.37,.03-.14-.11-.45-.4-.94-.29-.49-.52-.64-.7-.45Z"/><path class="cls-21" d="M114.7,141.96c.45,.38,.85,.74,1.19,1.09,.34,.35,.51,.62,.52,.8,0,.13-.07,.32-.22,.57-.15,.25-.31,.5-.5,.76-.19,.25-.37,.47-.55,.66-.18,.19-.3,.29-.37,.29-.29,.06-.71-.09-1.26-.45-.55-.36-.99-.59-1.33-.71-.33-.1-.5-.06-.53,.13,0,.32-.02,.56-.09,.73s-.28,.27-.65,.31c-.42,.04-.91,.07-1.46,.07s-.89,0-1.04-.04c-.1-.02-.18-.08-.25-.17-.09-.12-.18-.67-.29-1.64s-.18-2.04-.24-3.18c-.06-1.14-.08-2.19-.08-3.14,0-.95,.08-1.47,.21-1.54,.48-.27,1.13-.46,1.94-.58,.81-.12,1.61-.1,2.42,.06,.8,.16,1.52,.49,2.16,.99,.63,.5,1.02,1.24,1.16,2.2,.18,1.29-.07,2.22-.76,2.79Zm-3.33-1.26c.34-.04,.6-.16,.78-.37s.28-.43,.27-.66c0-.23-.11-.43-.32-.6s-.54-.23-.98-.18c-.36,.04-.5,.36-.43,.96s.3,.89,.67,.85Z"/><path class="cls-21" d="M128.05,139.64c.44-.65,.86-1.27,1.27-1.86,.41-.59,.77-1.04,1.08-1.34,.14-.13,.4-.23,.8-.29,.4-.06,.81-.09,1.24-.09,.43,0,.82,.04,1.17,.1,.35,.06,.55,.15,.61,.26,.08,.19,.15,.77,.2,1.72,.05,.95,.07,1.98,.07,3.09s-.03,2.13-.08,3.07c-.05,.94-.14,1.5-.26,1.67-.09,.11-.54,.17-1.35,.2-.81,.03-1.38,.01-1.7-.06-.13-.03-.25-.41-.36-1.15-.11-.74-.19-1.49-.23-2.24-.09,.09-.25,.26-.47,.5-.23,.24-.47,.48-.73,.74s-.51,.48-.75,.67c-.24,.19-.42,.29-.53,.29s-.29-.09-.52-.28c-.23-.19-.47-.4-.72-.64-.25-.24-.48-.48-.7-.71-.22-.23-.37-.39-.45-.48-.05,.71-.13,1.42-.24,2.15-.11,.73-.22,1.11-.34,1.15-.16,.05-.41,.08-.73,.09s-.65,0-.98,0c-.33-.01-.63-.04-.89-.08s-.41-.09-.45-.14c-.12-.17-.21-.73-.27-1.7-.06-.96-.09-2-.1-3.12,0-1.12,.01-2.15,.05-3.1,.04-.95,.11-1.5,.2-1.65,.07-.11,.28-.19,.63-.25,.35-.06,.74-.09,1.17-.1,.42,0,.83,.03,1.22,.09,.39,.06,.66,.16,.8,.29,.31,.3,.67,.75,1.09,1.34s.84,1.21,1.27,1.86Z"/><path class="cls-21" d="M141.66,136.62c0-.12,.18-.21,.54-.28,.35-.07,.75-.1,1.18-.11,.43,0,.83,.03,1.21,.1,.38,.07,.6,.19,.67,.34,.09,.23,.16,.64,.2,1.22,.04,.58,.04,1.21,.02,1.89s-.08,1.35-.18,2c-.1,.65-.23,1.17-.4,1.55-.37,.81-.91,1.48-1.63,1.99s-1.53,.8-2.45,.88c-1.16,.08-2.24-.2-3.24-.85s-1.69-1.51-2.08-2.58c-.13-.35-.22-.85-.27-1.5-.06-.65-.08-1.32-.08-1.99,0-.67,.04-1.28,.12-1.83s.19-.9,.33-1.04c.12-.12,.38-.2,.78-.24,.39-.04,.8-.05,1.22-.03,.42,.02,.8,.07,1.13,.15,.33,.08,.49,.18,.49,.3,0,.34-.04,.83-.09,1.45-.05,.62-.06,1.24-.04,1.86,.02,.62,.12,1.16,.28,1.63,.16,.47,.45,.73,.87,.77,.45,.05,.77-.15,.97-.62,.2-.47,.33-1.02,.38-1.66,.06-.64,.08-1.29,.06-1.94-.02-.65-.02-1.13,0-1.45Zm-1.61-.99c-.1-.03-.27-.21-.51-.56s-.4-.65-.48-.9c-.04-.11,.06-.27,.3-.49,.23-.22,.51-.45,.83-.68s.64-.44,.95-.62c.32-.18,.54-.29,.67-.33,.1-.03,.24,.06,.42,.26,.18,.2,.34,.43,.5,.69s.29,.51,.38,.75c.09,.24,.11,.38,.04,.44-.38,.3-.95,.65-1.71,1.02-.76,.38-1.22,.52-1.39,.44Z"/><path class="cls-21" d="M150.82,139.32c-.09,0-.18-.02-.25-.07-.09-.07-.14-.14-.14-.22s-.05-.15-.14-.23c-.22-.17-.5-.14-.84,.09-.34,.23-.2,.42,.42,.54,.07,.01,.14,.03,.22,.04,.08,.02,.16,.03,.25,.04,1.02,.18,1.82,.48,2.41,.91,.72,.53,1.14,1.22,1.25,2.08s-.13,1.62-.71,2.3c-.69,.8-1.62,1.26-2.8,1.38-1.18,.12-2.2-.13-3.05-.74-.74-.52-1.2-1.17-1.39-1.96-.08-.37,.11-.66,.56-.86,.2-.09,.42-.16,.66-.2s.47-.06,.69-.07c.36,0,.69,.04,.98,.13s.46,.21,.5,.37c0,.03,.02,.06,.03,.09,.05,.11,.14,.19,.28,.25,.16,.07,.35,.06,.57-.03s.28-.23,.19-.44c-.05-.1-.18-.18-.4-.24-.52-.15-1.03-.26-1.54-.34-.51-.08-1-.29-1.46-.63-.33-.24-.59-.57-.78-.98-.19-.42-.25-.97-.19-1.65,.09-.92,.53-1.68,1.33-2.28,.47-.35,1-.58,1.6-.7,.6-.12,1.18-.12,1.75,0,.57,.12,1.08,.35,1.53,.7s.77,.82,.94,1.4c.07,.23,0,.42-.19,.58s-.43,.3-.72,.4c-.29,.11-.58,.19-.88,.24-.3,.05-.53,.08-.68,.09Z"/><path class="cls-21" d="M158.93,145.89c-.09,.18-.55,.28-1.39,.31s-1.42-.02-1.76-.17c-.15-.07-.3-.52-.44-1.37-.14-.84-.25-1.79-.35-2.84-.1-1.05-.17-2.07-.21-3.04-.04-.97-.05-1.63,0-1.95,.03-.27,.28-.47,.75-.61,.47-.14,.98-.22,1.53-.23,.55-.02,1.06,.03,1.52,.14,.46,.11,.71,.27,.73,.5,.07,.64,.11,1.45,.12,2.45,0,.99,0,1.98-.05,2.94-.04,.97-.1,1.82-.18,2.57-.08,.74-.17,1.18-.27,1.31Z"/><path class="cls-21" d="M166.95,139.52c-.19,0-.39,.02-.58,.03-.19,.01-.38,.04-.56,.07-.46,.09-.89,.31-1.26,.66s-.52,.78-.41,1.29c.05,.23,.16,.42,.33,.55,.27,.22,.64,.32,1.09,.31s.85-.05,1.18-.13c.19-.06,.37-.05,.54,.03,.16,.08,.31,.22,.44,.41,.21,.32,.35,.74,.43,1.27,.08,.53,.05,.97-.09,1.31-.11,.28-.28,.45-.5,.5-.72,.27-1.52,.39-2.39,.39-.87,0-1.65-.17-2.34-.48-.93-.42-1.65-1.04-2.14-1.86-.5-.82-.69-1.75-.59-2.8,.17-1.66,.83-2.95,1.97-3.89,1.14-.93,2.56-1.31,4.26-1.13,.28,.03,.53,.18,.75,.44,.21,.27,.39,.73,.53,1.39,.14,.66,.06,1.14-.25,1.45-.12,.11-.25,.17-.4,.18Z"/><path class="cls-21" d="M168.81,145.99c-.08-.09-.13-.2-.13-.32,0-.43,.07-1.07,.23-1.94,.16-.86,.36-1.76,.6-2.69,.24-.93,.49-1.8,.76-2.62s.5-1.39,.7-1.72c.08-.13,.31-.24,.7-.35,.39-.1,.81-.18,1.28-.22s.92-.04,1.35,0c.43,.04,.74,.14,.91,.3,.25,.24,.54,.76,.88,1.57s.67,1.69,.99,2.64c.32,.95,.61,1.87,.87,2.74,.26,.88,.43,1.49,.51,1.86,.06,.27,.04,.45-.05,.55-.09,.1-.25,.18-.48,.22-.39,.07-.87,.12-1.45,.15-.58,.03-.94,.04-1.08,.02-.06,0-.11-.03-.16-.06-.16-.1-.31-.38-.46-.84-.15-.46-.29-.78-.43-.95-.08-.1-.19-.16-.33-.18h-1.09c-.34,0-.56,.11-.66,.33-.13,.28-.28,.59-.45,.93-.17,.34-.29,.55-.37,.63-.04,.05-.1,.08-.18,.1-.18,.04-.61,.05-1.28,.03-.67-.02-1.06-.09-1.15-.2Zm4.3-5.85c-.15,.15-.29,.41-.43,.78-.14,.36-.2,.6-.16,.72,.07,.19,.35,.28,.86,.26,.51-.02,.78-.14,.83-.37,.03-.14-.11-.45-.4-.94-.29-.49-.52-.64-.7-.45Z"/><path class="cls-21" d="M183.4,146.04c-.15-.08-.22-.46-.21-1.13,.01-.67,.03-1.07,.07-1.22,.25-1.04,.71-1.82,1.38-2.34,.67-.52,1.46-.96,2.38-1.32,.37-.15,.54-.3,.51-.46s-.14-.28-.32-.35-.39-.09-.61-.04c-.22,.05-.33,.2-.34,.46,0,.1-.04,.18-.11,.25-.12,.13-.35,.2-.68,.19-.33,0-.65-.04-.97-.11-.22-.04-.42-.1-.61-.17-.19-.07-.36-.19-.5-.36-.17-.2-.13-.55,.11-1.07,.25-.51,.47-.87,.67-1.08,.64-.66,1.41-1.05,2.32-1.18,.91-.13,1.76,.02,2.54,.43,.74,.4,1.29,1.05,1.65,1.94,.36,.9,.32,1.73-.12,2.51-.38,.67-.92,1.11-1.63,1.33-.71,.22-1.25,.51-1.6,.87,.56-.01,1.12-.03,1.68-.05,.56-.02,.93-.02,1.11,0,.17,0,.32,.15,.43,.41,.12,.26,.2,.56,.25,.89,.05,.33,.05,.65,.03,.96-.03,.31-.1,.52-.22,.63-.07,.06-.46,.11-1.17,.13-.71,.03-1.49,.04-2.35,.04s-1.65-.01-2.39-.04c-.74-.03-1.18-.07-1.31-.13Z"/></g><g><path class="cls-35" d="M74.01,145.89c-.05,.09-.21,.16-.48,.21-.27,.05-.58,.09-.92,.1-.34,.01-.68,0-1.02-.02-.34-.03-.59-.08-.76-.15-.18-.08-.34-.73-.49-1.95s-.25-2.46-.33-3.71c-.65-.01-1.22-.05-1.69-.1-.47-.06-.73-.14-.78-.24-.08-.17-.16-.44-.21-.81s-.09-.76-.11-1.15c-.02-.39-.01-.74,0-1.06,.02-.32,.08-.5,.17-.55,.13-.1,.56-.18,1.3-.25,.74-.06,1.59-.1,2.55-.13,.96-.02,1.93-.03,2.92-.02,.99,.01,1.8,.04,2.44,.08,.25,.02,.42,.23,.52,.65s.13,.87,.1,1.37c-.03,.5-.1,.95-.23,1.37-.13,.42-.28,.63-.46,.64-.17,.03-.44,.05-.81,.08-.37,.02-.79,.05-1.25,.06-.01,1.25-.06,2.45-.14,3.6-.08,1.16-.18,1.82-.31,1.99Z"/><path class="cls-35" d="M87.88,141.86c-.23,1.39-.9,2.52-2.03,3.37-1.12,.85-2.42,1.16-3.91,.91-1.43-.24-2.56-.92-3.38-2.05-.82-1.13-1.12-2.38-.9-3.75,.21-1.27,.82-2.34,1.85-3.21,1.02-.86,2.21-1.24,3.57-1.12,1.64,.14,2.91,.76,3.82,1.86s1.24,2.43,.98,3.98Zm-3.81-.56c.06-.38,0-.7-.21-.97-.21-.27-.5-.43-.9-.5-.37-.06-.7,.02-.98,.24s-.45,.51-.5,.85c-.07,.41,.04,.77,.34,1.09s.67,.45,1.11,.39c.3-.03,.56-.15,.76-.36,.2-.21,.33-.46,.38-.74Z"/><path class="cls-35" d="M95.5,139.52c-.19,0-.39,.02-.58,.03-.19,.01-.38,.04-.56,.07-.46,.09-.89,.31-1.26,.66s-.52,.78-.41,1.29c.05,.23,.16,.42,.33,.55,.27,.22,.64,.32,1.09,.31s.85-.05,1.18-.13c.19-.06,.37-.05,.54,.03,.16,.08,.31,.22,.44,.41,.21,.32,.35,.74,.43,1.27,.08,.53,.05,.97-.09,1.31-.11,.28-.28,.45-.5,.5-.72,.27-1.52,.39-2.39,.39-.87,0-1.65-.17-2.34-.48-.93-.42-1.65-1.04-2.14-1.86-.5-.82-.69-1.75-.59-2.8,.17-1.66,.83-2.95,1.97-3.89,1.14-.93,2.56-1.31,4.26-1.13,.28,.03,.53,.18,.75,.44,.21,.27,.39,.73,.53,1.39,.14,.66,.06,1.14-.25,1.45-.12,.11-.25,.17-.4,.18Z"/><path class="cls-35" d="M97.36,145.99c-.08-.09-.13-.2-.13-.32,0-.43,.07-1.07,.23-1.94,.16-.86,.36-1.76,.6-2.69,.24-.93,.49-1.8,.76-2.62s.5-1.39,.7-1.72c.08-.13,.31-.24,.7-.35,.39-.1,.81-.18,1.28-.22s.92-.04,1.35,0c.43,.04,.74,.14,.91,.3,.25,.24,.54,.76,.88,1.57s.67,1.69,.99,2.64c.32,.95,.61,1.87,.87,2.74,.26,.88,.43,1.49,.51,1.86,.06,.27,.04,.45-.05,.55-.09,.1-.25,.18-.48,.22-.39,.07-.87,.12-1.45,.15-.58,.03-.94,.04-1.08,.02-.06,0-.11-.03-.16-.06-.16-.1-.31-.38-.46-.84-.15-.46-.29-.78-.43-.95-.08-.1-.19-.16-.33-.18h-1.09c-.34,0-.56,.11-.66,.33-.13,.28-.28,.59-.45,.93-.17,.34-.29,.55-.37,.63-.04,.05-.1,.08-.18,.1-.18,.04-.61,.05-1.28,.03-.67-.02-1.06-.09-1.15-.2Zm4.3-5.85c-.15,.15-.29,.41-.43,.78-.14,.36-.2,.6-.16,.72,.07,.19,.35,.28,.86,.26,.51-.02,.78-.14,.83-.37,.03-.14-.11-.45-.4-.94-.29-.49-.52-.64-.7-.45Z"/><path class="cls-35" d="M114.11,141.96c.45,.38,.85,.74,1.19,1.09,.34,.35,.51,.62,.52,.8,0,.13-.07,.32-.22,.57-.15,.25-.31,.5-.5,.76-.19,.25-.37,.47-.55,.66-.18,.19-.3,.29-.36,.29-.29,.06-.71-.09-1.26-.45-.55-.36-.99-.59-1.33-.71-.33-.1-.5-.06-.53,.13,0,.32-.02,.56-.09,.73-.06,.17-.28,.27-.65,.31-.42,.04-.91,.07-1.46,.07s-.89,0-1.04-.04c-.1-.02-.18-.08-.25-.17-.09-.12-.18-.67-.29-1.64s-.18-2.04-.24-3.18-.08-2.19-.08-3.14c0-.95,.08-1.47,.21-1.54,.48-.27,1.13-.46,1.94-.58,.81-.12,1.61-.1,2.42,.06,.8,.16,1.52,.49,2.15,.99,.63,.5,1.02,1.24,1.16,2.2,.18,1.29-.07,2.22-.76,2.79Zm-3.33-1.26c.34-.04,.6-.16,.78-.37s.28-.43,.28-.66c0-.23-.11-.43-.32-.6s-.54-.23-.98-.18c-.36,.04-.51,.36-.43,.96,.08,.6,.3,.89,.67,.85Z"/><path class="cls-35" d="M127.46,139.64c.44-.65,.86-1.27,1.27-1.86,.41-.59,.77-1.04,1.08-1.34,.14-.13,.4-.23,.8-.29,.4-.06,.81-.09,1.24-.09,.43,0,.82,.04,1.17,.1,.35,.06,.55,.15,.61,.26,.08,.19,.15,.77,.2,1.72,.05,.95,.07,1.98,.07,3.09s-.03,2.13-.08,3.07c-.05,.94-.14,1.5-.26,1.67-.09,.11-.54,.17-1.35,.2-.81,.03-1.38,.01-1.7-.06-.13-.03-.25-.41-.36-1.15-.11-.74-.19-1.49-.23-2.24-.09,.09-.25,.26-.47,.5-.23,.24-.47,.48-.73,.74-.26,.25-.51,.48-.75,.67-.24,.19-.42,.29-.53,.29s-.29-.09-.52-.28c-.23-.19-.47-.4-.72-.64-.25-.24-.48-.48-.7-.71-.22-.23-.37-.39-.45-.48-.05,.71-.13,1.42-.24,2.15-.11,.73-.22,1.11-.34,1.15-.16,.05-.41,.08-.73,.09-.32,0-.65,0-.98,0-.33-.01-.63-.04-.89-.08-.26-.04-.41-.09-.45-.14-.12-.17-.21-.73-.27-1.7-.06-.96-.1-2-.1-3.12,0-1.12,.01-2.15,.05-3.1,.04-.95,.11-1.5,.2-1.65,.07-.11,.28-.19,.63-.25,.35-.06,.74-.09,1.17-.1,.42,0,.83,.03,1.22,.09,.39,.06,.66,.16,.8,.29,.31,.3,.67,.75,1.09,1.34,.42,.59,.84,1.21,1.27,1.86Z"/><path class="cls-35" d="M141.07,136.62c0-.12,.18-.21,.54-.28,.35-.07,.75-.1,1.18-.11s.84,.03,1.21,.1c.38,.07,.6,.19,.67,.34,.09,.23,.16,.64,.2,1.22,.04,.58,.04,1.21,.02,1.89-.02,.68-.08,1.35-.18,2-.09,.65-.23,1.17-.4,1.55-.37,.81-.91,1.48-1.63,1.99s-1.53,.8-2.45,.88c-1.16,.08-2.24-.2-3.24-.85s-1.69-1.51-2.08-2.58c-.13-.35-.22-.85-.28-1.5s-.08-1.32-.08-1.99c0-.67,.04-1.28,.12-1.83s.19-.9,.33-1.04c.12-.12,.38-.2,.78-.24s.8-.05,1.22-.03c.42,.02,.8,.07,1.13,.15,.33,.08,.49,.18,.49,.3,0,.34-.04,.83-.09,1.45-.05,.62-.06,1.24-.04,1.86,.02,.62,.12,1.16,.28,1.63s.45,.73,.87,.77c.45,.05,.77-.15,.97-.62,.2-.47,.32-1.02,.38-1.66,.06-.64,.08-1.29,.06-1.94-.02-.65-.02-1.13,0-1.45Zm-1.61-.99c-.1-.03-.27-.21-.51-.56-.24-.35-.4-.65-.48-.9-.04-.11,.06-.27,.3-.49,.23-.22,.51-.45,.83-.68s.64-.44,.96-.62c.32-.18,.54-.29,.67-.33,.1-.03,.24,.06,.42,.26,.18,.2,.34,.43,.5,.69s.29,.51,.38,.75c.09,.24,.11,.38,.04,.44-.38,.3-.95,.65-1.71,1.02-.76,.38-1.22,.52-1.39,.44Z"/><path class="cls-35" d="M150.23,139.32c-.09,0-.18-.02-.25-.07-.09-.07-.14-.14-.14-.22,0-.08-.05-.15-.14-.23-.22-.17-.5-.14-.84,.09-.34,.23-.2,.42,.42,.54,.07,.01,.14,.03,.22,.04,.08,.02,.16,.03,.25,.04,1.02,.18,1.82,.48,2.41,.91,.72,.53,1.14,1.22,1.25,2.08s-.13,1.62-.71,2.3c-.69,.8-1.62,1.26-2.8,1.38-1.18,.12-2.2-.13-3.05-.74-.74-.52-1.2-1.17-1.39-1.96-.08-.37,.11-.66,.56-.86,.2-.09,.42-.16,.66-.2,.24-.04,.47-.06,.69-.07,.36,0,.69,.04,.98,.13,.29,.09,.46,.21,.5,.37,0,.03,.02,.06,.03,.09,.05,.11,.14,.19,.28,.25,.16,.07,.35,.06,.57-.03s.28-.23,.19-.44c-.05-.1-.18-.18-.4-.24-.52-.15-1.03-.26-1.54-.34-.51-.08-1-.29-1.46-.63-.33-.24-.59-.57-.78-.98s-.25-.97-.19-1.65c.09-.92,.53-1.68,1.33-2.28,.47-.35,1-.58,1.6-.7,.6-.12,1.18-.12,1.75,0,.57,.12,1.08,.35,1.53,.7,.45,.35,.77,.82,.94,1.4,.07,.23,0,.42-.19,.58s-.43,.3-.72,.4c-.29,.11-.58,.19-.88,.24-.3,.05-.53,.08-.68,.09Z"/><path class="cls-35" d="M158.34,145.89c-.09,.18-.55,.28-1.39,.31s-1.42-.02-1.76-.17c-.16-.07-.3-.52-.44-1.37-.14-.84-.25-1.79-.35-2.84s-.17-2.07-.21-3.04c-.04-.97-.05-1.63,0-1.95,.03-.27,.28-.47,.75-.61,.47-.14,.98-.22,1.53-.23,.55-.02,1.06,.03,1.53,.14,.46,.11,.71,.27,.73,.5,.07,.64,.11,1.45,.12,2.45,0,.99-.01,1.98-.05,2.94-.04,.97-.1,1.82-.18,2.57-.08,.74-.17,1.18-.26,1.31Z"/><path class="cls-35" d="M166.36,139.52c-.19,0-.39,.02-.58,.03-.19,.01-.38,.04-.56,.07-.46,.09-.88,.31-1.26,.66s-.52,.78-.41,1.29c.05,.23,.16,.42,.33,.55,.27,.22,.64,.32,1.09,.31s.85-.05,1.18-.13c.19-.06,.37-.05,.54,.03,.16,.08,.31,.22,.44,.41,.21,.32,.35,.74,.43,1.27,.08,.53,.05,.97-.09,1.31-.11,.28-.28,.45-.5,.5-.73,.27-1.52,.39-2.39,.39-.87,0-1.65-.17-2.34-.48-.93-.42-1.65-1.04-2.14-1.86-.5-.82-.69-1.75-.59-2.8,.17-1.66,.83-2.95,1.97-3.89,1.14-.93,2.56-1.31,4.26-1.13,.28,.03,.53,.18,.75,.44,.21,.27,.39,.73,.53,1.39,.14,.66,.06,1.14-.25,1.45-.11,.11-.25,.17-.4,.18Z"/><path class="cls-35" d="M168.21,145.99c-.08-.09-.13-.2-.13-.32,0-.43,.07-1.07,.23-1.94,.16-.86,.36-1.76,.6-2.69,.24-.93,.49-1.8,.76-2.62,.27-.81,.5-1.39,.7-1.72,.08-.13,.31-.24,.7-.35,.39-.1,.81-.18,1.28-.22,.47-.04,.92-.04,1.35,0,.43,.04,.74,.14,.91,.3,.25,.24,.54,.76,.88,1.57,.34,.81,.67,1.69,.99,2.64,.32,.95,.61,1.87,.87,2.74,.26,.88,.43,1.49,.51,1.86,.06,.27,.04,.45-.05,.55-.09,.1-.25,.18-.48,.22-.39,.07-.87,.12-1.45,.15-.58,.03-.94,.04-1.08,.02-.06,0-.11-.03-.16-.06-.16-.1-.31-.38-.46-.84-.15-.46-.29-.78-.43-.95-.08-.1-.2-.16-.33-.18h-1.09c-.34,0-.56,.11-.66,.33-.13,.28-.28,.59-.45,.93-.17,.34-.29,.55-.37,.63-.04,.05-.1,.08-.18,.1-.18,.04-.61,.05-1.28,.03-.67-.02-1.06-.09-1.15-.2Zm4.3-5.85c-.15,.15-.29,.41-.43,.78-.14,.36-.2,.6-.16,.72,.07,.19,.35,.28,.86,.26,.51-.02,.78-.14,.83-.37,.03-.14-.11-.45-.4-.94-.29-.49-.52-.64-.7-.45Z"/><path class="cls-35" d="M182.81,146.04c-.15-.08-.22-.46-.21-1.13,.01-.67,.03-1.07,.07-1.22,.25-1.04,.71-1.82,1.38-2.34,.67-.52,1.47-.96,2.38-1.32,.37-.15,.54-.3,.51-.46-.03-.16-.14-.28-.32-.35s-.39-.09-.61-.04c-.22,.05-.33,.2-.34,.46,0,.1-.04,.18-.11,.25-.12,.13-.35,.2-.68,.19s-.65-.04-.97-.11c-.22-.04-.42-.1-.61-.17-.19-.07-.35-.19-.5-.36-.17-.2-.14-.55,.11-1.07,.25-.51,.47-.87,.67-1.08,.64-.66,1.41-1.05,2.32-1.18,.91-.13,1.76,.02,2.54,.43,.74,.4,1.29,1.05,1.65,1.94,.36,.9,.32,1.73-.12,2.51-.38,.67-.92,1.11-1.63,1.33-.71,.22-1.25,.51-1.6,.87,.56-.01,1.12-.03,1.68-.05,.56-.02,.93-.02,1.11,0,.17,0,.32,.15,.43,.41,.12,.26,.2,.56,.25,.89,.05,.33,.06,.65,.03,.96-.03,.31-.1,.52-.22,.63-.07,.06-.46,.11-1.17,.13s-1.49,.04-2.35,.04-1.65-.01-2.39-.04c-.74-.03-1.18-.07-1.31-.13Z"/></g><path class="cls-35" d="M73.06,86.12l-24.26-14.18c-2.08-1.33-3.44-4.48-3.44-7.98v-9.15c0-3.57,1.41-6.76,3.55-8.04l23.41-14.71c3.63-2.17,10.4,.96,10.4,7.01v41.67c0,6.13-6.01,7.71-9.65,5.39Z"/><rect class="cls-35" x="35.78" y="46.01" width="22.37" height="27.02" rx="6.87" ry="6.87"/><g class="cls-25"><ellipse class="cls-21" cx="91.31" cy="60.12" rx="26.17" ry="29.44"/><ellipse class="cls-35" cx="89.73" cy="60.12" rx="26.17" ry="29.44"/><ellipse class="cls-1" cx="85.71" cy="59.9" rx="23.25" ry="26.15"/><ellipse class="cls-21" cx="81.56" cy="60.12" rx="21.27" ry="23.92"/><ellipse class="cls-35" cx="79.93" cy="60.12" rx="21.57" ry="24.26"/><ellipse class="cls-1" cx="75.97" cy="60.12" rx="19.16" ry="21.55"/></g><text class="cls-16" transform="translate(120.1 44.72)"><tspan x="0" y="0">2</tspan></text><text class="cls-12" transform="translate(118.15 44.71)"><tspan x="0" y="0">2</tspan></text><text class="cls-22" transform="translate(120.09 44.73)"><tspan x="0" y="0">2</tspan></text><text class="cls-26" transform="translate(117.9 44.72)"><tspan x="0" y="0">2</tspan></text><path class="cls-5" d="M121.55,14.55c.51,1.71,3.53,2.26,3.83,2.31,.64,.11,2.01,.34,2.96-.43,.67-.54,.5-1.07,.94-1.66,1.21-1.61,4.24-.08,7.74-.94,1.98-.49,4.69-1.88,4.63-3.11-.12-2.21-9.28-5.4-15.62-1.88-2.15,1.19-5.06,3.77-4.48,5.71Z"/></g></svg>