<?xml version="1.0" encoding="UTF-8"?><svg xmlns="http://www.w3.org/2000/svg" xmlns:xlink="http://www.w3.org/1999/xlink" viewBox="0 0 246.61 161.57"><defs><style>.cls-1,.cls-2,.cls-3,.cls-4,.cls-5,.cls-6{fill:#fff;}.cls-7{fill:#898888;}.cls-2{opacity:.9;}.cls-8{fill:url(#Gradiente_sem_nome_6);}.cls-9,.cls-10{stroke:#fdc729;}.cls-9,.cls-10,.cls-5,.cls-6,.cls-11{stroke-miterlimit:10;}.cls-9,.cls-12{fill:#fee18b;}.cls-13{fill:#dbdcdb;}.cls-14{clip-path:url(#clippath-2);}.cls-15{fill:#585657;}.cls-3,.cls-6{opacity:.8;}.cls-4{opacity:.19;}.cls-16{clip-path:url(#clippath-1);}.cls-17{fill:url(#Gradiente_sem_nome_17-2);}.cls-18{fill:#eaeaea;}.cls-10,.cls-19{fill:#ffd455;}.cls-20{fill:url(#Gradiente_sem_nome_17);}.cls-21{clip-path:url(#clippath);}.cls-5,.cls-6{stroke:#fff;stroke-width:2.83px;}.cls-22,.cls-11{fill:none;}.cls-23{fill:#fcc11e;}.cls-24{fill:#9b9b9b;}.cls-11{stroke:#cd3234;}.cls-25{fill:#27a7d9;}.cls-26{fill:#cd3234;}</style><clipPath id="clippath"><path class="cls-1" d="M134.2,89.7l55.94-1.53c3.9-.11,6.97-3.27,6.86-7.07h0c-.11-3.8-3.36-6.79-7.25-6.68l-55.94,1.53c-3.9,.11-6.97,3.27-6.86,7.07h0c.11,3.8,3.36,6.79,7.25,6.68Z"/></clipPath><clipPath id="clippath-1"><path class="cls-22" d="M185.51,87.15l-50.62-1.38c-3.53-.1-6.3-2.95-6.2-6.37h0c.1-3.42,3.04-6.11,6.56-6.02l50.62,1.38c3.53,.1,6.3,2.95,6.2,6.37h0c-.1,3.42-3.04,6.11-6.56,6.02Z"/></clipPath><clipPath id="clippath-2"><path class="cls-22" d="M175.66,96.51c-5.95-.16-10.64-4.97-10.47-10.74,.17-5.77,5.13-10.32,11.07-10.15,5.95,.16,10.64,4.97,10.47,10.74s-5.13,10.32-11.07,10.15"/></clipPath><linearGradient id="Gradiente_sem_nome_6" x1="4242.65" y1="5086.01" x2="4238.06" y2="5085.98" gradientTransform="translate(-4997.38 4292.03) rotate(-90)" gradientUnits="userSpaceOnUse"><stop offset="0" stop-color="#ffd455"/><stop offset="1" stop-color="#fdc425"/></linearGradient><linearGradient id="Gradiente_sem_nome_17" x1="4256.38" y1="5053.75" x2="4255.98" y2="5087.06" gradientTransform="translate(-4183.13 -5034.66)" gradientUnits="userSpaceOnUse"><stop offset="0" stop-color="#2490cd"/><stop offset=".42" stop-color="#2493cf"/><stop offset=".83" stop-color="#269fd5"/><stop offset="1" stop-color="#27a7d9"/></linearGradient><linearGradient id="Gradiente_sem_nome_17-2" x1="4220.64" y1="5042.29" x2="4219.96" y2="5098.39" gradientTransform="translate(-4997.38 4292.03) rotate(-90)" xlink:href="#Gradiente_sem_nome_17"/></defs><g id="Camada_1"><rect class="cls-26" x=".02" y="0" width="246.61" height="161.57"/><ellipse class="cls-1" cx="124.78" cy="59.16" rx="56.99" ry="55.27"/><g><path class="cls-13" d="M131.33,94.93h-12.77c.17-1.28,.34-2.55,.51-3.83,.07-.5,.13-1,.2-1.5,4.02,1.78,8.04,3.56,12.06,5.33Z"/><path class="cls-13" d="M118.03,91.49c2.07,.17,3.79-1.36,3.84-3.1,.06-1.77-1.63-3.14-3.31-3.27-1.34-.1-2.66,.59-3.43,1.78"/><path class="cls-13" d="M115.72,88.17c.18-.32,.47-.96,.41-1.78-.09-1.37-1.11-2.43-2.19-2.92-1.83-.83-3.55,.13-3.72,.23-1.58,.91-2.66,3-1.89,4.7,.52,1.15,1.75,1.83,2.84,2.01,.65,.11,1.2,.02,1.54-.06"/><path class="cls-13" d="M114.24,91.09c-.2-.42-.7-1.28-1.71-1.78-2.13-1.04-4.41,.61-4.67,.8-.36,.27-2.12,1.58-1.83,3.21,.18,1.06,1.13,1.68,1.36,1.84,.34,.22,1.11,.64,4.26,.52,.79-.03,1.89-.11,3.19-.29l3.72-.46,.71-5.33-3.13-2.02h-2.46l-1.05,1.55"/></g><path class="cls-24" d="M113.47,91.24c-.16,.31-1.46-.55-2.88-.13-1.46,.43-2.62,2.08-2.34,3.19,.15,.58,.66,.89,.54,1.05-.14,.19-1.03-.03-1.62-.57-.66-.6-.89-1.56-.76-2.36,.27-1.7,2.12-2.44,2.47-2.58,.17-.06,1.76-.63,3.28,.13,.74,.37,1.43,1.03,1.3,1.27Z"/><path class="cls-24" d="M109.69,88.62c-.63-.28-.7-1.28-.72-1.57-.02-.29-.07-1.26,.63-2.14,.6-.75,1.39-.99,1.75-1.09,.33-.1,1.01-.29,1.84-.09,.16,.04,1.37,.35,1.98,1.44,.2,.36,.27,.68,.31,.92,.06,.3,.2,1.03-.09,1.83-.35,.96-1.16,1.59-1.26,1.53-.07-.05,.32-.45,.49-1.22,.07-.3,.28-1.24-.27-2.14-.1-.16-.48-.75-1.26-1.05-.15-.05-1.16-.42-2.07,.13-.55,.33-.77,.82-.9,1.09-.14,.3-.4,.87-.22,1.48,.14,.47,.47,.72,.36,.87-.09,.12-.38,.09-.58,0Z"/><path class="cls-24" d="M114.16,91.94c-.07-.6,.17-1.35,.75-1.86,.68-.6,1.79-.82,2.7-.35,.7,.37,1.09,1.06,1.17,1.66,.09,.65-.16,1.26-.27,1.25-.1,0,0-.51-.3-1.08-.37-.68-1.06-.91-1.11-.93-.13-.04-.76-.24-1.41,.06-.59,.27-.86,.78-.96,.96-.24,.45-.25,.85-.36,.84-.1,0-.18-.31-.21-.55Z"/><path class="cls-24" d="M116.82,86c.7,.39,1.11,1.07,1.01,1.7-.09,.64-.66,1-.97,1.2-.55,.35-1.29,.54-1.39,.37-.04-.07,0-.21,.34-.57"/><g><path class="cls-1" d="M175.58,99.91c7.49-.19,13.39-6.05,13.17-13.1-.22-7.04-6.47-12.6-13.96-12.41-7.49,.19-13.39,6.05-13.17,13.1,.22,7.04,6.47,12.6,13.96,12.41"/><path class="cls-1" d="M174.95,99.93c7.49-.19,13.39-6.05,13.17-13.1-.22-7.04-6.47-12.6-13.96-12.41-7.49,.19-13.39,6.05-13.17,13.1,.22,7.04,6.47,12.6,13.96,12.41"/></g><path class="cls-1" d="M134.19,89.46l55.94-1.53c3.9-.11,6.97-3.27,6.86-7.07h0c-.11-3.8-3.36-6.79-7.25-6.68l-55.94,1.53c-3.9,.11-6.97,3.27-6.86,7.07h0c.11,3.8,3.36,6.79,7.25,6.68Z"/><g><path class="cls-1" d="M134.2,89.7l55.94-1.53c3.9-.11,6.97-3.27,6.86-7.07h0c-.11-3.8-3.36-6.79-7.25-6.68l-55.94,1.53c-3.9,.11-6.97,3.27-6.86,7.07h0c.11,3.8,3.36,6.79,7.25,6.68Z"/><g class="cls-21"><path class="cls-1" d="M130.45,87.43c-2.61,.07-4.85-1.82-5.14-4.35-.32-2.73-.65-5.95-.69-7.95-.19-9.13-.41-19.84,4.87-29.3,7.93-14.2,24.23-18.37,27.36-19.1,1.46-.34,25.24-5.6,35.85,7.21,.96,1.16,3.77,4.83,5.28,19.85,1.01,10,.8,18.71,.23,25.6-.29,3.53-3.29,6.27-6.92,6.37-9.46,.26-18.92,.52-28.38,.78-10.82,.3-21.63,.59-32.45,.89Z"/></g></g><path class="cls-1" d="M129.8,84.35c-2.63-.01-4.82-1.96-5.04-4.47-.24-2.71-.47-5.92-.45-7.89,.09-9.05,.2-19.66,5.81-28.86,8.42-13.8,24.97-17.41,28.14-18.03,1.48-.29,25.59-4.73,35.88,8.3,.93,1.18,3.65,4.91,4.7,19.83,.7,9.94,.23,18.56-.56,25.36-.4,3.49-3.51,6.11-7.17,6.09-9.53-.05-19.07-.1-28.6-.15-10.9-.06-21.8-.11-32.7-.17Z"/><path class="cls-1" d="M130.64,85.37c-2.59,.07-4.8-1.79-5.09-4.29-.31-2.69-.65-5.87-.69-7.84-.19-9.01-.41-19.57,4.83-28.9,7.85-14,22.73-18.09,25.82-18.81,1.45-.34-37.4,15.95-13.41,44.69,9.4,11.26,53.07,11.31,55.39-18.04,.8-10.09,1.38,18.95,.59,25.46-.42,3.47-3.63,5.97-7.23,6.07-9.37,.26-18.73,.51-28.1,.77-10.71,.29-21.42,.59-32.13,.88Z"/><path class="cls-4" d="M182.53,61.78c-13.76,3-32.3-10.92-30.54-21.45,1.42-8.51,15.78-12.8,22.8-13.73,7.09-.94,10.76,.99,11.64,1.48,3.96,2.23,5.67,5.75,6.61,7.68,.67,1.39,5.42,11.59-.28,19.51-3.58,4.97-9.29,6.3-10.24,6.51Z"/><path class="cls-1" d="M195.9,68.96c.12-10.45,.31-16.74,.38-21.79,.03-2.42-.19-4.84-1.12-6.17-4.78-6.88-20.88-10.89-32.52-2.45-4.61,3.34-6.2,9.48-6.26,15.51-.05,5.44,1.77,11.18,5.75,16.08"/><path class="cls-1" d="M148.52,98.32c7.64-.2,13.66-6.21,13.44-13.43-.22-7.22-6.6-12.92-14.24-12.72s-13.66,6.21-13.44,13.43c.22,7.22,6.6,12.92,14.24,12.72"/><path class="cls-2" d="M195.15,68.15c.11-10.11,1.06-16.31,1.12-21.21,.03-2.34-.18-4.68-1.08-5.98-4.63-6.66-20.22-10.54-31.49-2.37-4.46,3.23-6.01,9.17-6.06,15.01-.05,5.26,1.71,10.82,5.57,15.57"/><path class="cls-1" d="M195.15,68.3c.11-10.04,.3-16.09,.36-20.95,.03-2.32-.18-4.65-1.08-5.94-4.6-6.61-20.08-10.47-31.27-2.36-4.43,3.21-5.96,9.11-6.02,14.91-.05,5.23,1.7,10.75,5.53,15.46"/><path class="cls-2" d="M194.31,56.16c-.09-5.14-1.74-9.65-3.95-10.95-2.7-1.59-5.23,2.19-5.93,6.65-.29,1.88-.18,6.35-.09,7.47,.11,.04,.18,.17,.2-.21,.12-2.58,.6-4.86,1.59-7,.55-1.17,1.3-2.36,2.28-3,1.58-1.04,2.75,.02,3.51,.89,1.05,1.2,1.42,2.42,1.85,3.66"/><path class="cls-1" d="M194.33,56.88c-.09-5.14-1.74-9.65-3.95-10.95-2.7-1.59-5.23,2.19-5.93,6.65-.29,1.88-.18,6.35-.09,7.47,.11,.04,.18,.17,.2-.21,.12-2.58,.6-4.86,1.59-7,.55-1.17,1.3-2.36,2.28-3,1.58-1.04,2.75,.02,3.51,.89,1.05,1.2,1.42,2.42,1.85,3.66"/><path class="cls-2" d="M160.33,57.09c-.26-5.14,2.32-9.76,6.14-11.23,4.67-1.8,9.47,1.79,11.06,6.18,.67,1.86,.83,6.32,.75,7.45-.18,.04-.3,.18-.36-.19-.43-2.57-1.45-4.8-3.39-6.86-1.06-1.13-2.5-2.26-4.28-2.82-2.89-.92-4.88,.23-6.16,1.15-1.77,1.27-2.34,2.52-3,3.8"/><path class="cls-1" d="M160.35,57.81c-.26-5.14,2.32-9.76,6.14-11.23,4.67-1.8,9.47,1.79,11.06,6.18,.67,1.86,.83,6.32,.75,7.45-.18,.04-.3,.18-.36-.19-.43-2.57-1.45-4.8-3.39-6.86-1.06-1.13-2.5-2.26-4.28-2.82-2.89-.92-4.88,.23-6.16,1.15-1.77,1.27-2.34,2.52-3,3.8"/><path class="cls-3" d="M172.39,47.18c.76,.17,1.4,1.04,1.17,1.5-.22,.45-1.28,.59-1.86,.1-.4-.33-.63-1.01-.33-1.38,.3-.37,.97-.23,1.02-.22Z"/><path class="cls-1" d="M143.79,94.49c5.11-.14,9.14-4.29,8.99-9.27-.14-4.98-4.4-8.91-9.51-8.77-5.11,.14-9.14,4.29-8.99,9.27,.14,4.98,4.4,8.91,9.51,8.77"/><path class="cls-1" d="M143.77,93.84c4.74-.13,8.48-3.98,8.35-8.61s-4.09-8.27-8.83-8.14c-4.74,.13-8.48,3.98-8.35,8.61,.13,4.62,4.09,8.27,8.83,8.14"/><path class="cls-1" d="M150.33,85.3c-.43,.98-4.29,3.55-6.65,3.19-.68-2.69,.72-6.09,1.77-7.11,1.12-1.1,5.6,2.28,4.88,3.93Z"/><path class="cls-1" d="M146.96,91.85c-1.01-.4-3.72-4.11-3.39-6.42,2.75-.71,6.26,.59,7.33,1.59,1.15,1.08-2.24,5.5-3.94,4.83Z"/><path class="cls-1" d="M140.36,82.08c1.01,.4,3.72,4.11,3.39,6.42-2.75,.71-6.26-.59-7.33-1.6-1.15-1.08,2.24-5.5,3.94-4.82Z"/><g><g><path class="cls-1" d="M130.35,84.13c-.19-1-.62-3.95-.48-5.68,.28-3.35,.94-5.76,3.84-9.04,2.44-2.75,5.45-3.66,7.07-4.13,1.33-.38,5.86-1.61,10.98,.44,1.16,.46,6.29,2.68,8.69,8.36,1.73,4.11,1.09,7.8,.77,9.2l-30.87,.85Z"/><path class="cls-1" d="M131.53,83.49c-.14-.72-.45-2.87-.35-4.13,.2-2.43,.68-4.18,2.79-6.56,1.77-2,3.96-2.66,5.13-3,.96-.28,4.26-1.17,7.97,.32,.84,.34,4.57,1.94,6.31,6.07,1.26,2.98,.79,5.66,.56,6.68l-22.41,.61Z"/></g><path class="cls-3" d="M147.12,70.88c1.62,.37,2.98,2.21,2.5,3.2-.46,.96-2.73,1.25-3.98,.21-.84-.71-1.35-2.15-.71-2.94,.64-.8,2.07-.49,2.19-.47Z"/></g><g><path class="cls-24" d="M147.78,95.38c-6.54-.18-11.69-5.46-11.5-11.8,.18-6.34,5.63-11.34,12.17-11.16s11.69,5.46,11.5,11.8c-.18,6.34-5.63,11.34-12.17,11.16"/><path class="cls-15" d="M148.32,95.39c-6.54-.18-11.69-5.46-11.5-11.8,.18-6.34,5.63-11.34,12.17-11.16,6.54,.18,11.69,5.46,11.5,11.8-.18,6.34-5.63,11.34-12.17,11.16"/></g><path class="cls-18" d="M185.51,86.93l-50.62-1.38c-3.53-.1-6.3-2.95-6.2-6.37h0c.1-3.42,3.04-6.11,6.56-6.02l50.62,1.38c3.53,.1,6.3,2.95,6.2,6.37h0c-.1,3.42-3.04,6.11-6.56,6.02Z"/><g class="cls-16"><path class="cls-13" d="M188.9,85.1c2.36,.06,4.38-1.64,4.65-3.91,.29-2.46,.59-5.36,.63-7.16,.17-8.23,.37-17.87-4.41-26.38-7.17-12.78-21.93-16.54-24.75-17.2-1.32-.31-22.84-5.05-32.44,6.49-.87,1.05-3.41,4.35-4.78,17.87-.91,9-.72,16.85-.21,23.05,.27,3.18,2.98,5.65,6.26,5.74,8.56,.23,17.12,.47,25.68,.7,9.79,.27,19.57,.53,29.36,.8Z"/></g><path class="cls-9" d="M132.87,81.34c-2.35-.05-4.24-1.85-4.36-4.14-.13-2.47-.24-5.38-.17-7.18,.35-8.22,.77-17.86,6.04-26.13,7.92-12.41,22.77-15.43,25.61-15.95,1.33-.24,22.94-3.9,31.72,8.09,.8,1.09,3.1,4.52,3.59,18.08,.33,9.04-.36,16.86-1.26,23.03-.47,3.16-3.31,5.49-6.57,5.42-8.49-.19-16.99-.38-25.48-.58-9.71-.22-19.42-.44-29.13-.66Z"/><path class="cls-19" d="M132.82,81.34c-2.32-.05-4.2-1.83-4.32-4.08-.13-2.43-.24-5.31-.17-7.08,.35-8.11,.76-17.61,5.98-25.77,7.84-12.24,21.41-15.24,24.22-15.75,1.32-.24-34.43,12.66-14.58,39.58,7.78,10.54,46.92,12.55,50.68-13.73,1.29-9.04,.15,17.1-.93,22.92-.57,3.1-3.59,5.21-6.82,5.13-8.41-.19-16.82-.38-25.23-.57-9.61-.22-19.23-.43-28.84-.65Z"/><path class="cls-4" d="M181.72,62.49c-11.44,2.11-25.87-11.2-23.86-20.59,1.63-7.59,13.63-10.83,19.44-11.37,5.86-.55,8.76,1.35,9.46,1.83,3.13,2.17,4.33,5.41,5,7.19,.48,1.28,3.81,10.65-1.29,17.53-3.2,4.32-7.96,5.27-8.74,5.41Z"/><path class="cls-15" d="M174.51,97.81c-6.7-.18-11.99-5.6-11.8-12.11s5.78-11.63,12.48-11.44c6.7,.18,11.99,5.6,11.8,12.11-.19,6.5-5.78,11.63-12.48,11.44"/><path class="cls-24" d="M175.66,96.51c-5.95-.16-10.64-4.97-10.47-10.74,.17-5.77,5.13-10.32,11.07-10.15,5.95,.16,10.64,4.97,10.47,10.74s-5.13,10.32-11.07,10.15"/><g class="cls-14"><polygon class="cls-7" points="188.86 83.48 162.56 82.76 162.72 77.15 189.02 77.87 188.86 83.48"/></g><path class="cls-15" d="M176.59,94.25c-4.62-.13-8.27-3.86-8.14-8.35,.13-4.49,3.98-8.02,8.61-7.89,4.62,.13,8.27,3.86,8.14,8.35-.13,4.49-3.98,8.02-8.61,7.89"/><path class="cls-19" d="M176.61,93.67c-4.29-.12-7.67-3.59-7.55-7.75s3.7-7.44,7.99-7.33,7.67,3.59,7.55,7.75-3.7,7.44-7.99,7.33"/><path class="cls-12" d="M170.91,83.19c.39,.88,3.88,3.2,6.01,2.87,.61-2.43-.65-5.48-1.6-6.4-1.02-.99-5.07,2.06-4.41,3.54Z"/><path class="cls-12" d="M182.97,89c-.39-.88-3.88-3.2-6.02-2.87-.61,2.43,.65,5.48,1.6,6.4,1.02,.99,5.07-2.06,4.41-3.54Z"/><path class="cls-12" d="M173.72,91.88c.92-.36,3.37-3.7,3.07-5.78-2.49-.64-5.66,.53-6.63,1.43-1.04,.97,2.03,4.95,3.57,4.35Z"/><path class="cls-12" d="M179.94,80.29c-.92,.36-3.36,3.7-3.06,5.78,2.49,.64,5.66-.53,6.63-1.44,1.04-.97-2.03-4.95-3.57-4.34Z"/><g><g><path class="cls-10" d="M188.76,82.19c.17-.9,.57-3.56,.43-5.12-.25-3.01-.85-5.19-3.47-8.14-2.21-2.48-4.93-3.3-6.4-3.72-1.2-.34-5.3-1.45-9.94,.39-1.05,.42-5.69,2.41-7.86,7.53-1.57,3.7-.99,7.02-.7,8.28l27.93,.76Z"/><path class="cls-12" d="M187.69,81.61c.13-.65,.41-2.58,.31-3.71-.19-2.19-.62-3.77-2.52-5.91-1.6-1.8-3.58-2.39-4.64-2.7-.87-.25-3.85-1.05-7.22,.29-.76,.3-4.13,1.75-5.71,5.47-1.14,2.69-.72,5.1-.51,6.01l20.28,.55Z"/></g><path class="cls-3" d="M173.58,70.26c-1.47,.33-2.7,1.99-2.26,2.88,.42,.86,2.47,1.13,3.6,.19,.76-.64,1.23-1.93,.65-2.65-.58-.72-1.88-.45-1.98-.42Z"/></g><g><polygon class="cls-5" points="65.77 6.75 61.34 7.38 63.61 10.69 65.77 6.75"/><polygon class="cls-5" points="55.08 46.97 46.71 51.48 55.75 54.56 55.08 46.97"/><path class="cls-5" d="M53.82,14.38h45.8c4.18,0,7.57,3.39,7.57,7.57v21.85c0,4.18-3.39,7.57-7.57,7.57H53.82V14.38h0Z" transform="translate(47.63 113.38) rotate(-90)"/><path class="cls-5" d="M103.37,47.64c6.49,0,9.83,7.44,5.37,11.95l-26.68,27.02c-.84,.85-2.26,.85-3.1,0l-26.68-27.02c-4.46-4.52-1.12-11.95,5.37-11.95h45.73Z"/><polygon class="cls-5" points="91.34 52.7 84.43 58.15 84.59 41.04 91.34 41.04 91.34 52.7"/><path class="cls-5" d="M43.85,16.54h49.5c4.18,0,7.57,3.39,7.57,7.57v23.94c0,4.18-3.39,7.57-7.57,7.57H43.85V16.54h0Z" transform="translate(36.31 108.46) rotate(-90)"/><path class="cls-5" d="M96.56,51.69c6.86,0,10.39,7.95,5.67,12.78l-28.2,28.89c-.89,.91-2.39,.91-3.28,0l-28.2-28.89c-4.71-4.83-1.18-12.78,5.67-12.78h48.33Z"/><g><path class="cls-5" d="M46.09,18.05h45.01c4.18,0,7.57,3.39,7.57,7.57v20.87c0,4.18-3.39,7.57-7.57,7.57H46.09V18.05h0Z" transform="translate(36.33 108.44) rotate(-90)"/><path class="cls-5" d="M94.65,52.97c6.32,0,9.57,7.33,5.23,11.78l-25.98,26.62c-.82,.84-2.2,.84-3.02,0l-25.98-26.62c-4.34-4.45-1.09-11.78,5.23-11.78h44.52Z"/></g><path class="cls-5" d="M93.59,53.81c6.01,0,9.11,6.87,4.98,11.04l-24.73,24.95c-.78,.79-2.1,.79-2.88,0l-24.73-24.95c-4.13-4.17-1.04-11.04,4.98-11.04h42.38Z"/><path class="cls-6" d="M56.43,55.16c1.01-.29-4.2-.87-7.16-.73-2.09,.1-3.74,.53-4.34,1.02-1.21,.98-2.44,3.15,1.28,6.65,3.46,3.26,4.23,3.86,6.45,5.83,.42,.37-1.97-3.96-2.05-6.3-.04-1.16,.24-2.55,1.08-3.7,1.46-1.98,2.62-2.16,4.74-2.77Z"/><path class="cls-5" d="M73.16,15.62c.43,.37,1.32,.4,1.74,0,.49-.47,.35-1.52-.33-1.88-.36-.19-1.03-.27-1.44,.08-.49,.43-.47,1.38,.03,1.8Z"/></g><g><g><polygon class="cls-23" points="66.9 6.12 59.53 7.67 65.22 9.89 66.9 6.12"/><polygon class="cls-23" points="52.78 48.25 44.42 52.76 53.45 55.85 52.78 48.25"/><path class="cls-23" d="M52.32,14.21h45.8c4.18,0,7.57,3.39,7.57,7.57v21.85c0,4.18-3.39,7.57-7.57,7.57H52.32V14.21h0Z" transform="translate(46.3 111.7) rotate(-90)"/><path class="cls-23" d="M101.87,47.47c6.49,0,9.83,7.44,5.37,11.95l-26.68,27.02c-.84,.85-2.26,.85-3.1,0l-26.68-27.02c-4.46-4.52-1.12-11.95,5.37-11.95h45.73Z"/></g><g><polygon class="cls-19" points="66.55 5.99 59.19 7.56 64.88 9.81 66.55 5.99"/><polygon class="cls-19" points="52.44 48.63 44.07 53.2 53.1 56.32 52.44 48.63"/><path class="cls-19" d="M51.65,14.4h46.44c4.18,0,7.57,3.39,7.57,7.57v21.85c0,4.18-3.39,7.57-7.57,7.57H51.65V14.4h0Z" transform="translate(45.76 111.55) rotate(-90)"/><path class="cls-19" d="M101.52,47.84c6.49,0,9.83,7.53,5.37,12.1l-26.68,27.35c-.84,.86-2.26,.86-3.1,0l-26.68-27.35c-4.46-4.57-1.12-12.1,5.37-12.1h45.73Z"/></g><polygon class="cls-8" points="92.04 52.45 85.13 57.91 85.3 40.79 92.04 40.79 92.04 52.45"/><path class="cls-12" d="M44.55,16.29h49.5c4.18,0,7.57,3.39,7.57,7.57v23.94c0,4.18-3.39,7.57-7.57,7.57H44.55V16.29h0Z" transform="translate(37.26 108.92) rotate(-90)"/><path class="cls-12" d="M97.26,51.44c6.86,0,10.39,7.95,5.67,12.78l-28.2,28.89c-.89,.91-2.39,.91-3.28,0l-28.2-28.89c-4.71-4.83-1.18-12.78,5.67-12.78h48.33Z"/><g><path class="cls-25" d="M46.8,17.8h45.01c4.18,0,7.57,3.39,7.57,7.57v20.87c0,4.18-3.39,7.57-7.57,7.57H46.8V17.8h0Z" transform="translate(37.28 108.9) rotate(-90)"/><path class="cls-25" d="M95.35,52.72c6.32,0,9.57,7.33,5.23,11.78l-25.98,26.62c-.82,.84-2.2,.84-3.02,0l-25.98-26.62c-4.34-4.45-1.09-11.78,5.23-11.78h44.52Z"/></g><path class="cls-20" d="M47.88,18.54h43.31c3.93,0,7.12,3.19,7.12,7.12v20.29c0,3.93-3.19,7.12-7.12,7.12H47.88V18.54h0Z" transform="translate(37.28 108.9) rotate(-90)"/><path class="cls-17" d="M94.29,53.57c6.01,0,9.11,6.87,4.98,11.04l-24.73,24.95c-.78,.79-2.1,.79-2.88,0l-24.73-24.95c-4.13-4.17-1.04-11.04,4.98-11.04h42.38Z"/><path class="cls-3" d="M57.73,54.14c-.13-1.08,1.19-6.15,1.05-18.22-.07-6.2-.32-12.01-.74-16.13-.45-4.48,.67-6.85,3.69-7.07,6.29-.46,9.2,.53,9.97,2.11,.38,.77-1.64,1.27-3.23,2.3-5.21,3.4-4.69,9.27-6.57,19.76-1.28,7.15-4.11,17.8-4.17,17.25Z"/><path class="cls-3" d="M57.14,54.92c1.01-.29-4.2-.87-7.16-.73-2.09,.1-3.74,.53-4.34,1.02-1.21,.98-2.44,3.15,1.28,6.65,3.46,3.26,4.23,3.86,6.45,5.83,.42,.37-1.97-3.96-2.05-6.3-.04-1.16,.24-2.55,1.08-3.7,1.46-1.98,2.62-2.16,4.74-2.77Z"/><path class="cls-1" d="M73.87,15.38c.43,.37,1.32,.4,1.74,0,.49-.47,.35-1.52-.33-1.88-.36-.19-1.03-.27-1.44,.08-.49,.43-.47,1.38,.03,1.8Z"/></g></g><g id="Camada_2"><rect class="cls-1" x="106.16" y="40.65" width="31.43" height="198.75" rx="11.22" ry="11.22" transform="translate(261.9 18.15) rotate(90)"/><rect class="cls-11" x="27.41" y="127.62" width="188.92" height="24.82" rx="7.77" ry="7.77"/><g><path class="cls-19" d="M59.9,138.42c.45-.65,.89-1.27,1.31-1.86,.42-.59,.79-1.04,1.12-1.34,.14-.13,.42-.23,.83-.29,.41-.06,.84-.09,1.28-.09,.44,0,.85,.04,1.21,.1,.36,.06,.57,.15,.62,.26,.09,.19,.16,.77,.21,1.72,.05,.95,.08,1.98,.08,3.09s-.03,2.13-.08,3.07c-.05,.94-.14,1.5-.27,1.67-.1,.11-.56,.17-1.39,.2-.83,.03-1.42,.01-1.76-.06-.14-.03-.26-.41-.38-1.15-.11-.74-.19-1.49-.23-2.24-.09,.09-.25,.26-.49,.5-.24,.24-.49,.48-.76,.74s-.53,.48-.78,.67c-.25,.19-.43,.29-.55,.29s-.3-.09-.54-.28c-.24-.19-.49-.4-.75-.64-.26-.24-.5-.48-.72-.71s-.38-.39-.47-.48c-.05,.71-.14,1.42-.25,2.15-.11,.73-.23,1.11-.36,1.15-.17,.05-.42,.08-.75,.09s-.67,0-1.01,0c-.34-.01-.65-.04-.92-.08-.27-.04-.43-.09-.46-.14-.12-.17-.22-.73-.28-1.7s-.1-2-.1-3.12c0-1.12,.01-2.15,.05-3.1,.04-.95,.11-1.5,.21-1.65,.07-.11,.29-.19,.65-.25,.36-.06,.77-.09,1.2-.1s.86,.03,1.26,.09c.4,.06,.68,.16,.82,.29,.32,.3,.69,.75,1.12,1.34s.87,1.21,1.31,1.86Z"/><path class="cls-19" d="M77.67,140.64c-.24,1.39-.93,2.52-2.09,3.37s-2.5,1.16-4.03,.91c-1.48-.24-2.64-.92-3.49-2.05-.85-1.13-1.16-2.38-.93-3.75,.21-1.27,.85-2.34,1.9-3.21,1.05-.86,2.28-1.24,3.68-1.12,1.69,.14,3,.76,3.93,1.86,.94,1.1,1.27,2.43,1.01,3.98Zm-3.92-.56c.06-.38,0-.7-.22-.97-.21-.27-.52-.43-.93-.5-.38-.06-.72,.02-1.01,.24s-.46,.5-.52,.85c-.07,.41,.05,.77,.36,1.09,.31,.32,.69,.45,1.15,.39,.31-.03,.58-.15,.79-.36s.34-.46,.39-.74Z"/><path class="cls-19" d="M84.01,139.13c.34-.75,.68-1.5,1.04-2.25s.67-1.36,.95-1.82c.11-.19,.39-.25,.83-.18s.9,.21,1.36,.41c.47,.21,.87,.46,1.22,.75,.34,.29,.48,.56,.4,.82-.1,.3-.33,.87-.72,1.71s-.8,1.72-1.26,2.62c-.46,.91-.9,1.73-1.33,2.46-.43,.73-.74,1.14-.92,1.23-.08,.04-.27,.07-.56,.09-.29,.02-.6,.03-.94,.03s-.65-.01-.94-.03c-.29-.02-.48-.05-.56-.08-.19-.08-.5-.47-.93-1.17s-.89-1.49-1.36-2.37c-.48-.88-.92-1.75-1.33-2.61-.41-.86-.68-1.48-.82-1.87-.09-.25,.04-.52,.37-.82,.33-.29,.73-.54,1.19-.75s.91-.35,1.35-.41c.44-.07,.72,0,.84,.18,.38,.62,.74,1.29,1.09,2,.35,.71,.69,1.4,1.03,2.07Z"/><path class="cls-19" d="M94.14,141.47c.8,0,1.52-.03,2.16-.07s1.02,0,1.13,.13c.12,.1,.21,.52,.27,1.27,.06,.75,.04,1.29-.07,1.62-.05,.14-.4,.26-1.07,.35-.67,.09-1.42,.16-2.26,.19-.83,.03-1.63,.04-2.4,.02-.77-.02-1.26-.08-1.5-.18-.14-.05-.25-.41-.34-1.07-.09-.66-.16-1.43-.21-2.32-.05-.89-.08-1.79-.09-2.71s0-1.67,.03-2.25c0-.32,.03-.61,.08-.87,.05-.26,.14-.43,.25-.49s.51-.12,1.2-.17,1.43-.08,2.23-.09c.8-.01,1.54,0,2.21,.04,.68,.04,1.07,.1,1.17,.2,.12,.1,.19,.48,.21,1.15,.02,.67-.03,1.17-.13,1.52-.05,.16-.37,.26-.96,.29-.59,.04-1.28,.07-2.07,.1,0,.05,0,.11,0,.19,0,.07,0,.13,.01,.19,.51,0,.93,.05,1.26,.11,.08,.02,.15,.15,.23,.39,.08,.24,.13,.5,.16,.79,.03,.29,.03,.55,0,.79-.03,.24-.11,.37-.24,.39-.09,.03-.26,.05-.5,.07-.24,.02-.5,.03-.8,.04v.39Z"/><path class="cls-19" d="M105.54,140.74c.46,.38,.87,.74,1.22,1.09,.35,.35,.53,.62,.53,.8,0,.13-.08,.32-.23,.57s-.32,.5-.52,.76-.38,.47-.57,.66c-.18,.19-.31,.29-.38,.29-.3,.06-.73-.09-1.29-.45s-1.02-.59-1.37-.71c-.34-.1-.52-.06-.55,.13,0,.32-.03,.56-.09,.73s-.29,.27-.67,.31c-.44,.04-.94,.07-1.5,.07-.56,0-.92,0-1.07-.04-.1-.02-.19-.08-.25-.17-.09-.12-.19-.67-.29-1.64s-.19-2.04-.25-3.18-.08-2.19-.08-3.14c0-.95,.08-1.47,.21-1.54,.5-.27,1.16-.46,2-.58s1.67-.1,2.49,.06,1.57,.49,2.22,.99c.65,.5,1.05,1.24,1.2,2.2,.19,1.29-.07,2.22-.78,2.79Zm-3.44-1.26c.35-.04,.62-.16,.81-.37,.19-.21,.29-.43,.28-.66,0-.23-.11-.43-.33-.6-.22-.17-.55-.23-1.01-.18-.37,.04-.52,.36-.44,.96,.08,.6,.31,.89,.69,.85Z"/><path class="cls-19" d="M121.17,139.43c-.16,.98-.62,1.8-1.38,2.46-.76,.66-1.67,.94-2.73,.85-.04,.51-.09,.94-.15,1.29-.06,.35-.12,.56-.19,.64-.1,.17-.56,.28-1.4,.31-.84,.04-1.43-.02-1.78-.17-.16-.07-.29-.51-.41-1.33-.12-.82-.22-1.74-.29-2.77s-.12-2.01-.15-2.96-.02-1.58,.01-1.91c.03-.3,.29-.53,.79-.69,.49-.16,1.07-.26,1.72-.3s1.31-.03,1.97,.04c.66,.07,1.18,.18,1.54,.33,1.95,.8,2.76,2.19,2.44,4.2Zm-2.94-.8c-.1-.48-.44-.74-1-.8-.1,0-.19,0-.25,0-.44,.08-.64,.38-.59,.91s.19,.88,.44,1.03c.11,.08,.28,.09,.5,.05,.33-.05,.58-.19,.75-.41,.17-.23,.22-.49,.16-.79Z"/><path class="cls-19" d="M122.23,144.77c-.09-.09-.13-.2-.14-.32,0-.43,.07-1.07,.23-1.94,.16-.86,.37-1.76,.62-2.69s.51-1.8,.78-2.62c.28-.81,.52-1.39,.72-1.72,.08-.13,.32-.24,.72-.35,.4-.1,.84-.18,1.32-.22s.95-.04,1.39,0,.76,.14,.94,.3c.25,.24,.56,.76,.91,1.57s.69,1.69,1.02,2.64c.33,.95,.63,1.87,.9,2.74,.26,.88,.44,1.49,.53,1.86,.06,.27,.04,.45-.05,.55-.1,.1-.26,.18-.5,.22-.4,.07-.9,.12-1.49,.15-.59,.03-.97,.04-1.12,.02-.06,0-.11-.03-.16-.06-.16-.1-.32-.38-.47-.84-.15-.46-.3-.78-.45-.95-.09-.1-.2-.16-.34-.18h-1.12c-.35,0-.58,.11-.68,.33-.14,.28-.29,.59-.46,.93-.17,.34-.3,.55-.38,.63-.04,.05-.1,.08-.18,.1-.19,.04-.63,.05-1.32,.03-.7-.02-1.09-.09-1.19-.2Zm4.43-5.85c-.15,.15-.3,.41-.45,.78-.15,.36-.2,.6-.16,.72,.07,.19,.36,.28,.89,.26,.52-.02,.8-.14,.85-.37,.03-.14-.11-.45-.41-.94-.3-.49-.54-.64-.72-.45Z"/><path class="cls-19" d="M139.5,140.74c.46,.38,.87,.74,1.22,1.09,.35,.35,.53,.62,.53,.8,0,.13-.08,.32-.23,.57s-.32,.5-.52,.76-.38,.47-.57,.66c-.18,.19-.31,.29-.38,.29-.3,.06-.73-.09-1.29-.45s-1.02-.59-1.37-.71c-.34-.1-.52-.06-.55,.13,0,.32-.03,.56-.09,.73s-.29,.27-.67,.31c-.44,.04-.94,.07-1.5,.07-.56,0-.92,0-1.07-.04-.1-.02-.19-.08-.25-.17-.09-.12-.19-.67-.29-1.64s-.19-2.04-.25-3.18-.08-2.19-.08-3.14c0-.95,.08-1.47,.21-1.54,.5-.27,1.16-.46,2-.58s1.67-.1,2.49,.06,1.57,.49,2.22,.99c.65,.5,1.05,1.24,1.2,2.2,.19,1.29-.07,2.22-.78,2.79Zm-3.44-1.26c.35-.04,.62-.16,.81-.37,.19-.21,.29-.43,.28-.66,0-.23-.11-.43-.33-.6-.22-.17-.55-.23-1.01-.18-.37,.04-.52,.36-.44,.96,.08,.6,.31,.89,.69,.85Z"/><path class="cls-19" d="M141.84,144.77c-.09-.09-.13-.2-.14-.32,0-.43,.07-1.07,.23-1.94,.16-.86,.37-1.76,.62-2.69s.51-1.8,.78-2.62c.28-.81,.52-1.39,.72-1.72,.08-.13,.32-.24,.72-.35,.4-.1,.84-.18,1.32-.22s.95-.04,1.39,0,.76,.14,.94,.3c.25,.24,.56,.76,.91,1.57s.69,1.69,1.02,2.64c.33,.95,.63,1.87,.9,2.74,.26,.88,.44,1.49,.53,1.86,.06,.27,.04,.45-.05,.55-.1,.1-.26,.18-.5,.22-.4,.07-.9,.12-1.49,.15-.59,.03-.97,.04-1.12,.02-.06,0-.11-.03-.16-.06-.16-.1-.32-.38-.47-.84-.15-.46-.3-.78-.45-.95-.09-.1-.2-.16-.34-.18h-1.12c-.35,0-.58,.11-.68,.33-.14,.28-.29,.59-.46,.93-.17,.34-.3,.55-.38,.63-.04,.05-.1,.08-.18,.1-.19,.04-.63,.05-1.32,.03-.7-.02-1.09-.09-1.19-.2Zm4.43-5.85c-.15,.15-.3,.41-.45,.78-.15,.36-.2,.6-.16,.72,.07,.19,.36,.28,.89,.26,.52-.02,.8-.14,.85-.37,.03-.14-.11-.45-.41-.94-.3-.49-.54-.64-.72-.45Z"/><path class="cls-19" d="M163.7,144.67c-.05,.09-.22,.16-.5,.21-.28,.05-.6,.09-.95,.1-.35,.01-.7,0-1.05-.02-.35-.03-.61-.08-.79-.15-.19-.08-.35-.73-.5-1.95-.15-1.22-.26-2.46-.34-3.71-.67-.01-1.26-.05-1.74-.1-.49-.06-.76-.14-.81-.24-.09-.17-.16-.44-.22-.81s-.1-.76-.12-1.15c-.02-.39-.01-.74,.01-1.06,.02-.32,.08-.5,.17-.55,.13-.1,.58-.18,1.34-.25,.76-.06,1.64-.1,2.62-.13,.99-.02,1.99-.03,3.01-.02s1.86,.04,2.52,.08c.26,.02,.44,.23,.53,.65s.13,.87,.1,1.37c-.03,.5-.11,.95-.24,1.37-.13,.42-.29,.63-.48,.64-.17,.03-.45,.05-.83,.08-.38,.02-.81,.05-1.29,.06-.01,1.25-.06,2.45-.14,3.6s-.19,1.82-.32,1.99Z"/><path class="cls-19" d="M174.91,140.74c.46,.38,.87,.74,1.22,1.09,.35,.35,.53,.62,.53,.8,0,.13-.08,.32-.23,.57s-.32,.5-.52,.76-.38,.47-.57,.66c-.18,.19-.31,.29-.38,.29-.3,.06-.73-.09-1.29-.45s-1.02-.59-1.37-.71c-.34-.1-.52-.06-.55,.13,0,.32-.03,.56-.09,.73s-.29,.27-.67,.31c-.44,.04-.94,.07-1.5,.07-.56,0-.92,0-1.07-.04-.1-.02-.19-.08-.25-.17-.09-.12-.19-.67-.29-1.64s-.19-2.04-.25-3.18-.08-2.19-.08-3.14c0-.95,.08-1.47,.21-1.54,.5-.27,1.16-.46,2-.58s1.67-.1,2.49,.06,1.57,.49,2.22,.99c.65,.5,1.05,1.24,1.2,2.2,.19,1.29-.07,2.22-.78,2.79Zm-3.44-1.26c.35-.04,.62-.16,.81-.37,.19-.21,.29-.43,.28-.66,0-.23-.11-.43-.33-.6-.22-.17-.55-.23-1.01-.18-.37,.04-.52,.36-.44,.96,.08,.6,.31,.89,.69,.85Z"/><path class="cls-19" d="M177.26,144.77c-.09-.09-.13-.2-.14-.32,0-.43,.07-1.07,.23-1.94,.16-.86,.37-1.76,.62-2.69s.51-1.8,.78-2.62c.28-.81,.52-1.39,.72-1.72,.16-.25,.67-.42,1.55-.5s1.61-.1,2.18-.05c.23,.02,.45,.11,.64,.29,.25,.24,.56,.76,.91,1.57s.69,1.69,1.02,2.64c.33,.95,.63,1.87,.9,2.74,.26,.88,.44,1.49,.53,1.86,.06,.27,.04,.45-.05,.55-.1,.1-.26,.18-.5,.22-.4,.07-.9,.12-1.49,.15-.59,.03-.97,.04-1.12,.02-.06,0-.11-.03-.16-.06-.16-.1-.32-.38-.47-.84-.15-.46-.3-.78-.45-.95-.09-.1-.2-.16-.34-.18h-1.12c-.35,0-.58,.11-.68,.33-.14,.28-.29,.59-.46,.93-.17,.34-.3,.55-.38,.63-.04,.05-.1,.08-.18,.1-.19,.04-.63,.05-1.32,.03-.7-.02-1.09-.09-1.19-.2Zm4.76-10.36c-.1-.03-.27-.21-.52-.56s-.41-.65-.49-.9c-.04-.11,.06-.27,.3-.49,.24-.22,.53-.45,.86-.68,.33-.23,.66-.44,.98-.62,.33-.18,.55-.29,.69-.33,.1-.03,.25,.06,.43,.26,.18,.2,.36,.43,.52,.69s.29,.51,.39,.75c.1,.24,.11,.38,.04,.44-.39,.3-.98,.65-1.76,1.02s-1.26,.52-1.44,.44Zm-.33,4.52c-.15,.15-.3,.41-.45,.78-.15,.36-.2,.6-.16,.72,.07,.19,.36,.28,.89,.26,.52-.02,.8-.14,.85-.37,.03-.14-.11-.45-.41-.94-.3-.49-.54-.64-.72-.45Z"/><path class="cls-19" d="M192.12,138.1c-.1,0-.18-.02-.26-.07-.1-.07-.14-.14-.15-.22,0-.08-.05-.15-.14-.23-.23-.17-.52-.14-.87,.09-.35,.23-.21,.42,.44,.54,.07,.01,.14,.03,.23,.04,.08,.02,.17,.03,.25,.04,1.05,.18,1.88,.48,2.48,.91,.75,.53,1.18,1.22,1.29,2.08,.11,.86-.13,1.62-.74,2.3-.71,.8-1.67,1.26-2.89,1.38-1.21,.12-2.26-.13-3.15-.74-.76-.52-1.24-1.17-1.43-1.96-.08-.37,.11-.66,.57-.86,.21-.09,.43-.16,.68-.2,.25-.04,.49-.06,.71-.07,.37,0,.71,.04,1.01,.13s.47,.21,.51,.37c0,.03,.02,.06,.03,.09,.05,.11,.15,.19,.29,.25,.17,.07,.37,.06,.59-.03s.29-.23,.19-.44c-.05-.1-.19-.18-.41-.24-.53-.15-1.06-.26-1.59-.34-.53-.08-1.03-.29-1.5-.63-.34-.24-.61-.57-.8-.98-.19-.42-.26-.97-.2-1.65,.09-.92,.55-1.68,1.37-2.28,.48-.35,1.03-.58,1.65-.7,.62-.12,1.22-.12,1.8,0,.58,.12,1.11,.35,1.58,.7,.47,.35,.79,.82,.97,1.4,.07,.23,0,.42-.19,.58s-.45,.29-.74,.4c-.3,.11-.6,.19-.91,.24-.31,.05-.54,.08-.7,.09Z"/></g><g><path class="cls-25" d="M58.54,138.5c.45-.65,.89-1.27,1.31-1.86,.42-.59,.79-1.04,1.12-1.34,.14-.13,.42-.23,.83-.29,.41-.06,.84-.09,1.28-.09,.44,0,.85,.04,1.21,.1,.36,.06,.57,.15,.62,.26,.09,.19,.16,.77,.21,1.72,.05,.95,.08,1.98,.08,3.09s-.03,2.13-.08,3.07c-.05,.94-.14,1.5-.27,1.67-.1,.11-.56,.17-1.39,.2-.83,.03-1.42,.01-1.76-.06-.14-.03-.26-.41-.38-1.15-.11-.74-.19-1.49-.23-2.24-.09,.09-.25,.26-.49,.5-.24,.24-.49,.48-.76,.74s-.53,.48-.78,.67c-.25,.19-.43,.29-.55,.29s-.3-.09-.54-.28c-.24-.19-.49-.4-.75-.64-.26-.24-.5-.48-.72-.71s-.38-.39-.47-.48c-.05,.71-.14,1.42-.25,2.15-.11,.73-.23,1.11-.36,1.15-.17,.05-.42,.08-.75,.09s-.67,0-1.01,0c-.34-.01-.65-.04-.92-.08-.27-.04-.43-.09-.46-.14-.12-.17-.22-.73-.28-1.7s-.1-2-.1-3.12c0-1.12,.01-2.15,.05-3.1,.04-.95,.11-1.5,.21-1.65,.07-.11,.29-.19,.65-.25,.36-.06,.77-.09,1.2-.1s.86,.03,1.26,.09c.4,.06,.68,.16,.82,.29,.32,.3,.69,.75,1.12,1.34s.87,1.21,1.31,1.86Z"/><path class="cls-25" d="M76.31,140.72c-.24,1.39-.93,2.52-2.09,3.37s-2.5,1.16-4.03,.91c-1.48-.24-2.64-.92-3.49-2.05-.85-1.13-1.16-2.38-.93-3.75,.21-1.27,.85-2.34,1.9-3.21,1.05-.86,2.28-1.24,3.68-1.12,1.69,.14,3,.76,3.93,1.86,.94,1.1,1.27,2.43,1.01,3.98Zm-3.92-.56c.06-.38,0-.7-.22-.97-.21-.27-.52-.43-.93-.5-.38-.06-.72,.02-1.01,.24s-.46,.5-.52,.85c-.07,.41,.05,.77,.36,1.09,.31,.32,.69,.45,1.15,.39,.31-.03,.58-.15,.79-.36s.34-.46,.39-.74Z"/><path class="cls-25" d="M82.65,139.22c.34-.75,.68-1.5,1.04-2.25s.67-1.36,.95-1.82c.11-.19,.39-.25,.83-.18s.9,.21,1.36,.41c.47,.21,.87,.46,1.22,.75,.34,.29,.48,.56,.4,.82-.1,.3-.33,.87-.72,1.71s-.8,1.72-1.26,2.62c-.46,.91-.9,1.73-1.33,2.46-.43,.73-.74,1.14-.92,1.23-.08,.04-.27,.07-.56,.09-.29,.02-.6,.03-.94,.03s-.65-.01-.94-.03c-.29-.02-.48-.05-.56-.08-.19-.08-.5-.47-.93-1.17s-.89-1.49-1.36-2.37c-.48-.88-.92-1.75-1.33-2.61-.41-.86-.68-1.48-.82-1.87-.09-.25,.04-.52,.37-.82,.33-.29,.73-.54,1.19-.75s.91-.35,1.35-.41c.44-.07,.72,0,.84,.18,.38,.62,.74,1.29,1.09,2,.35,.71,.69,1.4,1.03,2.07Z"/><path class="cls-25" d="M92.78,141.55c.8,0,1.52-.03,2.16-.07s1.02,0,1.13,.13c.12,.1,.21,.52,.27,1.27,.06,.75,.04,1.29-.07,1.62-.05,.14-.4,.26-1.07,.35-.67,.09-1.42,.16-2.26,.19-.83,.03-1.63,.04-2.4,.02-.77-.02-1.26-.08-1.5-.18-.14-.05-.25-.41-.34-1.07-.09-.66-.16-1.43-.21-2.32-.05-.89-.08-1.79-.09-2.71s0-1.67,.03-2.25c0-.32,.03-.61,.08-.87,.05-.26,.14-.43,.25-.49s.51-.12,1.2-.17,1.43-.08,2.23-.09c.8-.01,1.54,0,2.21,.04,.68,.04,1.07,.1,1.17,.2,.12,.1,.19,.48,.21,1.15,.02,.67-.03,1.17-.13,1.52-.05,.16-.37,.26-.96,.29-.59,.04-1.28,.07-2.07,.1,0,.05,0,.11,0,.19,0,.07,0,.13,.01,.19,.51,0,.93,.05,1.26,.11,.08,.02,.15,.15,.23,.39,.08,.24,.13,.5,.16,.79,.03,.29,.03,.55,0,.79-.03,.24-.11,.37-.24,.39-.09,.03-.26,.05-.5,.07-.24,.02-.5,.03-.8,.04v.39Z"/><path class="cls-25" d="M104.19,140.82c.46,.38,.87,.74,1.22,1.09,.35,.35,.53,.62,.53,.8,0,.13-.08,.32-.23,.57s-.32,.5-.52,.76-.38,.47-.57,.66c-.18,.19-.31,.29-.38,.29-.3,.06-.73-.09-1.29-.45s-1.02-.59-1.37-.71c-.34-.1-.52-.06-.55,.13,0,.32-.03,.56-.09,.73s-.29,.27-.67,.31c-.44,.04-.94,.07-1.5,.07-.56,0-.92,0-1.07-.04-.1-.02-.19-.08-.25-.17-.09-.12-.19-.67-.29-1.64s-.19-2.04-.25-3.18-.08-2.19-.08-3.14c0-.95,.08-1.47,.21-1.54,.5-.27,1.16-.46,2-.58s1.67-.1,2.49,.06,1.57,.49,2.22,.99c.65,.5,1.05,1.24,1.2,2.2,.19,1.29-.07,2.22-.78,2.79Zm-3.44-1.26c.35-.04,.62-.16,.81-.37,.19-.21,.29-.43,.28-.66,0-.23-.11-.43-.33-.6-.22-.17-.55-.23-1.01-.18-.37,.04-.52,.36-.44,.96,.08,.6,.31,.89,.69,.85Z"/><path class="cls-25" d="M119.81,139.52c-.16,.98-.62,1.8-1.38,2.46-.76,.66-1.67,.94-2.73,.85-.04,.51-.09,.94-.15,1.29-.06,.35-.12,.56-.19,.64-.1,.17-.56,.28-1.4,.31-.84,.04-1.43-.02-1.78-.17-.16-.07-.29-.51-.41-1.33-.12-.82-.22-1.74-.29-2.77s-.12-2.01-.15-2.96-.02-1.58,.01-1.91c.03-.3,.29-.53,.79-.69,.49-.16,1.07-.26,1.72-.3s1.31-.03,1.97,.04c.66,.07,1.18,.18,1.54,.33,1.95,.8,2.76,2.19,2.44,4.2Zm-2.94-.8c-.1-.48-.44-.74-1-.8-.1,0-.19,0-.25,0-.44,.08-.64,.38-.59,.91s.19,.88,.44,1.03c.11,.08,.28,.09,.5,.05,.33-.05,.58-.19,.75-.41,.17-.23,.22-.49,.16-.79Z"/><path class="cls-25" d="M120.87,144.85c-.09-.09-.13-.2-.14-.32,0-.43,.07-1.07,.23-1.94,.16-.86,.37-1.76,.62-2.69s.51-1.8,.78-2.62c.28-.81,.52-1.39,.72-1.72,.08-.13,.32-.24,.72-.35,.4-.1,.84-.18,1.32-.22s.95-.04,1.39,0,.76,.14,.94,.3c.25,.24,.56,.76,.91,1.57s.69,1.69,1.02,2.64c.33,.95,.63,1.87,.9,2.74,.26,.88,.44,1.49,.53,1.86,.06,.27,.04,.45-.05,.55-.1,.1-.26,.18-.5,.22-.4,.07-.9,.12-1.49,.15-.59,.03-.97,.04-1.12,.02-.06,0-.11-.03-.16-.06-.16-.1-.32-.38-.47-.84-.15-.46-.3-.78-.45-.95-.09-.1-.2-.16-.34-.18h-1.12c-.35,0-.58,.11-.68,.33-.14,.28-.29,.59-.46,.93-.17,.34-.3,.55-.38,.63-.04,.05-.1,.08-.18,.1-.19,.04-.63,.05-1.32,.03-.7-.02-1.09-.09-1.19-.2Zm4.43-5.85c-.15,.15-.3,.41-.45,.78-.15,.36-.2,.6-.16,.72,.07,.19,.36,.28,.89,.26,.52-.02,.8-.14,.85-.37,.03-.14-.11-.45-.41-.94-.3-.49-.54-.64-.72-.45Z"/><path class="cls-25" d="M138.14,140.82c.46,.38,.87,.74,1.22,1.09,.35,.35,.53,.62,.53,.8,0,.13-.08,.32-.23,.57s-.32,.5-.52,.76-.38,.47-.57,.66c-.18,.19-.31,.29-.38,.29-.3,.06-.73-.09-1.29-.45s-1.02-.59-1.37-.71c-.34-.1-.52-.06-.55,.13,0,.32-.03,.56-.09,.73s-.29,.27-.67,.31c-.44,.04-.94,.07-1.5,.07-.56,0-.92,0-1.07-.04-.1-.02-.19-.08-.25-.17-.09-.12-.19-.67-.29-1.64s-.19-2.04-.25-3.18-.08-2.19-.08-3.14c0-.95,.08-1.47,.21-1.54,.5-.27,1.16-.46,2-.58s1.67-.1,2.49,.06,1.57,.49,2.22,.99c.65,.5,1.05,1.24,1.2,2.2,.19,1.29-.07,2.22-.78,2.79Zm-3.44-1.26c.35-.04,.62-.16,.81-.37,.19-.21,.29-.43,.28-.66,0-.23-.11-.43-.33-.6-.22-.17-.55-.23-1.01-.18-.37,.04-.52,.36-.44,.96,.08,.6,.31,.89,.69,.85Z"/><path class="cls-25" d="M140.48,144.85c-.09-.09-.13-.2-.14-.32,0-.43,.07-1.07,.23-1.94,.16-.86,.37-1.76,.62-2.69s.51-1.8,.78-2.62c.28-.81,.52-1.39,.72-1.72,.08-.13,.32-.24,.72-.35,.4-.1,.84-.18,1.32-.22s.95-.04,1.39,0,.76,.14,.94,.3c.25,.24,.56,.76,.91,1.57s.69,1.69,1.02,2.64c.33,.95,.63,1.87,.9,2.74,.26,.88,.44,1.49,.53,1.86,.06,.27,.04,.45-.05,.55-.1,.1-.26,.18-.5,.22-.4,.07-.9,.12-1.49,.15-.59,.03-.97,.04-1.12,.02-.06,0-.11-.03-.16-.06-.16-.1-.32-.38-.47-.84-.15-.46-.3-.78-.45-.95-.09-.1-.2-.16-.34-.18h-1.12c-.35,0-.58,.11-.68,.33-.14,.28-.29,.59-.46,.93-.17,.34-.3,.55-.38,.63-.04,.05-.1,.08-.18,.1-.19,.04-.63,.05-1.32,.03-.7-.02-1.09-.09-1.19-.2Zm4.43-5.85c-.15,.15-.3,.41-.45,.78-.15,.36-.2,.6-.16,.72,.07,.19,.36,.28,.89,.26,.52-.02,.8-.14,.85-.37,.03-.14-.11-.45-.41-.94-.3-.49-.54-.64-.72-.45Z"/><path class="cls-25" d="M162.35,144.75c-.05,.09-.22,.16-.5,.21-.28,.05-.6,.09-.95,.1-.35,.01-.7,0-1.05-.02-.35-.03-.61-.08-.79-.15-.19-.08-.35-.73-.5-1.95-.15-1.22-.26-2.46-.34-3.71-.67-.01-1.26-.05-1.74-.1-.49-.06-.76-.14-.81-.24-.09-.17-.16-.44-.22-.81s-.1-.76-.12-1.15c-.02-.39-.01-.74,.01-1.06,.02-.32,.08-.5,.17-.55,.13-.1,.58-.18,1.34-.25,.76-.06,1.64-.1,2.62-.13,.99-.02,1.99-.03,3.01-.02s1.86,.04,2.52,.08c.26,.02,.44,.23,.53,.65s.13,.87,.1,1.37c-.03,.5-.11,.95-.24,1.37-.13,.42-.29,.63-.48,.64-.17,.03-.45,.05-.83,.08-.38,.02-.81,.05-1.29,.06-.01,1.25-.06,2.45-.14,3.6s-.19,1.82-.32,1.99Z"/><path class="cls-25" d="M173.56,140.82c.46,.38,.87,.74,1.22,1.09,.35,.35,.53,.62,.53,.8,0,.13-.08,.32-.23,.57s-.32,.5-.52,.76-.38,.47-.57,.66c-.18,.19-.31,.29-.38,.29-.3,.06-.73-.09-1.29-.45s-1.02-.59-1.37-.71c-.34-.1-.52-.06-.55,.13,0,.32-.03,.56-.09,.73s-.29,.27-.67,.31c-.44,.04-.94,.07-1.5,.07-.56,0-.92,0-1.07-.04-.1-.02-.19-.08-.25-.17-.09-.12-.19-.67-.29-1.64s-.19-2.04-.25-3.18-.08-2.19-.08-3.14c0-.95,.08-1.47,.21-1.54,.5-.27,1.16-.46,2-.58s1.67-.1,2.49,.06,1.57,.49,2.22,.99c.65,.5,1.05,1.24,1.2,2.2,.19,1.29-.07,2.22-.78,2.79Zm-3.44-1.26c.35-.04,.62-.16,.81-.37,.19-.21,.29-.43,.28-.66,0-.23-.11-.43-.33-.6-.22-.17-.55-.23-1.01-.18-.37,.04-.52,.36-.44,.96,.08,.6,.31,.89,.69,.85Z"/><path class="cls-25" d="M175.9,144.85c-.09-.09-.13-.2-.14-.32,0-.43,.07-1.07,.23-1.94,.16-.86,.37-1.76,.62-2.69s.51-1.8,.78-2.62c.28-.81,.52-1.39,.72-1.72,.16-.25,.67-.42,1.55-.5s1.61-.1,2.18-.05c.23,.02,.45,.11,.64,.29,.25,.24,.56,.76,.91,1.57s.69,1.69,1.02,2.64c.33,.95,.63,1.87,.9,2.74,.26,.88,.44,1.49,.53,1.86,.06,.27,.04,.45-.05,.55-.1,.1-.26,.18-.5,.22-.4,.07-.9,.12-1.49,.15-.59,.03-.97,.04-1.12,.02-.06,0-.11-.03-.16-.06-.16-.1-.32-.38-.47-.84-.15-.46-.3-.78-.45-.95-.09-.1-.2-.16-.34-.18h-1.12c-.35,0-.58,.11-.68,.33-.14,.28-.29,.59-.46,.93-.17,.34-.3,.55-.38,.63-.04,.05-.1,.08-.18,.1-.19,.04-.63,.05-1.32,.03-.7-.02-1.09-.09-1.19-.2Zm4.76-10.36c-.1-.03-.27-.21-.52-.56s-.41-.65-.49-.9c-.04-.11,.06-.27,.3-.49,.24-.22,.53-.45,.86-.68,.33-.23,.66-.44,.98-.62,.33-.18,.55-.29,.69-.33,.1-.03,.25,.06,.43,.26,.18,.2,.36,.43,.52,.69s.29,.51,.39,.75c.1,.24,.11,.38,.04,.44-.39,.3-.98,.65-1.76,1.02s-1.26,.52-1.44,.44Zm-.33,4.52c-.15,.15-.3,.41-.45,.78-.15,.36-.2,.6-.16,.72,.07,.19,.36,.28,.89,.26,.52-.02,.8-.14,.85-.37,.03-.14-.11-.45-.41-.94-.3-.49-.54-.64-.72-.45Z"/><path class="cls-25" d="M190.76,138.18c-.1,0-.18-.02-.26-.07-.1-.07-.14-.14-.15-.22,0-.08-.05-.15-.14-.23-.23-.17-.52-.14-.87,.09-.35,.23-.21,.42,.44,.54,.07,.01,.14,.03,.23,.04,.08,.02,.17,.03,.25,.04,1.05,.18,1.88,.48,2.48,.91,.75,.53,1.18,1.22,1.29,2.08,.11,.86-.13,1.62-.74,2.3-.71,.8-1.67,1.26-2.89,1.38-1.21,.12-2.26-.13-3.15-.74-.76-.52-1.24-1.17-1.43-1.96-.08-.37,.11-.66,.57-.86,.21-.09,.43-.16,.68-.2,.25-.04,.49-.06,.71-.07,.37,0,.71,.04,1.01,.13s.47,.21,.51,.37c0,.03,.02,.06,.03,.09,.05,.11,.15,.19,.29,.25,.17,.07,.37,.06,.59-.03s.29-.23,.19-.44c-.05-.1-.19-.18-.41-.24-.53-.15-1.06-.26-1.59-.34-.53-.08-1.03-.29-1.5-.63-.34-.24-.61-.57-.8-.98-.19-.42-.26-.97-.2-1.65,.09-.92,.55-1.68,1.37-2.28,.48-.35,1.03-.58,1.65-.7,.62-.12,1.22-.12,1.8,0,.58,.12,1.11,.35,1.58,.7,.47,.35,.79,.82,.97,1.4,.07,.23,0,.42-.19,.58s-.45,.29-.74,.4c-.3,.11-.6,.19-.91,.24-.31,.05-.54,.08-.7,.09Z"/></g></g></svg>