<?xml version="1.0" encoding="UTF-8"?><svg xmlns="http://www.w3.org/2000/svg" xmlns:xlink="http://www.w3.org/1999/xlink" viewBox="0 0 246.61 161.57"><defs><style>.cls-1{stroke:#936037;}.cls-1,.cls-2,.cls-3,.cls-4,.cls-5,.cls-6,.cls-7,.cls-8,.cls-9,.cls-10,.cls-11,.cls-12{stroke-miterlimit:10;}.cls-1,.cls-8{fill:#b17f4a;}.cls-2{fill:#cd3234;}.cls-2,.cls-5,.cls-6,.cls-7,.cls-8,.cls-10,.cls-11,.cls-12{stroke:#fff;}.cls-2,.cls-7,.cls-8{stroke-width:5.67px;}.cls-13,.cls-14,.cls-15,.cls-5,.cls-6,.cls-16,.cls-11,.cls-12{fill:#fff;}.cls-17{fill:#898888;}.cls-14,.cls-11{opacity:.9;}.cls-18{fill:#dbdcdb;}.cls-3,.cls-9{stroke:#fdc729;stroke-width:1px;}.cls-3,.cls-19{fill:#ffd455;}.cls-20{clip-path:url(#clippath-2);}.cls-21{fill:#f7d743;}.cls-4{stroke:#ec782d;}.cls-4,.cls-10,.cls-22{fill:none;}.cls-23{fill:#48ae4c;}.cls-24{fill:#585657;}.cls-15,.cls-6{opacity:.8;}.cls-5,.cls-6,.cls-10,.cls-11,.cls-12{stroke-width:5.67px;}.cls-5,.cls-16{opacity:.19;}.cls-7{fill:#be1622;}.cls-25{clip-path:url(#clippath-1);}.cls-26{fill:#ec782d;}.cls-27{fill:#eaeaea;}.cls-9,.cls-28{fill:#fee18b;}.cls-29{fill:url(#Gradiente_sem_nome_13);}.cls-30{clip-path:url(#clippath);}.cls-31{clip-path:url(#clippath-3);}.cls-32{fill:#9b9b9b;}.cls-33{fill:#84c179;}.cls-34{fill:#27a7d9;}</style><clipPath id="clippath"><path class="cls-12" d="M61.13,95.51l47.5-1.39c3.31-.1,5.92-2.96,5.82-6.4h0c-.09-3.44-2.85-6.14-6.16-6.05l-47.5,1.39c-3.31,.1-5.92,2.96-5.82,6.4h0c.09,3.44,2.85,6.14,6.16,6.05Z"/></clipPath><clipPath id="clippath-1"><path class="cls-12" d="M70.37,104.91c5.58-.16,9.98-5,9.82-10.8-.16-5.8-4.81-10.37-10.39-10.21s-9.98,5-9.82,10.8,4.81,10.37,10.39,10.21"/></clipPath><clipPath id="clippath-2"><path class="cls-22" d="M61.35,95.21l47.5-1.38c3.31-.1,5.92-2.95,5.82-6.37h0c-.09-3.42-2.85-6.11-6.16-6.02l-47.5,1.38c-3.31,.1-5.92,2.95-5.82,6.37h0c.09,3.42,2.85,6.11,6.16,6.02Z"/></clipPath><linearGradient id="Gradiente_sem_nome_13" x1="-734.26" y1="61.1" x2="-733.96" y2="95.01" gradientTransform="translate(-791.14 3.88) rotate(178.67) scale(1.21 -1) skewX(-.5)" gradientUnits="userSpaceOnUse"><stop offset="0" stop-color="#228dcd"/><stop offset=".06" stop-color="#2e80b1"/><stop offset=".14" stop-color="#3b7395"/><stop offset=".23" stop-color="#45687e"/><stop offset=".33" stop-color="#4e606c"/><stop offset=".45" stop-color="#535a60"/><stop offset=".62" stop-color="#575659"/><stop offset="1" stop-color="#585657"/></linearGradient><clipPath id="clippath-3"><path class="cls-22" d="M70.58,104.57c5.58-.16,9.98-4.97,9.82-10.74-.16-5.77-4.81-10.32-10.39-10.15s-9.98,4.97-9.82,10.74c.16,5.77,4.81,10.32,10.39,10.15"/></clipPath></defs><g id="Camada_2"><rect class="cls-26" x="0" y="-.05" width="246.61" height="161.57"/><ellipse class="cls-13" cx="125.63" cy="58.02" rx="56.99" ry="55.27"/><rect class="cls-13" x="109.91" y="42.26" width="31.43" height="198.75" rx="11.22" ry="11.22" transform="translate(267.26 16.01) rotate(90)"/><rect class="cls-4" x="31.17" y="129.22" width="188.92" height="24.82" rx="7.77" ry="7.77"/></g><g id="Camada_3"><rect class="cls-8" x="155.22" y="16.63" width="4.21" height="91.67" rx="2.1" ry="2.1" transform="translate(314.64 124.93) rotate(180)"/><path class="cls-2" d="M205.91,52.65c-1.93-1.26-5.16-3.01-9.3-3.33-9.09-.71-13.52,6.11-23.01,7.05-3.44,.34-8.68,.02-15.46-3.72V18.71c7.73,5.68,13.44,6.25,17.32,5.61,6.55-1.08,9.1-5.8,16.82-7.18,5.46-.98,10.32,.29,13.63,1.57V52.65Z"/><path class="cls-7" d="M205.91,52.82c-1.93-1.26-5.16-3.01-9.3-3.33-9.09-.71-13.52,6.11-23.01,7.05-3.44,.34-8.68,.02-15.46-3.72V18.89c.31,15.94,6.52,27.78,14.24,29.29,2.32,.46,5.85,.5,8.54-1.36,5.08-3.52,6.46-7.78,9.15-12.62,2.51-4.5,7.02-7.41,15.85-12.52v31.14Z"/><g><g><path class="cls-12" d="M96.54,103.77c6.13-.18,10.97-5.49,10.8-11.86-.17-6.37-5.29-11.39-11.42-11.21-6.13,.18-10.97,5.49-10.8,11.86,.17,6.37,5.29,11.39,11.42,11.21"/><path class="cls-12" d="M96.02,103.79c6.13-.18,10.97-5.49,10.8-11.86-.17-6.37-5.29-11.39-11.42-11.21s-10.97,5.49-10.8,11.86c.17,6.37,5.29,11.39,11.42,11.21"/></g><path class="cls-12" d="M61.12,95.29l47.5-1.39c3.31-.1,5.92-2.96,5.82-6.4h0c-.09-3.44-2.85-6.14-6.16-6.05l-47.5,1.39c-3.31,.1-5.92,2.96-5.82,6.4h0c.09,3.44,2.85,6.14,6.16,6.05Z"/><g><path class="cls-13" d="M61.13,95.51l47.5-1.39c3.31-.1,5.92-2.96,5.82-6.4h0c-.09-3.44-2.85-6.14-6.16-6.05l-47.5,1.39c-3.31,.1-5.92,2.96-5.82,6.4h0c.09,3.44,2.85,6.14,6.16,6.05Z"/><g class="cls-30"><path class="cls-12" d="M57.94,93.45c-2.22,.06-4.11-1.64-4.37-3.93-.27-2.47-.55-5.39-.59-7.19-.16-8.27-.35-17.96,4.14-26.51,6.73-12.85,20.58-16.62,23.23-17.29,1.24-.31,21.43-5.07,30.44,6.53,.82,1.05,3.2,4.38,4.48,17.96,.85,9.05,.68,16.93,.19,23.17-.25,3.2-2.79,5.68-5.88,5.77-8.03,.23-16.06,.47-24.1,.7-9.18,.27-18.37,.54-27.55,.8Z"/></g><path class="cls-10" d="M61.13,95.51l47.5-1.39c3.31-.1,5.92-2.96,5.82-6.4h0c-.09-3.44-2.85-6.14-6.16-6.05l-47.5,1.39c-3.31,.1-5.92,2.96-5.82,6.4h0c.09,3.44,2.85,6.14,6.16,6.05Z"/></g><path class="cls-12" d="M58.15,91.58c-2.22,.06-4.11-1.64-4.37-3.93-.27-2.47-.55-5.39-.59-7.19-.16-8.27-.35-17.96,4.14-26.51,6.73-12.85,20.58-16.62,23.23-17.29,1.24-.31,21.43-5.07,30.44,6.53,.82,1.05,3.2,4.38,4.48,17.96,.85,9.05,.68,16.93,.19,23.17-.25,3.2-2.79,5.68-5.88,5.77-8.03,.23-16.06,.47-24.1,.7-9.18,.27-18.37,.54-27.55,.8Z"/><path class="cls-12" d="M58.11,91.59c-2.2,.06-4.07-1.62-4.32-3.88-.27-2.43-.55-5.31-.58-7.09-.16-8.15-.34-17.71,4.1-26.15,6.67-12.67,19.3-16.37,21.93-17.02,1.23-.31-31.76,14.43-11.39,40.44,7.98,10.19,45.07,10.23,47.04-16.32,.68-9.13,1.17,17.15,.5,23.04-.35,3.14-3.08,5.4-6.14,5.49-7.95,.23-15.91,.46-23.86,.7-9.09,.27-18.19,.53-27.28,.8Z"/><path class="cls-5" d="M102.17,70.24c-11.69,2.72-27.43-9.88-25.93-19.41,1.21-7.7,13.4-11.58,19.36-12.43,6.02-.85,9.14,.89,9.89,1.34,3.37,2.01,4.82,5.2,5.61,6.95,.57,1.26,4.6,10.48-.24,17.65-3.04,4.5-7.89,5.7-8.69,5.89Z"/><path class="cls-12" d="M113.52,76.74c.1-9.45,.26-15.15,.32-19.72,.03-2.19-.16-4.38-.95-5.59-4.06-6.23-17.73-9.85-27.62-2.22-3.91,3.02-5.27,8.57-5.32,14.03-.04,4.92,1.5,10.11,4.88,14.55"/><path class="cls-12" d="M71.45,106.22c6.29-.18,11.25-5.63,11.07-12.17s-5.42-11.68-11.71-11.5c-6.29,.18-11.25,5.63-11.07,12.17,.18,6.54,5.42,11.68,11.71,11.5"/><path class="cls-12" d="M70.37,104.91c5.58-.16,9.98-5,9.82-10.8-.16-5.8-4.81-10.37-10.39-10.21s-9.98,5-9.82,10.8,4.81,10.37,10.39,10.21"/><path class="cls-11" d="M112.88,76.01c.1-9.15,.9-14.76,.95-19.19,.03-2.12-.16-4.24-.92-5.41-3.93-6.03-17.17-9.54-26.74-2.15-3.79,2.92-5.1,8.3-5.15,13.58-.04,4.76,1.45,9.79,4.73,14.09"/><path class="cls-12" d="M112.88,76.14c.1-9.09,.25-14.56,.31-18.96,.03-2.1-.15-4.21-.91-5.37-3.9-5.99-17.05-9.47-26.55-2.13-3.76,2.9-5.06,8.24-5.11,13.49-.04,4.73,1.44,9.72,4.69,13.99"/><path class="cls-11" d="M112.17,65.16c-.07-4.65-1.48-8.73-3.36-9.91-2.29-1.44-4.44,1.98-5.03,6.01-.25,1.71-.15,5.75-.07,6.76,.09,.03,.15,.15,.17-.19,.1-2.34,.51-4.4,1.35-6.33,.46-1.06,1.11-2.14,1.93-2.72,1.34-.94,2.33,.02,2.98,.8,.89,1.08,1.21,2.19,1.57,3.32"/><path class="cls-12" d="M112.19,65.81c-.07-4.65-1.48-8.73-3.36-9.91-2.29-1.44-4.44,1.98-5.03,6.01-.25,1.71-.15,5.75-.07,6.76,.09,.03,.15,.15,.17-.19,.1-2.34,.51-4.4,1.35-6.33,.46-1.06,1.11-2.14,1.93-2.72,1.34-.94,2.33,.02,2.98,.8,.89,1.08,1.21,2.19,1.57,3.32"/><path class="cls-11" d="M83.32,66c-.22-4.65,1.97-8.83,5.21-10.16,3.97-1.63,8.04,1.62,9.39,5.59,.57,1.68,.71,5.72,.64,6.74-.16,.04-.26,.16-.31-.17-.36-2.33-1.23-4.34-2.88-6.21-.9-1.02-2.13-2.04-3.64-2.56-2.46-.83-4.14,.21-5.23,1.04-1.5,1.15-1.98,2.28-2.54,3.44"/><path class="cls-12" d="M83.34,66.65c-.22-4.65,1.97-8.83,5.21-10.16,3.97-1.63,8.04,1.62,9.39,5.59,.57,1.68,.71,5.72,.64,6.74-.16,.04-.26,.16-.31-.17-.36-2.33-1.23-4.34-2.88-6.21-.9-1.02-2.13-2.04-3.64-2.56-2.46-.83-4.14,.21-5.23,1.04-1.5,1.15-1.98,2.28-2.54,3.44"/><path class="cls-6" d="M93.56,57.03c.65,.16,1.19,.94,1,1.36-.18,.41-1.09,.53-1.58,.09-.34-.3-.54-.91-.28-1.25,.26-.34,.82-.21,.87-.2Z"/><g><path class="cls-13" d="M70.37,104.91c5.58-.16,9.98-5,9.82-10.8-.16-5.8-4.81-10.37-10.39-10.21s-9.98,5-9.82,10.8,4.81,10.37,10.39,10.21"/><g class="cls-25"><polygon class="cls-12" points="57.99 91.81 82.66 91.09 82.51 85.46 57.83 86.18 57.99 91.81"/></g><path class="cls-10" d="M70.37,104.91c5.58-.16,9.98-5,9.82-10.8-.16-5.8-4.81-10.37-10.39-10.21s-9.98,5-9.82,10.8,4.81,10.37,10.39,10.21"/></g><path class="cls-12" d="M69.49,102.64c4.34-.13,7.76-3.88,7.64-8.39s-3.74-8.06-8.08-7.93c-4.34,.13-7.76,3.88-7.64,8.39s3.74,8.06,8.08,7.93"/><path class="cls-12" d="M69.48,102.06c4.03-.12,7.2-3.6,7.09-7.79-.11-4.18-3.47-7.48-7.5-7.36-4.03,.12-7.2,3.6-7.09,7.79,.11,4.18,3.47,7.48,7.5,7.36"/><path class="cls-12" d="M74.83,91.52c-.37,.89-3.64,3.21-5.64,2.88-.58-2.44,.61-5.51,1.5-6.44,.95-.99,4.76,2.07,4.14,3.55Z"/><path class="cls-12" d="M63.51,97.36c.37-.89,3.64-3.21,5.64-2.88,.58,2.44-.61,5.51-1.5,6.44-.95,.99-4.76-2.07-4.14-3.56Z"/><path class="cls-12" d="M72.19,100.26c-.86-.37-3.16-3.72-2.88-5.81,2.34-.64,5.31,.53,6.22,1.44,.97,.97-1.9,4.98-3.35,4.37Z"/><path class="cls-12" d="M66.36,88.61c.86,.37,3.16,3.72,2.87,5.81-2.34,.64-5.31-.54-6.22-1.44-.97-.97,1.91-4.98,3.35-4.37Z"/><g><g><path class="cls-12" d="M57.86,90.47c-.16-.9-.53-3.58-.41-5.14,.24-3.03,.8-5.22,3.26-8.18,2.07-2.49,4.63-3.31,6-3.73,1.13-.35,4.98-1.46,9.33,.4,.98,.42,5.34,2.42,7.38,7.57,1.47,3.72,.93,7.05,.65,8.32l-26.21,.77Z"/><path class="cls-12" d="M58.86,89.88c-.12-.65-.39-2.6-.3-3.73,.17-2.2,.58-3.79,2.37-5.94,1.5-1.81,3.36-2.41,4.36-2.71,.82-.25,3.61-1.06,6.77,.29,.71,.3,3.88,1.76,5.36,5.5,1.07,2.7,.67,5.12,.47,6.04l-19.03,.56Z"/></g><path class="cls-6" d="M72.1,78.48c1.38,.33,2.53,2,2.12,2.9-.39,.86-2.32,1.14-3.38,.19-.72-.64-1.15-1.94-.61-2.66,.55-.72,1.76-.45,1.86-.42Z"/></g></g><g><g><path class="cls-32" d="M96.75,103.43c6.13-.18,10.97-5.46,10.8-11.8-.17-6.34-5.29-11.34-11.42-11.16s-10.97,5.46-10.8,11.8c.17,6.34,5.29,11.34,11.42,11.16"/><path class="cls-24" d="M96.24,103.45c6.13-.18,10.97-5.46,10.8-11.8s-5.29-11.34-11.42-11.16-10.97,5.46-10.8,11.8c.17,6.34,5.29,11.34,11.42,11.16"/></g><path class="cls-27" d="M61.34,94.99l47.5-1.38c3.31-.1,5.92-2.95,5.82-6.37h0c-.09-3.42-2.85-6.11-6.16-6.02l-47.5,1.38c-3.31,.1-5.92,2.95-5.82,6.37h0c.09,3.42,2.85,6.11,6.16,6.02Z"/><g class="cls-20"><path class="cls-18" d="M58.16,93.16c-2.22,.06-4.11-1.64-4.37-3.91-.27-2.46-.55-5.36-.59-7.16-.16-8.23-.35-17.87,4.14-26.38,6.73-12.78,20.58-16.54,23.23-17.2,1.24-.31,21.43-5.05,30.44,6.49,.82,1.05,3.2,4.35,4.48,17.87,.85,9,.68,16.85,.19,23.05-.25,3.18-2.79,5.65-5.88,5.74-8.03,.23-16.06,.47-24.1,.7-9.18,.27-18.37,.53-27.55,.8Z"/></g><path class="cls-9" d="M58.37,91.3c-2.22,.06-4.11-1.64-4.37-3.91-.27-2.46-.55-5.36-.59-7.16-.16-8.23-.35-17.87,4.14-26.38,6.73-12.78,20.58-16.54,23.23-17.2,1.24-.31,21.43-5.05,30.44,6.49,.82,1.05,3.2,4.35,4.48,17.87,.85,9,.68,16.85,.19,23.05-.25,3.18-2.79,5.65-5.88,5.74-8.03,.23-16.06,.47-24.1,.7-9.18,.27-18.37,.53-27.55,.8Z"/><path class="cls-19" d="M58.33,91.31c-2.2,.06-4.07-1.61-4.32-3.86-.27-2.42-.55-5.29-.58-7.06-.16-8.11-.34-17.62,4.1-26.02,6.67-12.61,19.3-16.29,21.93-16.94,1.23-.3-31.76,14.36-11.39,40.24,7.98,10.14,45.07,10.18,47.04-16.24,.68-9.09,1.17,17.06,.5,22.93-.35,3.13-3.08,5.38-6.14,5.47-7.95,.23-15.91,.46-23.86,.69-9.09,.26-18.19,.53-27.28,.79Z"/><path class="cls-16" d="M102.39,70.07c-11.69,2.7-27.43-9.83-25.93-19.31,1.21-7.66,13.4-11.52,19.36-12.37,6.02-.85,9.14,.89,9.89,1.34,3.37,2,4.82,5.18,5.61,6.92,.57,1.25,4.6,10.43-.24,17.56-3.04,4.47-7.89,5.67-8.69,5.86Z"/><path class="cls-24" d="M113.74,76.54c.1-9.41,.26-15.07,.32-19.62,.03-2.17-.16-4.36-.95-5.56-4.06-6.19-17.73-9.8-27.62-2.21-3.91,3.01-5.27,8.53-5.32,13.96-.04,4.9,1.5,10.06,4.88,14.48"/><path class="cls-24" d="M71.67,105.86c6.29-.18,11.25-5.6,11.07-12.11-.18-6.5-5.42-11.63-11.71-11.44-6.29,.18-11.25,5.6-11.07,12.11s5.42,11.63,11.71,11.44"/><path class="cls-32" d="M70.58,104.57c5.58-.16,9.98-4.97,9.82-10.74-.16-5.77-4.81-10.32-10.39-10.15s-9.98,4.97-9.82,10.74c.16,5.77,4.81,10.32,10.39,10.15"/><path class="cls-14" d="M113.1,75.8c.1-9.11,.9-14.69,.95-19.09,.03-2.11-.16-4.22-.92-5.38-3.93-6-17.17-9.49-26.74-2.14-3.79,2.91-5.1,8.26-5.15,13.52-.04,4.74,1.45,9.74,4.73,14.02"/><path class="cls-29" d="M113.1,75.94c.1-9.04,.25-14.49,.31-18.86,.03-2.09-.15-4.19-.91-5.34-3.9-5.96-17.05-9.42-26.55-2.12-3.76,2.89-5.06,8.2-5.11,13.42-.04,4.71,1.44,9.68,4.69,13.92"/><path class="cls-14" d="M112.39,65.01c-.07-4.63-1.48-8.69-3.36-9.86-2.29-1.44-4.44,1.97-5.03,5.98-.25,1.7-.15,5.72-.07,6.73,.09,.03,.15,.15,.17-.19,.1-2.33,.51-4.37,1.35-6.3,.46-1.06,1.11-2.13,1.93-2.7,1.34-.94,2.33,.02,2.98,.8,.89,1.08,1.21,2.18,1.57,3.3"/><path class="cls-34" d="M112.4,65.65c-.07-4.63-1.48-8.69-3.36-9.86-2.29-1.44-4.44,1.97-5.03,5.98-.25,1.7-.15,5.72-.07,6.73,.09,.03,.15,.15,.17-.19,.1-2.33,.51-4.37,1.35-6.3,.46-1.06,1.11-2.13,1.93-2.7,1.34-.94,2.33,.02,2.98,.8,.89,1.08,1.21,2.18,1.57,3.3"/><path class="cls-14" d="M83.54,65.85c-.22-4.62,1.97-8.79,5.21-10.11,3.97-1.62,8.04,1.61,9.39,5.57,.57,1.67,.71,5.69,.64,6.71-.16,.04-.26,.16-.31-.17-.36-2.31-1.23-4.32-2.88-6.18-.9-1.02-2.13-2.03-3.64-2.54-2.46-.83-4.14,.2-5.23,1.04-1.5,1.15-1.98,2.27-2.54,3.42"/><path class="cls-34" d="M83.55,66.49c-.22-4.62,1.97-8.79,5.21-10.11,3.97-1.62,8.04,1.61,9.39,5.57,.57,1.67,.71,5.69,.64,6.71-.16,.04-.26,.16-.31-.17-.36-2.31-1.23-4.32-2.88-6.18-.9-1.02-2.13-2.03-3.64-2.54-2.46-.83-4.14,.2-5.23,1.04-1.5,1.15-1.98,2.27-2.54,3.42"/><path class="cls-15" d="M93.78,56.92c.65,.16,1.19,.93,1,1.35-.18,.4-1.09,.53-1.58,.09-.34-.3-.54-.91-.28-1.24,.26-.34,.82-.21,.87-.2Z"/><g class="cls-31"><polygon class="cls-17" points="58.2 91.53 82.88 90.82 82.73 85.21 58.05 85.93 58.2 91.53"/></g><path class="cls-24" d="M69.71,102.31c4.34-.13,7.76-3.86,7.64-8.35-.12-4.49-3.74-8.02-8.08-7.89-4.34,.13-7.76,3.86-7.64,8.35s3.74,8.02,8.08,7.89"/><path class="cls-19" d="M69.7,101.73c4.03-.12,7.2-3.59,7.09-7.75s-3.47-7.44-7.5-7.33c-4.03,.12-7.2,3.59-7.09,7.75s3.47,7.44,7.5,7.33"/><path class="cls-28" d="M75.05,91.24c-.37,.88-3.64,3.2-5.64,2.87-.58-2.43,.61-5.48,1.5-6.4,.95-.99,4.76,2.06,4.14,3.54Z"/><path class="cls-28" d="M63.73,97.06c.37-.88,3.64-3.2,5.64-2.87,.58,2.43-.61,5.48-1.5,6.4-.95,.99-4.76-2.06-4.14-3.54Z"/><path class="cls-28" d="M72.41,99.94c-.86-.36-3.16-3.7-2.88-5.78,2.34-.64,5.31,.53,6.22,1.43,.97,.97-1.9,4.95-3.35,4.35Z"/><path class="cls-28" d="M66.58,88.35c.86,.36,3.16,3.7,2.87,5.78-2.34,.64-5.31-.53-6.22-1.44-.97-.97,1.91-4.95,3.35-4.34Z"/><g><g><path class="cls-3" d="M58.08,90.2c-.16-.9-.53-3.56-.41-5.12,.24-3.01,.8-5.19,3.26-8.14,2.07-2.48,4.63-3.3,6-3.72,1.13-.34,4.98-1.45,9.33,.39,.98,.42,5.34,2.41,7.38,7.53,1.47,3.7,.93,7.02,.65,8.28l-26.21,.76Z"/><path class="cls-28" d="M59.08,89.61c-.12-.65-.39-2.58-.3-3.71,.17-2.19,.58-3.77,2.37-5.91,1.5-1.8,3.36-2.39,4.36-2.7,.82-.25,3.61-1.05,6.77,.29,.71,.3,3.88,1.75,5.36,5.47,1.07,2.69,.67,5.1,.47,6.01l-19.03,.55Z"/></g><path class="cls-15" d="M72.32,78.26c1.38,.33,2.53,1.99,2.12,2.88-.39,.86-2.32,1.13-3.38,.19-.72-.64-1.15-1.93-.61-2.65,.55-.72,1.76-.45,1.86-.42Z"/></g></g><rect class="cls-1" x="155.41" y="16.17" width="4.21" height="91.67" rx="2.1" ry="2.1" transform="translate(315.04 124.01) rotate(180)"/><path class="cls-33" d="M205.91,52.65c-1.93-1.26-5.16-3.01-9.3-3.33-9.09-.71-13.52,6.11-23.01,7.05-3.44,.34-8.68,.02-15.46-3.72V18.71c7.73,5.68,13.44,6.25,17.32,5.61,6.55-1.08,9.1-5.8,16.82-7.18,5.46-.98,10.32,.29,13.63,1.57V52.65Z"/><path class="cls-23" d="M205.91,52.65c-1.93-1.26-5.16-3.01-9.3-3.33-9.09-.71-13.52,6.11-23.01,7.05-3.44,.34-8.68,.02-15.46-3.72V18.71c.31,15.94,6.52,27.78,14.24,29.29,2.32,.46,5.85,.5,8.54-1.36,5.08-3.52,6.46-7.78,9.15-12.62,2.51-4.5,7.02-10.21,15.85-15.31V52.65Z"/><g><path class="cls-21" d="M100.76,148.36c-.12,.22-.7,.35-1.74,.39-1.04,.04-1.78-.03-2.21-.21-.19-.08-.38-.65-.55-1.71-.17-1.06-.32-2.24-.44-3.56-.12-1.32-.21-2.59-.27-3.81-.05-1.22-.06-2.04,0-2.45,.04-.34,.35-.59,.93-.77,.58-.17,1.22-.27,1.92-.29,.69-.02,1.33,.04,1.91,.17,.58,.13,.88,.34,.92,.62,.09,.8,.14,1.82,.14,3.06,0,1.25-.01,2.47-.06,3.69s-.12,2.28-.22,3.21-.21,1.48-.33,1.64Z"/><path class="cls-21" d="M114.27,148.36c-.07,.13-.27,.23-.6,.29s-.7,.1-1.1,.11c-.4,.01-.79,0-1.15-.03s-.62-.08-.75-.14c-.19-.08-.46-.3-.82-.66-.36-.36-.73-.74-1.1-1.16-.38-.42-.72-.81-1.03-1.18-.31-.37-.51-.61-.59-.73-.08,.99-.17,1.83-.26,2.54-.09,.71-.2,1.09-.34,1.16-.41,.19-1.11,.26-2.11,.22-1-.04-1.55-.18-1.66-.4-.12-.17-.23-.72-.31-1.67-.09-.95-.14-2.03-.17-3.26s-.03-2.47,0-3.74c.03-1.26,.11-2.29,.24-3.09,.02-.16,.22-.28,.58-.37s.79-.14,1.27-.15c.48-.01,.96,0,1.44,.06,.48,.06,.86,.14,1.12,.25,.38,.17,.86,.63,1.43,1.37s.99,1.3,1.25,1.69c-.02-.59-.04-1.12-.05-1.57-.02-.46-.02-.79,0-1.01,.01-.27,.27-.47,.76-.61,.5-.14,1.04-.22,1.64-.24,.59-.02,1.14,.02,1.64,.12s.77,.25,.79,.46c.08,.81,.13,1.85,.15,3.12,.02,1.27,.02,2.52,0,3.75s-.06,2.31-.11,3.25-.11,1.49-.17,1.64Z"/><path class="cls-21" d="M120.72,148.36c-.12,.22-.7,.35-1.74,.39-1.04,.04-1.78-.03-2.21-.21-.19-.08-.38-.65-.55-1.71-.17-1.06-.32-2.24-.44-3.56-.12-1.32-.21-2.59-.26-3.81-.05-1.22-.05-2.04,0-2.45,.04-.34,.35-.59,.93-.77s1.22-.27,1.91-.29c.69-.02,1.33,.04,1.91,.17s.89,.34,.92,.62c.08,.8,.13,1.82,.14,3.06,.01,1.25,0,2.47-.06,3.69s-.12,2.28-.22,3.21c-.1,.93-.21,1.48-.34,1.64Zm-2.5-12.92c-.12-.03-.33-.27-.63-.71s-.5-.81-.6-1.13c-.04-.13,.08-.34,.37-.62,.29-.28,.64-.56,1.05-.85,.4-.29,.8-.55,1.2-.78,.4-.23,.67-.37,.83-.41,.13-.03,.3,.07,.52,.32,.22,.25,.43,.54,.63,.86s.36,.64,.47,.93c.12,.3,.13,.48,.05,.55-.48,.38-1.19,.81-2.15,1.28s-1.54,.65-1.75,.55Z"/><path class="cls-21" d="M130.81,140.39c-.24,.01-.49,.02-.73,.04-.24,.02-.47,.04-.7,.08-.58,.12-1.11,.39-1.58,.83s-.65,.97-.52,1.62c.06,.29,.2,.52,.42,.69,.34,.27,.8,.4,1.37,.39,.57-.01,1.06-.07,1.48-.16,.23-.08,.46-.07,.68,.03,.21,.1,.39,.27,.56,.51,.26,.4,.44,.93,.54,1.59,.1,.66,.06,1.21-.11,1.64-.14,.35-.35,.56-.63,.63-.91,.33-1.91,.49-3,.49s-2.07-.21-2.93-.6c-1.17-.53-2.06-1.3-2.68-2.33-.62-1.02-.87-2.19-.74-3.5,.22-2.08,1.04-3.7,2.47-4.87,1.43-1.17,3.21-1.64,5.33-1.41,.35,.04,.67,.22,.94,.56,.27,.33,.49,.91,.66,1.74,.17,.83,.07,1.43-.31,1.81-.14,.14-.31,.22-.5,.22Z"/><path class="cls-21" d="M138.5,148.36c-.12,.22-.69,.35-1.74,.39s-1.78-.03-2.21-.21c-.19-.08-.38-.65-.55-1.71-.17-1.06-.32-2.24-.44-3.56-.12-1.32-.21-2.59-.27-3.81-.06-1.22-.06-2.04,0-2.45,.04-.34,.35-.59,.93-.77s1.22-.27,1.92-.29c.7-.02,1.33,.04,1.91,.17,.58,.13,.88,.34,.92,.62,.09,.8,.14,1.82,.15,3.06,0,1.25-.01,2.47-.06,3.69s-.12,2.28-.22,3.21c-.1,.93-.21,1.48-.33,1.64Z"/><path class="cls-21" d="M152.67,143.32c-.29,1.74-1.13,3.15-2.54,4.22-1.4,1.07-3.04,1.45-4.9,1.14-1.79-.3-3.21-1.15-4.24-2.57-1.03-1.41-1.41-2.98-1.13-4.69,.26-1.59,1.03-2.93,2.31-4.02s2.77-1.55,4.47-1.4c2.05,.18,3.64,.96,4.78,2.33,1.14,1.38,1.55,3.04,1.23,4.98Zm-4.77-.71c.08-.48-.01-.88-.27-1.22-.26-.33-.63-.54-1.13-.63-.46-.08-.87,.02-1.23,.3-.35,.28-.57,.63-.63,1.06-.09,.51,.06,.97,.43,1.37,.38,.4,.84,.56,1.39,.49,.38-.04,.7-.19,.96-.45s.41-.57,.47-.93Z"/></g><g><path class="cls-34" d="M100.13,148.36c-.12,.22-.7,.35-1.74,.39-1.04,.04-1.78-.03-2.21-.21-.19-.08-.38-.65-.55-1.71-.17-1.06-.32-2.24-.44-3.56-.12-1.32-.21-2.59-.27-3.81-.05-1.22-.06-2.04,0-2.45,.04-.34,.35-.59,.93-.77,.58-.17,1.22-.27,1.92-.29,.69-.02,1.33,.04,1.91,.17,.58,.13,.88,.34,.92,.62,.09,.8,.14,1.82,.14,3.06,0,1.25-.01,2.47-.06,3.69s-.12,2.28-.22,3.21-.21,1.48-.33,1.64Z"/><path class="cls-34" d="M113.63,148.36c-.07,.13-.27,.23-.6,.29s-.7,.1-1.1,.11c-.4,.01-.79,0-1.15-.03s-.62-.08-.75-.14c-.19-.08-.46-.3-.82-.66-.36-.36-.73-.74-1.1-1.16-.38-.42-.72-.81-1.03-1.18-.31-.37-.51-.61-.59-.73-.08,.99-.17,1.83-.26,2.54-.09,.71-.2,1.09-.34,1.16-.41,.19-1.11,.26-2.11,.22-1-.04-1.55-.18-1.66-.4-.12-.17-.23-.72-.31-1.67-.09-.95-.14-2.03-.17-3.26s-.03-2.47,0-3.74c.03-1.26,.11-2.29,.24-3.09,.02-.16,.22-.28,.58-.37s.79-.14,1.27-.15c.48-.01,.96,0,1.44,.06,.48,.06,.86,.14,1.12,.25,.38,.17,.86,.63,1.43,1.37s.99,1.3,1.25,1.69c-.02-.59-.04-1.12-.05-1.57-.02-.46-.02-.79,0-1.01,.01-.27,.27-.47,.76-.61,.5-.14,1.04-.22,1.64-.24,.59-.02,1.14,.02,1.64,.12s.77,.25,.79,.46c.08,.81,.13,1.85,.15,3.12,.02,1.27,.02,2.52,0,3.75s-.06,2.31-.11,3.25-.11,1.49-.17,1.64Z"/><path class="cls-34" d="M120.08,148.36c-.12,.22-.7,.35-1.74,.39-1.04,.04-1.78-.03-2.21-.21-.19-.08-.38-.65-.55-1.71-.17-1.06-.32-2.24-.44-3.56-.12-1.32-.21-2.59-.26-3.81-.05-1.22-.05-2.04,0-2.45,.04-.34,.35-.59,.93-.77s1.22-.27,1.91-.29c.69-.02,1.33,.04,1.91,.17s.89,.34,.92,.62c.08,.8,.13,1.82,.14,3.06,.01,1.25,0,2.47-.06,3.69s-.12,2.28-.22,3.21c-.1,.93-.21,1.48-.34,1.64Zm-2.5-12.92c-.12-.03-.33-.27-.63-.71s-.5-.81-.6-1.13c-.04-.13,.08-.34,.37-.62,.29-.28,.64-.56,1.05-.85,.4-.29,.8-.55,1.2-.78,.4-.23,.67-.37,.83-.41,.13-.03,.3,.07,.52,.32,.22,.25,.43,.54,.63,.86s.36,.64,.47,.93c.12,.3,.13,.48,.05,.55-.48,.38-1.19,.81-2.15,1.28s-1.54,.65-1.75,.55Z"/><path class="cls-34" d="M130.17,140.39c-.24,.01-.49,.02-.73,.04-.24,.02-.47,.04-.7,.08-.58,.12-1.11,.39-1.58,.83s-.65,.97-.52,1.62c.06,.29,.2,.52,.42,.69,.34,.27,.8,.4,1.37,.39,.57-.01,1.06-.07,1.48-.16,.23-.08,.46-.07,.68,.03,.21,.1,.39,.27,.56,.51,.26,.4,.44,.93,.54,1.59,.1,.66,.06,1.21-.11,1.64-.14,.35-.35,.56-.63,.63-.91,.33-1.91,.49-3,.49s-2.07-.21-2.93-.6c-1.17-.53-2.06-1.3-2.68-2.33-.62-1.02-.87-2.19-.74-3.5,.22-2.08,1.04-3.7,2.47-4.87,1.43-1.17,3.21-1.64,5.33-1.41,.35,.04,.67,.22,.94,.56,.27,.33,.49,.91,.66,1.74,.17,.83,.07,1.43-.31,1.81-.14,.14-.31,.22-.5,.22Z"/><path class="cls-34" d="M137.86,148.36c-.12,.22-.69,.35-1.74,.39s-1.78-.03-2.21-.21c-.19-.08-.38-.65-.55-1.71-.17-1.06-.32-2.24-.44-3.56-.12-1.32-.21-2.59-.27-3.81-.06-1.22-.06-2.04,0-2.45,.04-.34,.35-.59,.93-.77s1.22-.27,1.92-.29c.7-.02,1.33,.04,1.91,.17,.58,.13,.88,.34,.92,.62,.09,.8,.14,1.82,.15,3.06,0,1.25-.01,2.47-.06,3.69s-.12,2.28-.22,3.21c-.1,.93-.21,1.48-.33,1.64Z"/><path class="cls-34" d="M152.03,143.32c-.29,1.74-1.13,3.15-2.54,4.22-1.4,1.07-3.04,1.45-4.9,1.14-1.79-.3-3.21-1.15-4.24-2.57-1.03-1.41-1.41-2.98-1.13-4.69,.26-1.59,1.03-2.93,2.31-4.02s2.77-1.55,4.47-1.4c2.05,.18,3.64,.96,4.78,2.33,1.14,1.38,1.55,3.04,1.23,4.98Zm-4.77-.71c.08-.48-.01-.88-.27-1.22-.26-.33-.63-.54-1.13-.63-.46-.08-.87,.02-1.23,.3-.35,.28-.57,.63-.63,1.06-.09,.51,.06,.97,.43,1.37,.38,.4,.84,.56,1.39,.49,.38-.04,.7-.19,.96-.45s.41-.57,.47-.93Z"/></g></g></svg>