<?xml version="1.0" encoding="UTF-8"?><svg xmlns="http://www.w3.org/2000/svg" xmlns:xlink="http://www.w3.org/1999/xlink" viewBox="0 0 246.61 161.57"><defs><style>.cls-1,.cls-2,.cls-3,.cls-4,.cls-5,.cls-6,.cls-7,.cls-8{fill:#fff;}.cls-9{fill:#898888;}.cls-2,.cls-7{opacity:.9;}.cls-10,.cls-11,.cls-4,.cls-12,.cls-5,.cls-13,.cls-14,.cls-15,.cls-7,.cls-8,.cls-16{stroke-miterlimit:10;}.cls-10,.cls-4,.cls-12,.cls-5,.cls-13,.cls-15,.cls-7,.cls-8{stroke:#fff;}.cls-10,.cls-12,.cls-13{stroke-width:5.4px;}.cls-10,.cls-14,.cls-17{fill:#fee18b;}.cls-18{fill:#dbdcdb;}.cls-19{fill:#40b6d7;}.cls-11,.cls-12,.cls-20{fill:#ffd455;}.cls-11,.cls-14{stroke:#fdc729;stroke-width:1px;}.cls-21{clip-path:url(#clippath-2);}.cls-22{fill:url(#Gradiente_sem_nome_3);}.cls-23{fill:#585657;}.cls-3,.cls-5{opacity:.8;}.cls-4,.cls-5,.cls-15,.cls-7,.cls-8{stroke-width:5.67px;}.cls-4,.cls-6{opacity:.19;}.cls-24{clip-path:url(#clippath-1);}.cls-13,.cls-25{fill:#fcc11e;}.cls-26{fill:#eaeaea;}.cls-15,.cls-27,.cls-16{fill:none;}.cls-28{fill:url(#Gradiente_sem_nome_13);}.cls-29{fill:url(#Gradiente_sem_nome_17);}.cls-30{clip-path:url(#clippath);}.cls-31{clip-path:url(#clippath-3);}.cls-32{fill:#9b9b9b;}.cls-33{fill:#27a7d9;}.cls-16{stroke:#40b6d7;}</style><clipPath id="clippath"><path class="cls-8" d="M58.37,84.46l47.5-1.39c3.31-.1,5.92-2.96,5.82-6.4h0c-.09-3.44-2.85-6.14-6.16-6.05l-47.5,1.39c-3.31,.1-5.92,2.96-5.82,6.4h0c.09,3.44,2.85,6.14,6.16,6.05Z"/></clipPath><clipPath id="clippath-1"><path class="cls-8" d="M67.6,93.87c5.58-.16,9.98-5,9.82-10.8-.16-5.8-4.81-10.37-10.39-10.21s-9.98,5-9.82,10.8,4.81,10.37,10.39,10.21"/></clipPath><clipPath id="clippath-2"><path class="cls-27" d="M58.58,84.17l47.5-1.38c3.31-.1,5.92-2.95,5.82-6.37h0c-.09-3.42-2.85-6.11-6.16-6.02l-47.5,1.38c-3.31,.1-5.92,2.95-5.82,6.37h0c.09,3.42,2.85,6.11,6.16,6.02Z"/></clipPath><linearGradient id="Gradiente_sem_nome_13" x1="-250.26" y1="43.88" x2="-249.97" y2="77.79" gradientTransform="translate(-209.42 -3.54) rotate(178.67) scale(1.21 -1) skewX(-.5)" gradientUnits="userSpaceOnUse"><stop offset="0" stop-color="#228dcd"/><stop offset=".06" stop-color="#2e80b1"/><stop offset=".14" stop-color="#3b7395"/><stop offset=".23" stop-color="#45687e"/><stop offset=".33" stop-color="#4e606c"/><stop offset=".45" stop-color="#535a60"/><stop offset=".62" stop-color="#575659"/><stop offset="1" stop-color="#585657"/></linearGradient><clipPath id="clippath-3"><path class="cls-27" d="M67.82,93.52c5.58-.16,9.98-4.97,9.82-10.74-.16-5.77-4.81-10.32-10.39-10.15s-9.98,4.97-9.82,10.74c.16,5.77,4.81,10.32,10.39,10.15"/></clipPath><linearGradient id="Gradiente_sem_nome_3" x1="166.94" y1="35.77" x2="166.62" y2="71.86" gradientTransform="translate(.35 .67) rotate(-.08)" gradientUnits="userSpaceOnUse"><stop offset=".06" stop-color="#2490cd"/><stop offset=".45" stop-color="#2493cf"/><stop offset=".84" stop-color="#269fd5"/><stop offset="1" stop-color="#27a7d9"/></linearGradient><linearGradient id="Gradiente_sem_nome_17" x1="4663.77" y1="5340.35" x2="4663.13" y2="5393.83" gradientTransform="translate(6475.78 -3761.19) rotate(-164.42) scale(1.08 -1)" gradientUnits="userSpaceOnUse"><stop offset="0" stop-color="#2490cd"/><stop offset=".42" stop-color="#2493cf"/><stop offset=".83" stop-color="#269fd5"/><stop offset="1" stop-color="#27a7d9"/></linearGradient></defs><g id="Camada_2"><rect class="cls-19" x="0" y="0" width="246.61" height="161.57"/></g><g id="Camada_3"><ellipse class="cls-1" cx="120.88" cy="59.34" rx="56.99" ry="55.27"/><path class="cls-1" d="M143.54,54.23c.36,.44,.37,1.33-.03,1.74-.47,.48-1.53,.32-1.88-.36-.18-.36-.25-1.03,.1-1.43,.44-.49,1.39-.44,1.8,.06Z"/><g><g><path class="cls-8" d="M93.77,92.73c6.13-.18,10.97-5.49,10.8-11.86-.17-6.37-5.29-11.39-11.42-11.21-6.13,.18-10.97,5.49-10.8,11.86,.17,6.37,5.29,11.39,11.42,11.21"/><path class="cls-8" d="M93.26,92.74c6.13-.18,10.97-5.49,10.8-11.86-.17-6.37-5.29-11.39-11.42-11.21s-10.97,5.49-10.8,11.86c.17,6.37,5.29,11.39,11.42,11.21"/></g><path class="cls-8" d="M58.36,84.24l47.5-1.39c3.31-.1,5.92-2.96,5.82-6.4h0c-.09-3.44-2.85-6.14-6.16-6.05l-47.5,1.39c-3.31,.1-5.92,2.96-5.82,6.4h0c.09,3.44,2.85,6.14,6.16,6.05Z"/><g><path class="cls-1" d="M58.37,84.46l47.5-1.39c3.31-.1,5.92-2.96,5.82-6.4h0c-.09-3.44-2.85-6.14-6.16-6.05l-47.5,1.39c-3.31,.1-5.92,2.96-5.82,6.4h0c.09,3.44,2.85,6.14,6.16,6.05Z"/><g class="cls-30"><path class="cls-8" d="M55.18,82.4c-2.22,.06-4.11-1.64-4.37-3.93-.27-2.47-.55-5.39-.59-7.19-.16-8.27-.35-17.96,4.14-26.51,6.73-12.85,20.58-16.62,23.23-17.29,1.24-.31,21.43-5.07,30.44,6.53,.82,1.05,3.2,4.38,4.48,17.96,.85,9.05,.68,16.93,.19,23.17-.25,3.2-2.79,5.68-5.88,5.77-8.03,.23-16.06,.47-24.1,.7-9.18,.27-18.37,.54-27.55,.8Z"/></g><path class="cls-15" d="M58.37,84.46l47.5-1.39c3.31-.1,5.92-2.96,5.82-6.4h0c-.09-3.44-2.85-6.14-6.16-6.05l-47.5,1.39c-3.31,.1-5.92,2.96-5.82,6.4h0c.09,3.44,2.85,6.14,6.16,6.05Z"/></g><path class="cls-8" d="M55.39,80.54c-2.22,.06-4.11-1.64-4.37-3.93-.27-2.47-.55-5.39-.59-7.19-.16-8.27-.35-17.96,4.14-26.51,6.73-12.85,20.58-16.62,23.23-17.29,1.24-.31,21.43-5.07,30.44,6.53,.82,1.05,3.2,4.38,4.48,17.96,.85,9.05,.68,16.93,.19,23.17-.25,3.2-2.79,5.68-5.88,5.77-8.03,.23-16.06,.47-24.1,.7-9.18,.27-18.37,.54-27.55,.8Z"/><path class="cls-8" d="M55.35,80.54c-2.2,.06-4.07-1.62-4.32-3.88-.27-2.43-.55-5.31-.58-7.09-.16-8.15-.34-17.71,4.1-26.15,6.67-12.67,19.3-16.37,21.93-17.02,1.23-.31-31.76,14.43-11.39,40.44,7.98,10.19,45.07,10.23,47.04-16.32,.68-9.13,1.17,17.15,.5,23.04-.35,3.14-3.08,5.4-6.14,5.49-7.95,.23-15.91,.46-23.86,.7-9.09,.27-18.19,.53-27.28,.8Z"/><path class="cls-4" d="M99.41,59.2c-11.69,2.72-27.43-9.88-25.93-19.41,1.21-7.7,13.4-11.58,19.36-12.43,6.02-.85,9.14,.89,9.89,1.34,3.37,2.01,4.82,5.2,5.61,6.95,.57,1.26,4.6,10.48-.24,17.65-3.04,4.5-7.89,5.7-8.69,5.89Z"/><path class="cls-8" d="M110.76,65.7c.1-9.45,.26-15.15,.32-19.72,.03-2.19-.16-4.38-.95-5.59-4.06-6.23-17.73-9.85-27.62-2.22-3.91,3.02-5.27,8.57-5.32,14.03-.04,4.92,1.5,10.11,4.88,14.55"/><path class="cls-8" d="M68.69,95.17c6.29-.18,11.25-5.63,11.07-12.17s-5.42-11.68-11.71-11.5c-6.29,.18-11.25,5.63-11.07,12.17,.18,6.54,5.42,11.68,11.71,11.5"/><path class="cls-8" d="M67.6,93.87c5.58-.16,9.98-5,9.82-10.8-.16-5.8-4.81-10.37-10.39-10.21s-9.98,5-9.82,10.8,4.81,10.37,10.39,10.21"/><path class="cls-7" d="M110.12,64.96c.1-9.15,.9-14.76,.95-19.19,.03-2.12-.16-4.24-.92-5.41-3.93-6.03-17.17-9.54-26.74-2.15-3.79,2.92-5.1,8.3-5.15,13.58-.04,4.76,1.45,9.79,4.73,14.09"/><path class="cls-8" d="M110.12,65.1c.1-9.09,.25-14.56,.31-18.96,.03-2.1-.15-4.21-.91-5.37-3.9-5.99-17.05-9.47-26.55-2.13-3.76,2.9-5.06,8.24-5.11,13.49-.04,4.73,1.44,9.72,4.69,13.99"/><path class="cls-7" d="M109.41,54.11c-.07-4.65-1.48-8.73-3.36-9.91-2.29-1.44-4.44,1.98-5.03,6.01-.25,1.71-.15,5.75-.07,6.76,.09,.03,.15,.15,.17-.19,.1-2.34,.51-4.4,1.35-6.33,.46-1.06,1.11-2.14,1.93-2.72,1.34-.94,2.33,.02,2.98,.8,.89,1.08,1.21,2.19,1.57,3.32"/><path class="cls-8" d="M109.42,54.76c-.07-4.65-1.48-8.73-3.36-9.91-2.29-1.44-4.44,1.98-5.03,6.01-.25,1.71-.15,5.75-.07,6.76,.09,.03,.15,.15,.17-.19,.1-2.34,.51-4.4,1.35-6.33,.46-1.06,1.11-2.14,1.93-2.72,1.34-.94,2.33,.02,2.98,.8,.89,1.08,1.21,2.19,1.57,3.32"/><path class="cls-7" d="M80.56,54.96c-.22-4.65,1.97-8.83,5.21-10.16,3.97-1.63,8.04,1.62,9.39,5.59,.57,1.68,.71,5.72,.64,6.74-.16,.04-.26,.16-.31-.17-.36-2.33-1.23-4.34-2.88-6.21-.9-1.02-2.13-2.04-3.64-2.56-2.46-.83-4.14,.21-5.23,1.04-1.5,1.15-1.98,2.28-2.54,3.44"/><path class="cls-8" d="M80.57,55.6c-.22-4.65,1.97-8.83,5.21-10.16,3.97-1.63,8.04,1.62,9.39,5.59,.57,1.68,.71,5.72,.64,6.74-.16,.04-.26,.16-.31-.17-.36-2.33-1.23-4.34-2.88-6.21-.9-1.02-2.13-2.04-3.64-2.56-2.46-.83-4.14,.21-5.23,1.04-1.5,1.15-1.98,2.28-2.54,3.44"/><path class="cls-5" d="M90.8,45.99c.65,.16,1.19,.94,1,1.36-.18,.41-1.09,.53-1.58,.09-.34-.3-.54-.91-.28-1.25,.26-.34,.82-.21,.87-.2Z"/><g><path class="cls-1" d="M67.6,93.87c5.58-.16,9.98-5,9.82-10.8-.16-5.8-4.81-10.37-10.39-10.21s-9.98,5-9.82,10.8,4.81,10.37,10.39,10.21"/><g class="cls-24"><polygon class="cls-8" points="55.22 80.77 79.9 80.05 79.75 74.42 55.07 75.14 55.22 80.77"/></g><path class="cls-15" d="M67.6,93.87c5.58-.16,9.98-5,9.82-10.8-.16-5.8-4.81-10.37-10.39-10.21s-9.98,5-9.82,10.8,4.81,10.37,10.39,10.21"/></g><path class="cls-8" d="M66.73,91.6c4.34-.13,7.76-3.88,7.64-8.39s-3.74-8.06-8.08-7.93c-4.34,.13-7.76,3.88-7.64,8.39s3.74,8.06,8.08,7.93"/><path class="cls-8" d="M66.71,91.01c4.03-.12,7.2-3.6,7.09-7.79-.11-4.18-3.47-7.48-7.5-7.36-4.03,.12-7.2,3.6-7.09,7.79,.11,4.18,3.47,7.48,7.5,7.36"/><path class="cls-8" d="M72.07,80.48c-.37,.89-3.64,3.21-5.64,2.88-.58-2.44,.61-5.51,1.5-6.44,.95-.99,4.76,2.07,4.14,3.55Z"/><path class="cls-8" d="M60.75,86.32c.37-.89,3.64-3.21,5.64-2.88,.58,2.44-.61,5.51-1.5,6.44-.95,.99-4.76-2.07-4.14-3.56Z"/><path class="cls-8" d="M69.42,89.22c-.86-.37-3.16-3.72-2.88-5.81,2.34-.64,5.31,.53,6.22,1.44,.97,.97-1.9,4.98-3.35,4.37Z"/><path class="cls-8" d="M63.59,77.57c.86,.37,3.16,3.72,2.87,5.81-2.34,.64-5.31-.54-6.22-1.44-.97-.97,1.91-4.98,3.35-4.37Z"/><g><g><path class="cls-8" d="M55.09,79.43c-.16-.9-.53-3.58-.41-5.14,.24-3.03,.8-5.22,3.26-8.18,2.07-2.49,4.63-3.31,6-3.73,1.13-.35,4.98-1.46,9.33,.4,.98,.42,5.34,2.42,7.38,7.57,1.47,3.72,.93,7.05,.65,8.32l-26.21,.77Z"/><path class="cls-8" d="M56.1,78.84c-.12-.65-.39-2.6-.3-3.73,.17-2.2,.58-3.79,2.37-5.94,1.5-1.81,3.36-2.41,4.36-2.71,.82-.25,3.61-1.06,6.77,.29,.71,.3,3.88,1.76,5.36,5.5,1.07,2.7,.67,5.12,.47,6.04l-19.03,.56Z"/></g><path class="cls-5" d="M69.34,67.43c1.38,.33,2.53,2,2.12,2.9-.39,.86-2.32,1.14-3.38,.19-.72-.64-1.15-1.94-.61-2.66,.55-.72,1.76-.45,1.86-.42Z"/></g></g><g><g><path class="cls-32" d="M93.99,92.39c6.13-.18,10.97-5.46,10.8-11.8-.17-6.34-5.29-11.34-11.42-11.16s-10.97,5.46-10.8,11.8c.17,6.34,5.29,11.34,11.42,11.16"/><path class="cls-23" d="M93.48,92.4c6.13-.18,10.97-5.46,10.8-11.8s-5.29-11.34-11.42-11.16-10.97,5.46-10.8,11.8c.17,6.34,5.29,11.34,11.42,11.16"/></g><path class="cls-26" d="M58.58,83.94l47.5-1.38c3.31-.1,5.92-2.95,5.82-6.37h0c-.09-3.42-2.85-6.11-6.16-6.02l-47.5,1.38c-3.31,.1-5.92,2.95-5.82,6.37h0c.09,3.42,2.85,6.11,6.16,6.02Z"/><g class="cls-21"><path class="cls-18" d="M55.4,82.12c-2.22,.06-4.11-1.64-4.37-3.91-.27-2.46-.55-5.36-.59-7.16-.16-8.23-.35-17.87,4.14-26.38,6.73-12.78,20.58-16.54,23.23-17.2,1.24-.31,21.43-5.05,30.44,6.49,.82,1.05,3.2,4.35,4.48,17.87,.85,9,.68,16.85,.19,23.05-.25,3.18-2.79,5.65-5.88,5.74-8.03,.23-16.06,.47-24.1,.7-9.18,.27-18.37,.53-27.55,.8Z"/></g><path class="cls-14" d="M55.61,80.26c-2.22,.06-4.11-1.64-4.37-3.91-.27-2.46-.55-5.36-.59-7.16-.16-8.23-.35-17.87,4.14-26.38,6.73-12.78,20.58-16.54,23.23-17.2,1.24-.31,21.43-5.05,30.44,6.49,.82,1.05,3.2,4.35,4.48,17.87,.85,9,.68,16.85,.19,23.05-.25,3.18-2.79,5.65-5.88,5.74-8.03,.23-16.06,.47-24.1,.7-9.18,.27-18.37,.53-27.55,.8Z"/><path class="cls-20" d="M55.56,80.26c-2.2,.06-4.07-1.61-4.32-3.86-.27-2.42-.55-5.29-.58-7.06-.16-8.11-.34-17.62,4.1-26.02,6.67-12.61,19.3-16.29,21.93-16.94,1.23-.3-31.76,14.36-11.39,40.24,7.98,10.14,45.07,10.18,47.04-16.24,.68-9.09,1.17,17.06,.5,22.93-.35,3.13-3.08,5.38-6.14,5.47-7.95,.23-15.91,.46-23.86,.69-9.09,.26-18.19,.53-27.28,.79Z"/><path class="cls-6" d="M99.63,59.02c-11.69,2.7-27.43-9.83-25.93-19.31,1.21-7.66,13.4-11.52,19.36-12.37,6.02-.85,9.14,.89,9.89,1.34,3.37,2,4.82,5.18,5.61,6.92,.57,1.25,4.6,10.43-.24,17.56-3.04,4.47-7.89,5.67-8.69,5.86Z"/><path class="cls-23" d="M110.98,65.49c.1-9.41,.26-15.07,.32-19.62,.03-2.17-.16-4.36-.95-5.56-4.06-6.19-17.73-9.8-27.62-2.21-3.91,3.01-5.27,8.53-5.32,13.96-.04,4.9,1.5,10.06,4.88,14.48"/><path class="cls-23" d="M68.9,94.82c6.29-.18,11.25-5.6,11.07-12.11-.18-6.5-5.42-11.63-11.71-11.44-6.29,.18-11.25,5.6-11.07,12.11s5.42,11.63,11.71,11.44"/><path class="cls-32" d="M67.82,93.52c5.58-.16,9.98-4.97,9.82-10.74-.16-5.77-4.81-10.32-10.39-10.15s-9.98,4.97-9.82,10.74c.16,5.77,4.81,10.32,10.39,10.15"/><path class="cls-2" d="M110.34,64.76c.1-9.11,.9-14.69,.95-19.09,.03-2.11-.16-4.22-.92-5.38-3.93-6-17.17-9.49-26.74-2.14-3.79,2.91-5.1,8.26-5.15,13.52-.04,4.74,1.45,9.74,4.73,14.02"/><path class="cls-28" d="M110.34,64.9c.1-9.04,.25-14.49,.31-18.86,.03-2.09-.15-4.19-.91-5.34-3.9-5.96-17.05-9.42-26.55-2.12-3.76,2.89-5.06,8.2-5.11,13.42-.04,4.71,1.44,9.68,4.69,13.92"/><path class="cls-2" d="M109.62,53.97c-.07-4.63-1.48-8.69-3.36-9.86-2.29-1.44-4.44,1.97-5.03,5.98-.25,1.7-.15,5.72-.07,6.73,.09,.03,.15,.15,.17-.19,.1-2.33,.51-4.37,1.35-6.3,.46-1.06,1.11-2.13,1.93-2.7,1.34-.94,2.33,.02,2.98,.8,.89,1.08,1.21,2.18,1.57,3.3"/><path class="cls-33" d="M109.64,54.61c-.07-4.63-1.48-8.69-3.36-9.86-2.29-1.44-4.44,1.97-5.03,5.98-.25,1.7-.15,5.72-.07,6.73,.09,.03,.15,.15,.17-.19,.1-2.33,.51-4.37,1.35-6.3,.46-1.06,1.11-2.13,1.93-2.7,1.34-.94,2.33,.02,2.98,.8,.89,1.08,1.21,2.18,1.57,3.3"/><path class="cls-2" d="M80.77,54.8c-.22-4.62,1.97-8.79,5.21-10.11,3.97-1.62,8.04,1.61,9.39,5.57,.57,1.67,.71,5.69,.64,6.71-.16,.04-.26,.16-.31-.17-.36-2.31-1.23-4.32-2.88-6.18-.9-1.02-2.13-2.03-3.64-2.54-2.46-.83-4.14,.2-5.23,1.04-1.5,1.15-1.98,2.27-2.54,3.42"/><path class="cls-33" d="M80.79,55.45c-.22-4.62,1.97-8.79,5.21-10.11,3.97-1.62,8.04,1.61,9.39,5.57,.57,1.67,.71,5.69,.64,6.71-.16,.04-.26,.16-.31-.17-.36-2.31-1.23-4.32-2.88-6.18-.9-1.02-2.13-2.03-3.64-2.54-2.46-.83-4.14,.2-5.23,1.04-1.5,1.15-1.98,2.27-2.54,3.42"/><path class="cls-3" d="M91.02,45.88c.65,.16,1.19,.93,1,1.35-.18,.4-1.09,.53-1.58,.09-.34-.3-.54-.91-.28-1.24,.26-.34,.82-.21,.87-.2Z"/><g class="cls-31"><polygon class="cls-9" points="55.44 80.49 80.12 79.77 79.96 74.17 55.29 74.88 55.44 80.49"/></g><path class="cls-23" d="M66.95,91.27c4.34-.13,7.76-3.86,7.64-8.35-.12-4.49-3.74-8.02-8.08-7.89-4.34,.13-7.76,3.86-7.64,8.35s3.74,8.02,8.08,7.89"/><path class="cls-20" d="M66.93,90.68c4.03-.12,7.2-3.59,7.09-7.75s-3.47-7.44-7.5-7.33c-4.03,.12-7.2,3.59-7.09,7.75s3.47,7.44,7.5,7.33"/><path class="cls-17" d="M72.28,80.2c-.37,.88-3.64,3.2-5.64,2.87-.58-2.43,.61-5.48,1.5-6.4,.95-.99,4.76,2.06,4.14,3.54Z"/><path class="cls-17" d="M60.97,86.01c.37-.88,3.64-3.2,5.64-2.87,.58,2.43-.61,5.48-1.5,6.4-.95,.99-4.76-2.06-4.14-3.54Z"/><path class="cls-17" d="M69.64,88.89c-.86-.36-3.16-3.7-2.88-5.78,2.34-.64,5.31,.53,6.22,1.43,.97,.97-1.9,4.95-3.35,4.35Z"/><path class="cls-17" d="M63.81,77.3c.86,.36,3.16,3.7,2.87,5.78-2.34,.64-5.31-.53-6.22-1.44-.97-.97,1.91-4.95,3.35-4.34Z"/><g><g><path class="cls-11" d="M55.31,79.15c-.16-.9-.53-3.56-.41-5.12,.24-3.01,.8-5.19,3.26-8.14,2.07-2.48,4.63-3.3,6-3.72,1.13-.34,4.98-1.45,9.33,.39,.98,.42,5.34,2.41,7.38,7.53,1.47,3.7,.93,7.02,.65,8.28l-26.21,.76Z"/><path class="cls-17" d="M56.32,78.57c-.12-.65-.39-2.58-.3-3.71,.17-2.19,.58-3.77,2.37-5.91,1.5-1.8,3.36-2.39,4.36-2.7,.82-.25,3.61-1.05,6.77,.29,.71,.3,3.88,1.75,5.36,5.47,1.07,2.69,.67,5.1,.47,6.01l-19.03,.55Z"/></g><path class="cls-3" d="M69.55,67.22c1.38,.33,2.53,1.99,2.12,2.88-.39,.86-2.32,1.13-3.38,.19-.72-.64-1.15-1.93-.61-2.65,.55-.72,1.76-.45,1.86-.42Z"/></g></g><rect class="cls-1" x="107.83" y="41.48" width="31.43" height="198.75" rx="11.22" ry="11.22" transform="translate(264.39 17.3) rotate(90)"/><rect class="cls-16" x="29.09" y="128.44" width="188.92" height="24.82" rx="7.77" ry="7.77"/><g><path class="cls-20" d="M55.58,138.1c-.4-.02-.75,.02-1.05,.12-.42,.15-.73,.4-.92,.74s-.27,.68-.22,1.03c.04,.35,.2,.66,.48,.93,.28,.27,.68,.42,1.2,.45,.38,0,.59-.12,.63-.36s.08-.5,.12-.75c-.02-.17,.14-.31,.48-.43,.34-.12,.72-.2,1.14-.24,.42-.04,.81-.03,1.17,.02,.36,.05,.56,.17,.58,.34,.04,.33,.08,.75,.1,1.25s.03,1,.03,1.5-.02,.92-.06,1.3c-.04,.38-.09,.6-.17,.66-.07,.09-.42,.15-1.05,.16-.63,.02-1.08-.01-1.34-.09-.04,0-.08-.04-.12-.1-.78,.19-1.55,.26-2.31,.2-1.34-.1-2.46-.63-3.37-1.58s-1.28-2.12-1.13-3.52c.17-1.52,.72-2.71,1.65-3.57,.93-.85,2.11-1.32,3.53-1.39,.94-.04,1.79,.15,2.56,.58,.77,.43,1.16,1.21,1.18,2.33,.02,.17-.09,.31-.32,.43-.23,.12-.5,.21-.82,.28-.32,.07-.63,.11-.94,.13-.31,.02-.53,.02-.67,0-.19-.03-.28-.1-.27-.22,0-.12-.04-.19-.13-.2Z"/><path class="cls-20" d="M64.11,144.54c-.09,.18-.55,.28-1.36,.31-.82,.03-1.4-.02-1.74-.17-.15-.07-.3-.52-.43-1.35-.14-.84-.25-1.78-.35-2.82-.1-1.04-.17-2.05-.21-3.01s-.05-1.61,0-1.94c.03-.27,.27-.47,.73-.61,.46-.14,.96-.21,1.51-.23s1.05,.03,1.5,.13c.45,.1,.69,.27,.72,.49,.07,.63,.11,1.44,.11,2.43,0,.99,0,1.96-.05,2.92s-.1,1.81-.18,2.54c-.08,.74-.17,1.17-.26,1.3Z"/><path class="cls-20" d="M72.25,140.65c.44,.37,.83,.73,1.17,1.08,.33,.35,.5,.61,.51,.79,0,.13-.07,.32-.22,.57s-.31,.5-.5,.75-.37,.47-.54,.66c-.17,.19-.29,.28-.36,.28-.28,.06-.69-.09-1.24-.44-.54-.35-.98-.59-1.31-.7-.32-.1-.5-.06-.52,.12,0,.32-.02,.56-.08,.72-.06,.17-.27,.27-.64,.31-.42,.04-.9,.07-1.43,.07-.54,0-.88,0-1.02-.04-.1-.02-.18-.07-.24-.17-.09-.12-.18-.66-.28-1.63-.1-.97-.18-2.02-.23-3.15-.06-1.13-.08-2.17-.08-3.11s.08-1.46,.21-1.53c.47-.27,1.11-.46,1.9-.58,.8-.12,1.59-.1,2.38,.06,.79,.16,1.5,.49,2.12,.99,.62,.5,1.01,1.23,1.14,2.19,.18,1.28-.07,2.2-.74,2.77Zm-3.28-1.25c.33-.03,.59-.16,.77-.37,.18-.21,.27-.43,.27-.66,0-.23-.11-.43-.31-.59s-.53-.23-.96-.18c-.36,.04-.5,.36-.42,.96s.29,.88,.66,.84Z"/><path class="cls-20" d="M74.49,144.64c-.08-.09-.13-.2-.13-.32,0-.43,.07-1.06,.22-1.92,.16-.85,.35-1.74,.59-2.67,.23-.92,.48-1.79,.75-2.59,.26-.81,.49-1.37,.69-1.7,.08-.13,.31-.24,.69-.34,.38-.1,.8-.17,1.26-.21,.46-.04,.9-.04,1.33,0,.43,.04,.72,.14,.89,.3,.24,.24,.53,.76,.86,1.56,.33,.8,.66,1.67,.98,2.62s.6,1.85,.85,2.72c.25,.87,.42,1.48,.5,1.84,.06,.26,.04,.45-.05,.55-.09,.1-.25,.17-.48,.21-.38,.07-.86,.11-1.43,.15-.57,.03-.92,.04-1.07,.02-.06,0-.11-.03-.16-.06-.16-.1-.31-.37-.45-.83-.15-.46-.29-.77-.43-.94-.08-.1-.19-.16-.33-.18h-1.07c-.33,0-.55,.11-.65,.33-.13,.28-.28,.58-.44,.92-.17,.34-.29,.55-.37,.62-.04,.05-.1,.08-.18,.1-.18,.04-.6,.05-1.26,.03-.66-.02-1.04-.09-1.13-.2Zm4.23-5.8c-.14,.15-.29,.41-.43,.77-.14,.36-.19,.6-.15,.71,.07,.19,.35,.28,.84,.26,.5-.02,.77-.14,.81-.36,.03-.14-.1-.45-.39-.93s-.52-.63-.69-.45Z"/><path class="cls-20" d="M90.96,140.65c.44,.37,.83,.73,1.17,1.08,.33,.35,.5,.61,.51,.79,0,.13-.07,.32-.22,.57s-.31,.5-.5,.75-.37,.47-.54,.66c-.17,.19-.29,.28-.36,.28-.28,.06-.69-.09-1.24-.44-.54-.35-.98-.59-1.31-.7-.32-.1-.5-.06-.52,.12,0,.32-.02,.56-.08,.72-.06,.17-.27,.27-.64,.31-.42,.04-.9,.07-1.43,.07-.54,0-.88,0-1.02-.04-.1-.02-.18-.07-.24-.17-.09-.12-.18-.66-.28-1.63-.1-.97-.18-2.02-.23-3.15-.06-1.13-.08-2.17-.08-3.11s.08-1.46,.21-1.53c.47-.27,1.11-.46,1.9-.58,.8-.12,1.59-.1,2.38,.06,.79,.16,1.5,.49,2.12,.99,.62,.5,1.01,1.23,1.14,2.19,.18,1.28-.07,2.2-.74,2.77Zm-3.28-1.25c.33-.03,.59-.16,.77-.37,.18-.21,.27-.43,.27-.66,0-.23-.11-.43-.31-.59s-.53-.23-.96-.18c-.36,.04-.5,.36-.42,.96s.29,.88,.66,.84Z"/><path class="cls-20" d="M105.88,139.35c-.15,.97-.59,1.79-1.32,2.44-.73,.65-1.59,.93-2.6,.84-.04,.5-.09,.93-.14,1.27-.05,.35-.11,.56-.18,.64-.09,.17-.54,.27-1.34,.31-.8,.04-1.37-.02-1.7-.16-.15-.07-.28-.5-.39-1.32-.12-.81-.21-1.73-.28-2.74s-.12-1.99-.14-2.93c-.02-.94-.02-1.57,.01-1.89,.03-.3,.28-.53,.75-.68,.47-.16,1.02-.26,1.64-.3,.62-.04,1.25-.03,1.88,.04,.63,.07,1.12,.18,1.47,.33,1.86,.79,2.63,2.18,2.33,4.16Zm-2.81-.79c-.1-.47-.42-.74-.95-.8-.1,0-.18,0-.24,0-.42,.07-.61,.37-.57,.9,.04,.53,.18,.87,.42,1.03,.1,.07,.26,.09,.48,.05,.32-.05,.56-.19,.71-.41,.16-.23,.21-.49,.15-.78Z"/><path class="cls-20" d="M106.89,144.64c-.08-.09-.13-.2-.13-.32,0-.43,.07-1.06,.22-1.92,.16-.85,.35-1.74,.59-2.67,.23-.92,.48-1.79,.75-2.59,.26-.81,.49-1.37,.69-1.7,.08-.13,.31-.24,.69-.34,.38-.1,.8-.17,1.26-.21,.46-.04,.9-.04,1.33,0,.43,.04,.72,.14,.89,.3,.24,.24,.53,.76,.86,1.56,.33,.8,.66,1.67,.98,2.62s.6,1.85,.85,2.72c.25,.87,.42,1.48,.5,1.84,.06,.26,.04,.45-.05,.55-.09,.1-.25,.17-.48,.21-.38,.07-.86,.11-1.43,.15-.57,.03-.92,.04-1.07,.02-.06,0-.11-.03-.16-.06-.16-.1-.31-.37-.45-.83-.15-.46-.29-.77-.43-.94-.08-.1-.19-.16-.33-.18h-1.07c-.33,0-.55,.11-.65,.33-.13,.28-.28,.58-.44,.92-.17,.34-.29,.55-.37,.62-.04,.05-.1,.08-.18,.1-.18,.04-.6,.05-1.26,.03-.66-.02-1.04-.09-1.13-.2Zm4.23-5.8c-.14,.15-.29,.41-.43,.77-.14,.36-.19,.6-.15,.71,.07,.19,.35,.28,.84,.26,.5-.02,.77-.14,.81-.36,.03-.14-.1-.45-.39-.93s-.52-.63-.69-.45Z"/><path class="cls-20" d="M123.37,140.65c.44,.37,.83,.73,1.17,1.08,.33,.35,.5,.61,.51,.79,0,.13-.07,.32-.21,.57s-.31,.5-.5,.75-.37,.47-.54,.66c-.17,.19-.29,.28-.36,.28-.28,.06-.69-.09-1.24-.44-.54-.35-.98-.59-1.31-.7-.32-.1-.5-.06-.52,.12,0,.32-.02,.56-.08,.72-.06,.17-.27,.27-.64,.31-.42,.04-.9,.07-1.43,.07-.54,0-.88,0-1.02-.04-.1-.02-.18-.07-.24-.17-.09-.12-.18-.66-.28-1.63-.1-.97-.18-2.02-.23-3.15-.06-1.13-.08-2.17-.08-3.11s.08-1.46,.21-1.53c.47-.27,1.11-.46,1.9-.58,.8-.12,1.59-.1,2.38,.06,.79,.16,1.5,.49,2.12,.99,.62,.5,1.01,1.23,1.14,2.19,.18,1.28-.07,2.2-.74,2.77Zm-3.28-1.25c.33-.03,.59-.16,.77-.37,.18-.21,.27-.43,.27-.66,0-.23-.11-.43-.31-.59s-.53-.23-.96-.18c-.36,.04-.5,.36-.42,.96s.29,.88,.66,.84Z"/><path class="cls-20" d="M125.61,144.64c-.08-.09-.13-.2-.13-.32,0-.43,.06-1.06,.22-1.92,.16-.85,.35-1.74,.59-2.67,.23-.92,.48-1.79,.75-2.59s.49-1.37,.69-1.7c.08-.13,.31-.24,.69-.34,.38-.1,.8-.17,1.26-.21,.46-.04,.91-.04,1.33,0s.72,.14,.89,.3c.24,.24,.53,.76,.86,1.56,.33,.8,.66,1.67,.98,2.62s.6,1.85,.85,2.72c.25,.87,.42,1.48,.5,1.84,.06,.26,.04,.45-.05,.55-.09,.1-.25,.17-.48,.21-.38,.07-.86,.11-1.43,.15-.57,.03-.92,.04-1.07,.02-.06,0-.11-.03-.16-.06-.16-.1-.31-.37-.45-.83s-.29-.77-.43-.94c-.08-.1-.19-.16-.33-.18h-1.07c-.34,0-.55,.11-.65,.33-.13,.28-.28,.58-.44,.92-.17,.34-.29,.55-.37,.62-.04,.05-.1,.08-.18,.1-.18,.04-.6,.05-1.26,.03-.66-.02-1.04-.09-1.13-.2Zm4.23-5.8c-.14,.15-.29,.41-.43,.77-.14,.36-.19,.6-.15,.71,.06,.19,.35,.28,.84,.26,.5-.02,.77-.14,.81-.36,.03-.14-.1-.45-.39-.93s-.52-.63-.69-.45Z"/><path class="cls-20" d="M148.15,141.91c-.48,1.14-1.24,1.93-2.28,2.35-1.04,.42-2.13,.63-3.28,.61-.39,0-.77-.04-1.13-.08-.36-.05-.62-.1-.79-.17-.25-.1-.46-.63-.61-1.57-.15-.94-.24-1.97-.27-3.09-.03-1.12,0-2.16,.09-3.12s.26-1.52,.51-1.68c.25-.16,.63-.27,1.13-.35,.81-.11,1.69-.1,2.64,.03s1.75,.47,2.4,.99c.86,.7,1.45,1.63,1.77,2.79,.31,1.16,.25,2.25-.18,3.28Zm-4.93-2.94c-.07,.24-.09,.59-.05,1.06,.04,.47,.14,.74,.29,.82,.07,.04,.21,.06,.42,.05,.34,0,.63-.09,.86-.23s.37-.36,.39-.65c.03-.35-.1-.66-.38-.91s-.58-.39-.9-.42c-.13,0-.25,0-.38,.03-.13,.03-.21,.11-.25,.25Z"/><path class="cls-20" d="M153.55,144.54c-.09,.18-.55,.28-1.36,.31-.82,.03-1.4-.02-1.74-.17-.15-.07-.29-.52-.43-1.35-.14-.84-.25-1.78-.35-2.82-.1-1.04-.17-2.05-.21-3.01-.04-.97-.05-1.61,0-1.94,.03-.27,.27-.47,.73-.61s.96-.21,1.51-.23c.54-.02,1.04,.03,1.5,.13,.46,.1,.7,.27,.72,.49,.07,.63,.11,1.44,.11,2.43,0,.99,0,1.96-.05,2.92s-.1,1.81-.18,2.54c-.08,.74-.16,1.17-.26,1.3Z"/><path class="cls-20" d="M161.68,140.65c.44,.37,.83,.73,1.17,1.08,.33,.35,.5,.61,.51,.79,0,.13-.07,.32-.21,.57s-.31,.5-.5,.75c-.19,.25-.37,.47-.54,.66-.17,.19-.29,.28-.36,.28-.28,.06-.69-.09-1.24-.44-.54-.35-.98-.59-1.31-.7-.32-.1-.5-.06-.52,.12,0,.32-.02,.56-.08,.72s-.27,.27-.64,.31c-.42,.04-.9,.07-1.43,.07-.54,0-.88,0-1.02-.04-.1-.02-.18-.07-.24-.17-.09-.12-.18-.66-.28-1.63-.1-.97-.18-2.02-.24-3.15s-.08-2.17-.07-3.11c0-.95,.07-1.46,.21-1.53,.47-.27,1.11-.46,1.9-.58,.8-.12,1.59-.1,2.38,.06s1.5,.49,2.12,.99,1,1.23,1.14,2.19c.18,1.28-.07,2.2-.74,2.77Zm-3.28-1.25c.33-.03,.59-.16,.77-.37,.18-.21,.27-.43,.27-.66,0-.23-.11-.43-.31-.59s-.53-.23-.96-.18c-.36,.04-.5,.36-.42,.96s.29,.88,.66,.84Z"/><path class="cls-20" d="M167.96,141.37c.76,0,1.45-.03,2.06-.07,.61-.03,.97,0,1.08,.12,.12,.1,.2,.51,.26,1.26,.05,.74,.03,1.28-.06,1.61-.04,.14-.38,.26-1.02,.35-.64,.09-1.36,.15-2.15,.19-.8,.03-1.56,.04-2.29,.02-.73-.02-1.21-.08-1.43-.18-.13-.05-.24-.41-.32-1.06-.08-.65-.15-1.42-.2-2.3s-.08-1.77-.08-2.69c0-.91,0-1.66,.03-2.23,0-.32,.03-.6,.08-.86s.13-.42,.24-.49c.11-.07,.49-.12,1.15-.17,.66-.05,1.37-.08,2.13-.09,.76-.01,1.46,0,2.11,.04,.65,.04,1.02,.1,1.12,.2,.12,.1,.18,.48,.2,1.14s-.03,1.16-.12,1.5c-.05,.16-.35,.26-.92,.29-.56,.04-1.22,.07-1.97,.1,0,.05,0,.11,0,.18s0,.13,.01,.18c.49,0,.89,.05,1.2,.11,.07,.02,.15,.15,.22,.39,.07,.24,.12,.5,.15,.78,.03,.28,.03,.54,0,.79-.03,.24-.11,.37-.23,.39-.09,.03-.25,.05-.47,.07-.23,.02-.48,.03-.76,.04v.39Z"/><path class="cls-20" d="M176.12,144.54c-.09,.18-.55,.28-1.36,.31-.82,.03-1.4-.02-1.74-.17-.15-.07-.29-.52-.43-1.35-.14-.84-.25-1.78-.35-2.82-.1-1.04-.17-2.05-.21-3.01-.04-.97-.05-1.61,0-1.94,.03-.27,.27-.47,.73-.61s.96-.21,1.51-.23c.54-.02,1.04,.03,1.5,.13,.46,.1,.7,.27,.72,.49,.07,.63,.11,1.44,.11,2.43,0,.99,0,1.96-.05,2.92s-.1,1.81-.18,2.54c-.08,.74-.16,1.17-.26,1.3Z"/><path class="cls-20" d="M183.94,144.54c-.05,.09-.21,.16-.48,.21-.27,.05-.57,.09-.91,.1-.34,.01-.67,0-1-.02-.33-.03-.58-.08-.75-.15-.18-.08-.34-.72-.48-1.94-.14-1.21-.25-2.44-.32-3.68-.64-.01-1.2-.05-1.66-.1-.46-.05-.72-.13-.77-.24-.08-.17-.15-.43-.21-.8-.06-.37-.09-.75-.11-1.14-.02-.39-.01-.74,0-1.05s.08-.49,.17-.54c.13-.1,.55-.18,1.28-.24,.73-.06,1.56-.1,2.51-.13,.94-.02,1.9-.03,2.88-.02s1.77,.04,2.4,.08c.25,.02,.42,.23,.51,.64,.09,.41,.12,.86,.1,1.35-.03,.49-.1,.94-.23,1.35s-.27,.62-.45,.64c-.17,.03-.43,.05-.8,.08-.37,.02-.78,.04-1.23,.06-.01,1.24-.06,2.43-.14,3.57s-.18,1.8-.31,1.97Z"/><path class="cls-20" d="M187.75,144.64c-.08-.09-.13-.2-.13-.32,0-.43,.07-1.06,.22-1.92,.16-.85,.35-1.74,.59-2.67,.24-.92,.48-1.79,.75-2.59,.26-.81,.49-1.37,.69-1.7,.08-.13,.31-.24,.69-.34,.38-.1,.8-.17,1.26-.21,.46-.04,.9-.04,1.33,0,.43,.04,.72,.14,.89,.3,.24,.24,.53,.76,.86,1.56s.66,1.67,.98,2.62,.6,1.85,.85,2.72c.25,.87,.42,1.48,.5,1.84,.06,.26,.04,.45-.05,.55-.09,.1-.25,.17-.48,.21-.38,.07-.86,.11-1.43,.15-.57,.03-.92,.04-1.07,.02-.06,0-.11-.03-.16-.06-.16-.1-.31-.37-.45-.83-.15-.46-.29-.77-.43-.94-.08-.1-.19-.16-.33-.18h-1.07c-.33,0-.55,.11-.65,.33-.13,.28-.28,.58-.44,.92-.17,.34-.29,.55-.37,.62-.04,.05-.1,.08-.18,.1-.18,.04-.6,.05-1.26,.03s-1.04-.09-1.13-.2Zm4.23-5.8c-.14,.15-.29,.41-.43,.77-.14,.36-.19,.6-.15,.71,.07,.19,.35,.28,.85,.26,.5-.02,.77-.14,.81-.36,.03-.14-.11-.45-.39-.93s-.52-.63-.68-.45Z"/></g><g><path class="cls-33" d="M54.49,137.93c-.4-.02-.75,.02-1.05,.12-.42,.15-.73,.4-.92,.74s-.27,.68-.22,1.03c.04,.35,.2,.66,.48,.93,.28,.27,.68,.42,1.2,.45,.38,0,.59-.12,.63-.36s.08-.5,.12-.75c-.02-.17,.14-.31,.48-.43,.34-.12,.72-.2,1.14-.24,.42-.04,.81-.03,1.17,.02,.36,.05,.56,.17,.58,.34,.04,.33,.08,.75,.1,1.25s.03,1,.03,1.5-.02,.92-.06,1.3c-.04,.38-.09,.6-.17,.66-.07,.09-.42,.15-1.05,.16-.63,.02-1.08-.01-1.34-.09-.04,0-.08-.04-.12-.1-.78,.19-1.55,.26-2.31,.2-1.34-.1-2.46-.63-3.37-1.58s-1.28-2.12-1.13-3.52c.17-1.52,.72-2.71,1.65-3.57,.93-.85,2.11-1.32,3.53-1.39,.94-.04,1.79,.15,2.56,.58,.77,.43,1.16,1.21,1.18,2.33,.02,.17-.09,.31-.32,.43-.23,.12-.5,.21-.82,.28-.32,.07-.63,.11-.94,.13-.31,.02-.53,.02-.67,0-.19-.03-.28-.1-.27-.22,0-.12-.04-.19-.13-.2Z"/><path class="cls-33" d="M63.02,144.37c-.09,.18-.55,.28-1.36,.31-.82,.03-1.4-.02-1.74-.17-.15-.07-.3-.52-.43-1.35-.14-.84-.25-1.78-.35-2.82-.1-1.04-.17-2.05-.21-3.01s-.05-1.61,0-1.94c.03-.27,.27-.47,.73-.61,.46-.14,.96-.21,1.51-.23s1.05,.03,1.5,.13c.45,.1,.69,.27,.72,.49,.07,.63,.11,1.44,.11,2.43,0,.99,0,1.96-.05,2.92s-.1,1.81-.18,2.54c-.08,.74-.17,1.17-.26,1.3Z"/><path class="cls-33" d="M71.15,140.48c.44,.37,.83,.73,1.17,1.08,.33,.35,.5,.61,.51,.79,0,.13-.07,.32-.22,.57s-.31,.5-.5,.75-.37,.47-.54,.66c-.17,.19-.29,.28-.36,.28-.28,.06-.69-.09-1.24-.44-.54-.35-.98-.59-1.31-.7-.32-.1-.5-.06-.52,.12,0,.32-.02,.56-.08,.72-.06,.17-.27,.27-.64,.31-.42,.04-.9,.07-1.43,.07-.54,0-.88,0-1.02-.04-.1-.02-.18-.07-.24-.17-.09-.12-.18-.66-.28-1.63-.1-.97-.18-2.02-.23-3.15-.06-1.13-.08-2.17-.08-3.11s.08-1.46,.21-1.53c.47-.27,1.11-.46,1.9-.58,.8-.12,1.59-.1,2.38,.06,.79,.16,1.5,.49,2.12,.99,.62,.5,1.01,1.23,1.14,2.19,.18,1.28-.07,2.2-.74,2.77Zm-3.28-1.25c.33-.03,.59-.16,.77-.37,.18-.21,.27-.43,.27-.66,0-.23-.11-.43-.31-.59s-.53-.23-.96-.18c-.36,.04-.5,.36-.42,.96s.29,.88,.66,.84Z"/><path class="cls-33" d="M73.39,144.47c-.08-.09-.13-.2-.13-.32,0-.43,.07-1.06,.22-1.92,.16-.85,.35-1.74,.59-2.67,.23-.92,.48-1.79,.75-2.59,.26-.81,.49-1.37,.69-1.7,.08-.13,.31-.24,.69-.34,.38-.1,.8-.17,1.26-.21,.46-.04,.9-.04,1.33,0,.43,.04,.72,.14,.89,.3,.24,.24,.53,.76,.86,1.56,.33,.8,.66,1.67,.98,2.62s.6,1.85,.85,2.72c.25,.87,.42,1.48,.5,1.84,.06,.26,.04,.45-.05,.55-.09,.1-.25,.17-.48,.21-.38,.07-.86,.11-1.43,.15-.57,.03-.92,.04-1.07,.02-.06,0-.11-.03-.16-.06-.16-.1-.31-.37-.45-.83-.15-.46-.29-.77-.43-.94-.08-.1-.19-.16-.33-.18h-1.07c-.33,0-.55,.11-.65,.33-.13,.28-.28,.58-.44,.92-.17,.34-.29,.55-.37,.62-.04,.05-.1,.08-.18,.1-.18,.04-.6,.05-1.26,.03-.66-.02-1.04-.09-1.13-.2Zm4.23-5.8c-.14,.15-.29,.41-.43,.77-.14,.36-.19,.6-.15,.71,.07,.19,.35,.28,.84,.26,.5-.02,.77-.14,.81-.36,.03-.14-.1-.45-.39-.93s-.52-.63-.69-.45Z"/><path class="cls-33" d="M89.87,140.48c.44,.37,.83,.73,1.17,1.08,.33,.35,.5,.61,.51,.79,0,.13-.07,.32-.22,.57s-.31,.5-.5,.75-.37,.47-.54,.66c-.17,.19-.29,.28-.36,.28-.28,.06-.69-.09-1.24-.44-.54-.35-.98-.59-1.31-.7-.32-.1-.5-.06-.52,.12,0,.32-.02,.56-.08,.72-.06,.17-.27,.27-.64,.31-.42,.04-.9,.07-1.43,.07-.54,0-.88,0-1.02-.04-.1-.02-.18-.07-.24-.17-.09-.12-.18-.66-.28-1.63-.1-.97-.18-2.02-.23-3.15-.06-1.13-.08-2.17-.08-3.11s.08-1.46,.21-1.53c.47-.27,1.11-.46,1.9-.58,.8-.12,1.59-.1,2.38,.06,.79,.16,1.5,.49,2.12,.99,.62,.5,1.01,1.23,1.14,2.19,.18,1.28-.07,2.2-.74,2.77Zm-3.28-1.25c.33-.03,.59-.16,.77-.37,.18-.21,.27-.43,.27-.66,0-.23-.11-.43-.31-.59s-.53-.23-.96-.18c-.36,.04-.5,.36-.42,.96s.29,.88,.66,.84Z"/><path class="cls-33" d="M104.78,139.18c-.15,.97-.59,1.79-1.32,2.44-.73,.65-1.59,.93-2.6,.84-.04,.5-.09,.93-.14,1.27-.05,.35-.11,.56-.18,.64-.09,.17-.54,.27-1.34,.31-.8,.04-1.37-.02-1.7-.16-.15-.07-.28-.5-.39-1.32-.12-.81-.21-1.73-.28-2.74s-.12-1.99-.14-2.93c-.02-.94-.02-1.57,.01-1.89,.03-.3,.28-.53,.75-.68,.47-.16,1.02-.26,1.64-.3,.62-.04,1.25-.03,1.88,.04,.63,.07,1.12,.18,1.47,.33,1.86,.79,2.63,2.18,2.33,4.16Zm-2.81-.79c-.1-.47-.42-.74-.95-.8-.1,0-.18,0-.24,0-.42,.07-.61,.37-.57,.9,.04,.53,.18,.87,.42,1.03,.1,.07,.26,.09,.48,.05,.32-.05,.56-.19,.71-.41,.16-.23,.21-.49,.15-.78Z"/><path class="cls-33" d="M105.79,144.47c-.08-.09-.13-.2-.13-.32,0-.43,.07-1.06,.22-1.92,.16-.85,.35-1.74,.59-2.67,.23-.92,.48-1.79,.75-2.59,.26-.81,.49-1.37,.69-1.7,.08-.13,.31-.24,.69-.34,.38-.1,.8-.17,1.26-.21,.46-.04,.9-.04,1.33,0,.43,.04,.72,.14,.89,.3,.24,.24,.53,.76,.86,1.56,.33,.8,.66,1.67,.98,2.62s.6,1.85,.85,2.72c.25,.87,.42,1.48,.5,1.84,.06,.26,.04,.45-.05,.55-.09,.1-.25,.17-.48,.21-.38,.07-.86,.11-1.43,.15-.57,.03-.92,.04-1.07,.02-.06,0-.11-.03-.16-.06-.16-.1-.31-.37-.45-.83-.15-.46-.29-.77-.43-.94-.08-.1-.19-.16-.33-.18h-1.07c-.33,0-.55,.11-.65,.33-.13,.28-.28,.58-.44,.92-.17,.34-.29,.55-.37,.62-.04,.05-.1,.08-.18,.1-.18,.04-.6,.05-1.26,.03-.66-.02-1.04-.09-1.13-.2Zm4.23-5.8c-.14,.15-.29,.41-.43,.77-.14,.36-.19,.6-.15,.71,.07,.19,.35,.28,.84,.26,.5-.02,.77-.14,.81-.36,.03-.14-.1-.45-.39-.93s-.52-.63-.69-.45Z"/><path class="cls-33" d="M122.27,140.48c.44,.37,.83,.73,1.17,1.08,.33,.35,.5,.61,.51,.79,0,.13-.07,.32-.22,.57s-.31,.5-.5,.75-.37,.47-.54,.66c-.17,.19-.29,.28-.36,.28-.28,.06-.69-.09-1.24-.44-.54-.35-.98-.59-1.31-.7-.32-.1-.5-.06-.52,.12,0,.32-.02,.56-.08,.72-.06,.17-.27,.27-.64,.31-.42,.04-.9,.07-1.43,.07-.54,0-.88,0-1.02-.04-.1-.02-.18-.07-.24-.17-.09-.12-.18-.66-.28-1.63-.1-.97-.18-2.02-.23-3.15-.06-1.13-.08-2.17-.08-3.11s.08-1.46,.21-1.53c.47-.27,1.11-.46,1.9-.58,.8-.12,1.59-.1,2.38,.06,.79,.16,1.5,.49,2.12,.99,.62,.5,1.01,1.23,1.14,2.19,.18,1.28-.07,2.2-.74,2.77Zm-3.28-1.25c.33-.03,.59-.16,.77-.37,.18-.21,.27-.43,.27-.66,0-.23-.11-.43-.31-.59s-.53-.23-.96-.18c-.36,.04-.5,.36-.42,.96s.29,.88,.66,.84Z"/><path class="cls-33" d="M124.51,144.47c-.08-.09-.13-.2-.13-.32,0-.43,.07-1.06,.22-1.92,.16-.85,.35-1.74,.59-2.67,.23-.92,.48-1.79,.75-2.59,.26-.81,.49-1.37,.69-1.7,.08-.13,.31-.24,.69-.34,.38-.1,.8-.17,1.26-.21,.46-.04,.91-.04,1.33,0,.43,.04,.72,.14,.89,.3,.24,.24,.53,.76,.87,1.56,.33,.8,.66,1.67,.97,2.62,.32,.94,.6,1.85,.86,2.72,.25,.87,.42,1.48,.5,1.84,.06,.26,.04,.45-.05,.55-.09,.1-.25,.17-.48,.21-.38,.07-.86,.11-1.43,.15s-.92,.04-1.07,.02c-.06,0-.11-.03-.16-.06-.16-.1-.31-.37-.45-.83-.15-.46-.29-.77-.43-.94-.08-.1-.19-.16-.33-.18h-1.07c-.33,0-.55,.11-.65,.33-.13,.28-.28,.58-.44,.92s-.29,.55-.37,.62c-.04,.05-.1,.08-.18,.1-.18,.04-.6,.05-1.26,.03-.66-.02-1.04-.09-1.13-.2Zm4.23-5.8c-.14,.15-.29,.41-.43,.77-.14,.36-.19,.6-.15,.71,.07,.19,.35,.28,.84,.26,.5-.02,.77-.14,.81-.36,.03-.14-.1-.45-.39-.93s-.52-.63-.68-.45Z"/><path class="cls-33" d="M147.05,141.74c-.48,1.14-1.24,1.93-2.28,2.35s-2.13,.63-3.28,.61c-.39,0-.77-.04-1.13-.08-.36-.05-.62-.1-.79-.17-.25-.1-.45-.63-.61-1.57-.15-.94-.24-1.97-.27-3.09s0-2.16,.09-3.12c.09-.96,.26-1.52,.51-1.68,.25-.16,.63-.27,1.13-.35,.81-.11,1.69-.1,2.64,.03,.95,.14,1.75,.47,2.4,.99,.86,.7,1.45,1.63,1.76,2.79,.32,1.16,.25,2.25-.18,3.28Zm-4.93-2.94c-.07,.24-.09,.59-.05,1.06,.04,.47,.14,.74,.29,.82,.07,.04,.21,.06,.42,.05,.34,0,.63-.09,.86-.23,.23-.15,.37-.36,.39-.65,.03-.35-.1-.66-.38-.91-.29-.25-.58-.39-.9-.42-.13,0-.25,0-.38,.03-.13,.03-.21,.11-.25,.25Z"/><path class="cls-33" d="M152.45,144.37c-.09,.18-.55,.28-1.36,.31-.82,.03-1.4-.02-1.73-.17-.15-.07-.3-.52-.43-1.35-.14-.84-.25-1.78-.35-2.82-.1-1.04-.16-2.05-.21-3.01s-.05-1.61,0-1.94c.03-.27,.28-.47,.73-.61s.96-.21,1.51-.23,1.05,.03,1.5,.13c.45,.1,.69,.27,.72,.49,.07,.63,.11,1.44,.11,2.43,0,.99,0,1.96-.05,2.92s-.1,1.81-.18,2.54-.17,1.17-.26,1.3Z"/><path class="cls-33" d="M160.59,140.48c.44,.37,.83,.73,1.17,1.08,.33,.35,.5,.61,.51,.79,0,.13-.07,.32-.21,.57-.14,.25-.31,.5-.5,.75s-.37,.47-.54,.66c-.17,.19-.29,.28-.36,.28-.28,.06-.7-.09-1.24-.44-.54-.35-.98-.59-1.31-.7-.32-.1-.5-.06-.52,.12,0,.32-.02,.56-.08,.72-.06,.17-.28,.27-.64,.31-.42,.04-.89,.07-1.43,.07s-.88,0-1.02-.04c-.1-.02-.18-.07-.24-.17-.09-.12-.18-.66-.28-1.63s-.18-2.02-.23-3.15-.08-2.17-.08-3.11,.08-1.46,.21-1.53c.47-.27,1.11-.46,1.9-.58,.8-.12,1.59-.1,2.38,.06,.79,.16,1.5,.49,2.12,.99,.62,.5,1.01,1.23,1.14,2.19,.18,1.28-.07,2.2-.74,2.77Zm-3.28-1.25c.33-.03,.59-.16,.77-.37,.18-.21,.27-.43,.27-.66s-.11-.43-.31-.59c-.21-.17-.53-.23-.96-.18-.36,.04-.5,.36-.42,.96s.29,.88,.66,.84Z"/><path class="cls-33" d="M166.86,141.2c.76,0,1.45-.03,2.06-.07,.61-.03,.97,0,1.08,.12,.12,.1,.2,.51,.26,1.26,.05,.74,.03,1.28-.06,1.61-.04,.14-.38,.26-1.02,.35-.64,.09-1.36,.15-2.15,.19s-1.56,.04-2.29,.02c-.73-.02-1.21-.08-1.43-.18-.13-.05-.24-.41-.32-1.06-.08-.65-.15-1.42-.2-2.3-.05-.88-.08-1.77-.08-2.69,0-.91,0-1.66,.03-2.23,0-.32,.03-.6,.08-.86,.05-.26,.13-.42,.24-.49,.11-.07,.49-.12,1.15-.17,.66-.05,1.37-.08,2.13-.09,.76-.01,1.46,0,2.11,.04,.65,.04,1.02,.1,1.12,.2,.12,.1,.18,.48,.2,1.14s-.03,1.16-.12,1.5c-.05,.16-.35,.26-.92,.29-.56,.04-1.22,.07-1.97,.1,0,.05,0,.11,0,.18,0,.07,0,.13,.01,.18,.49,0,.89,.05,1.2,.11,.07,.02,.15,.15,.22,.39s.12,.5,.15,.78c.03,.28,.03,.54,0,.79-.03,.24-.11,.37-.23,.39-.09,.03-.24,.05-.47,.07-.23,.02-.48,.03-.76,.04v.39Z"/><path class="cls-33" d="M175.03,144.37c-.09,.18-.55,.28-1.36,.31-.82,.03-1.4-.02-1.73-.17-.15-.07-.3-.52-.43-1.35-.14-.84-.25-1.78-.35-2.82-.1-1.04-.16-2.05-.21-3.01s-.05-1.61,0-1.94c.03-.27,.28-.47,.73-.61s.96-.21,1.51-.23,1.05,.03,1.5,.13c.45,.1,.69,.27,.72,.49,.07,.63,.11,1.44,.11,2.43,0,.99,0,1.96-.05,2.92s-.1,1.81-.18,2.54-.17,1.17-.26,1.3Z"/><path class="cls-33" d="M182.85,144.37c-.05,.09-.21,.16-.48,.21-.27,.05-.57,.09-.91,.1s-.67,0-1-.02c-.33-.03-.58-.08-.75-.15-.18-.08-.34-.72-.48-1.94-.14-1.21-.25-2.44-.32-3.68-.64-.01-1.2-.05-1.66-.1-.46-.05-.72-.13-.77-.24-.08-.17-.15-.43-.21-.8-.06-.37-.09-.75-.11-1.14s-.01-.74,0-1.05c.02-.31,.08-.49,.17-.54,.13-.1,.55-.18,1.28-.24,.73-.06,1.56-.1,2.51-.13,.94-.02,1.9-.03,2.88-.02,.97,.01,1.77,.04,2.4,.08,.25,.02,.42,.23,.51,.64,.09,.41,.12,.86,.1,1.35-.03,.49-.1,.94-.23,1.35-.12,.41-.27,.62-.45,.64-.17,.03-.43,.05-.79,.08-.37,.02-.78,.04-1.23,.06-.01,1.24-.06,2.43-.14,3.57s-.18,1.8-.31,1.97Z"/><path class="cls-33" d="M186.66,144.47c-.08-.09-.13-.2-.13-.32,0-.43,.07-1.06,.22-1.92,.16-.85,.35-1.74,.59-2.67,.24-.92,.48-1.79,.75-2.59,.26-.81,.49-1.37,.69-1.7,.08-.13,.31-.24,.69-.34,.38-.1,.8-.17,1.26-.21,.46-.04,.9-.04,1.33,0s.72,.14,.89,.3c.24,.24,.53,.76,.86,1.56,.33,.8,.66,1.67,.98,2.62,.32,.94,.6,1.85,.85,2.72,.25,.87,.42,1.48,.5,1.84,.06,.26,.04,.45-.05,.55-.09,.1-.25,.17-.48,.21-.38,.07-.86,.11-1.43,.15-.57,.03-.92,.04-1.07,.02-.06,0-.11-.03-.16-.06-.16-.1-.31-.37-.45-.83-.15-.46-.29-.77-.43-.94-.08-.1-.19-.16-.33-.18h-1.07c-.33,0-.55,.11-.65,.33-.13,.28-.28,.58-.44,.92-.17,.34-.29,.55-.37,.62-.04,.05-.1,.08-.18,.1-.18,.04-.6,.05-1.26,.03-.66-.02-1.04-.09-1.13-.2Zm4.23-5.8c-.14,.15-.29,.41-.43,.77-.14,.36-.19,.6-.15,.71,.07,.19,.35,.28,.84,.26,.5-.02,.77-.14,.81-.36,.03-.14-.1-.45-.39-.93s-.52-.63-.69-.45Z"/></g><g><g><polygon class="cls-20" points="133 62.66 134.56 57.22 135.72 61.89 133 62.66"/><path class="cls-13" d="M175.59,83.09c-1.66,5.96,4.31,10.93,9.6,7.99l31.63-17.59c1-.56,1.36-1.86,.79-2.85l-17.98-31.41c-3-5.25-10.69-4.09-12.35,1.87l-11.7,41.99Z"/><path class="cls-12" d="M183.89,75.6c-.87,3.09-4.23,4.75-7.21,3.55-.36-.14-.7-.27-1.05-.38-8.91-2.88-22.36,2.37-33.77,13.14-3.42,3.23-9.07,.75-9.07-3.95,0-8.23-.06-16.46-.07-23.59,0-1.16,.37-2.27,1.05-3.2,3.16-4.33,12.31-13.88,29.3-18.12,9.94-2.48,18.62-1.11,24.25,.48,2.86,.81,4.51,3.79,3.7,6.65-2.38,8.48-4.76,16.95-7.14,25.43Z"/><polygon class="cls-12" points="185.12 42.4 191.46 35.88 192.01 44.97 185.12 42.4"/><path class="cls-12" d="M176.02,82.87c-1.66,5.96,4.4,10.95,9.73,8.03l31.94-17.5c1.01-.55,1.37-1.85,.79-2.85l-18.28-31.5c-3.05-5.26-10.82-4.12-12.48,1.83l-11.7,41.99Z"/><path class="cls-10" d="M185.51,69.96c-.87,3.09-.73,6.12-3.7,4.92-.36-.14-4.21-1.64-4.55-1.75-8.91-2.88-22.36,2.37-33.77,13.14-3.42,3.23-9.07,.75-9.07-3.95,0-8.23-.06-16.46-.07-23.59,0-1.16,.37-2.27,1.05-3.2,3.16-4.33,12.31-13.88,29.3-18.12,9.94-2.48,18.64-1.19,24.25,.48,7.5,2.24,4.51,3.79,3.7,6.65-2.38,8.48-4.76,16.95-7.14,25.43Z"/><path class="cls-10" d="M180.42,79.88c-1.75,6.29,4.64,11.57,10.28,8.48l33.74-18.49c1.07-.58,1.45-1.96,.84-3.01l-19.31-33.28c-3.23-5.56-11.43-4.36-13.19,1.94l-12.37,44.37Z"/><path class="cls-10" d="M133,62.66c-.03,.08,0,2.63,0,5.64l3.61,.69-3.61-6.32Z"/></g><path class="cls-25" d="M183.84,75.85c-.87,3.09-4.23,4.75-7.21,3.55-.36-.14-.7-.27-1.05-.38-8.91-2.88-22.36,2.37-33.77,13.14-3.42,3.23-9.07,.75-9.07-3.95,0-8.23-.06-16.46-.07-23.59,0-1.16,.37-2.27,1.05-3.2,3.16-4.33,12.31-13.88,29.3-18.12,9.94-2.48,18.62-1.11,24.25,.48,2.86,.81,4.51,3.79,3.7,6.65-2.38,8.48-4.76,16.95-7.14,25.43Z"/><polygon class="cls-20" points="133 62.48 134.56 57.04 135.72 61.71 133 62.48"/><path class="cls-25" d="M175.59,82.91c-1.66,5.96,4.31,10.93,9.6,7.99l31.63-17.59c1-.56,1.36-1.86,.79-2.85l-17.98-31.41c-3-5.25-10.69-4.09-12.35,1.87l-11.7,41.99Z"/><path class="cls-20" d="M183.89,75.42c-.87,3.09-4.23,4.75-7.21,3.55-.36-.14-.7-.27-1.05-.38-8.91-2.88-22.36,2.37-33.77,13.14-3.42,3.23-9.07,.75-9.07-3.95,0-8.23-.06-16.46-.07-23.59,0-1.16,.37-2.27,1.05-3.2,3.16-4.33,12.31-13.88,29.3-18.12,9.94-2.48,18.62-1.11,24.25,.48,2.86,.81,4.51,3.79,3.7,6.65-2.38,8.48-4.76,16.95-7.14,25.43Z"/><polygon class="cls-25" points="188.87 38.04 195.16 31.51 195.67 40.59 188.87 38.04"/><polygon class="cls-20" points="189.31 37.82 195.65 31.31 196.2 40.4 189.31 37.82"/><path class="cls-20" d="M176.02,82.69c-1.66,5.96,4.4,10.95,9.73,8.03l31.94-17.5c1.01-.55,1.37-1.85,.79-2.85l-18.28-31.5c-3.05-5.26-10.82-4.12-12.48,1.83l-11.7,41.99Z"/><path class="cls-17" d="M185.51,69.78c-.87,3.09-.73,6.12-3.7,4.92-.36-.14-4.21-1.64-4.55-1.75-8.91-2.88-22.36,2.37-33.77,13.14-3.42,3.23-9.07,.75-9.07-3.95,0-8.23-.06-16.46-.07-23.59,0-1.16,.37-2.27,1.05-3.2,3.16-4.33,12.31-13.88,29.3-18.12,9.94-2.48,18.64-1.19,24.25,.48,7.5,2.24,4.51,3.79,3.7,6.65-2.38,8.48-4.76,16.95-7.14,25.43Z"/><path class="cls-17" d="M180.42,79.69c-1.75,6.29,4.64,11.57,10.28,8.48l33.74-18.49c1.07-.58,1.45-1.96,.84-3.01l-19.31-33.28c-3.23-5.56-11.43-4.36-13.19,1.94l-12.37,44.37Z"/><path class="cls-33" d="M182.08,78.27c-1.62,5.8,4.28,10.66,9.48,7.81l31.09-17.04c.98-.54,1.34-1.81,.77-2.77l-17.79-30.66c-2.97-5.13-10.53-4.01-12.15,1.78l-11.39,40.88Z"/><path class="cls-33" d="M190.23,71.71c-4.36,6.88,10.26,6.77-10.77-.24-10.61-3.54-24.58,2.08-34.27,10.46-3.21,2.78-7.9,1.54-7.91-2.68,0-7.38-.06-14.76-.06-21.16,0-1.04,.33-2.03,.95-2.87,2.87-3.88,11.19-12.45,26.63-16.25,9.03-2.22,17.02-1.43,22.13,0,2.6,.72,11.14,2.53,8.01,7.21-4.39,6.57-.48,18.85-4.71,25.53Z"/><path class="cls-22" d="M188.44,71.17c-4.15,6.57,10.56,5.54-9.48-1.11-10.11-3.36-23.95,1.87-33.16,9.88-3.06,2.66-7.54,2.55-7.55-1.47-.01-7.04,.05-13.98,.03-20.07,0-.99,.07-1.94,.66-2.74,2.73-3.7,10.52-12,25.22-15.64,8.6-2.13,17.17-1.56,22.05-.21,2.48,.69,12.38,3.22,9.4,7.68-4.18,6.27-3.15,17.32-7.17,23.69Z"/><path class="cls-29" d="M183.13,77.51c-1.54,5.52,3.97,10.12,8.86,7.39l29.23-16.32c.92-.52,1.26-1.72,.74-2.64l-16.58-29.09c-2.77-4.86-9.87-3.78-11.41,1.74l-10.85,38.91Z"/><path class="cls-3" d="M195.1,45.29c-.53,.85,.28-4.08,1.17-6.76,.63-1.9,1.45-3.3,2.05-3.73,1.2-.86,3.51-1.44,5.78,2.88,2.1,4.01,2.46,4.87,3.7,7.42,.23,.48-3.13-2.82-5.26-3.5-1.05-.34-2.4-.43-3.67,.04-2.19,.83-2.65,1.86-3.76,3.64Z"/><path class="cls-3" d="M141.19,60.14c-.09-.77-.17-1.28-.19-1.41-.34-2.48,4.78-8.9,14.18-13.53,3.14-1.55,11.09-5.34,21.22-4.49,4.2,.35,8.71,1.49,8.65,1.97-.05,.43-3.61,.02-7.78,.33-11.63,.85-20.34,7.06-22.54,8.72-7.59,5.76-12.18,13.61-13.22,12.9-.35-.24,.05-1.19-.33-4.5Z"/></g></g></svg>